  0
SECTION
  2
HEADER
  9
$ANGBASE
  50
0.0
  9
$ANGDIR
  70
1
  9
$MEASUREMENT
  70
0
  0
ENDSEC
  0
SECTION
  2
TABLES
  0
TABLE
  2
LTYPE
  70
4
  0
LTYPE
  5
40F
  2
CONTINUOUS
  70
0
  3
Solid line
  72
65
  73
0
  40
0.0
  0
LTYPE
  5
410
  2
DASHDOT
 70
0
  3
Dash Dot ____ _ ____ _
 72
65
 73
4
 40
2.0
 49
1.25
 49
-0.25
 49
0.25
 49
-0.25
  0
LTYPE
  5
411
  2
DASHED
 70
0
  3
Dashed __ __ __ __ __
 72
65
 73
2
 40
0.75
 49
0.5
 49
-0.25
  0
LTYPE
  5
43B
  2
DOTTED
 70
0
  3
Dotted .  .  .  .
 72
65
 73
2
 40
0.2
 49
0.0
 49
-0.2
  0
ENDTAB
  0
TABLE
  2
STYLE
  70
4
  0
STYLE
  2
KICAD
  70
0
  40
0
  41
1
  42
1
  50
0
  71
0
  3
isocp.shx
  0
STYLE
  2
KICADB
  70
0
  40
0
  41
1
  42
1
  50
0
  71
0
  3
isocp.shx
  0
STYLE
  2
KICADI
  70
0
  40
0
  41
1
  42
1
  50
15
  71
0
  3
isocp.shx
  0
STYLE
  2
KICADBI
  70
0
  40
0
  41
1
  42
1
  50
15
  71
0
  3
isocp.shx
  0
ENDTAB
  0
TABLE
  2
LAYER
  70
1
  0
LAYER
  2
BLACK
  70
0
  62
7
  6
CONTINUOUS
  0
ENDTAB
  0
ENDSEC
  0
SECTION
  2
ENTITIES
0
LINE
8
BLACK
6
CONTINUOUS
10
6.18264
20
-4.09104
11
6.18333
21
-4.09133
0
LINE
8
BLACK
6
CONTINUOUS
10
6.18333
20
-4.09133
11
6.18362
21
-4.09203
0
LINE
8
BLACK
6
CONTINUOUS
10
6.18362
20
-4.09203
11
6.18362
21
-4.54478
0
LINE
8
BLACK
6
CONTINUOUS
10
6.18362
20
-4.54478
11
6.18333
21
-4.54548
0
LINE
8
BLACK
6
CONTINUOUS
10
6.18333
20
-4.54548
11
6.18264
21
-4.54577
0
LINE
8
BLACK
6
CONTINUOUS
10
6.18264
20
-4.54577
11
5.88736
21
-4.54577
0
LINE
8
BLACK
6
CONTINUOUS
10
5.88736
20
-4.54577
11
5.88667
21
-4.54548
0
LINE
8
BLACK
6
CONTINUOUS
10
5.88667
20
-4.54548
11
5.88638
21
-4.54478
0
LINE
8
BLACK
6
CONTINUOUS
10
5.88638
20
-4.54478
11
5.88638
21
-4.09203
0
LINE
8
BLACK
6
CONTINUOUS
10
5.88638
20
-4.09203
11
5.88667
21
-4.09133
0
LINE
8
BLACK
6
CONTINUOUS
10
5.88667
20
-4.09133
11
5.88736
21
-4.09104
0
LINE
8
BLACK
6
CONTINUOUS
10
5.88736
20
-4.09104
11
6.18264
21
-4.09104
0
LINE
8
BLACK
6
CONTINUOUS
10
5.88835
20
-4.09301
11
5.88835
21
-4.5438
0
LINE
8
BLACK
6
CONTINUOUS
10
5.88835
20
-4.5438
11
6.18165
21
-4.5438
0
LINE
8
BLACK
6
CONTINUOUS
10
6.18165
20
-4.5438
11
6.18165
21
-4.09301
0
LINE
8
BLACK
6
CONTINUOUS
10
6.18165
20
-4.09301
11
5.88835
21
-4.09301
0
LINE
8
BLACK
6
CONTINUOUS
10
4.83563
20
-3.58024
11
4.84052
21
-3.58079
0
LINE
8
BLACK
6
CONTINUOUS
10
4.84052
20
-3.58079
11
4.84516
21
-3.58241
0
LINE
8
BLACK
6
CONTINUOUS
10
4.84516
20
-3.58241
11
4.84933
21
-3.58503
0
LINE
8
BLACK
6
CONTINUOUS
10
4.84933
20
-3.58503
11
4.85281
21
-3.58851
0
LINE
8
BLACK
6
CONTINUOUS
10
4.85281
20
-3.58851
11
4.85542
21
-3.59267
0
LINE
8
BLACK
6
CONTINUOUS
10
4.85542
20
-3.59267
11
4.85705
21
-3.59732
0
LINE
8
BLACK
6
CONTINUOUS
10
4.85705
20
-3.59732
11
4.8576
21
-3.6022
0
LINE
8
BLACK
6
CONTINUOUS
10
4.8576
20
-3.6022
11
4.8576
21
-4.0022
0
LINE
8
BLACK
6
CONTINUOUS
10
4.8576
20
-4.0022
11
4.85705
21
-4.00709
0
LINE
8
BLACK
6
CONTINUOUS
10
4.85705
20
-4.00709
11
4.85542
21
-4.01174
0
LINE
8
BLACK
6
CONTINUOUS
10
4.85542
20
-4.01174
11
4.85281
21
-4.0159
0
LINE
8
BLACK
6
CONTINUOUS
10
4.85281
20
-4.0159
11
4.84933
21
-4.01938
0
LINE
8
BLACK
6
CONTINUOUS
10
4.84933
20
-4.01938
11
4.84516
21
-4.022
0
LINE
8
BLACK
6
CONTINUOUS
10
4.84516
20
-4.022
11
4.84052
21
-4.02362
0
LINE
8
BLACK
6
CONTINUOUS
10
4.84052
20
-4.02362
11
4.83563
21
-4.02417
0
LINE
8
BLACK
6
CONTINUOUS
10
4.83563
20
-4.02417
11
4.50063
21
-4.02417
0
LINE
8
BLACK
6
CONTINUOUS
10
4.50063
20
-4.02417
11
4.49574
21
-4.02362
0
LINE
8
BLACK
6
CONTINUOUS
10
4.49574
20
-4.02362
11
4.4911
21
-4.022
0
LINE
8
BLACK
6
CONTINUOUS
10
4.4911
20
-4.022
11
4.48693
21
-4.01938
0
LINE
8
BLACK
6
CONTINUOUS
10
4.48693
20
-4.01938
11
4.48345
21
-4.0159
0
LINE
8
BLACK
6
CONTINUOUS
10
4.48345
20
-4.0159
11
4.48084
21
-4.01174
0
LINE
8
BLACK
6
CONTINUOUS
10
4.48084
20
-4.01174
11
4.47921
21
-4.00709
0
LINE
8
BLACK
6
CONTINUOUS
10
4.47921
20
-4.00709
11
4.47866
21
-4.0022
0
LINE
8
BLACK
6
CONTINUOUS
10
4.47866
20
-4.0022
11
4.47866
21
-3.6022
0
LINE
8
BLACK
6
CONTINUOUS
10
4.47866
20
-3.6022
11
4.47921
21
-3.59732
0
LINE
8
BLACK
6
CONTINUOUS
10
4.47921
20
-3.59732
11
4.48084
21
-3.59267
0
LINE
8
BLACK
6
CONTINUOUS
10
4.48084
20
-3.59267
11
4.48345
21
-3.58851
0
LINE
8
BLACK
6
CONTINUOUS
10
4.48345
20
-3.58851
11
4.48693
21
-3.58503
0
LINE
8
BLACK
6
CONTINUOUS
10
4.48693
20
-3.58503
11
4.4911
21
-3.58241
0
LINE
8
BLACK
6
CONTINUOUS
10
4.4911
20
-3.58241
11
4.49574
21
-3.58079
0
LINE
8
BLACK
6
CONTINUOUS
10
4.49574
20
-3.58079
11
4.50063
21
-3.58024
0
LINE
8
BLACK
6
CONTINUOUS
10
4.50063
20
-3.58024
11
4.83563
21
-3.58024
0
LINE
8
BLACK
6
CONTINUOUS
10
4.50063
20
-3.58417
11
4.49826
21
-3.58417
0
LINE
8
BLACK
6
CONTINUOUS
10
4.49826
20
-3.58417
11
4.49367
21
-3.5854
0
LINE
8
BLACK
6
CONTINUOUS
10
4.49367
20
-3.5854
11
4.48956
21
-3.58778
0
LINE
8
BLACK
6
CONTINUOUS
10
4.48956
20
-3.58778
11
4.4862
21
-3.59113
0
LINE
8
BLACK
6
CONTINUOUS
10
4.4862
20
-3.59113
11
4.48383
21
-3.59524
0
LINE
8
BLACK
6
CONTINUOUS
10
4.48383
20
-3.59524
11
4.4826
21
-3.59983
0
LINE
8
BLACK
6
CONTINUOUS
10
4.4826
20
-3.59983
11
4.4826
21
-3.6022
0
LINE
8
BLACK
6
CONTINUOUS
10
4.4826
20
-3.6022
11
4.4826
21
-4.0022
0
LINE
8
BLACK
6
CONTINUOUS
10
4.4826
20
-4.0022
11
4.4826
21
-4.00458
0
LINE
8
BLACK
6
CONTINUOUS
10
4.4826
20
-4.00458
11
4.48383
21
-4.00916
0
LINE
8
BLACK
6
CONTINUOUS
10
4.48383
20
-4.00916
11
4.4862
21
-4.01328
0
LINE
8
BLACK
6
CONTINUOUS
10
4.4862
20
-4.01328
11
4.48956
21
-4.01663
0
LINE
8
BLACK
6
CONTINUOUS
10
4.48956
20
-4.01663
11
4.49367
21
-4.01901
0
LINE
8
BLACK
6
CONTINUOUS
10
4.49367
20
-4.01901
11
4.49826
21
-4.02024
0
LINE
8
BLACK
6
CONTINUOUS
10
4.49826
20
-4.02024
11
4.50063
21
-4.02024
0
LINE
8
BLACK
6
CONTINUOUS
10
4.50063
20
-4.02024
11
4.83563
21
-4.02024
0
LINE
8
BLACK
6
CONTINUOUS
10
4.83563
20
-4.02024
11
4.838
21
-4.02024
0
LINE
8
BLACK
6
CONTINUOUS
10
4.838
20
-4.02024
11
4.84259
21
-4.01901
0
LINE
8
BLACK
6
CONTINUOUS
10
4.84259
20
-4.01901
11
4.8467
21
-4.01663
0
LINE
8
BLACK
6
CONTINUOUS
10
4.8467
20
-4.01663
11
4.85006
21
-4.01328
0
LINE
8
BLACK
6
CONTINUOUS
10
4.85006
20
-4.01328
11
4.85243
21
-4.00916
0
LINE
8
BLACK
6
CONTINUOUS
10
4.85243
20
-4.00916
11
4.85366
21
-4.00458
0
LINE
8
BLACK
6
CONTINUOUS
10
4.85366
20
-4.00458
11
4.85366
21
-4.0022
0
LINE
8
BLACK
6
CONTINUOUS
10
4.85366
20
-4.0022
11
4.85366
21
-3.6022
0
LINE
8
BLACK
6
CONTINUOUS
10
4.85366
20
-3.6022
11
4.85366
21
-3.59983
0
LINE
8
BLACK
6
CONTINUOUS
10
4.85366
20
-3.59983
11
4.85243
21
-3.59524
0
LINE
8
BLACK
6
CONTINUOUS
10
4.85243
20
-3.59524
11
4.85006
21
-3.59113
0
LINE
8
BLACK
6
CONTINUOUS
10
4.85006
20
-3.59113
11
4.8467
21
-3.58778
0
LINE
8
BLACK
6
CONTINUOUS
10
4.8467
20
-3.58778
11
4.84259
21
-3.5854
0
LINE
8
BLACK
6
CONTINUOUS
10
4.84259
20
-3.5854
11
4.838
21
-3.58417
0
LINE
8
BLACK
6
CONTINUOUS
10
4.838
20
-3.58417
11
4.83563
21
-3.58417
0
LINE
8
BLACK
6
CONTINUOUS
10
4.83563
20
-3.58417
11
4.50063
21
-3.58417
0
LINE
8
BLACK
6
CONTINUOUS
10
5.34751
20
-2.52054
11
5.34753
21
-2.52053
0
LINE
8
BLACK
6
CONTINUOUS
10
5.34753
20
-2.52053
11
5.45317
21
-2.52186
0
LINE
8
BLACK
6
CONTINUOUS
10
5.45317
20
-2.52186
11
5.4532
21
-2.52188
0
LINE
8
BLACK
6
CONTINUOUS
10
5.4532
20
-2.52188
11
5.45322
21
-2.52187
0
LINE
8
BLACK
6
CONTINUOUS
10
5.45322
20
-2.52187
11
5.55448
21
-2.52565
0
LINE
8
BLACK
6
CONTINUOUS
10
5.55448
20
-2.52565
11
5.5545
21
-2.52566
0
LINE
8
BLACK
6
CONTINUOUS
10
5.5545
20
-2.52566
11
5.55452
21
-2.52566
0
LINE
8
BLACK
6
CONTINUOUS
10
5.55452
20
-2.52566
11
5.65116
21
-2.53158
0
LINE
8
BLACK
6
CONTINUOUS
10
5.65116
20
-2.53158
11
5.65118
21
-2.53159
0
LINE
8
BLACK
6
CONTINUOUS
10
5.65118
20
-2.53159
11
5.6512
21
-2.53158
0
LINE
8
BLACK
6
CONTINUOUS
10
5.6512
20
-2.53158
11
5.74298
21
-2.53932
0
LINE
8
BLACK
6
CONTINUOUS
10
5.74298
20
-2.53932
11
5.74299
21
-2.53932
0
LINE
8
BLACK
6
CONTINUOUS
10
5.74299
20
-2.53932
11
5.743
21
-2.53932
0
LINE
8
BLACK
6
CONTINUOUS
10
5.743
20
-2.53932
11
5.81419
21
-2.54604
0
LINE
8
BLACK
6
CONTINUOUS
10
5.81419
20
-2.54604
11
5.81474
21
-2.54634
0
LINE
8
BLACK
6
CONTINUOUS
10
5.81474
20
-2.54634
11
5.824
21
-2.54749
0
LINE
8
BLACK
6
CONTINUOUS
10
5.824
20
-2.54749
11
5.83365
21
-2.54997
0
LINE
8
BLACK
6
CONTINUOUS
10
5.83365
20
-2.54997
11
5.8429
21
-2.55367
0
LINE
8
BLACK
6
CONTINUOUS
10
5.8429
20
-2.55367
11
5.85161
21
-2.55853
0
LINE
8
BLACK
6
CONTINUOUS
10
5.85161
20
-2.55853
11
5.85962
21
-2.56446
0
LINE
8
BLACK
6
CONTINUOUS
10
5.85962
20
-2.56446
11
5.8668
21
-2.57137
0
LINE
8
BLACK
6
CONTINUOUS
10
5.8668
20
-2.57137
11
5.87304
21
-2.57914
0
LINE
8
BLACK
6
CONTINUOUS
10
5.87304
20
-2.57914
11
5.87824
21
-2.58765
0
LINE
8
BLACK
6
CONTINUOUS
10
5.87824
20
-2.58765
11
5.8823
21
-2.59675
0
LINE
8
BLACK
6
CONTINUOUS
10
5.8823
20
-2.59675
11
5.88516
21
-2.6063
0
LINE
8
BLACK
6
CONTINUOUS
10
5.88516
20
-2.6063
11
5.88678
21
-2.61613
0
LINE
8
BLACK
6
CONTINUOUS
10
5.88678
20
-2.61613
11
5.88713
21
-2.62609
0
LINE
8
BLACK
6
CONTINUOUS
10
5.88713
20
-2.62609
11
5.88713
21
-2.62609
0
LINE
8
BLACK
6
CONTINUOUS
10
5.88713
20
-2.62609
11
5.88705
21
-2.62631
0
LINE
8
BLACK
6
CONTINUOUS
10
5.88705
20
-2.62631
11
5.88708
21
-2.62648
0
LINE
8
BLACK
6
CONTINUOUS
10
5.88708
20
-2.62648
11
5.87692
21
-2.67041
0
LINE
8
BLACK
6
CONTINUOUS
10
5.87692
20
-2.67041
11
5.87575
21
-2.6763
0
LINE
8
BLACK
6
CONTINUOUS
10
5.87575
20
-2.6763
11
5.87482
21
-2.68832
0
LINE
8
BLACK
6
CONTINUOUS
10
5.87482
20
-2.68832
11
5.87534
21
-2.70037
0
LINE
8
BLACK
6
CONTINUOUS
10
5.87534
20
-2.70037
11
5.87731
21
-2.71227
0
LINE
8
BLACK
6
CONTINUOUS
10
5.87731
20
-2.71227
11
5.8807
21
-2.72385
0
LINE
8
BLACK
6
CONTINUOUS
10
5.8807
20
-2.72385
11
5.88545
21
-2.73493
0
LINE
8
BLACK
6
CONTINUOUS
10
5.88545
20
-2.73493
11
5.89149
21
-2.74537
0
LINE
8
BLACK
6
CONTINUOUS
10
5.89149
20
-2.74537
11
5.89875
21
-2.755
0
LINE
8
BLACK
6
CONTINUOUS
10
5.89875
20
-2.755
11
5.90711
21
-2.76369
0
LINE
8
BLACK
6
CONTINUOUS
10
5.90711
20
-2.76369
11
5.91646
21
-2.77131
0
LINE
8
BLACK
6
CONTINUOUS
10
5.91646
20
-2.77131
11
5.92665
21
-2.77776
0
LINE
8
BLACK
6
CONTINUOUS
10
5.92665
20
-2.77776
11
5.93755
21
-2.78293
0
LINE
8
BLACK
6
CONTINUOUS
10
5.93755
20
-2.78293
11
5.94898
21
-2.78676
0
LINE
8
BLACK
6
CONTINUOUS
10
5.94898
20
-2.78676
11
5.9608
21
-2.78918
0
LINE
8
BLACK
6
CONTINUOUS
10
5.9608
20
-2.78918
11
5.97282
21
-2.79017
0
LINE
8
BLACK
6
CONTINUOUS
10
5.97282
20
-2.79017
11
5.98487
21
-2.78971
0
LINE
8
BLACK
6
CONTINUOUS
10
5.98487
20
-2.78971
11
5.99678
21
-2.7878
0
LINE
8
BLACK
6
CONTINUOUS
10
5.99678
20
-2.7878
11
6.00837
21
-2.78447
0
LINE
8
BLACK
6
CONTINUOUS
10
6.00837
20
-2.78447
11
6.01948
21
-2.77978
0
LINE
8
BLACK
6
CONTINUOUS
10
6.01948
20
-2.77978
11
6.02994
21
-2.77379
0
LINE
8
BLACK
6
CONTINUOUS
10
6.02994
20
-2.77379
11
6.03961
21
-2.76658
0
LINE
8
BLACK
6
CONTINUOUS
10
6.03961
20
-2.76658
11
6.04835
21
-2.75826
0
LINE
8
BLACK
6
CONTINUOUS
10
6.04835
20
-2.75826
11
6.05602
21
-2.74895
0
LINE
8
BLACK
6
CONTINUOUS
10
6.05602
20
-2.74895
11
6.06251
21
-2.73879
0
LINE
8
BLACK
6
CONTINUOUS
10
6.06251
20
-2.73879
11
6.06774
21
-2.72792
0
LINE
8
BLACK
6
CONTINUOUS
10
6.06774
20
-2.72792
11
6.07163
21
-2.7165
0
LINE
8
BLACK
6
CONTINUOUS
10
6.07163
20
-2.7165
11
6.07287
21
-2.7106
0
LINE
8
BLACK
6
CONTINUOUS
10
6.07287
20
-2.7106
11
6.07287
21
-2.7106
0
LINE
8
BLACK
6
CONTINUOUS
10
6.07287
20
-2.7106
11
6.07288
21
-2.71058
0
LINE
8
BLACK
6
CONTINUOUS
10
6.07288
20
-2.71058
11
6.07288
21
-2.71056
0
LINE
8
BLACK
6
CONTINUOUS
10
6.07288
20
-2.71056
11
6.08645
21
-2.65265
0
LINE
8
BLACK
6
CONTINUOUS
10
6.08645
20
-2.65265
11
6.08654
21
-2.65252
0
LINE
8
BLACK
6
CONTINUOUS
10
6.08654
20
-2.65252
11
6.08656
21
-2.65231
0
LINE
8
BLACK
6
CONTINUOUS
10
6.08656
20
-2.65231
11
6.08656
21
-2.65231
0
LINE
8
BLACK
6
CONTINUOUS
10
6.08656
20
-2.65231
11
6.09086
21
-2.64404
0
LINE
8
BLACK
6
CONTINUOUS
10
6.09086
20
-2.64404
11
6.09623
21
-2.63641
0
LINE
8
BLACK
6
CONTINUOUS
10
6.09623
20
-2.63641
11
6.10258
21
-2.62958
0
LINE
8
BLACK
6
CONTINUOUS
10
6.10258
20
-2.62958
11
6.10978
21
-2.62366
0
LINE
8
BLACK
6
CONTINUOUS
10
6.10978
20
-2.62366
11
6.11772
21
-2.61877
0
LINE
8
BLACK
6
CONTINUOUS
10
6.11772
20
-2.61877
11
6.12625
21
-2.61498
0
LINE
8
BLACK
6
CONTINUOUS
10
6.12625
20
-2.61498
11
6.1352
21
-2.61238
0
LINE
8
BLACK
6
CONTINUOUS
10
6.1352
20
-2.61238
11
6.14443
21
-2.611
0
LINE
8
BLACK
6
CONTINUOUS
10
6.14443
20
-2.611
11
6.15375
21
-2.61088
0
LINE
8
BLACK
6
CONTINUOUS
10
6.15375
20
-2.61088
11
6.16301
21
-2.61201
0
LINE
8
BLACK
6
CONTINUOUS
10
6.16301
20
-2.61201
11
6.17203
21
-2.61438
0
LINE
8
BLACK
6
CONTINUOUS
10
6.17203
20
-2.61438
11
6.18057
21
-2.6179
0
LINE
8
BLACK
6
CONTINUOUS
10
6.18057
20
-2.6179
11
6.18058
21
-2.6179
0
LINE
8
BLACK
6
CONTINUOUS
10
6.18058
20
-2.6179
11
6.22668
21
-2.63831
0
LINE
8
BLACK
6
CONTINUOUS
10
6.22668
20
-2.63831
11
6.22675
21
-2.63837
0
LINE
8
BLACK
6
CONTINUOUS
10
6.22675
20
-2.63837
11
6.22684
21
-2.63838
0
LINE
8
BLACK
6
CONTINUOUS
10
6.22684
20
-2.63838
11
6.26521
21
-2.65954
0
LINE
8
BLACK
6
CONTINUOUS
10
6.26521
20
-2.65954
11
6.26526
21
-2.6596
0
LINE
8
BLACK
6
CONTINUOUS
10
6.26526
20
-2.6596
11
6.26534
21
-2.65962
0
LINE
8
BLACK
6
CONTINUOUS
10
6.26534
20
-2.65962
11
6.30184
21
-2.68344
0
LINE
8
BLACK
6
CONTINUOUS
10
6.30184
20
-2.68344
11
6.30188
21
-2.68351
0
LINE
8
BLACK
6
CONTINUOUS
10
6.30188
20
-2.68351
11
6.30196
21
-2.68353
0
LINE
8
BLACK
6
CONTINUOUS
10
6.30196
20
-2.68353
11
6.33643
21
-2.70992
0
LINE
8
BLACK
6
CONTINUOUS
10
6.33643
20
-2.70992
11
6.33647
21
-2.70999
0
LINE
8
BLACK
6
CONTINUOUS
10
6.33647
20
-2.70999
11
6.33655
21
-2.71001
0
LINE
8
BLACK
6
CONTINUOUS
10
6.33655
20
-2.71001
11
6.36886
21
-2.73888
0
LINE
8
BLACK
6
CONTINUOUS
10
6.36886
20
-2.73888
11
6.36889
21
-2.73895
0
LINE
8
BLACK
6
CONTINUOUS
10
6.36889
20
-2.73895
11
6.36897
21
-2.73898
0
LINE
8
BLACK
6
CONTINUOUS
10
6.36897
20
-2.73898
11
6.39896
21
-2.77023
0
LINE
8
BLACK
6
CONTINUOUS
10
6.39896
20
-2.77023
11
6.39899
21
-2.77031
0
LINE
8
BLACK
6
CONTINUOUS
10
6.39899
20
-2.77031
11
6.39907
21
-2.77034
0
LINE
8
BLACK
6
CONTINUOUS
10
6.39907
20
-2.77034
11
6.4266
21
-2.80388
0
LINE
8
BLACK
6
CONTINUOUS
10
6.4266
20
-2.80388
11
6.42662
21
-2.80394
0
LINE
8
BLACK
6
CONTINUOUS
10
6.42662
20
-2.80394
11
6.42667
21
-2.80397
0
LINE
8
BLACK
6
CONTINUOUS
10
6.42667
20
-2.80397
11
6.43948
21
-2.82157
0
LINE
8
BLACK
6
CONTINUOUS
10
6.43948
20
-2.82157
11
6.43949
21
-2.82161
0
LINE
8
BLACK
6
CONTINUOUS
10
6.43949
20
-2.82161
11
6.43952
21
-2.82163
0
LINE
8
BLACK
6
CONTINUOUS
10
6.43952
20
-2.82163
11
6.45166
21
-2.83977
0
LINE
8
BLACK
6
CONTINUOUS
10
6.45166
20
-2.83977
11
6.45166
21
-2.83981
0
LINE
8
BLACK
6
CONTINUOUS
10
6.45166
20
-2.83981
11
6.4517
21
-2.83983
0
LINE
8
BLACK
6
CONTINUOUS
10
6.4517
20
-2.83983
11
6.46314
21
-2.85849
0
LINE
8
BLACK
6
CONTINUOUS
10
6.46314
20
-2.85849
11
6.46315
21
-2.85853
0
LINE
8
BLACK
6
CONTINUOUS
10
6.46315
20
-2.85853
11
6.46318
21
-2.85856
0
LINE
8
BLACK
6
CONTINUOUS
10
6.46318
20
-2.85856
11
6.47392
21
-2.87774
0
LINE
8
BLACK
6
CONTINUOUS
10
6.47392
20
-2.87774
11
6.47393
21
-2.87778
0
LINE
8
BLACK
6
CONTINUOUS
10
6.47393
20
-2.87778
11
6.47396
21
-2.8778
0
LINE
8
BLACK
6
CONTINUOUS
10
6.47396
20
-2.8778
11
6.48398
21
-2.89748
0
LINE
8
BLACK
6
CONTINUOUS
10
6.48398
20
-2.89748
11
6.48398
21
-2.89752
0
LINE
8
BLACK
6
CONTINUOUS
10
6.48398
20
-2.89752
11
6.48401
21
-2.89755
0
LINE
8
BLACK
6
CONTINUOUS
10
6.48401
20
-2.89755
11
6.49329
21
-2.91772
0
LINE
8
BLACK
6
CONTINUOUS
10
6.49329
20
-2.91772
11
6.49329
21
-2.91776
0
LINE
8
BLACK
6
CONTINUOUS
10
6.49329
20
-2.91776
11
6.49332
21
-2.91779
0
LINE
8
BLACK
6
CONTINUOUS
10
6.49332
20
-2.91779
11
6.50184
21
-2.93844
0
LINE
8
BLACK
6
CONTINUOUS
10
6.50184
20
-2.93844
11
6.50184
21
-2.93848
0
LINE
8
BLACK
6
CONTINUOUS
10
6.50184
20
-2.93848
11
6.50187
21
-2.93851
0
LINE
8
BLACK
6
CONTINUOUS
10
6.50187
20
-2.93851
11
6.5096
21
-2.95963
0
LINE
8
BLACK
6
CONTINUOUS
10
6.5096
20
-2.95963
11
6.5096
21
-2.95967
0
LINE
8
BLACK
6
CONTINUOUS
10
6.5096
20
-2.95967
11
6.50963
21
-2.9597
0
LINE
8
BLACK
6
CONTINUOUS
10
6.50963
20
-2.9597
11
6.51657
21
-2.98127
0
LINE
8
BLACK
6
CONTINUOUS
10
6.51657
20
-2.98127
11
6.51657
21
-2.98131
0
LINE
8
BLACK
6
CONTINUOUS
10
6.51657
20
-2.98131
11
6.5166
21
-2.98135
0
LINE
8
BLACK
6
CONTINUOUS
10
6.5166
20
-2.98135
11
6.52272
21
-3.00336
0
LINE
8
BLACK
6
CONTINUOUS
10
6.52272
20
-3.00336
11
6.52272
21
-3.0034
0
LINE
8
BLACK
6
CONTINUOUS
10
6.52272
20
-3.0034
11
6.52274
21
-3.00344
0
LINE
8
BLACK
6
CONTINUOUS
10
6.52274
20
-3.00344
11
6.52804
21
-3.02588
0
LINE
8
BLACK
6
CONTINUOUS
10
6.52804
20
-3.02588
11
6.52803
21
-3.02593
0
LINE
8
BLACK
6
CONTINUOUS
10
6.52803
20
-3.02593
11
6.52806
21
-3.02596
0
LINE
8
BLACK
6
CONTINUOUS
10
6.52806
20
-3.02596
11
6.5325
21
-3.04883
0
LINE
8
BLACK
6
CONTINUOUS
10
6.5325
20
-3.04883
11
6.53249
21
-3.04886
0
LINE
8
BLACK
6
CONTINUOUS
10
6.53249
20
-3.04886
11
6.53251
21
-3.04889
0
LINE
8
BLACK
6
CONTINUOUS
10
6.53251
20
-3.04889
11
6.54325
21
-3.11506
0
LINE
8
BLACK
6
CONTINUOUS
10
6.54325
20
-3.11506
11
6.54324
21
-3.11508
0
LINE
8
BLACK
6
CONTINUOUS
10
6.54324
20
-3.11508
11
6.54326
21
-3.1151
0
LINE
8
BLACK
6
CONTINUOUS
10
6.54326
20
-3.1151
11
6.55336
21
-3.18757
0
LINE
8
BLACK
6
CONTINUOUS
10
6.55336
20
-3.18757
11
6.55336
21
-3.18759
0
LINE
8
BLACK
6
CONTINUOUS
10
6.55336
20
-3.18759
11
6.55337
21
-3.18761
0
LINE
8
BLACK
6
CONTINUOUS
10
6.55337
20
-3.18761
11
6.5626
21
-3.26646
0
LINE
8
BLACK
6
CONTINUOUS
10
6.5626
20
-3.26646
11
6.56259
21
-3.26648
0
LINE
8
BLACK
6
CONTINUOUS
10
6.56259
20
-3.26648
11
6.5626
21
-3.2665
0
LINE
8
BLACK
6
CONTINUOUS
10
6.5626
20
-3.2665
11
6.57071
21
-3.35184
0
LINE
8
BLACK
6
CONTINUOUS
10
6.57071
20
-3.35184
11
6.57071
21
-3.35186
0
LINE
8
BLACK
6
CONTINUOUS
10
6.57071
20
-3.35186
11
6.57072
21
-3.35188
0
LINE
8
BLACK
6
CONTINUOUS
10
6.57072
20
-3.35188
11
6.57745
21
-3.44378
0
LINE
8
BLACK
6
CONTINUOUS
10
6.57745
20
-3.44378
11
6.57745
21
-3.4438
0
LINE
8
BLACK
6
CONTINUOUS
10
6.57745
20
-3.4438
11
6.57746
21
-3.44382
0
LINE
8
BLACK
6
CONTINUOUS
10
6.57746
20
-3.44382
11
6.58257
21
-3.54239
0
LINE
8
BLACK
6
CONTINUOUS
10
6.58257
20
-3.54239
11
6.58257
21
-3.54242
0
LINE
8
BLACK
6
CONTINUOUS
10
6.58257
20
-3.54242
11
6.58258
21
-3.54244
0
LINE
8
BLACK
6
CONTINUOUS
10
6.58258
20
-3.54244
11
6.58583
21
-3.64776
0
LINE
8
BLACK
6
CONTINUOUS
10
6.58583
20
-3.64776
11
6.58582
21
-3.64778
0
LINE
8
BLACK
6
CONTINUOUS
10
6.58582
20
-3.64778
11
6.58583
21
-3.6478
0
LINE
8
BLACK
6
CONTINUOUS
10
6.58583
20
-3.6478
11
6.58697
21
-3.75998
0
LINE
8
BLACK
6
CONTINUOUS
10
6.58697
20
-3.75998
11
6.58696
21
-3.76
0
LINE
8
BLACK
6
CONTINUOUS
10
6.58696
20
-3.76
11
6.58697
21
-3.76002
0
LINE
8
BLACK
6
CONTINUOUS
10
6.58697
20
-3.76002
11
6.58577
21
-3.8748
0
LINE
8
BLACK
6
CONTINUOUS
10
6.58577
20
-3.8748
11
6.58577
21
-3.87482
0
LINE
8
BLACK
6
CONTINUOUS
10
6.58577
20
-3.87482
11
6.58577
21
-3.87484
0
LINE
8
BLACK
6
CONTINUOUS
10
6.58577
20
-3.87484
11
6.58237
21
-3.98243
0
LINE
8
BLACK
6
CONTINUOUS
10
6.58237
20
-3.98243
11
6.58236
21
-3.98246
0
LINE
8
BLACK
6
CONTINUOUS
10
6.58236
20
-3.98246
11
6.58237
21
-3.98248
0
LINE
8
BLACK
6
CONTINUOUS
10
6.58237
20
-3.98248
11
6.57702
21
-4.08299
0
LINE
8
BLACK
6
CONTINUOUS
10
6.57702
20
-4.08299
11
6.57701
21
-4.08301
0
LINE
8
BLACK
6
CONTINUOUS
10
6.57701
20
-4.08301
11
6.57702
21
-4.08304
0
LINE
8
BLACK
6
CONTINUOUS
10
6.57702
20
-4.08304
11
6.57
21
-4.17657
0
LINE
8
BLACK
6
CONTINUOUS
10
6.57
20
-4.17657
11
6.56999
21
-4.17659
0
LINE
8
BLACK
6
CONTINUOUS
10
6.56999
20
-4.17659
11
6.56999
21
-4.17662
0
LINE
8
BLACK
6
CONTINUOUS
10
6.56999
20
-4.17662
11
6.56156
21
-4.26327
0
LINE
8
BLACK
6
CONTINUOUS
10
6.56156
20
-4.26327
11
6.56154
21
-4.26329
0
LINE
8
BLACK
6
CONTINUOUS
10
6.56154
20
-4.26329
11
6.56155
21
-4.26331
0
LINE
8
BLACK
6
CONTINUOUS
10
6.56155
20
-4.26331
11
6.55197
21
-4.34319
0
LINE
8
BLACK
6
CONTINUOUS
10
6.55197
20
-4.34319
11
6.55196
21
-4.34321
0
LINE
8
BLACK
6
CONTINUOUS
10
6.55196
20
-4.34321
11
6.55196
21
-4.34323
0
LINE
8
BLACK
6
CONTINUOUS
10
6.55196
20
-4.34323
11
6.5415
21
-4.41642
0
LINE
8
BLACK
6
CONTINUOUS
10
6.5415
20
-4.41642
11
6.54148
21
-4.41644
0
LINE
8
BLACK
6
CONTINUOUS
10
6.54148
20
-4.41644
11
6.54149
21
-4.41646
0
LINE
8
BLACK
6
CONTINUOUS
10
6.54149
20
-4.41646
11
6.53041
21
-4.48307
0
LINE
8
BLACK
6
CONTINUOUS
10
6.53041
20
-4.48307
11
6.53039
21
-4.4831
0
LINE
8
BLACK
6
CONTINUOUS
10
6.53039
20
-4.4831
11
6.5304
21
-4.48313
0
LINE
8
BLACK
6
CONTINUOUS
10
6.5304
20
-4.48313
11
6.52601
21
-4.50525
0
LINE
8
BLACK
6
CONTINUOUS
10
6.52601
20
-4.50525
11
6.52597
21
-4.50531
0
LINE
8
BLACK
6
CONTINUOUS
10
6.52597
20
-4.50531
11
6.52598
21
-4.50538
0
LINE
8
BLACK
6
CONTINUOUS
10
6.52598
20
-4.50538
11
6.51907
21
-4.53072
0
LINE
8
BLACK
6
CONTINUOUS
10
6.51907
20
-4.53072
11
6.51891
21
-4.53093
0
LINE
8
BLACK
6
CONTINUOUS
10
6.51891
20
-4.53093
11
6.5188
21
-4.53131
0
LINE
8
BLACK
6
CONTINUOUS
10
6.5188
20
-4.53131
11
6.5138
21
-4.53761
0
LINE
8
BLACK
6
CONTINUOUS
10
6.5138
20
-4.53761
11
6.50789
21
-4.54307
0
LINE
8
BLACK
6
CONTINUOUS
10
6.50789
20
-4.54307
11
6.50122
21
-4.54757
0
LINE
8
BLACK
6
CONTINUOUS
10
6.50122
20
-4.54757
11
6.49394
21
-4.55099
0
LINE
8
BLACK
6
CONTINUOUS
10
6.49394
20
-4.55099
11
6.48623
21
-4.55326
0
LINE
8
BLACK
6
CONTINUOUS
10
6.48623
20
-4.55326
11
6.47825
21
-4.55433
0
LINE
8
BLACK
6
CONTINUOUS
10
6.47825
20
-4.55433
11
6.47021
21
-4.55417
0
LINE
8
BLACK
6
CONTINUOUS
10
6.47021
20
-4.55417
11
6.46229
21
-4.55278
0
LINE
8
BLACK
6
CONTINUOUS
10
6.46229
20
-4.55278
11
6.45467
21
-4.5502
0
LINE
8
BLACK
6
CONTINUOUS
10
6.45467
20
-4.5502
11
6.44754
21
-4.54648
0
LINE
8
BLACK
6
CONTINUOUS
10
6.44754
20
-4.54648
11
6.44108
21
-4.54175
0
LINE
8
BLACK
6
CONTINUOUS
10
6.44108
20
-4.54175
11
6.44108
21
-4.54175
0
LINE
8
BLACK
6
CONTINUOUS
10
6.44108
20
-4.54175
11
6.44105
21
-4.54172
0
LINE
8
BLACK
6
CONTINUOUS
10
6.44105
20
-4.54172
11
6.44105
21
-4.54172
0
LINE
8
BLACK
6
CONTINUOUS
10
6.44105
20
-4.54172
11
6.44105
21
-4.54172
0
LINE
8
BLACK
6
CONTINUOUS
10
6.44105
20
-4.54172
11
6.42876
21
-4.53153
0
LINE
8
BLACK
6
CONTINUOUS
10
6.42876
20
-4.53153
11
6.42426
21
-4.52793
0
LINE
8
BLACK
6
CONTINUOUS
10
6.42426
20
-4.52793
11
6.41443
21
-4.52187
0
LINE
8
BLACK
6
CONTINUOUS
10
6.41443
20
-4.52187
11
6.40393
21
-4.51706
0
LINE
8
BLACK
6
CONTINUOUS
10
6.40393
20
-4.51706
11
6.39292
21
-4.51357
0
LINE
8
BLACK
6
CONTINUOUS
10
6.39292
20
-4.51357
11
6.38156
21
-4.51145
0
LINE
8
BLACK
6
CONTINUOUS
10
6.38156
20
-4.51145
11
6.37003
21
-4.51074
0
LINE
8
BLACK
6
CONTINUOUS
10
6.37003
20
-4.51074
11
6.3585
21
-4.51145
0
LINE
8
BLACK
6
CONTINUOUS
10
6.3585
20
-4.51145
11
6.34715
21
-4.51355
0
LINE
8
BLACK
6
CONTINUOUS
10
6.34715
20
-4.51355
11
6.33614
21
-4.51704
0
LINE
8
BLACK
6
CONTINUOUS
10
6.33614
20
-4.51704
11
6.32563
21
-4.52184
0
LINE
8
BLACK
6
CONTINUOUS
10
6.32563
20
-4.52184
11
6.31579
21
-4.52789
0
LINE
8
BLACK
6
CONTINUOUS
10
6.31579
20
-4.52789
11
6.30677
21
-4.5351
0
LINE
8
BLACK
6
CONTINUOUS
10
6.30677
20
-4.5351
11
6.29869
21
-4.54336
0
LINE
8
BLACK
6
CONTINUOUS
10
6.29869
20
-4.54336
11
6.29169
21
-4.55254
0
LINE
8
BLACK
6
CONTINUOUS
10
6.29169
20
-4.55254
11
6.28586
21
-4.56251
0
LINE
8
BLACK
6
CONTINUOUS
10
6.28586
20
-4.56251
11
6.2813
21
-4.57312
0
LINE
8
BLACK
6
CONTINUOUS
10
6.2813
20
-4.57312
11
6.27806
21
-4.58421
0
LINE
8
BLACK
6
CONTINUOUS
10
6.27806
20
-4.58421
11
6.27621
21
-4.59561
0
LINE
8
BLACK
6
CONTINUOUS
10
6.27621
20
-4.59561
11
6.27577
21
-4.60715
0
LINE
8
BLACK
6
CONTINUOUS
10
6.27577
20
-4.60715
11
6.27674
21
-4.61866
0
LINE
8
BLACK
6
CONTINUOUS
10
6.27674
20
-4.61866
11
6.27911
21
-4.62997
0
LINE
8
BLACK
6
CONTINUOUS
10
6.27911
20
-4.62997
11
6.28285
21
-4.6409
0
LINE
8
BLACK
6
CONTINUOUS
10
6.28285
20
-4.6409
11
6.28789
21
-4.65129
0
LINE
8
BLACK
6
CONTINUOUS
10
6.28789
20
-4.65129
11
6.29417
21
-4.66098
0
LINE
8
BLACK
6
CONTINUOUS
10
6.29417
20
-4.66098
11
6.30159
21
-4.66984
0
LINE
8
BLACK
6
CONTINUOUS
10
6.30159
20
-4.66984
11
6.30575
21
-4.67372
0
LINE
8
BLACK
6
CONTINUOUS
10
6.30575
20
-4.67372
11
6.35242
21
-4.71084
0
LINE
8
BLACK
6
CONTINUOUS
10
6.35242
20
-4.71084
11
6.35246
21
-4.71091
0
LINE
8
BLACK
6
CONTINUOUS
10
6.35246
20
-4.71091
11
6.35255
21
-4.71095
0
LINE
8
BLACK
6
CONTINUOUS
10
6.35255
20
-4.71095
11
6.35255
21
-4.71095
0
LINE
8
BLACK
6
CONTINUOUS
10
6.35255
20
-4.71095
11
6.35871
21
-4.71769
0
LINE
8
BLACK
6
CONTINUOUS
10
6.35871
20
-4.71769
11
6.36381
21
-4.72526
0
LINE
8
BLACK
6
CONTINUOUS
10
6.36381
20
-4.72526
11
6.36774
21
-4.7335
0
LINE
8
BLACK
6
CONTINUOUS
10
6.36774
20
-4.7335
11
6.37042
21
-4.74223
0
LINE
8
BLACK
6
CONTINUOUS
10
6.37042
20
-4.74223
11
6.37179
21
-4.75126
0
LINE
8
BLACK
6
CONTINUOUS
10
6.37179
20
-4.75126
11
6.37181
21
-4.76039
0
LINE
8
BLACK
6
CONTINUOUS
10
6.37181
20
-4.76039
11
6.3705
21
-4.76942
0
LINE
8
BLACK
6
CONTINUOUS
10
6.3705
20
-4.76942
11
6.36787
21
-4.77817
0
LINE
8
BLACK
6
CONTINUOUS
10
6.36787
20
-4.77817
11
6.36398
21
-4.78643
0
LINE
8
BLACK
6
CONTINUOUS
10
6.36398
20
-4.78643
11
6.35893
21
-4.79403
0
LINE
8
BLACK
6
CONTINUOUS
10
6.35893
20
-4.79403
11
6.35282
21
-4.8008
0
LINE
8
BLACK
6
CONTINUOUS
10
6.35282
20
-4.8008
11
6.35281
21
-4.8008
0
LINE
8
BLACK
6
CONTINUOUS
10
6.35281
20
-4.8008
11
6.34075
21
-4.81242
0
LINE
8
BLACK
6
CONTINUOUS
10
6.34075
20
-4.81242
11
6.34065
21
-4.81246
0
LINE
8
BLACK
6
CONTINUOUS
10
6.34065
20
-4.81246
11
6.34059
21
-4.81256
0
LINE
8
BLACK
6
CONTINUOUS
10
6.34059
20
-4.81256
11
6.30727
21
-4.83838
0
LINE
8
BLACK
6
CONTINUOUS
10
6.30727
20
-4.83838
11
6.30719
21
-4.8384
0
LINE
8
BLACK
6
CONTINUOUS
10
6.30719
20
-4.8384
11
6.30715
21
-4.83847
0
LINE
8
BLACK
6
CONTINUOUS
10
6.30715
20
-4.83847
11
6.27185
21
-4.8618
0
LINE
8
BLACK
6
CONTINUOUS
10
6.27185
20
-4.8618
11
6.27177
21
-4.86182
0
LINE
8
BLACK
6
CONTINUOUS
10
6.27177
20
-4.86182
11
6.27173
21
-4.86188
0
LINE
8
BLACK
6
CONTINUOUS
10
6.27173
20
-4.86188
11
6.23458
21
-4.88264
0
LINE
8
BLACK
6
CONTINUOUS
10
6.23458
20
-4.88264
11
6.2345
21
-4.88265
0
LINE
8
BLACK
6
CONTINUOUS
10
6.2345
20
-4.88265
11
6.23445
21
-4.8827
0
LINE
8
BLACK
6
CONTINUOUS
10
6.23445
20
-4.8827
11
6.19558
21
-4.90078
0
LINE
8
BLACK
6
CONTINUOUS
10
6.19558
20
-4.90078
11
6.1955
21
-4.90079
0
LINE
8
BLACK
6
CONTINUOUS
10
6.1955
20
-4.90079
11
6.19545
21
-4.90084
0
LINE
8
BLACK
6
CONTINUOUS
10
6.19545
20
-4.90084
11
6.15499
21
-4.91615
0
LINE
8
BLACK
6
CONTINUOUS
10
6.15499
20
-4.91615
11
6.15492
21
-4.91614
0
LINE
8
BLACK
6
CONTINUOUS
10
6.15492
20
-4.91614
11
6.15486
21
-4.91619
0
LINE
8
BLACK
6
CONTINUOUS
10
6.15486
20
-4.91619
11
6.11295
21
-4.92863
0
LINE
8
BLACK
6
CONTINUOUS
10
6.11295
20
-4.92863
11
6.11287
21
-4.92862
0
LINE
8
BLACK
6
CONTINUOUS
10
6.11287
20
-4.92862
11
6.11281
21
-4.92867
0
LINE
8
BLACK
6
CONTINUOUS
10
6.11281
20
-4.92867
11
6.06958
21
-4.93814
0
LINE
8
BLACK
6
CONTINUOUS
10
6.06958
20
-4.93814
11
6.06953
21
-4.93813
0
LINE
8
BLACK
6
CONTINUOUS
10
6.06953
20
-4.93813
11
6.06949
21
-4.93816
0
LINE
8
BLACK
6
CONTINUOUS
10
6.06949
20
-4.93816
11
6.00043
21
-4.94994
0
LINE
8
BLACK
6
CONTINUOUS
10
6.00043
20
-4.94994
11
6.0004
21
-4.94994
0
LINE
8
BLACK
6
CONTINUOUS
10
6.0004
20
-4.94994
11
6.00039
21
-4.94995
0
LINE
8
BLACK
6
CONTINUOUS
10
6.00039
20
-4.94995
11
5.92504
21
-4.96119
0
LINE
8
BLACK
6
CONTINUOUS
10
5.92504
20
-4.96119
11
5.92502
21
-4.96118
0
LINE
8
BLACK
6
CONTINUOUS
10
5.92502
20
-4.96118
11
5.925
21
-4.9612
0
LINE
8
BLACK
6
CONTINUOUS
10
5.925
20
-4.9612
11
5.8435
21
-4.97157
0
LINE
8
BLACK
6
CONTINUOUS
10
5.8435
20
-4.97157
11
5.84349
21
-4.97157
0
LINE
8
BLACK
6
CONTINUOUS
10
5.84349
20
-4.97157
11
5.84348
21
-4.97157
0
LINE
8
BLACK
6
CONTINUOUS
10
5.84348
20
-4.97157
11
5.75523
21
-4.98196
0
LINE
8
BLACK
6
CONTINUOUS
10
5.75523
20
-4.98196
11
5.75516
21
-4.98194
0
LINE
8
BLACK
6
CONTINUOUS
10
5.75516
20
-4.98194
11
5.7551
21
-4.98197
0
LINE
8
BLACK
6
CONTINUOUS
10
5.7551
20
-4.98197
11
5.6601
21
-4.98697
0
LINE
8
BLACK
6
CONTINUOUS
10
5.6601
20
-4.98697
11
5.66005
21
-4.98695
0
LINE
8
BLACK
6
CONTINUOUS
10
5.66005
20
-4.98695
11
5.66
21
-4.98697
0
LINE
8
BLACK
6
CONTINUOUS
10
5.66
20
-4.98697
11
5.575
21
-4.98697
0
LINE
8
BLACK
6
CONTINUOUS
10
5.575
20
-4.98697
11
5.145
21
-4.98697
0
LINE
8
BLACK
6
CONTINUOUS
10
5.145
20
-4.98697
11
5.06678
21
-4.98697
0
LINE
8
BLACK
6
CONTINUOUS
10
5.06678
20
-4.98697
11
5.06675
21
-4.98696
0
LINE
8
BLACK
6
CONTINUOUS
10
5.06675
20
-4.98696
11
5.06673
21
-4.98697
0
LINE
8
BLACK
6
CONTINUOUS
10
5.06673
20
-4.98697
11
4.98204
21
-4.98457
0
LINE
8
BLACK
6
CONTINUOUS
10
4.98204
20
-4.98457
11
4.98198
21
-4.98455
0
LINE
8
BLACK
6
CONTINUOUS
10
4.98198
20
-4.98455
11
4.98191
21
-4.98457
0
LINE
8
BLACK
6
CONTINUOUS
10
4.98191
20
-4.98457
11
4.9018
21
-4.97709
0
LINE
8
BLACK
6
CONTINUOUS
10
4.9018
20
-4.97709
11
4.90179
21
-4.97709
0
LINE
8
BLACK
6
CONTINUOUS
10
4.90179
20
-4.97709
11
4.90177
21
-4.97709
0
LINE
8
BLACK
6
CONTINUOUS
10
4.90177
20
-4.97709
11
4.82632
21
-4.96855
0
LINE
8
BLACK
6
CONTINUOUS
10
4.82632
20
-4.96855
11
4.8263
21
-4.96854
0
LINE
8
BLACK
6
CONTINUOUS
10
4.8263
20
-4.96854
11
4.82628
21
-4.96855
0
LINE
8
BLACK
6
CONTINUOUS
10
4.82628
20
-4.96855
11
4.75558
21
-4.95917
0
LINE
8
BLACK
6
CONTINUOUS
10
4.75558
20
-4.95917
11
4.75557
21
-4.95916
0
LINE
8
BLACK
6
CONTINUOUS
10
4.75557
20
-4.95916
11
4.75555
21
-4.95916
0
LINE
8
BLACK
6
CONTINUOUS
10
4.75555
20
-4.95916
11
4.68967
21
-4.94915
0
LINE
8
BLACK
6
CONTINUOUS
10
4.68967
20
-4.94915
11
4.68964
21
-4.94913
0
LINE
8
BLACK
6
CONTINUOUS
10
4.68964
20
-4.94913
11
4.68961
21
-4.94914
0
LINE
8
BLACK
6
CONTINUOUS
10
4.68961
20
-4.94914
11
4.66397
21
-4.94446
0
LINE
8
BLACK
6
CONTINUOUS
10
4.66397
20
-4.94446
11
4.66393
21
-4.94444
0
LINE
8
BLACK
6
CONTINUOUS
10
4.66393
20
-4.94444
11
4.66389
21
-4.94445
0
LINE
8
BLACK
6
CONTINUOUS
10
4.66389
20
-4.94445
11
4.63869
21
-4.93879
0
LINE
8
BLACK
6
CONTINUOUS
10
4.63869
20
-4.93879
11
4.63865
21
-4.93876
0
LINE
8
BLACK
6
CONTINUOUS
10
4.63865
20
-4.93876
11
4.63861
21
-4.93877
0
LINE
8
BLACK
6
CONTINUOUS
10
4.63861
20
-4.93877
11
4.61387
21
-4.93215
0
LINE
8
BLACK
6
CONTINUOUS
10
4.61387
20
-4.93215
11
4.61384
21
-4.93213
0
LINE
8
BLACK
6
CONTINUOUS
10
4.61384
20
-4.93213
11
4.6138
21
-4.93213
0
LINE
8
BLACK
6
CONTINUOUS
10
4.6138
20
-4.93213
11
4.58954
21
-4.92457
0
LINE
8
BLACK
6
CONTINUOUS
10
4.58954
20
-4.92457
11
4.58951
21
-4.92455
0
LINE
8
BLACK
6
CONTINUOUS
10
4.58951
20
-4.92455
11
4.58946
21
-4.92455
0
LINE
8
BLACK
6
CONTINUOUS
10
4.58946
20
-4.92455
11
4.5657
21
-4.91607
0
LINE
8
BLACK
6
CONTINUOUS
10
4.5657
20
-4.91607
11
4.56567
21
-4.91605
0
LINE
8
BLACK
6
CONTINUOUS
10
4.56567
20
-4.91605
11
4.56563
21
-4.91605
0
LINE
8
BLACK
6
CONTINUOUS
10
4.56563
20
-4.91605
11
4.54237
21
-4.90668
0
LINE
8
BLACK
6
CONTINUOUS
10
4.54237
20
-4.90668
11
4.54234
21
-4.90665
0
LINE
8
BLACK
6
CONTINUOUS
10
4.54234
20
-4.90665
11
4.5423
21
-4.90665
0
LINE
8
BLACK
6
CONTINUOUS
10
4.5423
20
-4.90665
11
4.51957
21
-4.8964
0
LINE
8
BLACK
6
CONTINUOUS
10
4.51957
20
-4.8964
11
4.51954
21
-4.89637
0
LINE
8
BLACK
6
CONTINUOUS
10
4.51954
20
-4.89637
11
4.5195
21
-4.89637
0
LINE
8
BLACK
6
CONTINUOUS
10
4.5195
20
-4.89637
11
4.49731
21
-4.88527
0
LINE
8
BLACK
6
CONTINUOUS
10
4.49731
20
-4.88527
11
4.49728
21
-4.88524
0
LINE
8
BLACK
6
CONTINUOUS
10
4.49728
20
-4.88524
11
4.49724
21
-4.88523
0
LINE
8
BLACK
6
CONTINUOUS
10
4.49724
20
-4.88523
11
4.4756
21
-4.8733
0
LINE
8
BLACK
6
CONTINUOUS
10
4.4756
20
-4.8733
11
4.47558
21
-4.87327
0
LINE
8
BLACK
6
CONTINUOUS
10
4.47558
20
-4.87327
11
4.47553
21
-4.87327
0
LINE
8
BLACK
6
CONTINUOUS
10
4.47553
20
-4.87327
11
4.45447
21
-4.86052
0
LINE
8
BLACK
6
CONTINUOUS
10
4.45447
20
-4.86052
11
4.45444
21
-4.86049
0
LINE
8
BLACK
6
CONTINUOUS
10
4.45444
20
-4.86049
11
4.4544
21
-4.86048
0
LINE
8
BLACK
6
CONTINUOUS
10
4.4544
20
-4.86048
11
4.43392
21
-4.84695
0
LINE
8
BLACK
6
CONTINUOUS
10
4.43392
20
-4.84695
11
4.43387
21
-4.84687
0
LINE
8
BLACK
6
CONTINUOUS
10
4.43387
20
-4.84687
11
4.43377
21
-4.84684
0
LINE
8
BLACK
6
CONTINUOUS
10
4.43377
20
-4.84684
11
4.42422
21
-4.83915
0
LINE
8
BLACK
6
CONTINUOUS
10
4.42422
20
-4.83915
11
4.41527
21
-4.83365
0
LINE
8
BLACK
6
CONTINUOUS
10
4.41527
20
-4.83365
11
4.40691
21
-4.82682
0
LINE
8
BLACK
6
CONTINUOUS
10
4.40691
20
-4.82682
11
4.39953
21
-4.81895
0
LINE
8
BLACK
6
CONTINUOUS
10
4.39953
20
-4.81895
11
4.39325
21
-4.81017
0
LINE
8
BLACK
6
CONTINUOUS
10
4.39325
20
-4.81017
11
4.38821
21
-4.80062
0
LINE
8
BLACK
6
CONTINUOUS
10
4.38821
20
-4.80062
11
4.38447
21
-4.7905
0
LINE
8
BLACK
6
CONTINUOUS
10
4.38447
20
-4.7905
11
4.38212
21
-4.77996
0
LINE
8
BLACK
6
CONTINUOUS
10
4.38212
20
-4.77996
11
4.38119
21
-4.76921
0
LINE
8
BLACK
6
CONTINUOUS
10
4.38119
20
-4.76921
11
4.38169
21
-4.75843
0
LINE
8
BLACK
6
CONTINUOUS
10
4.38169
20
-4.75843
11
4.38362
21
-4.74781
0
LINE
8
BLACK
6
CONTINUOUS
10
4.38362
20
-4.74781
11
4.38695
21
-4.73754
0
LINE
8
BLACK
6
CONTINUOUS
10
4.38695
20
-4.73754
11
4.39162
21
-4.7278
0
LINE
8
BLACK
6
CONTINUOUS
10
4.39162
20
-4.7278
11
4.39753
21
-4.71878
0
LINE
8
BLACK
6
CONTINUOUS
10
4.39753
20
-4.71878
11
4.4046
21
-4.71061
0
LINE
8
BLACK
6
CONTINUOUS
10
4.4046
20
-4.71061
11
4.4046
21
-4.71062
0
LINE
8
BLACK
6
CONTINUOUS
10
4.4046
20
-4.71062
11
4.40471
21
-4.71056
0
LINE
8
BLACK
6
CONTINUOUS
10
4.40471
20
-4.71056
11
4.40475
21
-4.71048
0
LINE
8
BLACK
6
CONTINUOUS
10
4.40475
20
-4.71048
11
4.4437
21
-4.67852
0
LINE
8
BLACK
6
CONTINUOUS
10
4.4437
20
-4.67852
11
4.44809
21
-4.67443
0
LINE
8
BLACK
6
CONTINUOUS
10
4.44809
20
-4.67443
11
4.45588
21
-4.66516
0
LINE
8
BLACK
6
CONTINUOUS
10
4.45588
20
-4.66516
11
4.46252
21
-4.65503
0
LINE
8
BLACK
6
CONTINUOUS
10
4.46252
20
-4.65503
11
4.46788
21
-4.64417
0
LINE
8
BLACK
6
CONTINUOUS
10
4.46788
20
-4.64417
11
4.47191
21
-4.63275
0
LINE
8
BLACK
6
CONTINUOUS
10
4.47191
20
-4.63275
11
4.47454
21
-4.62093
0
LINE
8
BLACK
6
CONTINUOUS
10
4.47454
20
-4.62093
11
4.47573
21
-4.60888
0
LINE
8
BLACK
6
CONTINUOUS
10
4.47573
20
-4.60888
11
4.47547
21
-4.59677
0
LINE
8
BLACK
6
CONTINUOUS
10
4.47547
20
-4.59677
11
4.47376
21
-4.58478
0
LINE
8
BLACK
6
CONTINUOUS
10
4.47376
20
-4.58478
11
4.47062
21
-4.57308
0
LINE
8
BLACK
6
CONTINUOUS
10
4.47062
20
-4.57308
11
4.4661
21
-4.56185
0
LINE
8
BLACK
6
CONTINUOUS
10
4.4661
20
-4.56185
11
4.46027
21
-4.55123
0
LINE
8
BLACK
6
CONTINUOUS
10
4.46027
20
-4.55123
11
4.45321
21
-4.54139
0
LINE
8
BLACK
6
CONTINUOUS
10
4.45321
20
-4.54139
11
4.44501
21
-4.53247
0
LINE
8
BLACK
6
CONTINUOUS
10
4.44501
20
-4.53247
11
4.43581
21
-4.5246
0
LINE
8
BLACK
6
CONTINUOUS
10
4.43581
20
-4.5246
11
4.42573
21
-4.51789
0
LINE
8
BLACK
6
CONTINUOUS
10
4.42573
20
-4.51789
11
4.41492
21
-4.51243
0
LINE
8
BLACK
6
CONTINUOUS
10
4.41492
20
-4.51243
11
4.40353
21
-4.50831
0
LINE
8
BLACK
6
CONTINUOUS
10
4.40353
20
-4.50831
11
4.39173
21
-4.50559
0
LINE
8
BLACK
6
CONTINUOUS
10
4.39173
20
-4.50559
11
4.37969
21
-4.5043
0
LINE
8
BLACK
6
CONTINUOUS
10
4.37969
20
-4.5043
11
4.36758
21
-4.50447
0
LINE
8
BLACK
6
CONTINUOUS
10
4.36758
20
-4.50447
11
4.35557
21
-4.50608
0
LINE
8
BLACK
6
CONTINUOUS
10
4.35557
20
-4.50608
11
4.34385
21
-4.50913
0
LINE
8
BLACK
6
CONTINUOUS
10
4.34385
20
-4.50913
11
4.33258
21
-4.51355
0
LINE
8
BLACK
6
CONTINUOUS
10
4.33258
20
-4.51355
11
4.32192
21
-4.5193
0
LINE
8
BLACK
6
CONTINUOUS
10
4.32192
20
-4.5193
11
4.31697
21
-4.52279
0
LINE
8
BLACK
6
CONTINUOUS
10
4.31697
20
-4.52279
11
4.31697
21
-4.52279
0
LINE
8
BLACK
6
CONTINUOUS
10
4.31697
20
-4.52279
11
4.31692
21
-4.52281
0
LINE
8
BLACK
6
CONTINUOUS
10
4.31692
20
-4.52281
11
4.3169
21
-4.52285
0
LINE
8
BLACK
6
CONTINUOUS
10
4.3169
20
-4.52285
11
4.27733
21
-4.5481
0
LINE
8
BLACK
6
CONTINUOUS
10
4.27733
20
-4.5481
11
4.2771
21
-4.54814
0
LINE
8
BLACK
6
CONTINUOUS
10
4.2771
20
-4.54814
11
4.27682
21
-4.54833
0
LINE
8
BLACK
6
CONTINUOUS
10
4.27682
20
-4.54833
11
4.27682
21
-4.54833
0
LINE
8
BLACK
6
CONTINUOUS
10
4.27682
20
-4.54833
11
4.26731
21
-4.55041
0
LINE
8
BLACK
6
CONTINUOUS
10
4.26731
20
-4.55041
11
4.25761
21
-4.55125
0
LINE
8
BLACK
6
CONTINUOUS
10
4.25761
20
-4.55125
11
4.24788
21
-4.55083
0
LINE
8
BLACK
6
CONTINUOUS
10
4.24788
20
-4.55083
11
4.23829
21
-4.54915
0
LINE
8
BLACK
6
CONTINUOUS
10
4.23829
20
-4.54915
11
4.229
21
-4.54626
0
LINE
8
BLACK
6
CONTINUOUS
10
4.229
20
-4.54626
11
4.22015
21
-4.54218
0
LINE
8
BLACK
6
CONTINUOUS
10
4.22015
20
-4.54218
11
4.21191
21
-4.537
0
LINE
8
BLACK
6
CONTINUOUS
10
4.21191
20
-4.537
11
4.2044
21
-4.5308
0
LINE
8
BLACK
6
CONTINUOUS
10
4.2044
20
-4.5308
11
4.19776
21
-4.52368
0
LINE
8
BLACK
6
CONTINUOUS
10
4.19776
20
-4.52368
11
4.1921
21
-4.51577
0
LINE
8
BLACK
6
CONTINUOUS
10
4.1921
20
-4.51577
11
4.1875
21
-4.50718
0
LINE
8
BLACK
6
CONTINUOUS
10
4.1875
20
-4.50718
11
4.18404
21
-4.49808
0
LINE
8
BLACK
6
CONTINUOUS
10
4.18404
20
-4.49808
11
4.18185
21
-4.48883
0
LINE
8
BLACK
6
CONTINUOUS
10
4.18185
20
-4.48883
11
4.18185
21
-4.48883
0
LINE
8
BLACK
6
CONTINUOUS
10
4.18185
20
-4.48883
11
4.17545
21
-4.46688
0
LINE
8
BLACK
6
CONTINUOUS
10
4.17545
20
-4.46688
11
4.17545
21
-4.46679
0
LINE
8
BLACK
6
CONTINUOUS
10
4.17545
20
-4.46679
11
4.17541
21
-4.46672
0
LINE
8
BLACK
6
CONTINUOUS
10
4.17541
20
-4.46672
11
4.16515
21
-4.41662
0
LINE
8
BLACK
6
CONTINUOUS
10
4.16515
20
-4.41662
11
4.16516
21
-4.41657
0
LINE
8
BLACK
6
CONTINUOUS
10
4.16516
20
-4.41657
11
4.16514
21
-4.41653
0
LINE
8
BLACK
6
CONTINUOUS
10
4.16514
20
-4.41653
11
4.15407
21
-4.34655
0
LINE
8
BLACK
6
CONTINUOUS
10
4.15407
20
-4.34655
11
4.15407
21
-4.34654
0
LINE
8
BLACK
6
CONTINUOUS
10
4.15407
20
-4.34654
11
4.15407
21
-4.34652
0
LINE
8
BLACK
6
CONTINUOUS
10
4.15407
20
-4.34652
11
4.14356
21
-4.27226
0
LINE
8
BLACK
6
CONTINUOUS
10
4.14356
20
-4.27226
11
4.14356
21
-4.27225
0
LINE
8
BLACK
6
CONTINUOUS
10
4.14356
20
-4.27225
11
4.14355
21
-4.27223
0
LINE
8
BLACK
6
CONTINUOUS
10
4.14355
20
-4.27223
11
4.13388
21
-4.19411
0
LINE
8
BLACK
6
CONTINUOUS
10
4.13388
20
-4.19411
11
4.13389
21
-4.19409
0
LINE
8
BLACK
6
CONTINUOUS
10
4.13389
20
-4.19409
11
4.13388
21
-4.19407
0
LINE
8
BLACK
6
CONTINUOUS
10
4.13388
20
-4.19407
11
4.12533
21
-4.11251
0
LINE
8
BLACK
6
CONTINUOUS
10
4.12533
20
-4.11251
11
4.12534
21
-4.11249
0
LINE
8
BLACK
6
CONTINUOUS
10
4.12534
20
-4.11249
11
4.12533
21
-4.11247
0
LINE
8
BLACK
6
CONTINUOUS
10
4.12533
20
-4.11247
11
4.11819
21
-4.02788
0
LINE
8
BLACK
6
CONTINUOUS
10
4.11819
20
-4.02788
11
4.1182
21
-4.02786
0
LINE
8
BLACK
6
CONTINUOUS
10
4.1182
20
-4.02786
11
4.11819
21
-4.02784
0
LINE
8
BLACK
6
CONTINUOUS
10
4.11819
20
-4.02784
11
4.11274
21
-3.94065
0
LINE
8
BLACK
6
CONTINUOUS
10
4.11274
20
-3.94065
11
4.11274
21
-3.94063
0
LINE
8
BLACK
6
CONTINUOUS
10
4.11274
20
-3.94063
11
4.11273
21
-3.9406
0
LINE
8
BLACK
6
CONTINUOUS
10
4.11273
20
-3.9406
11
4.10926
21
-3.85122
0
LINE
8
BLACK
6
CONTINUOUS
10
4.10926
20
-3.85122
11
4.10926
21
-3.8512
0
LINE
8
BLACK
6
CONTINUOUS
10
4.10926
20
-3.8512
11
4.10925
21
-3.85117
0
LINE
8
BLACK
6
CONTINUOUS
10
4.10925
20
-3.85117
11
4.10803
21
-3.76003
0
LINE
8
BLACK
6
CONTINUOUS
10
4.10803
20
-3.76003
11
4.10804
21
-3.76
0
LINE
8
BLACK
6
CONTINUOUS
10
4.10804
20
-3.76
11
4.10803
21
-3.75997
0
LINE
8
BLACK
6
CONTINUOUS
10
4.10803
20
-3.75997
11
4.1092
21
-3.67094
0
LINE
8
BLACK
6
CONTINUOUS
10
4.1092
20
-3.67094
11
4.10921
21
-3.67092
0
LINE
8
BLACK
6
CONTINUOUS
10
4.10921
20
-3.67092
11
4.1092
21
-3.67089
0
LINE
8
BLACK
6
CONTINUOUS
10
4.1092
20
-3.67089
11
4.11252
21
-3.58354
0
LINE
8
BLACK
6
CONTINUOUS
10
4.11252
20
-3.58354
11
4.11254
21
-3.58352
0
LINE
8
BLACK
6
CONTINUOUS
10
4.11254
20
-3.58352
11
4.11253
21
-3.58349
0
LINE
8
BLACK
6
CONTINUOUS
10
4.11253
20
-3.58349
11
4.11775
21
-3.49821
0
LINE
8
BLACK
6
CONTINUOUS
10
4.11775
20
-3.49821
11
4.11776
21
-3.49819
0
LINE
8
BLACK
6
CONTINUOUS
10
4.11776
20
-3.49819
11
4.11775
21
-3.49817
0
LINE
8
BLACK
6
CONTINUOUS
10
4.11775
20
-3.49817
11
4.1246
21
-3.41534
0
LINE
8
BLACK
6
CONTINUOUS
10
4.1246
20
-3.41534
11
4.12461
21
-3.41532
0
LINE
8
BLACK
6
CONTINUOUS
10
4.12461
20
-3.41532
11
4.1246
21
-3.4153
0
LINE
8
BLACK
6
CONTINUOUS
10
4.1246
20
-3.4153
11
4.13282
21
-3.33533
0
LINE
8
BLACK
6
CONTINUOUS
10
4.13282
20
-3.33533
11
4.13282
21
-3.33531
0
LINE
8
BLACK
6
CONTINUOUS
10
4.13282
20
-3.33531
11
4.13282
21
-3.33529
0
LINE
8
BLACK
6
CONTINUOUS
10
4.13282
20
-3.33529
11
4.14214
21
-3.25855
0
LINE
8
BLACK
6
CONTINUOUS
10
4.14214
20
-3.25855
11
4.14214
21
-3.25854
0
LINE
8
BLACK
6
CONTINUOUS
10
4.14214
20
-3.25854
11
4.14214
21
-3.25852
0
LINE
8
BLACK
6
CONTINUOUS
10
4.14214
20
-3.25852
11
4.15229
21
-3.18541
0
LINE
8
BLACK
6
CONTINUOUS
10
4.15229
20
-3.18541
11
4.1523
21
-3.1854
0
LINE
8
BLACK
6
CONTINUOUS
10
4.1523
20
-3.1854
11
4.1523
21
-3.18538
0
LINE
8
BLACK
6
CONTINUOUS
10
4.1523
20
-3.18538
11
4.16302
21
-3.11629
0
LINE
8
BLACK
6
CONTINUOUS
10
4.16302
20
-3.11629
11
4.16304
21
-3.11626
0
LINE
8
BLACK
6
CONTINUOUS
10
4.16304
20
-3.11626
11
4.16303
21
-3.11624
0
LINE
8
BLACK
6
CONTINUOUS
10
4.16303
20
-3.11624
11
4.16778
21
-3.09026
0
LINE
8
BLACK
6
CONTINUOUS
10
4.16778
20
-3.09026
11
4.1678
21
-3.09023
0
LINE
8
BLACK
6
CONTINUOUS
10
4.1678
20
-3.09023
11
4.1678
21
-3.09019
0
LINE
8
BLACK
6
CONTINUOUS
10
4.1678
20
-3.09019
11
4.17349
21
-3.06458
0
LINE
8
BLACK
6
CONTINUOUS
10
4.17349
20
-3.06458
11
4.17352
21
-3.06455
0
LINE
8
BLACK
6
CONTINUOUS
10
4.17352
20
-3.06455
11
4.17351
21
-3.06451
0
LINE
8
BLACK
6
CONTINUOUS
10
4.17351
20
-3.06451
11
4.18014
21
-3.0393
0
LINE
8
BLACK
6
CONTINUOUS
10
4.18014
20
-3.0393
11
4.18017
21
-3.03926
0
LINE
8
BLACK
6
CONTINUOUS
10
4.18017
20
-3.03926
11
4.18016
21
-3.03922
0
LINE
8
BLACK
6
CONTINUOUS
10
4.18016
20
-3.03922
11
4.18771
21
-3.01442
0
LINE
8
BLACK
6
CONTINUOUS
10
4.18771
20
-3.01442
11
4.18775
21
-3.01437
0
LINE
8
BLACK
6
CONTINUOUS
10
4.18775
20
-3.01437
11
4.18775
21
-3.01431
0
LINE
8
BLACK
6
CONTINUOUS
10
4.18775
20
-3.01431
11
4.20552
21
-2.96603
0
LINE
8
BLACK
6
CONTINUOUS
10
4.20552
20
-2.96603
11
4.20557
21
-2.96597
0
LINE
8
BLACK
6
CONTINUOUS
10
4.20557
20
-2.96597
11
4.20557
21
-2.96589
0
LINE
8
BLACK
6
CONTINUOUS
10
4.20557
20
-2.96589
11
4.2268
21
-2.9195
0
LINE
8
BLACK
6
CONTINUOUS
10
4.2268
20
-2.9195
11
4.22686
21
-2.91945
0
LINE
8
BLACK
6
CONTINUOUS
10
4.22686
20
-2.91945
11
4.22687
21
-2.91937
0
LINE
8
BLACK
6
CONTINUOUS
10
4.22687
20
-2.91937
11
4.25142
21
-2.87505
0
LINE
8
BLACK
6
CONTINUOUS
10
4.25142
20
-2.87505
11
4.25148
21
-2.875
0
LINE
8
BLACK
6
CONTINUOUS
10
4.25148
20
-2.875
11
4.25149
21
-2.87492
0
LINE
8
BLACK
6
CONTINUOUS
10
4.25149
20
-2.87492
11
4.27923
21
-2.83284
0
LINE
8
BLACK
6
CONTINUOUS
10
4.27923
20
-2.83284
11
4.27929
21
-2.83279
0
LINE
8
BLACK
6
CONTINUOUS
10
4.27929
20
-2.83279
11
4.27931
21
-2.83271
0
LINE
8
BLACK
6
CONTINUOUS
10
4.27931
20
-2.83271
11
4.31009
21
-2.79304
0
LINE
8
BLACK
6
CONTINUOUS
10
4.31009
20
-2.79304
11
4.31016
21
-2.79299
0
LINE
8
BLACK
6
CONTINUOUS
10
4.31016
20
-2.79299
11
4.31019
21
-2.79292
0
LINE
8
BLACK
6
CONTINUOUS
10
4.31019
20
-2.79292
11
4.34388
21
-2.75581
0
LINE
8
BLACK
6
CONTINUOUS
10
4.34388
20
-2.75581
11
4.34395
21
-2.75577
0
LINE
8
BLACK
6
CONTINUOUS
10
4.34395
20
-2.75577
11
4.34399
21
-2.7557
0
LINE
8
BLACK
6
CONTINUOUS
10
4.34399
20
-2.7557
11
4.38045
21
-2.72133
0
LINE
8
BLACK
6
CONTINUOUS
10
4.38045
20
-2.72133
11
4.38053
21
-2.7213
0
LINE
8
BLACK
6
CONTINUOUS
10
4.38053
20
-2.7213
11
4.38057
21
-2.72123
0
LINE
8
BLACK
6
CONTINUOUS
10
4.38057
20
-2.72123
11
4.41967
21
-2.68977
0
LINE
8
BLACK
6
CONTINUOUS
10
4.41967
20
-2.68977
11
4.41973
21
-2.68975
0
LINE
8
BLACK
6
CONTINUOUS
10
4.41973
20
-2.68975
11
4.41976
21
-2.6897
0
LINE
8
BLACK
6
CONTINUOUS
10
4.41976
20
-2.6897
11
4.44026
21
-2.67511
0
LINE
8
BLACK
6
CONTINUOUS
10
4.44026
20
-2.67511
11
4.4403
21
-2.6751
0
LINE
8
BLACK
6
CONTINUOUS
10
4.4403
20
-2.6751
11
4.44032
21
-2.67507
0
LINE
8
BLACK
6
CONTINUOUS
10
4.44032
20
-2.67507
11
4.46143
21
-2.66127
0
LINE
8
BLACK
6
CONTINUOUS
10
4.46143
20
-2.66127
11
4.46147
21
-2.66126
0
LINE
8
BLACK
6
CONTINUOUS
10
4.46147
20
-2.66126
11
4.46149
21
-2.66123
0
LINE
8
BLACK
6
CONTINUOUS
10
4.46149
20
-2.66123
11
4.48319
21
-2.64824
0
LINE
8
BLACK
6
CONTINUOUS
10
4.48319
20
-2.64824
11
4.48323
21
-2.64823
0
LINE
8
BLACK
6
CONTINUOUS
10
4.48323
20
-2.64823
11
4.48326
21
-2.6482
0
LINE
8
BLACK
6
CONTINUOUS
10
4.48326
20
-2.6482
11
4.50553
21
-2.63604
0
LINE
8
BLACK
6
CONTINUOUS
10
4.50553
20
-2.63604
11
4.50557
21
-2.63604
0
LINE
8
BLACK
6
CONTINUOUS
10
4.50557
20
-2.63604
11
4.5056
21
-2.63601
0
LINE
8
BLACK
6
CONTINUOUS
10
4.5056
20
-2.63601
11
4.52842
21
-2.6247
0
LINE
8
BLACK
6
CONTINUOUS
10
4.52842
20
-2.6247
11
4.52846
21
-2.6247
0
LINE
8
BLACK
6
CONTINUOUS
10
4.52846
20
-2.6247
11
4.52849
21
-2.62467
0
LINE
8
BLACK
6
CONTINUOUS
10
4.52849
20
-2.62467
11
4.54361
21
-2.61784
0
LINE
8
BLACK
6
CONTINUOUS
10
4.54361
20
-2.61784
11
4.5439
21
-2.61783
0
LINE
8
BLACK
6
CONTINUOUS
10
4.5439
20
-2.61783
11
4.54437
21
-2.61766
0
LINE
8
BLACK
6
CONTINUOUS
10
4.54437
20
-2.61766
11
4.54437
21
-2.61766
0
LINE
8
BLACK
6
CONTINUOUS
10
4.54437
20
-2.61766
11
4.5548
21
-2.61809
0
LINE
8
BLACK
6
CONTINUOUS
10
4.5548
20
-2.61809
11
4.56508
21
-2.6199
0
LINE
8
BLACK
6
CONTINUOUS
10
4.56508
20
-2.6199
11
4.57503
21
-2.62307
0
LINE
8
BLACK
6
CONTINUOUS
10
4.57503
20
-2.62307
11
4.58446
21
-2.62754
0
LINE
8
BLACK
6
CONTINUOUS
10
4.58446
20
-2.62754
11
4.59321
21
-2.63324
0
LINE
8
BLACK
6
CONTINUOUS
10
4.59321
20
-2.63324
11
4.60113
21
-2.64004
0
LINE
8
BLACK
6
CONTINUOUS
10
4.60113
20
-2.64004
11
4.60806
21
-2.64785
0
LINE
8
BLACK
6
CONTINUOUS
10
4.60806
20
-2.64785
11
4.61389
21
-2.65651
0
LINE
8
BLACK
6
CONTINUOUS
10
4.61389
20
-2.65651
11
4.61851
21
-2.66587
0
LINE
8
BLACK
6
CONTINUOUS
10
4.61851
20
-2.66587
11
4.62184
21
-2.67577
0
LINE
8
BLACK
6
CONTINUOUS
10
4.62184
20
-2.67577
11
4.62382
21
-2.68602
0
LINE
8
BLACK
6
CONTINUOUS
10
4.62382
20
-2.68602
11
4.62382
21
-2.68602
0
LINE
8
BLACK
6
CONTINUOUS
10
4.62382
20
-2.68602
11
4.62694
21
-2.70967
0
LINE
8
BLACK
6
CONTINUOUS
10
4.62694
20
-2.70967
11
4.62815
21
-2.71543
0
LINE
8
BLACK
6
CONTINUOUS
10
4.62815
20
-2.71543
11
4.63205
21
-2.72671
0
LINE
8
BLACK
6
CONTINUOUS
10
4.63205
20
-2.72671
11
4.63733
21
-2.73741
0
LINE
8
BLACK
6
CONTINUOUS
10
4.63733
20
-2.73741
11
4.6439
21
-2.74736
0
LINE
8
BLACK
6
CONTINUOUS
10
4.6439
20
-2.74736
11
4.65166
21
-2.75642
0
LINE
8
BLACK
6
CONTINUOUS
10
4.65166
20
-2.75642
11
4.66049
21
-2.76444
0
LINE
8
BLACK
6
CONTINUOUS
10
4.66049
20
-2.76444
11
4.67026
21
-2.77129
0
LINE
8
BLACK
6
CONTINUOUS
10
4.67026
20
-2.77129
11
4.6808
21
-2.77687
0
LINE
8
BLACK
6
CONTINUOUS
10
4.6808
20
-2.77687
11
4.69196
21
-2.78108
0
LINE
8
BLACK
6
CONTINUOUS
10
4.69196
20
-2.78108
11
4.70356
21
-2.78387
0
LINE
8
BLACK
6
CONTINUOUS
10
4.70356
20
-2.78387
11
4.71542
21
-2.78519
0
LINE
8
BLACK
6
CONTINUOUS
10
4.71542
20
-2.78519
11
4.72735
21
-2.78502
0
LINE
8
BLACK
6
CONTINUOUS
10
4.72735
20
-2.78502
11
4.73916
21
-2.78336
0
LINE
8
BLACK
6
CONTINUOUS
10
4.73916
20
-2.78336
11
4.75067
21
-2.78023
0
LINE
8
BLACK
6
CONTINUOUS
10
4.75067
20
-2.78023
11
4.76171
21
-2.77569
0
LINE
8
BLACK
6
CONTINUOUS
10
4.76171
20
-2.77569
11
4.77209
21
-2.76981
0
LINE
8
BLACK
6
CONTINUOUS
10
4.77209
20
-2.76981
11
4.78165
21
-2.76268
0
LINE
8
BLACK
6
CONTINUOUS
10
4.78165
20
-2.76268
11
4.79025
21
-2.75441
0
LINE
8
BLACK
6
CONTINUOUS
10
4.79025
20
-2.75441
11
4.79774
21
-2.74512
0
LINE
8
BLACK
6
CONTINUOUS
10
4.79774
20
-2.74512
11
4.80402
21
-2.73498
0
LINE
8
BLACK
6
CONTINUOUS
10
4.80402
20
-2.73498
11
4.80898
21
-2.72413
0
LINE
8
BLACK
6
CONTINUOUS
10
4.80898
20
-2.72413
11
4.81255
21
-2.71275
0
LINE
8
BLACK
6
CONTINUOUS
10
4.81255
20
-2.71275
11
4.81466
21
-2.70101
0
LINE
8
BLACK
6
CONTINUOUS
10
4.81466
20
-2.70101
11
4.8153
21
-2.68909
0
LINE
8
BLACK
6
CONTINUOUS
10
4.8153
20
-2.68909
11
4.81444
21
-2.6772
0
LINE
8
BLACK
6
CONTINUOUS
10
4.81444
20
-2.6772
11
4.81327
21
-2.67135
0
LINE
8
BLACK
6
CONTINUOUS
10
4.81327
20
-2.67135
11
4.81327
21
-2.67135
0
LINE
8
BLACK
6
CONTINUOUS
10
4.81327
20
-2.67135
11
4.81328
21
-2.67125
0
LINE
8
BLACK
6
CONTINUOUS
10
4.81328
20
-2.67125
11
4.81324
21
-2.67119
0
LINE
8
BLACK
6
CONTINUOUS
10
4.81324
20
-2.67119
11
4.80804
21
-2.62623
0
LINE
8
BLACK
6
CONTINUOUS
10
4.80804
20
-2.62623
11
4.80807
21
-2.62615
0
LINE
8
BLACK
6
CONTINUOUS
10
4.80807
20
-2.62615
11
4.80803
21
-2.62605
0
LINE
8
BLACK
6
CONTINUOUS
10
4.80803
20
-2.62605
11
4.80803
21
-2.62605
0
LINE
8
BLACK
6
CONTINUOUS
10
4.80803
20
-2.62605
11
4.80846
21
-2.61562
0
LINE
8
BLACK
6
CONTINUOUS
10
4.80846
20
-2.61562
11
4.81027
21
-2.60534
0
LINE
8
BLACK
6
CONTINUOUS
10
4.81027
20
-2.60534
11
4.81344
21
-2.59539
0
LINE
8
BLACK
6
CONTINUOUS
10
4.81344
20
-2.59539
11
4.81791
21
-2.58596
0
LINE
8
BLACK
6
CONTINUOUS
10
4.81791
20
-2.58596
11
4.8236
21
-2.5772
0
LINE
8
BLACK
6
CONTINUOUS
10
4.8236
20
-2.5772
11
4.83041
21
-2.56929
0
LINE
8
BLACK
6
CONTINUOUS
10
4.83041
20
-2.56929
11
4.83822
21
-2.56236
0
LINE
8
BLACK
6
CONTINUOUS
10
4.83822
20
-2.56236
11
4.84688
21
-2.55653
0
LINE
8
BLACK
6
CONTINUOUS
10
4.84688
20
-2.55653
11
4.85624
21
-2.55191
0
LINE
8
BLACK
6
CONTINUOUS
10
4.85624
20
-2.55191
11
4.86614
21
-2.54858
0
LINE
8
BLACK
6
CONTINUOUS
10
4.86614
20
-2.54858
11
4.87639
21
-2.5466
0
LINE
8
BLACK
6
CONTINUOUS
10
4.87639
20
-2.5466
11
4.87642
21
-2.54661
0
LINE
8
BLACK
6
CONTINUOUS
10
4.87642
20
-2.54661
11
4.87645
21
-2.54659
0
LINE
8
BLACK
6
CONTINUOUS
10
4.87645
20
-2.54659
11
4.915
21
-2.54303
0
LINE
8
BLACK
6
CONTINUOUS
10
4.915
20
-2.54303
11
4.915
21
-2.54303
0
LINE
8
BLACK
6
CONTINUOUS
10
4.915
20
-2.54303
11
4.994
21
-2.53552
0
LINE
8
BLACK
6
CONTINUOUS
10
4.994
20
-2.53552
11
4.99402
21
-2.53553
0
LINE
8
BLACK
6
CONTINUOUS
10
4.99402
20
-2.53553
11
4.99404
21
-2.53552
0
LINE
8
BLACK
6
CONTINUOUS
10
4.99404
20
-2.53552
11
5.07693
21
-2.5293
0
LINE
8
BLACK
6
CONTINUOUS
10
5.07693
20
-2.5293
11
5.07695
21
-2.5293
0
LINE
8
BLACK
6
CONTINUOUS
10
5.07695
20
-2.5293
11
5.07697
21
-2.52929
0
LINE
8
BLACK
6
CONTINUOUS
10
5.07697
20
-2.52929
11
5.1636
21
-2.52457
0
LINE
8
BLACK
6
CONTINUOUS
10
5.1636
20
-2.52457
11
5.16362
21
-2.52458
0
LINE
8
BLACK
6
CONTINUOUS
10
5.16362
20
-2.52458
11
5.16364
21
-2.52457
0
LINE
8
BLACK
6
CONTINUOUS
10
5.16364
20
-2.52457
11
5.25384
21
-2.52158
0
LINE
8
BLACK
6
CONTINUOUS
10
5.25384
20
-2.52158
11
5.25386
21
-2.52159
0
LINE
8
BLACK
6
CONTINUOUS
10
5.25386
20
-2.52159
11
5.25388
21
-2.52158
0
LINE
8
BLACK
6
CONTINUOUS
10
5.25388
20
-2.52158
11
5.34749
21
-2.52053
0
LINE
8
BLACK
6
CONTINUOUS
10
5.34749
20
-2.52053
11
5.34751
21
-2.52054
0
LINE
8
BLACK
6
CONTINUOUS
10
4.62307
20
-2.71041
11
4.62308
21
-2.71032
0
LINE
8
BLACK
6
CONTINUOUS
10
4.62308
20
-2.71032
11
4.62305
21
-2.71026
0
LINE
8
BLACK
6
CONTINUOUS
10
4.62305
20
-2.71026
11
4.61991
21
-2.68652
0
LINE
8
BLACK
6
CONTINUOUS
10
4.61991
20
-2.68652
11
4.61991
21
-2.68651
0
LINE
8
BLACK
6
CONTINUOUS
10
4.61991
20
-2.68651
11
4.61991
21
-2.6865
0
LINE
8
BLACK
6
CONTINUOUS
10
4.61991
20
-2.6865
11
4.61991
21
-2.6865
0
LINE
8
BLACK
6
CONTINUOUS
10
4.61991
20
-2.6865
11
4.6193
21
-2.68157
0
LINE
8
BLACK
6
CONTINUOUS
10
4.6193
20
-2.68157
11
4.61677
21
-2.67197
0
LINE
8
BLACK
6
CONTINUOUS
10
4.61677
20
-2.67197
11
4.61298
21
-2.66278
0
LINE
8
BLACK
6
CONTINUOUS
10
4.61298
20
-2.66278
11
4.60799
21
-2.65419
0
LINE
8
BLACK
6
CONTINUOUS
10
4.60799
20
-2.65419
11
4.60191
21
-2.64634
0
LINE
8
BLACK
6
CONTINUOUS
10
4.60191
20
-2.64634
11
4.59482
21
-2.63937
0
LINE
8
BLACK
6
CONTINUOUS
10
4.59482
20
-2.63937
11
4.58688
21
-2.63341
0
LINE
8
BLACK
6
CONTINUOUS
10
4.58688
20
-2.63341
11
4.5782
21
-2.62856
0
LINE
8
BLACK
6
CONTINUOUS
10
4.5782
20
-2.62856
11
4.56896
21
-2.62492
0
LINE
8
BLACK
6
CONTINUOUS
10
4.56896
20
-2.62492
11
4.55931
21
-2.62254
0
LINE
8
BLACK
6
CONTINUOUS
10
4.55931
20
-2.62254
11
4.54943
21
-2.62147
0
LINE
8
BLACK
6
CONTINUOUS
10
4.54943
20
-2.62147
11
4.54487
21
-2.62159
0
LINE
8
BLACK
6
CONTINUOUS
10
4.54487
20
-2.62159
11
4.53014
21
-2.62825
0
LINE
8
BLACK
6
CONTINUOUS
10
4.53014
20
-2.62825
11
4.50738
21
-2.63952
0
LINE
8
BLACK
6
CONTINUOUS
10
4.50738
20
-2.63952
11
4.48518
21
-2.65164
0
LINE
8
BLACK
6
CONTINUOUS
10
4.48518
20
-2.65164
11
4.46355
21
-2.66458
0
LINE
8
BLACK
6
CONTINUOUS
10
4.46355
20
-2.66458
11
4.44251
21
-2.67834
0
LINE
8
BLACK
6
CONTINUOUS
10
4.44251
20
-2.67834
11
4.42209
21
-2.69287
0
LINE
8
BLACK
6
CONTINUOUS
10
4.42209
20
-2.69287
11
4.38309
21
-2.72425
0
LINE
8
BLACK
6
CONTINUOUS
10
4.38309
20
-2.72425
11
4.34674
21
-2.75851
0
LINE
8
BLACK
6
CONTINUOUS
10
4.34674
20
-2.75851
11
4.31316
21
-2.79551
0
LINE
8
BLACK
6
CONTINUOUS
10
4.31316
20
-2.79551
11
4.28247
21
-2.83507
0
LINE
8
BLACK
6
CONTINUOUS
10
4.28247
20
-2.83507
11
4.25482
21
-2.87702
0
LINE
8
BLACK
6
CONTINUOUS
10
4.25482
20
-2.87702
11
4.23035
21
-2.92121
0
LINE
8
BLACK
6
CONTINUOUS
10
4.23035
20
-2.92121
11
4.20918
21
-2.96746
0
LINE
8
BLACK
6
CONTINUOUS
10
4.20918
20
-2.96746
11
4.19146
21
-3.01562
0
LINE
8
BLACK
6
CONTINUOUS
10
4.19146
20
-3.01562
11
4.18394
21
-3.04033
0
LINE
8
BLACK
6
CONTINUOUS
10
4.18394
20
-3.04033
11
4.17733
21
-3.06548
0
LINE
8
BLACK
6
CONTINUOUS
10
4.17733
20
-3.06548
11
4.17165
21
-3.09101
0
LINE
8
BLACK
6
CONTINUOUS
10
4.17165
20
-3.09101
11
4.16691
21
-3.11692
0
LINE
8
BLACK
6
CONTINUOUS
10
4.16691
20
-3.11692
11
4.15619
21
-3.18597
0
LINE
8
BLACK
6
CONTINUOUS
10
4.15619
20
-3.18597
11
4.14604
21
-3.25904
0
LINE
8
BLACK
6
CONTINUOUS
10
4.14604
20
-3.25904
11
4.13673
21
-3.33575
0
LINE
8
BLACK
6
CONTINUOUS
10
4.13673
20
-3.33575
11
4.12852
21
-3.41569
0
LINE
8
BLACK
6
CONTINUOUS
10
4.12852
20
-3.41569
11
4.12167
21
-3.49847
0
LINE
8
BLACK
6
CONTINUOUS
10
4.12167
20
-3.49847
11
4.11646
21
-3.58371
0
LINE
8
BLACK
6
CONTINUOUS
10
4.11646
20
-3.58371
11
4.11314
21
-3.67102
0
LINE
8
BLACK
6
CONTINUOUS
10
4.11314
20
-3.67102
11
4.11197
21
-3.76
0
LINE
8
BLACK
6
CONTINUOUS
10
4.11197
20
-3.76
11
4.11319
21
-3.8511
0
LINE
8
BLACK
6
CONTINUOUS
10
4.11319
20
-3.8511
11
4.11667
21
-3.94043
0
LINE
8
BLACK
6
CONTINUOUS
10
4.11667
20
-3.94043
11
4.12211
21
-4.02757
0
LINE
8
BLACK
6
CONTINUOUS
10
4.12211
20
-4.02757
11
4.12925
21
-4.11212
0
LINE
8
BLACK
6
CONTINUOUS
10
4.12925
20
-4.11212
11
4.13779
21
-4.19365
0
LINE
8
BLACK
6
CONTINUOUS
10
4.13779
20
-4.19365
11
4.14746
21
-4.27173
0
LINE
8
BLACK
6
CONTINUOUS
10
4.14746
20
-4.27173
11
4.15796
21
-4.34595
0
LINE
8
BLACK
6
CONTINUOUS
10
4.15796
20
-4.34595
11
4.16902
21
-4.41587
0
LINE
8
BLACK
6
CONTINUOUS
10
4.16902
20
-4.41587
11
4.17925
21
-4.46585
0
LINE
8
BLACK
6
CONTINUOUS
10
4.17925
20
-4.46585
11
4.18563
21
-4.48773
0
LINE
8
BLACK
6
CONTINUOUS
10
4.18563
20
-4.48773
11
4.18562
21
-4.48783
0
LINE
8
BLACK
6
CONTINUOUS
10
4.18562
20
-4.48783
11
4.18568
21
-4.48795
0
LINE
8
BLACK
6
CONTINUOUS
10
4.18568
20
-4.48795
11
4.18568
21
-4.48795
0
LINE
8
BLACK
6
CONTINUOUS
10
4.18568
20
-4.48795
11
4.18652
21
-4.49289
0
LINE
8
BLACK
6
CONTINUOUS
10
4.18652
20
-4.49289
11
4.18956
21
-4.50243
0
LINE
8
BLACK
6
CONTINUOUS
10
4.18956
20
-4.50243
11
4.19391
21
-4.51146
0
LINE
8
BLACK
6
CONTINUOUS
10
4.19391
20
-4.51146
11
4.19947
21
-4.51979
0
LINE
8
BLACK
6
CONTINUOUS
10
4.19947
20
-4.51979
11
4.20615
21
-4.52726
0
LINE
8
BLACK
6
CONTINUOUS
10
4.20615
20
-4.52726
11
4.2138
21
-4.53373
0
LINE
8
BLACK
6
CONTINUOUS
10
4.2138
20
-4.53373
11
4.22228
21
-4.53906
0
LINE
8
BLACK
6
CONTINUOUS
10
4.22228
20
-4.53906
11
4.23143
21
-4.54315
0
LINE
8
BLACK
6
CONTINUOUS
10
4.23143
20
-4.54315
11
4.24105
21
-4.54592
0
LINE
8
BLACK
6
CONTINUOUS
10
4.24105
20
-4.54592
11
4.25097
21
-4.54733
0
LINE
8
BLACK
6
CONTINUOUS
10
4.25097
20
-4.54733
11
4.26099
21
-4.54733
0
LINE
8
BLACK
6
CONTINUOUS
10
4.26099
20
-4.54733
11
4.27091
21
-4.54593
0
LINE
8
BLACK
6
CONTINUOUS
10
4.27091
20
-4.54593
11
4.27545
21
-4.54463
0
LINE
8
BLACK
6
CONTINUOUS
10
4.27545
20
-4.54463
11
4.31478
21
-4.51953
0
LINE
8
BLACK
6
CONTINUOUS
10
4.31478
20
-4.51953
11
4.31479
21
-4.51953
0
LINE
8
BLACK
6
CONTINUOUS
10
4.31479
20
-4.51953
11
4.32538
21
-4.51296
0
LINE
8
BLACK
6
CONTINUOUS
10
4.32538
20
-4.51296
11
4.33678
21
-4.50768
0
LINE
8
BLACK
6
CONTINUOUS
10
4.33678
20
-4.50768
11
4.34872
21
-4.5038
0
LINE
8
BLACK
6
CONTINUOUS
10
4.34872
20
-4.5038
11
4.36105
21
-4.50137
0
LINE
8
BLACK
6
CONTINUOUS
10
4.36105
20
-4.50137
11
4.37358
21
-4.50045
0
LINE
8
BLACK
6
CONTINUOUS
10
4.37358
20
-4.50045
11
4.38613
21
-4.50103
0
LINE
8
BLACK
6
CONTINUOUS
10
4.38613
20
-4.50103
11
4.39851
21
-4.50312
0
LINE
8
BLACK
6
CONTINUOUS
10
4.39851
20
-4.50312
11
4.41056
21
-4.50667
0
LINE
8
BLACK
6
CONTINUOUS
10
4.41056
20
-4.50667
11
4.4221
21
-4.51165
0
LINE
8
BLACK
6
CONTINUOUS
10
4.4221
20
-4.51165
11
4.43295
21
-4.51797
0
LINE
8
BLACK
6
CONTINUOUS
10
4.43295
20
-4.51797
11
4.44297
21
-4.52555
0
LINE
8
BLACK
6
CONTINUOUS
10
4.44297
20
-4.52555
11
4.45201
21
-4.53427
0
LINE
8
BLACK
6
CONTINUOUS
10
4.45201
20
-4.53427
11
4.45994
21
-4.54402
0
LINE
8
BLACK
6
CONTINUOUS
10
4.45994
20
-4.54402
11
4.46664
21
-4.55464
0
LINE
8
BLACK
6
CONTINUOUS
10
4.46664
20
-4.55464
11
4.47201
21
-4.566
0
LINE
8
BLACK
6
CONTINUOUS
10
4.47201
20
-4.566
11
4.47599
21
-4.57791
0
LINE
8
BLACK
6
CONTINUOUS
10
4.47599
20
-4.57791
11
4.47851
21
-4.59022
0
LINE
8
BLACK
6
CONTINUOUS
10
4.47851
20
-4.59022
11
4.47954
21
-4.60274
0
LINE
8
BLACK
6
CONTINUOUS
10
4.47954
20
-4.60274
11
4.47905
21
-4.61529
0
LINE
8
BLACK
6
CONTINUOUS
10
4.47905
20
-4.61529
11
4.47707
21
-4.6277
0
LINE
8
BLACK
6
CONTINUOUS
10
4.47707
20
-4.6277
11
4.47361
21
-4.63977
0
LINE
8
BLACK
6
CONTINUOUS
10
4.47361
20
-4.63977
11
4.46873
21
-4.65135
0
LINE
8
BLACK
6
CONTINUOUS
10
4.46873
20
-4.65135
11
4.46249
21
-4.66225
0
LINE
8
BLACK
6
CONTINUOUS
10
4.46249
20
-4.66225
11
4.455
21
-4.67233
0
LINE
8
BLACK
6
CONTINUOUS
10
4.455
20
-4.67233
11
4.44634
21
-4.68144
0
LINE
8
BLACK
6
CONTINUOUS
10
4.44634
20
-4.68144
11
4.44628
21
-4.68147
0
LINE
8
BLACK
6
CONTINUOUS
10
4.44628
20
-4.68147
11
4.44625
21
-4.68152
0
LINE
8
BLACK
6
CONTINUOUS
10
4.44625
20
-4.68152
11
4.40731
21
-4.71347
0
LINE
8
BLACK
6
CONTINUOUS
10
4.40731
20
-4.71347
11
4.40378
21
-4.71704
0
LINE
8
BLACK
6
CONTINUOUS
10
4.40378
20
-4.71704
11
4.39757
21
-4.72525
0
LINE
8
BLACK
6
CONTINUOUS
10
4.39757
20
-4.72525
11
4.39252
21
-4.73422
0
LINE
8
BLACK
6
CONTINUOUS
10
4.39252
20
-4.73422
11
4.3887
21
-4.74378
0
LINE
8
BLACK
6
CONTINUOUS
10
4.3887
20
-4.74378
11
4.38618
21
-4.75376
0
LINE
8
BLACK
6
CONTINUOUS
10
4.38618
20
-4.75376
11
4.38502
21
-4.76398
0
LINE
8
BLACK
6
CONTINUOUS
10
4.38502
20
-4.76398
11
4.38522
21
-4.77427
0
LINE
8
BLACK
6
CONTINUOUS
10
4.38522
20
-4.77427
11
4.38679
21
-4.78445
0
LINE
8
BLACK
6
CONTINUOUS
10
4.38679
20
-4.78445
11
4.3897
21
-4.79432
0
LINE
8
BLACK
6
CONTINUOUS
10
4.3897
20
-4.79432
11
4.3939
21
-4.80372
0
LINE
8
BLACK
6
CONTINUOUS
10
4.3939
20
-4.80372
11
4.39931
21
-4.81248
0
LINE
8
BLACK
6
CONTINUOUS
10
4.39931
20
-4.81248
11
4.40583
21
-4.82044
0
LINE
8
BLACK
6
CONTINUOUS
10
4.40583
20
-4.82044
11
4.41336
21
-4.82746
0
LINE
8
BLACK
6
CONTINUOUS
10
4.41336
20
-4.82746
11
4.42175
21
-4.83342
0
LINE
8
BLACK
6
CONTINUOUS
10
4.42175
20
-4.83342
11
4.4263
21
-4.83581
0
LINE
8
BLACK
6
CONTINUOUS
10
4.4263
20
-4.83581
11
4.42646
21
-4.83598
0
LINE
8
BLACK
6
CONTINUOUS
10
4.42646
20
-4.83598
11
4.42662
21
-4.83602
0
LINE
8
BLACK
6
CONTINUOUS
10
4.42662
20
-4.83602
11
4.43617
21
-4.84372
0
LINE
8
BLACK
6
CONTINUOUS
10
4.43617
20
-4.84372
11
4.45654
21
-4.85718
0
LINE
8
BLACK
6
CONTINUOUS
10
4.45654
20
-4.85718
11
4.47754
21
-4.86988
0
LINE
8
BLACK
6
CONTINUOUS
10
4.47754
20
-4.86988
11
4.4991
21
-4.88177
0
LINE
8
BLACK
6
CONTINUOUS
10
4.4991
20
-4.88177
11
4.52122
21
-4.89283
0
LINE
8
BLACK
6
CONTINUOUS
10
4.52122
20
-4.89283
11
4.54388
21
-4.90304
0
LINE
8
BLACK
6
CONTINUOUS
10
4.54388
20
-4.90304
11
4.56706
21
-4.91238
0
LINE
8
BLACK
6
CONTINUOUS
10
4.56706
20
-4.91238
11
4.59075
21
-4.92083
0
LINE
8
BLACK
6
CONTINUOUS
10
4.59075
20
-4.92083
11
4.61493
21
-4.92836
0
LINE
8
BLACK
6
CONTINUOUS
10
4.61493
20
-4.92836
11
4.63959
21
-4.93496
0
LINE
8
BLACK
6
CONTINUOUS
10
4.63959
20
-4.93496
11
4.66471
21
-4.9406
0
LINE
8
BLACK
6
CONTINUOUS
10
4.66471
20
-4.9406
11
4.69029
21
-4.94526
0
LINE
8
BLACK
6
CONTINUOUS
10
4.69029
20
-4.94526
11
4.75612
21
-4.95527
0
LINE
8
BLACK
6
CONTINUOUS
10
4.75612
20
-4.95527
11
4.82678
21
-4.96464
0
LINE
8
BLACK
6
CONTINUOUS
10
4.82678
20
-4.96464
11
4.90219
21
-4.97318
0
LINE
8
BLACK
6
CONTINUOUS
10
4.90219
20
-4.97318
11
4.98221
21
-4.98064
0
LINE
8
BLACK
6
CONTINUOUS
10
4.98221
20
-4.98064
11
5.06681
21
-4.98303
0
LINE
8
BLACK
6
CONTINUOUS
10
5.06681
20
-4.98303
11
5.145
21
-4.98303
0
LINE
8
BLACK
6
CONTINUOUS
10
5.145
20
-4.98303
11
5.575
21
-4.98303
0
LINE
8
BLACK
6
CONTINUOUS
10
5.575
20
-4.98303
11
5.65995
21
-4.98303
0
LINE
8
BLACK
6
CONTINUOUS
10
5.65995
20
-4.98303
11
5.75483
21
-4.97804
0
LINE
8
BLACK
6
CONTINUOUS
10
5.75483
20
-4.97804
11
5.84301
21
-4.96766
0
LINE
8
BLACK
6
CONTINUOUS
10
5.84301
20
-4.96766
11
5.92448
21
-4.95729
0
LINE
8
BLACK
6
CONTINUOUS
10
5.92448
20
-4.95729
11
5.99978
21
-4.94606
0
LINE
8
BLACK
6
CONTINUOUS
10
5.99978
20
-4.94606
11
6.06878
21
-4.93428
0
LINE
8
BLACK
6
CONTINUOUS
10
6.06878
20
-4.93428
11
6.1119
21
-4.92484
0
LINE
8
BLACK
6
CONTINUOUS
10
6.1119
20
-4.92484
11
6.15367
21
-4.91244
0
LINE
8
BLACK
6
CONTINUOUS
10
6.15367
20
-4.91244
11
6.19399
21
-4.89718
0
LINE
8
BLACK
6
CONTINUOUS
10
6.19399
20
-4.89718
11
6.23272
21
-4.87916
0
LINE
8
BLACK
6
CONTINUOUS
10
6.23272
20
-4.87916
11
6.26974
21
-4.85848
0
LINE
8
BLACK
6
CONTINUOUS
10
6.26974
20
-4.85848
11
6.30492
21
-4.83522
0
LINE
8
BLACK
6
CONTINUOUS
10
6.30492
20
-4.83522
11
6.33809
21
-4.80951
0
LINE
8
BLACK
6
CONTINUOUS
10
6.33809
20
-4.80951
11
6.35008
21
-4.79796
0
LINE
8
BLACK
6
CONTINUOUS
10
6.35008
20
-4.79796
11
6.35009
21
-4.79796
0
LINE
8
BLACK
6
CONTINUOUS
10
6.35009
20
-4.79796
11
6.35009
21
-4.79796
0
LINE
8
BLACK
6
CONTINUOUS
10
6.35009
20
-4.79796
11
6.35319
21
-4.795
0
LINE
8
BLACK
6
CONTINUOUS
10
6.35319
20
-4.795
11
6.35845
21
-4.78823
0
LINE
8
BLACK
6
CONTINUOUS
10
6.35845
20
-4.78823
11
6.36266
21
-4.78076
0
LINE
8
BLACK
6
CONTINUOUS
10
6.36266
20
-4.78076
11
6.36572
21
-4.77275
0
LINE
8
BLACK
6
CONTINUOUS
10
6.36572
20
-4.77275
11
6.36758
21
-4.76438
0
LINE
8
BLACK
6
CONTINUOUS
10
6.36758
20
-4.76438
11
6.36819
21
-4.75583
0
LINE
8
BLACK
6
CONTINUOUS
10
6.36819
20
-4.75583
11
6.36753
21
-4.74729
0
LINE
8
BLACK
6
CONTINUOUS
10
6.36753
20
-4.74729
11
6.36563
21
-4.73893
0
LINE
8
BLACK
6
CONTINUOUS
10
6.36563
20
-4.73893
11
6.36251
21
-4.73094
0
LINE
8
BLACK
6
CONTINUOUS
10
6.36251
20
-4.73094
11
6.35826
21
-4.7235
0
LINE
8
BLACK
6
CONTINUOUS
10
6.35826
20
-4.7235
11
6.35296
21
-4.71676
0
LINE
8
BLACK
6
CONTINUOUS
10
6.35296
20
-4.71676
11
6.34991
21
-4.71387
0
LINE
8
BLACK
6
CONTINUOUS
10
6.34991
20
-4.71387
11
6.30324
21
-4.67676
0
LINE
8
BLACK
6
CONTINUOUS
10
6.30324
20
-4.67676
11
6.30321
21
-4.67669
0
LINE
8
BLACK
6
CONTINUOUS
10
6.30321
20
-4.67669
11
6.30312
21
-4.67665
0
LINE
8
BLACK
6
CONTINUOUS
10
6.30312
20
-4.67665
11
6.29486
21
-4.66794
0
LINE
8
BLACK
6
CONTINUOUS
10
6.29486
20
-4.66794
11
6.28773
21
-4.65827
0
LINE
8
BLACK
6
CONTINUOUS
10
6.28773
20
-4.65827
11
6.28183
21
-4.64781
0
LINE
8
BLACK
6
CONTINUOUS
10
6.28183
20
-4.64781
11
6.27725
21
-4.63671
0
LINE
8
BLACK
6
CONTINUOUS
10
6.27725
20
-4.63671
11
6.27407
21
-4.62512
0
LINE
8
BLACK
6
CONTINUOUS
10
6.27407
20
-4.62512
11
6.27233
21
-4.61324
0
LINE
8
BLACK
6
CONTINUOUS
10
6.27233
20
-4.61324
11
6.27206
21
-4.60123
0
LINE
8
BLACK
6
CONTINUOUS
10
6.27206
20
-4.60123
11
6.27325
21
-4.58928
0
LINE
8
BLACK
6
CONTINUOUS
10
6.27325
20
-4.58928
11
6.2759
21
-4.57757
0
LINE
8
BLACK
6
CONTINUOUS
10
6.2759
20
-4.57757
11
6.27996
21
-4.56626
0
LINE
8
BLACK
6
CONTINUOUS
10
6.27996
20
-4.56626
11
6.28538
21
-4.55554
0
LINE
8
BLACK
6
CONTINUOUS
10
6.28538
20
-4.55554
11
6.29206
21
-4.54556
0
LINE
8
BLACK
6
CONTINUOUS
10
6.29206
20
-4.54556
11
6.29992
21
-4.53648
0
LINE
8
BLACK
6
CONTINUOUS
10
6.29992
20
-4.53648
11
6.30882
21
-4.52842
0
LINE
8
BLACK
6
CONTINUOUS
10
6.30882
20
-4.52842
11
6.31865
21
-4.52151
0
LINE
8
BLACK
6
CONTINUOUS
10
6.31865
20
-4.52151
11
6.32925
21
-4.51586
0
LINE
8
BLACK
6
CONTINUOUS
10
6.32925
20
-4.51586
11
6.34046
21
-4.51154
0
LINE
8
BLACK
6
CONTINUOUS
10
6.34046
20
-4.51154
11
6.35211
21
-4.50863
0
LINE
8
BLACK
6
CONTINUOUS
10
6.35211
20
-4.50863
11
6.36403
21
-4.50717
0
LINE
8
BLACK
6
CONTINUOUS
10
6.36403
20
-4.50717
11
6.37604
21
-4.50717
0
LINE
8
BLACK
6
CONTINUOUS
10
6.37604
20
-4.50717
11
6.38796
21
-4.50864
0
LINE
8
BLACK
6
CONTINUOUS
10
6.38796
20
-4.50864
11
6.39961
21
-4.51156
0
LINE
8
BLACK
6
CONTINUOUS
10
6.39961
20
-4.51156
11
6.41082
21
-4.51589
0
LINE
8
BLACK
6
CONTINUOUS
10
6.41082
20
-4.51589
11
6.42141
21
-4.52155
0
LINE
8
BLACK
6
CONTINUOUS
10
6.42141
20
-4.52155
11
6.43123
21
-4.52846
0
LINE
8
BLACK
6
CONTINUOUS
10
6.43123
20
-4.52846
11
6.43124
21
-4.52848
0
LINE
8
BLACK
6
CONTINUOUS
10
6.43124
20
-4.52848
11
6.43126
21
-4.52848
0
LINE
8
BLACK
6
CONTINUOUS
10
6.43126
20
-4.52848
11
6.44359
21
-4.53871
0
LINE
8
BLACK
6
CONTINUOUS
10
6.44359
20
-4.53871
11
6.4436
21
-4.53873
0
LINE
8
BLACK
6
CONTINUOUS
10
6.4436
20
-4.53873
11
6.44362
21
-4.53874
0
LINE
8
BLACK
6
CONTINUOUS
10
6.44362
20
-4.53874
11
6.44362
21
-4.53874
0
LINE
8
BLACK
6
CONTINUOUS
10
6.44362
20
-4.53874
11
6.44673
21
-4.54142
0
LINE
8
BLACK
6
CONTINUOUS
10
6.44673
20
-4.54142
11
6.45377
21
-4.54565
0
LINE
8
BLACK
6
CONTINUOUS
10
6.45377
20
-4.54565
11
6.46142
21
-4.54864
0
LINE
8
BLACK
6
CONTINUOUS
10
6.46142
20
-4.54864
11
6.46946
21
-4.55031
0
LINE
8
BLACK
6
CONTINUOUS
10
6.46946
20
-4.55031
11
6.47767
21
-4.5506
0
LINE
8
BLACK
6
CONTINUOUS
10
6.47767
20
-4.5506
11
6.48581
21
-4.54951
0
LINE
8
BLACK
6
CONTINUOUS
10
6.48581
20
-4.54951
11
6.49365
21
-4.54706
0
LINE
8
BLACK
6
CONTINUOUS
10
6.49365
20
-4.54706
11
6.50097
21
-4.54334
0
LINE
8
BLACK
6
CONTINUOUS
10
6.50097
20
-4.54334
11
6.50756
21
-4.53844
0
LINE
8
BLACK
6
CONTINUOUS
10
6.50756
20
-4.53844
11
6.51324
21
-4.53251
0
LINE
8
BLACK
6
CONTINUOUS
10
6.51324
20
-4.53251
11
6.51535
21
-4.52937
0
LINE
8
BLACK
6
CONTINUOUS
10
6.51535
20
-4.52937
11
6.52216
21
-4.50441
0
LINE
8
BLACK
6
CONTINUOUS
10
6.52216
20
-4.50441
11
6.52653
21
-4.48239
0
LINE
8
BLACK
6
CONTINUOUS
10
6.52653
20
-4.48239
11
6.5376
21
-4.41584
0
LINE
8
BLACK
6
CONTINUOUS
10
6.5376
20
-4.41584
11
6.54806
21
-4.34269
0
LINE
8
BLACK
6
CONTINUOUS
10
6.54806
20
-4.34269
11
6.55764
21
-4.26287
0
LINE
8
BLACK
6
CONTINUOUS
10
6.55764
20
-4.26287
11
6.56607
21
-4.17626
0
LINE
8
BLACK
6
CONTINUOUS
10
6.56607
20
-4.17626
11
6.57309
21
-4.08276
0
LINE
8
BLACK
6
CONTINUOUS
10
6.57309
20
-4.08276
11
6.57844
21
-3.98229
0
LINE
8
BLACK
6
CONTINUOUS
10
6.57844
20
-3.98229
11
6.58184
21
-3.87473
0
LINE
8
BLACK
6
CONTINUOUS
10
6.58184
20
-3.87473
11
6.58303
21
-3.76
0
LINE
8
BLACK
6
CONTINUOUS
10
6.58303
20
-3.76
11
6.58189
21
-3.64786
0
LINE
8
BLACK
6
CONTINUOUS
10
6.58189
20
-3.64786
11
6.57864
21
-3.54258
0
LINE
8
BLACK
6
CONTINUOUS
10
6.57864
20
-3.54258
11
6.57353
21
-3.44405
0
LINE
8
BLACK
6
CONTINUOUS
10
6.57353
20
-3.44405
11
6.56679
21
-3.35219
0
LINE
8
BLACK
6
CONTINUOUS
10
6.56679
20
-3.35219
11
6.55869
21
-3.2669
0
LINE
8
BLACK
6
CONTINUOUS
10
6.55869
20
-3.2669
11
6.54946
21
-3.18809
0
LINE
8
BLACK
6
CONTINUOUS
10
6.54946
20
-3.18809
11
6.53936
21
-3.11567
0
LINE
8
BLACK
6
CONTINUOUS
10
6.53936
20
-3.11567
11
6.52863
21
-3.04955
0
LINE
8
BLACK
6
CONTINUOUS
10
6.52863
20
-3.04955
11
6.5242
21
-3.02675
0
LINE
8
BLACK
6
CONTINUOUS
10
6.5242
20
-3.02675
11
6.51892
21
-3.00438
0
LINE
8
BLACK
6
CONTINUOUS
10
6.51892
20
-3.00438
11
6.51281
21
-2.98244
0
LINE
8
BLACK
6
CONTINUOUS
10
6.51281
20
-2.98244
11
6.50589
21
-2.96094
0
LINE
8
BLACK
6
CONTINUOUS
10
6.50589
20
-2.96094
11
6.49818
21
-2.9399
0
LINE
8
BLACK
6
CONTINUOUS
10
6.49818
20
-2.9399
11
6.4897
21
-2.91933
0
LINE
8
BLACK
6
CONTINUOUS
10
6.4897
20
-2.91933
11
6.48045
21
-2.89923
0
LINE
8
BLACK
6
CONTINUOUS
10
6.48045
20
-2.89923
11
6.47047
21
-2.87963
0
LINE
8
BLACK
6
CONTINUOUS
10
6.47047
20
-2.87963
11
6.45977
21
-2.86052
0
LINE
8
BLACK
6
CONTINUOUS
10
6.45977
20
-2.86052
11
6.44836
21
-2.84192
0
LINE
8
BLACK
6
CONTINUOUS
10
6.44836
20
-2.84192
11
6.43627
21
-2.82385
0
LINE
8
BLACK
6
CONTINUOUS
10
6.43627
20
-2.82385
11
6.42353
21
-2.80633
0
LINE
8
BLACK
6
CONTINUOUS
10
6.42353
20
-2.80633
11
6.39607
21
-2.7729
0
LINE
8
BLACK
6
CONTINUOUS
10
6.39607
20
-2.7729
11
6.36618
21
-2.74176
0
LINE
8
BLACK
6
CONTINUOUS
10
6.36618
20
-2.74176
11
6.33398
21
-2.713
0
LINE
8
BLACK
6
CONTINUOUS
10
6.33398
20
-2.713
11
6.29962
21
-2.6867
0
LINE
8
BLACK
6
CONTINUOUS
10
6.29962
20
-2.6867
11
6.26325
21
-2.66296
0
LINE
8
BLACK
6
CONTINUOUS
10
6.26325
20
-2.66296
11
6.22501
21
-2.64187
0
LINE
8
BLACK
6
CONTINUOUS
10
6.22501
20
-2.64187
11
6.17899
21
-2.6215
0
LINE
8
BLACK
6
CONTINUOUS
10
6.17899
20
-2.6215
11
6.17896
21
-2.62147
0
LINE
8
BLACK
6
CONTINUOUS
10
6.17896
20
-2.62147
11
6.17891
21
-2.62147
0
LINE
8
BLACK
6
CONTINUOUS
10
6.17891
20
-2.62147
11
6.17891
21
-2.62147
0
LINE
8
BLACK
6
CONTINUOUS
10
6.17891
20
-2.62147
11
6.1746
21
-2.61934
0
LINE
8
BLACK
6
CONTINUOUS
10
6.1746
20
-2.61934
11
6.16544
21
-2.61639
0
LINE
8
BLACK
6
CONTINUOUS
10
6.16544
20
-2.61639
11
6.15595
21
-2.61481
0
LINE
8
BLACK
6
CONTINUOUS
10
6.15595
20
-2.61481
11
6.14633
21
-2.61465
0
LINE
8
BLACK
6
CONTINUOUS
10
6.14633
20
-2.61465
11
6.13679
21
-2.61589
0
LINE
8
BLACK
6
CONTINUOUS
10
6.13679
20
-2.61589
11
6.12754
21
-2.61852
0
LINE
8
BLACK
6
CONTINUOUS
10
6.12754
20
-2.61852
11
6.11877
21
-2.62247
0
LINE
8
BLACK
6
CONTINUOUS
10
6.11877
20
-2.62247
11
6.11068
21
-2.62767
0
LINE
8
BLACK
6
CONTINUOUS
10
6.11068
20
-2.62767
11
6.10343
21
-2.634
0
LINE
8
BLACK
6
CONTINUOUS
10
6.10343
20
-2.634
11
6.09719
21
-2.64132
0
LINE
8
BLACK
6
CONTINUOUS
10
6.09719
20
-2.64132
11
6.09209
21
-2.64948
0
LINE
8
BLACK
6
CONTINUOUS
10
6.09209
20
-2.64948
11
6.09024
21
-2.65372
0
LINE
8
BLACK
6
CONTINUOUS
10
6.09024
20
-2.65372
11
6.07671
21
-2.71146
0
LINE
8
BLACK
6
CONTINUOUS
10
6.07671
20
-2.71146
11
6.07671
21
-2.71146
0
LINE
8
BLACK
6
CONTINUOUS
10
6.07671
20
-2.71146
11
6.07341
21
-2.72348
0
LINE
8
BLACK
6
CONTINUOUS
10
6.07341
20
-2.72348
11
6.06867
21
-2.73506
0
LINE
8
BLACK
6
CONTINUOUS
10
6.06867
20
-2.73506
11
6.06258
21
-2.74599
0
LINE
8
BLACK
6
CONTINUOUS
10
6.06258
20
-2.74599
11
6.05522
21
-2.75611
0
LINE
8
BLACK
6
CONTINUOUS
10
6.05522
20
-2.75611
11
6.04669
21
-2.76527
0
LINE
8
BLACK
6
CONTINUOUS
10
6.04669
20
-2.76527
11
6.03713
21
-2.77334
0
LINE
8
BLACK
6
CONTINUOUS
10
6.03713
20
-2.77334
11
6.02667
21
-2.7802
0
LINE
8
BLACK
6
CONTINUOUS
10
6.02667
20
-2.7802
11
6.01546
21
-2.78575
0
LINE
8
BLACK
6
CONTINUOUS
10
6.01546
20
-2.78575
11
6.00366
21
-2.78992
0
LINE
8
BLACK
6
CONTINUOUS
10
6.00366
20
-2.78992
11
5.99145
21
-2.79264
0
LINE
8
BLACK
6
CONTINUOUS
10
5.99145
20
-2.79264
11
5.97899
21
-2.79387
0
LINE
8
BLACK
6
CONTINUOUS
10
5.97899
20
-2.79387
11
5.96649
21
-2.7936
0
LINE
8
BLACK
6
CONTINUOUS
10
5.96649
20
-2.7936
11
5.9541
21
-2.79183
0
LINE
8
BLACK
6
CONTINUOUS
10
5.9541
20
-2.79183
11
5.94202
21
-2.78858
0
LINE
8
BLACK
6
CONTINUOUS
10
5.94202
20
-2.78858
11
5.93041
21
-2.7839
0
LINE
8
BLACK
6
CONTINUOUS
10
5.93041
20
-2.7839
11
5.91945
21
-2.77786
0
LINE
8
BLACK
6
CONTINUOUS
10
5.91945
20
-2.77786
11
5.9093
21
-2.77055
0
LINE
8
BLACK
6
CONTINUOUS
10
5.9093
20
-2.77055
11
5.9001
21
-2.76207
0
LINE
8
BLACK
6
CONTINUOUS
10
5.9001
20
-2.76207
11
5.89198
21
-2.75255
0
LINE
8
BLACK
6
CONTINUOUS
10
5.89198
20
-2.75255
11
5.88506
21
-2.74212
0
LINE
8
BLACK
6
CONTINUOUS
10
5.88506
20
-2.74212
11
5.87945
21
-2.73094
0
LINE
8
BLACK
6
CONTINUOUS
10
5.87945
20
-2.73094
11
5.87523
21
-2.71916
0
LINE
8
BLACK
6
CONTINUOUS
10
5.87523
20
-2.71916
11
5.87244
21
-2.70696
0
LINE
8
BLACK
6
CONTINUOUS
10
5.87244
20
-2.70696
11
5.87115
21
-2.69452
0
LINE
8
BLACK
6
CONTINUOUS
10
5.87115
20
-2.69452
11
5.87136
21
-2.68201
0
LINE
8
BLACK
6
CONTINUOUS
10
5.87136
20
-2.68201
11
5.87307
21
-2.66961
0
LINE
8
BLACK
6
CONTINUOUS
10
5.87307
20
-2.66961
11
5.87307
21
-2.66961
0
LINE
8
BLACK
6
CONTINUOUS
10
5.87307
20
-2.66961
11
5.87309
21
-2.66958
0
LINE
8
BLACK
6
CONTINUOUS
10
5.87309
20
-2.66958
11
5.87308
21
-2.66956
0
LINE
8
BLACK
6
CONTINUOUS
10
5.87308
20
-2.66956
11
5.8832
21
-2.62578
0
LINE
8
BLACK
6
CONTINUOUS
10
5.8832
20
-2.62578
11
5.88333
21
-2.62124
0
LINE
8
BLACK
6
CONTINUOUS
10
5.88333
20
-2.62124
11
5.8824
21
-2.6118
0
LINE
8
BLACK
6
CONTINUOUS
10
5.8824
20
-2.6118
11
5.88026
21
-2.60256
0
LINE
8
BLACK
6
CONTINUOUS
10
5.88026
20
-2.60256
11
5.87696
21
-2.59368
0
LINE
8
BLACK
6
CONTINUOUS
10
5.87696
20
-2.59368
11
5.87255
21
-2.58528
0
LINE
8
BLACK
6
CONTINUOUS
10
5.87255
20
-2.58528
11
5.8671
21
-2.57752
0
LINE
8
BLACK
6
CONTINUOUS
10
5.8671
20
-2.57752
11
5.8607
21
-2.57053
0
LINE
8
BLACK
6
CONTINUOUS
10
5.8607
20
-2.57053
11
5.85345
21
-2.56441
0
LINE
8
BLACK
6
CONTINUOUS
10
5.85345
20
-2.56441
11
5.84549
21
-2.55927
0
LINE
8
BLACK
6
CONTINUOUS
10
5.84549
20
-2.55927
11
5.83693
21
-2.55519
0
LINE
8
BLACK
6
CONTINUOUS
10
5.83693
20
-2.55519
11
5.82792
21
-2.55224
0
LINE
8
BLACK
6
CONTINUOUS
10
5.82792
20
-2.55224
11
5.8186
21
-2.55047
0
LINE
8
BLACK
6
CONTINUOUS
10
5.8186
20
-2.55047
11
5.81387
21
-2.55019
0
LINE
8
BLACK
6
CONTINUOUS
10
5.81387
20
-2.55019
11
5.81313
21
-2.54989
0
LINE
8
BLACK
6
CONTINUOUS
10
5.81313
20
-2.54989
11
5.74263
21
-2.54324
0
LINE
8
BLACK
6
CONTINUOUS
10
5.74263
20
-2.54324
11
5.65089
21
-2.53551
0
LINE
8
BLACK
6
CONTINUOUS
10
5.65089
20
-2.53551
11
5.55431
21
-2.52959
0
LINE
8
BLACK
6
CONTINUOUS
10
5.55431
20
-2.52959
11
5.4531
21
-2.5258
0
LINE
8
BLACK
6
CONTINUOUS
10
5.4531
20
-2.5258
11
5.34751
21
-2.52447
0
LINE
8
BLACK
6
CONTINUOUS
10
5.34751
20
-2.52447
11
5.25395
21
-2.52551
0
LINE
8
BLACK
6
CONTINUOUS
10
5.25395
20
-2.52551
11
5.16379
21
-2.52851
0
LINE
8
BLACK
6
CONTINUOUS
10
5.16379
20
-2.52851
11
5.07721
21
-2.53322
0
LINE
8
BLACK
6
CONTINUOUS
10
5.07721
20
-2.53322
11
4.99435
21
-2.53944
0
LINE
8
BLACK
6
CONTINUOUS
10
4.99435
20
-2.53944
11
4.91538
21
-2.54695
0
LINE
8
BLACK
6
CONTINUOUS
10
4.91538
20
-2.54695
11
4.91537
21
-2.54695
0
LINE
8
BLACK
6
CONTINUOUS
10
4.91537
20
-2.54695
11
4.91537
21
-2.54695
0
LINE
8
BLACK
6
CONTINUOUS
10
4.91537
20
-2.54695
11
4.87684
21
-2.55051
0
LINE
8
BLACK
6
CONTINUOUS
10
4.87684
20
-2.55051
11
4.87194
21
-2.55112
0
LINE
8
BLACK
6
CONTINUOUS
10
4.87194
20
-2.55112
11
4.86233
21
-2.55365
0
LINE
8
BLACK
6
CONTINUOUS
10
4.86233
20
-2.55365
11
4.85315
21
-2.55744
0
LINE
8
BLACK
6
CONTINUOUS
10
4.85315
20
-2.55744
11
4.84456
21
-2.56242
0
LINE
8
BLACK
6
CONTINUOUS
10
4.84456
20
-2.56242
11
4.8367
21
-2.56851
0
LINE
8
BLACK
6
CONTINUOUS
10
4.8367
20
-2.56851
11
4.82973
21
-2.57559
0
LINE
8
BLACK
6
CONTINUOUS
10
4.82973
20
-2.57559
11
4.82377
21
-2.58354
0
LINE
8
BLACK
6
CONTINUOUS
10
4.82377
20
-2.58354
11
4.81893
21
-2.59221
0
LINE
8
BLACK
6
CONTINUOUS
10
4.81893
20
-2.59221
11
4.81528
21
-2.60146
0
LINE
8
BLACK
6
CONTINUOUS
10
4.81528
20
-2.60146
11
4.81291
21
-2.6111
0
LINE
8
BLACK
6
CONTINUOUS
10
4.81291
20
-2.6111
11
4.81184
21
-2.62098
0
LINE
8
BLACK
6
CONTINUOUS
10
4.81184
20
-2.62098
11
4.81197
21
-2.62586
0
LINE
8
BLACK
6
CONTINUOUS
10
4.81197
20
-2.62586
11
4.81715
21
-2.67073
0
LINE
8
BLACK
6
CONTINUOUS
10
4.81715
20
-2.67073
11
4.81715
21
-2.67074
0
LINE
8
BLACK
6
CONTINUOUS
10
4.81715
20
-2.67074
11
4.81876
21
-2.68239
0
LINE
8
BLACK
6
CONTINUOUS
10
4.81876
20
-2.68239
11
4.81896
21
-2.69431
0
LINE
8
BLACK
6
CONTINUOUS
10
4.81896
20
-2.69431
11
4.81772
21
-2.70616
0
LINE
8
BLACK
6
CONTINUOUS
10
4.81772
20
-2.70616
11
4.81507
21
-2.71779
0
LINE
8
BLACK
6
CONTINUOUS
10
4.81507
20
-2.71779
11
4.81105
21
-2.72901
0
LINE
8
BLACK
6
CONTINUOUS
10
4.81105
20
-2.72901
11
4.8057
21
-2.73967
0
LINE
8
BLACK
6
CONTINUOUS
10
4.8057
20
-2.73967
11
4.79911
21
-2.7496
0
LINE
8
BLACK
6
CONTINUOUS
10
4.79911
20
-2.7496
11
4.79138
21
-2.75868
0
LINE
8
BLACK
6
CONTINUOUS
10
4.79138
20
-2.75868
11
4.78261
21
-2.76676
0
LINE
8
BLACK
6
CONTINUOUS
10
4.78261
20
-2.76676
11
4.77293
21
-2.77372
0
LINE
8
BLACK
6
CONTINUOUS
10
4.77293
20
-2.77372
11
4.76249
21
-2.77948
0
LINE
8
BLACK
6
CONTINUOUS
10
4.76249
20
-2.77948
11
4.75143
21
-2.78393
0
LINE
8
BLACK
6
CONTINUOUS
10
4.75143
20
-2.78393
11
4.73992
21
-2.78703
0
LINE
8
BLACK
6
CONTINUOUS
10
4.73992
20
-2.78703
11
4.72811
21
-2.78872
0
LINE
8
BLACK
6
CONTINUOUS
10
4.72811
20
-2.78872
11
4.71619
21
-2.78898
0
LINE
8
BLACK
6
CONTINUOUS
10
4.71619
20
-2.78898
11
4.70433
21
-2.7878
0
LINE
8
BLACK
6
CONTINUOUS
10
4.70433
20
-2.7878
11
4.69269
21
-2.78521
0
LINE
8
BLACK
6
CONTINUOUS
10
4.69269
20
-2.78521
11
4.68145
21
-2.78124
0
LINE
8
BLACK
6
CONTINUOUS
10
4.68145
20
-2.78124
11
4.67077
21
-2.77595
0
LINE
8
BLACK
6
CONTINUOUS
10
4.67077
20
-2.77595
11
4.6608
21
-2.76941
0
LINE
8
BLACK
6
CONTINUOUS
10
4.6608
20
-2.76941
11
4.65168
21
-2.76172
0
LINE
8
BLACK
6
CONTINUOUS
10
4.65168
20
-2.76172
11
4.64356
21
-2.75299
0
LINE
8
BLACK
6
CONTINUOUS
10
4.64356
20
-2.75299
11
4.63655
21
-2.74335
0
LINE
8
BLACK
6
CONTINUOUS
10
4.63655
20
-2.74335
11
4.63074
21
-2.73294
0
LINE
8
BLACK
6
CONTINUOUS
10
4.63074
20
-2.73294
11
4.62623
21
-2.7219
0
LINE
8
BLACK
6
CONTINUOUS
10
4.62623
20
-2.7219
11
4.62307
21
-2.71041
  0
ENDSEC
  0
EOF
