  0
SECTION
  2
HEADER
  9
$ANGBASE
  50
0.0
  9
$ANGDIR
  70
1
  9
$MEASUREMENT
  70
0
  0
ENDSEC
  0
SECTION
  2
TABLES
  0
TABLE
  2
LTYPE
  70
4
  0
LTYPE
  5
40F
  2
CONTINUOUS
  70
0
  3
Solid line
  72
65
  73
0
  40
0.0
  0
LTYPE
  5
410
  2
DASHDOT
 70
0
  3
Dash Dot ____ _ ____ _
 72
65
 73
4
 40
2.0
 49
1.25
 49
-0.25
 49
0.25
 49
-0.25
  0
LTYPE
  5
411
  2
DASHED
 70
0
  3
Dashed __ __ __ __ __
 72
65
 73
2
 40
0.75
 49
0.5
 49
-0.25
  0
LTYPE
  5
43B
  2
DOTTED
 70
0
  3
Dotted .  .  .  .
 72
65
 73
2
 40
0.2
 49
0.0
 49
-0.2
  0
ENDTAB
  0
TABLE
  2
STYLE
  70
4
  0
STYLE
  2
KICAD
  70
0
  40
0
  41
1
  42
1
  50
0
  71
0
  3
isocp.shx
  0
STYLE
  2
KICADB
  70
0
  40
0
  41
1
  42
1
  50
0
  71
0
  3
isocp.shx
  0
STYLE
  2
KICADI
  70
0
  40
0
  41
1
  42
1
  50
15
  71
0
  3
isocp.shx
  0
STYLE
  2
KICADBI
  70
0
  40
0
  41
1
  42
1
  50
15
  71
0
  3
isocp.shx
  0
ENDTAB
  0
TABLE
  2
LAYER
  70
1
  0
LAYER
  2
BLACK
  70
0
  62
7
  6
CONTINUOUS
  0
ENDTAB
  0
ENDSEC
  0
SECTION
  2
ENTITIES
0
LINE
8
BLACK
6
CONTINUOUS
10
5.52094
20
-3.72656
11
5.52781
21
-3.72923
0
LINE
8
BLACK
6
CONTINUOUS
10
5.52781
20
-3.72923
11
5.53408
21
-3.73311
0
LINE
8
BLACK
6
CONTINUOUS
10
5.53408
20
-3.73311
11
5.53953
21
-3.73808
0
LINE
8
BLACK
6
CONTINUOUS
10
5.53953
20
-3.73808
11
5.54398
21
-3.74396
0
LINE
8
BLACK
6
CONTINUOUS
10
5.54398
20
-3.74396
11
5.54727
21
-3.75056
0
LINE
8
BLACK
6
CONTINUOUS
10
5.54727
20
-3.75056
11
5.54928
21
-3.75766
0
LINE
8
BLACK
6
CONTINUOUS
10
5.54928
20
-3.75766
11
5.54996
21
-3.765
0
LINE
8
BLACK
6
CONTINUOUS
10
5.54996
20
-3.765
11
5.54996
21
-3.765
0
LINE
8
BLACK
6
CONTINUOUS
10
5.54996
20
-3.765
11
5.54926
21
-3.78112
0
LINE
8
BLACK
6
CONTINUOUS
10
5.54926
20
-3.78112
11
5.54715
21
-3.79712
0
LINE
8
BLACK
6
CONTINUOUS
10
5.54715
20
-3.79712
11
5.54366
21
-3.81287
0
LINE
8
BLACK
6
CONTINUOUS
10
5.54366
20
-3.81287
11
5.53881
21
-3.82826
0
LINE
8
BLACK
6
CONTINUOUS
10
5.53881
20
-3.82826
11
5.53263
21
-3.84317
0
LINE
8
BLACK
6
CONTINUOUS
10
5.53263
20
-3.84317
11
5.52518
21
-3.85748
0
LINE
8
BLACK
6
CONTINUOUS
10
5.52518
20
-3.85748
11
5.51651
21
-3.87109
0
LINE
8
BLACK
6
CONTINUOUS
10
5.51651
20
-3.87109
11
5.50669
21
-3.88389
0
LINE
8
BLACK
6
CONTINUOUS
10
5.50669
20
-3.88389
11
5.49579
21
-3.89579
0
LINE
8
BLACK
6
CONTINUOUS
10
5.49579
20
-3.89579
11
5.48389
21
-3.90669
0
LINE
8
BLACK
6
CONTINUOUS
10
5.48389
20
-3.90669
11
5.47109
21
-3.91651
0
LINE
8
BLACK
6
CONTINUOUS
10
5.47109
20
-3.91651
11
5.45748
21
-3.92518
0
LINE
8
BLACK
6
CONTINUOUS
10
5.45748
20
-3.92518
11
5.44317
21
-3.93263
0
LINE
8
BLACK
6
CONTINUOUS
10
5.44317
20
-3.93263
11
5.42826
21
-3.93881
0
LINE
8
BLACK
6
CONTINUOUS
10
5.42826
20
-3.93881
11
5.41287
21
-3.94366
0
LINE
8
BLACK
6
CONTINUOUS
10
5.41287
20
-3.94366
11
5.39712
21
-3.94715
0
LINE
8
BLACK
6
CONTINUOUS
10
5.39712
20
-3.94715
11
5.38112
21
-3.94926
0
LINE
8
BLACK
6
CONTINUOUS
10
5.38112
20
-3.94926
11
5.365
21
-3.94996
0
LINE
8
BLACK
6
CONTINUOUS
10
5.365
20
-3.94996
11
5.35766
21
-3.94928
0
LINE
8
BLACK
6
CONTINUOUS
10
5.35766
20
-3.94928
11
5.35056
21
-3.94727
0
LINE
8
BLACK
6
CONTINUOUS
10
5.35056
20
-3.94727
11
5.34396
21
-3.94398
0
LINE
8
BLACK
6
CONTINUOUS
10
5.34396
20
-3.94398
11
5.33808
21
-3.93953
0
LINE
8
BLACK
6
CONTINUOUS
10
5.33808
20
-3.93953
11
5.33311
21
-3.93408
0
LINE
8
BLACK
6
CONTINUOUS
10
5.33311
20
-3.93408
11
5.32923
21
-3.92781
0
LINE
8
BLACK
6
CONTINUOUS
10
5.32923
20
-3.92781
11
5.32656
21
-3.92094
0
LINE
8
BLACK
6
CONTINUOUS
10
5.32656
20
-3.92094
11
5.32521
21
-3.91369
0
LINE
8
BLACK
6
CONTINUOUS
10
5.32521
20
-3.91369
11
5.32521
21
-3.90631
0
LINE
8
BLACK
6
CONTINUOUS
10
5.32521
20
-3.90631
11
5.32656
21
-3.89906
0
LINE
8
BLACK
6
CONTINUOUS
10
5.32656
20
-3.89906
11
5.32923
21
-3.89219
0
LINE
8
BLACK
6
CONTINUOUS
10
5.32923
20
-3.89219
11
5.33311
21
-3.88592
0
LINE
8
BLACK
6
CONTINUOUS
10
5.33311
20
-3.88592
11
5.33808
21
-3.88047
0
LINE
8
BLACK
6
CONTINUOUS
10
5.33808
20
-3.88047
11
5.34396
21
-3.87602
0
LINE
8
BLACK
6
CONTINUOUS
10
5.34396
20
-3.87602
11
5.35056
21
-3.87273
0
LINE
8
BLACK
6
CONTINUOUS
10
5.35056
20
-3.87273
11
5.35766
21
-3.87072
0
LINE
8
BLACK
6
CONTINUOUS
10
5.35766
20
-3.87072
11
5.365
21
-3.87004
0
LINE
8
BLACK
6
CONTINUOUS
10
5.365
20
-3.87004
11
5.3709
21
-3.87004
0
LINE
8
BLACK
6
CONTINUOUS
10
5.3709
20
-3.87004
11
5.38262
21
-3.86872
0
LINE
8
BLACK
6
CONTINUOUS
10
5.38262
20
-3.86872
11
5.39412
21
-3.86609
0
LINE
8
BLACK
6
CONTINUOUS
10
5.39412
20
-3.86609
11
5.40526
21
-3.86219
0
LINE
8
BLACK
6
CONTINUOUS
10
5.40526
20
-3.86219
11
5.41589
21
-3.85707
0
LINE
8
BLACK
6
CONTINUOUS
10
5.41589
20
-3.85707
11
5.42588
21
-3.8508
0
LINE
8
BLACK
6
CONTINUOUS
10
5.42588
20
-3.8508
11
5.4351
21
-3.84344
0
LINE
8
BLACK
6
CONTINUOUS
10
5.4351
20
-3.84344
11
5.44344
21
-3.8351
0
LINE
8
BLACK
6
CONTINUOUS
10
5.44344
20
-3.8351
11
5.4508
21
-3.82588
0
LINE
8
BLACK
6
CONTINUOUS
10
5.4508
20
-3.82588
11
5.45707
21
-3.81589
0
LINE
8
BLACK
6
CONTINUOUS
10
5.45707
20
-3.81589
11
5.46219
21
-3.80526
0
LINE
8
BLACK
6
CONTINUOUS
10
5.46219
20
-3.80526
11
5.46609
21
-3.79412
0
LINE
8
BLACK
6
CONTINUOUS
10
5.46609
20
-3.79412
11
5.46872
21
-3.78262
0
LINE
8
BLACK
6
CONTINUOUS
10
5.46872
20
-3.78262
11
5.47004
21
-3.7709
0
LINE
8
BLACK
6
CONTINUOUS
10
5.47004
20
-3.7709
11
5.47004
21
-3.765
0
LINE
8
BLACK
6
CONTINUOUS
10
5.47004
20
-3.765
11
5.47004
21
-3.765
0
LINE
8
BLACK
6
CONTINUOUS
10
5.47004
20
-3.765
11
5.47072
21
-3.75766
0
LINE
8
BLACK
6
CONTINUOUS
10
5.47072
20
-3.75766
11
5.47273
21
-3.75056
0
LINE
8
BLACK
6
CONTINUOUS
10
5.47273
20
-3.75056
11
5.47602
21
-3.74396
0
LINE
8
BLACK
6
CONTINUOUS
10
5.47602
20
-3.74396
11
5.48047
21
-3.73808
0
LINE
8
BLACK
6
CONTINUOUS
10
5.48047
20
-3.73808
11
5.48592
21
-3.73311
0
LINE
8
BLACK
6
CONTINUOUS
10
5.48592
20
-3.73311
11
5.49219
21
-3.72923
0
LINE
8
BLACK
6
CONTINUOUS
10
5.49219
20
-3.72923
11
5.49906
21
-3.72656
0
LINE
8
BLACK
6
CONTINUOUS
10
5.49906
20
-3.72656
11
5.50631
21
-3.72521
0
LINE
8
BLACK
6
CONTINUOUS
10
5.50631
20
-3.72521
11
5.51369
21
-3.72521
0
LINE
8
BLACK
6
CONTINUOUS
10
5.51369
20
-3.72521
11
5.52094
21
-3.72656
0
LINE
8
BLACK
6
CONTINUOUS
10
5.49949
20
-3.73036
11
5.49293
21
-3.73307
0
LINE
8
BLACK
6
CONTINUOUS
10
5.49293
20
-3.73307
11
5.48703
21
-3.73702
0
LINE
8
BLACK
6
CONTINUOUS
10
5.48703
20
-3.73702
11
5.48202
21
-3.74203
0
LINE
8
BLACK
6
CONTINUOUS
10
5.48202
20
-3.74203
11
5.47807
21
-3.74793
0
LINE
8
BLACK
6
CONTINUOUS
10
5.47807
20
-3.74793
11
5.47536
21
-3.75449
0
LINE
8
BLACK
6
CONTINUOUS
10
5.47536
20
-3.75449
11
5.47397
21
-3.76145
0
LINE
8
BLACK
6
CONTINUOUS
10
5.47397
20
-3.76145
11
5.47397
21
-3.765
0
LINE
8
BLACK
6
CONTINUOUS
10
5.47397
20
-3.765
11
5.47329
21
-3.7772
0
LINE
8
BLACK
6
CONTINUOUS
10
5.47329
20
-3.7772
11
5.47124
21
-3.78925
0
LINE
8
BLACK
6
CONTINUOUS
10
5.47124
20
-3.78925
11
5.46786
21
-3.80099
0
LINE
8
BLACK
6
CONTINUOUS
10
5.46786
20
-3.80099
11
5.46318
21
-3.81228
0
LINE
8
BLACK
6
CONTINUOUS
10
5.46318
20
-3.81228
11
5.45727
21
-3.82298
0
LINE
8
BLACK
6
CONTINUOUS
10
5.45727
20
-3.82298
11
5.4502
21
-3.83294
0
LINE
8
BLACK
6
CONTINUOUS
10
5.4502
20
-3.83294
11
5.44206
21
-3.84206
0
LINE
8
BLACK
6
CONTINUOUS
10
5.44206
20
-3.84206
11
5.43294
21
-3.8502
0
LINE
8
BLACK
6
CONTINUOUS
10
5.43294
20
-3.8502
11
5.42298
21
-3.85727
0
LINE
8
BLACK
6
CONTINUOUS
10
5.42298
20
-3.85727
11
5.41228
21
-3.86318
0
LINE
8
BLACK
6
CONTINUOUS
10
5.41228
20
-3.86318
11
5.40099
21
-3.86786
0
LINE
8
BLACK
6
CONTINUOUS
10
5.40099
20
-3.86786
11
5.38925
21
-3.87124
0
LINE
8
BLACK
6
CONTINUOUS
10
5.38925
20
-3.87124
11
5.3772
21
-3.87329
0
LINE
8
BLACK
6
CONTINUOUS
10
5.3772
20
-3.87329
11
5.365
21
-3.87397
0
LINE
8
BLACK
6
CONTINUOUS
10
5.365
20
-3.87397
11
5.36145
21
-3.87397
0
LINE
8
BLACK
6
CONTINUOUS
10
5.36145
20
-3.87397
11
5.35449
21
-3.87536
0
LINE
8
BLACK
6
CONTINUOUS
10
5.35449
20
-3.87536
11
5.34793
21
-3.87807
0
LINE
8
BLACK
6
CONTINUOUS
10
5.34793
20
-3.87807
11
5.34203
21
-3.88202
0
LINE
8
BLACK
6
CONTINUOUS
10
5.34203
20
-3.88202
11
5.33702
21
-3.88703
0
LINE
8
BLACK
6
CONTINUOUS
10
5.33702
20
-3.88703
11
5.33307
21
-3.89293
0
LINE
8
BLACK
6
CONTINUOUS
10
5.33307
20
-3.89293
11
5.33036
21
-3.89949
0
LINE
8
BLACK
6
CONTINUOUS
10
5.33036
20
-3.89949
11
5.32897
21
-3.90645
0
LINE
8
BLACK
6
CONTINUOUS
10
5.32897
20
-3.90645
11
5.32897
21
-3.91355
0
LINE
8
BLACK
6
CONTINUOUS
10
5.32897
20
-3.91355
11
5.33036
21
-3.92051
0
LINE
8
BLACK
6
CONTINUOUS
10
5.33036
20
-3.92051
11
5.33307
21
-3.92707
0
LINE
8
BLACK
6
CONTINUOUS
10
5.33307
20
-3.92707
11
5.33702
21
-3.93297
0
LINE
8
BLACK
6
CONTINUOUS
10
5.33702
20
-3.93297
11
5.34203
21
-3.93798
0
LINE
8
BLACK
6
CONTINUOUS
10
5.34203
20
-3.93798
11
5.34793
21
-3.94193
0
LINE
8
BLACK
6
CONTINUOUS
10
5.34793
20
-3.94193
11
5.35449
21
-3.94464
0
LINE
8
BLACK
6
CONTINUOUS
10
5.35449
20
-3.94464
11
5.36145
21
-3.94603
0
LINE
8
BLACK
6
CONTINUOUS
10
5.36145
20
-3.94603
11
5.365
21
-3.94603
0
LINE
8
BLACK
6
CONTINUOUS
10
5.365
20
-3.94603
11
5.3729
21
-3.94603
0
LINE
8
BLACK
6
CONTINUOUS
10
5.3729
20
-3.94603
11
5.38865
21
-3.94465
0
LINE
8
BLACK
6
CONTINUOUS
10
5.38865
20
-3.94465
11
5.40422
21
-3.9419
0
LINE
8
BLACK
6
CONTINUOUS
10
5.40422
20
-3.9419
11
5.41949
21
-3.93781
0
LINE
8
BLACK
6
CONTINUOUS
10
5.41949
20
-3.93781
11
5.43434
21
-3.93241
0
LINE
8
BLACK
6
CONTINUOUS
10
5.43434
20
-3.93241
11
5.44867
21
-3.92573
0
LINE
8
BLACK
6
CONTINUOUS
10
5.44867
20
-3.92573
11
5.46236
21
-3.91782
0
LINE
8
BLACK
6
CONTINUOUS
10
5.46236
20
-3.91782
11
5.47531
21
-3.90876
0
LINE
8
BLACK
6
CONTINUOUS
10
5.47531
20
-3.90876
11
5.48742
21
-3.89859
0
LINE
8
BLACK
6
CONTINUOUS
10
5.48742
20
-3.89859
11
5.49859
21
-3.88742
0
LINE
8
BLACK
6
CONTINUOUS
10
5.49859
20
-3.88742
11
5.50876
21
-3.87531
0
LINE
8
BLACK
6
CONTINUOUS
10
5.50876
20
-3.87531
11
5.51782
21
-3.86236
0
LINE
8
BLACK
6
CONTINUOUS
10
5.51782
20
-3.86236
11
5.52573
21
-3.84867
0
LINE
8
BLACK
6
CONTINUOUS
10
5.52573
20
-3.84867
11
5.53241
21
-3.83434
0
LINE
8
BLACK
6
CONTINUOUS
10
5.53241
20
-3.83434
11
5.53781
21
-3.81949
0
LINE
8
BLACK
6
CONTINUOUS
10
5.53781
20
-3.81949
11
5.5419
21
-3.80422
0
LINE
8
BLACK
6
CONTINUOUS
10
5.5419
20
-3.80422
11
5.54465
21
-3.78865
0
LINE
8
BLACK
6
CONTINUOUS
10
5.54465
20
-3.78865
11
5.54603
21
-3.7729
0
LINE
8
BLACK
6
CONTINUOUS
10
5.54603
20
-3.7729
11
5.54603
21
-3.765
0
LINE
8
BLACK
6
CONTINUOUS
10
5.54603
20
-3.765
11
5.54603
21
-3.76145
0
LINE
8
BLACK
6
CONTINUOUS
10
5.54603
20
-3.76145
11
5.54464
21
-3.75449
0
LINE
8
BLACK
6
CONTINUOUS
10
5.54464
20
-3.75449
11
5.54193
21
-3.74793
0
LINE
8
BLACK
6
CONTINUOUS
10
5.54193
20
-3.74793
11
5.53798
21
-3.74203
0
LINE
8
BLACK
6
CONTINUOUS
10
5.53798
20
-3.74203
11
5.53297
21
-3.73702
0
LINE
8
BLACK
6
CONTINUOUS
10
5.53297
20
-3.73702
11
5.52707
21
-3.73307
0
LINE
8
BLACK
6
CONTINUOUS
10
5.52707
20
-3.73307
11
5.52051
21
-3.73036
0
LINE
8
BLACK
6
CONTINUOUS
10
5.52051
20
-3.73036
11
5.51355
21
-3.72897
0
LINE
8
BLACK
6
CONTINUOUS
10
5.51355
20
-3.72897
11
5.50645
21
-3.72897
0
LINE
8
BLACK
6
CONTINUOUS
10
5.50645
20
-3.72897
11
5.49949
21
-3.73036
0
LINE
8
BLACK
6
CONTINUOUS
10
5.3725
20
-3.57988
11
5.37974
21
-3.58194
0
LINE
8
BLACK
6
CONTINUOUS
10
5.37974
20
-3.58194
11
5.38649
21
-3.5853
0
LINE
8
BLACK
6
CONTINUOUS
10
5.38649
20
-3.5853
11
5.3925
21
-3.58984
0
LINE
8
BLACK
6
CONTINUOUS
10
5.3925
20
-3.58984
11
5.39757
21
-3.5954
0
LINE
8
BLACK
6
CONTINUOUS
10
5.39757
20
-3.5954
11
5.40154
21
-3.60181
0
LINE
8
BLACK
6
CONTINUOUS
10
5.40154
20
-3.60181
11
5.40426
21
-3.60883
0
LINE
8
BLACK
6
CONTINUOUS
10
5.40426
20
-3.60883
11
5.40564
21
-3.61623
0
LINE
8
BLACK
6
CONTINUOUS
10
5.40564
20
-3.61623
11
5.40564
21
-3.62377
0
LINE
8
BLACK
6
CONTINUOUS
10
5.40564
20
-3.62377
11
5.40426
21
-3.63117
0
LINE
8
BLACK
6
CONTINUOUS
10
5.40426
20
-3.63117
11
5.40154
21
-3.63819
0
LINE
8
BLACK
6
CONTINUOUS
10
5.40154
20
-3.63819
11
5.39757
21
-3.6446
0
LINE
8
BLACK
6
CONTINUOUS
10
5.39757
20
-3.6446
11
5.3925
21
-3.65016
0
LINE
8
BLACK
6
CONTINUOUS
10
5.3925
20
-3.65016
11
5.38649
21
-3.6547
0
LINE
8
BLACK
6
CONTINUOUS
10
5.38649
20
-3.6547
11
5.37974
21
-3.65806
0
LINE
8
BLACK
6
CONTINUOUS
10
5.37974
20
-3.65806
11
5.3725
21
-3.66012
0
LINE
8
BLACK
6
CONTINUOUS
10
5.3725
20
-3.66012
11
5.365
21
-3.66082
0
LINE
8
BLACK
6
CONTINUOUS
10
5.365
20
-3.66082
11
5.35915
21
-3.66082
0
LINE
8
BLACK
6
CONTINUOUS
10
5.35915
20
-3.66082
11
5.34752
21
-3.66213
0
LINE
8
BLACK
6
CONTINUOUS
10
5.34752
20
-3.66213
11
5.33611
21
-3.66473
0
LINE
8
BLACK
6
CONTINUOUS
10
5.33611
20
-3.66473
11
5.32507
21
-3.6686
0
LINE
8
BLACK
6
CONTINUOUS
10
5.32507
20
-3.6686
11
5.31452
21
-3.67367
0
LINE
8
BLACK
6
CONTINUOUS
10
5.31452
20
-3.67367
11
5.30462
21
-3.6799
0
LINE
8
BLACK
6
CONTINUOUS
10
5.30462
20
-3.6799
11
5.29547
21
-3.68719
0
LINE
8
BLACK
6
CONTINUOUS
10
5.29547
20
-3.68719
11
5.28719
21
-3.69547
0
LINE
8
BLACK
6
CONTINUOUS
10
5.28719
20
-3.69547
11
5.2799
21
-3.70462
0
LINE
8
BLACK
6
CONTINUOUS
10
5.2799
20
-3.70462
11
5.27367
21
-3.71452
0
LINE
8
BLACK
6
CONTINUOUS
10
5.27367
20
-3.71452
11
5.2686
21
-3.72507
0
LINE
8
BLACK
6
CONTINUOUS
10
5.2686
20
-3.72507
11
5.26473
21
-3.73611
0
LINE
8
BLACK
6
CONTINUOUS
10
5.26473
20
-3.73611
11
5.26213
21
-3.74752
0
LINE
8
BLACK
6
CONTINUOUS
10
5.26213
20
-3.74752
11
5.26082
21
-3.75915
0
LINE
8
BLACK
6
CONTINUOUS
10
5.26082
20
-3.75915
11
5.26082
21
-3.765
0
LINE
8
BLACK
6
CONTINUOUS
10
5.26082
20
-3.765
11
5.26082
21
-3.765
0
LINE
8
BLACK
6
CONTINUOUS
10
5.26082
20
-3.765
11
5.26012
21
-3.7725
0
LINE
8
BLACK
6
CONTINUOUS
10
5.26012
20
-3.7725
11
5.25806
21
-3.77974
0
LINE
8
BLACK
6
CONTINUOUS
10
5.25806
20
-3.77974
11
5.2547
21
-3.78649
0
LINE
8
BLACK
6
CONTINUOUS
10
5.2547
20
-3.78649
11
5.25016
21
-3.7925
0
LINE
8
BLACK
6
CONTINUOUS
10
5.25016
20
-3.7925
11
5.2446
21
-3.79757
0
LINE
8
BLACK
6
CONTINUOUS
10
5.2446
20
-3.79757
11
5.23819
21
-3.80154
0
LINE
8
BLACK
6
CONTINUOUS
10
5.23819
20
-3.80154
11
5.23117
21
-3.80426
0
LINE
8
BLACK
6
CONTINUOUS
10
5.23117
20
-3.80426
11
5.22377
21
-3.80564
0
LINE
8
BLACK
6
CONTINUOUS
10
5.22377
20
-3.80564
11
5.21623
21
-3.80564
0
LINE
8
BLACK
6
CONTINUOUS
10
5.21623
20
-3.80564
11
5.20883
21
-3.80426
0
LINE
8
BLACK
6
CONTINUOUS
10
5.20883
20
-3.80426
11
5.20181
21
-3.80154
0
LINE
8
BLACK
6
CONTINUOUS
10
5.20181
20
-3.80154
11
5.1954
21
-3.79757
0
LINE
8
BLACK
6
CONTINUOUS
10
5.1954
20
-3.79757
11
5.18984
21
-3.7925
0
LINE
8
BLACK
6
CONTINUOUS
10
5.18984
20
-3.7925
11
5.1853
21
-3.78649
0
LINE
8
BLACK
6
CONTINUOUS
10
5.1853
20
-3.78649
11
5.18194
21
-3.77974
0
LINE
8
BLACK
6
CONTINUOUS
10
5.18194
20
-3.77974
11
5.17988
21
-3.7725
0
LINE
8
BLACK
6
CONTINUOUS
10
5.17988
20
-3.7725
11
5.17918
21
-3.765
0
LINE
8
BLACK
6
CONTINUOUS
10
5.17918
20
-3.765
11
5.17918
21
-3.765
0
LINE
8
BLACK
6
CONTINUOUS
10
5.17918
20
-3.765
11
5.17989
21
-3.74881
0
LINE
8
BLACK
6
CONTINUOUS
10
5.17989
20
-3.74881
11
5.18201
21
-3.73273
0
LINE
8
BLACK
6
CONTINUOUS
10
5.18201
20
-3.73273
11
5.18552
21
-3.71691
0
LINE
8
BLACK
6
CONTINUOUS
10
5.18552
20
-3.71691
11
5.19039
21
-3.70145
0
LINE
8
BLACK
6
CONTINUOUS
10
5.19039
20
-3.70145
11
5.19659
21
-3.68647
0
LINE
8
BLACK
6
CONTINUOUS
10
5.19659
20
-3.68647
11
5.20408
21
-3.67209
0
LINE
8
BLACK
6
CONTINUOUS
10
5.20408
20
-3.67209
11
5.21279
21
-3.65842
0
LINE
8
BLACK
6
CONTINUOUS
10
5.21279
20
-3.65842
11
5.22266
21
-3.64556
0
LINE
8
BLACK
6
CONTINUOUS
10
5.22266
20
-3.64556
11
5.23361
21
-3.63361
0
LINE
8
BLACK
6
CONTINUOUS
10
5.23361
20
-3.63361
11
5.24556
21
-3.62266
0
LINE
8
BLACK
6
CONTINUOUS
10
5.24556
20
-3.62266
11
5.25842
21
-3.61279
0
LINE
8
BLACK
6
CONTINUOUS
10
5.25842
20
-3.61279
11
5.27209
21
-3.60408
0
LINE
8
BLACK
6
CONTINUOUS
10
5.27209
20
-3.60408
11
5.28647
21
-3.59659
0
LINE
8
BLACK
6
CONTINUOUS
10
5.28647
20
-3.59659
11
5.30145
21
-3.59039
0
LINE
8
BLACK
6
CONTINUOUS
10
5.30145
20
-3.59039
11
5.31691
21
-3.58552
0
LINE
8
BLACK
6
CONTINUOUS
10
5.31691
20
-3.58552
11
5.33273
21
-3.58201
0
LINE
8
BLACK
6
CONTINUOUS
10
5.33273
20
-3.58201
11
5.34881
21
-3.57989
0
LINE
8
BLACK
6
CONTINUOUS
10
5.34881
20
-3.57989
11
5.365
21
-3.57918
0
LINE
8
BLACK
6
CONTINUOUS
10
5.365
20
-3.57918
11
5.3725
21
-3.57988
0
LINE
8
BLACK
6
CONTINUOUS
10
5.35706
20
-3.58312
11
5.34124
21
-3.5845
0
LINE
8
BLACK
6
CONTINUOUS
10
5.34124
20
-3.5845
11
5.3256
21
-3.58726
0
LINE
8
BLACK
6
CONTINUOUS
10
5.3256
20
-3.58726
11
5.31026
21
-3.59137
0
LINE
8
BLACK
6
CONTINUOUS
10
5.31026
20
-3.59137
11
5.29533
21
-3.59681
0
LINE
8
BLACK
6
CONTINUOUS
10
5.29533
20
-3.59681
11
5.28094
21
-3.60352
0
LINE
8
BLACK
6
CONTINUOUS
10
5.28094
20
-3.60352
11
5.26718
21
-3.61146
0
LINE
8
BLACK
6
CONTINUOUS
10
5.26718
20
-3.61146
11
5.25417
21
-3.62057
0
LINE
8
BLACK
6
CONTINUOUS
10
5.25417
20
-3.62057
11
5.24201
21
-3.63078
0
LINE
8
BLACK
6
CONTINUOUS
10
5.24201
20
-3.63078
11
5.23078
21
-3.64201
0
LINE
8
BLACK
6
CONTINUOUS
10
5.23078
20
-3.64201
11
5.22057
21
-3.65417
0
LINE
8
BLACK
6
CONTINUOUS
10
5.22057
20
-3.65417
11
5.21146
21
-3.66718
0
LINE
8
BLACK
6
CONTINUOUS
10
5.21146
20
-3.66718
11
5.20352
21
-3.68094
0
LINE
8
BLACK
6
CONTINUOUS
10
5.20352
20
-3.68094
11
5.19681
21
-3.69533
0
LINE
8
BLACK
6
CONTINUOUS
10
5.19681
20
-3.69533
11
5.19137
21
-3.71026
0
LINE
8
BLACK
6
CONTINUOUS
10
5.19137
20
-3.71026
11
5.18726
21
-3.7256
0
LINE
8
BLACK
6
CONTINUOUS
10
5.18726
20
-3.7256
11
5.1845
21
-3.74124
0
LINE
8
BLACK
6
CONTINUOUS
10
5.1845
20
-3.74124
11
5.18312
21
-3.75706
0
LINE
8
BLACK
6
CONTINUOUS
10
5.18312
20
-3.75706
11
5.18312
21
-3.765
0
LINE
8
BLACK
6
CONTINUOUS
10
5.18312
20
-3.765
11
5.18312
21
-3.76863
0
LINE
8
BLACK
6
CONTINUOUS
10
5.18312
20
-3.76863
11
5.18454
21
-3.77576
0
LINE
8
BLACK
6
CONTINUOUS
10
5.18454
20
-3.77576
11
5.18732
21
-3.78247
0
LINE
8
BLACK
6
CONTINUOUS
10
5.18732
20
-3.78247
11
5.19135
21
-3.78851
0
LINE
8
BLACK
6
CONTINUOUS
10
5.19135
20
-3.78851
11
5.19649
21
-3.79365
0
LINE
8
BLACK
6
CONTINUOUS
10
5.19649
20
-3.79365
11
5.20253
21
-3.79768
0
LINE
8
BLACK
6
CONTINUOUS
10
5.20253
20
-3.79768
11
5.20924
21
-3.80046
0
LINE
8
BLACK
6
CONTINUOUS
10
5.20924
20
-3.80046
11
5.21637
21
-3.80188
0
LINE
8
BLACK
6
CONTINUOUS
10
5.21637
20
-3.80188
11
5.22363
21
-3.80188
0
LINE
8
BLACK
6
CONTINUOUS
10
5.22363
20
-3.80188
11
5.23076
21
-3.80046
0
LINE
8
BLACK
6
CONTINUOUS
10
5.23076
20
-3.80046
11
5.23747
21
-3.79768
0
LINE
8
BLACK
6
CONTINUOUS
10
5.23747
20
-3.79768
11
5.24351
21
-3.79365
0
LINE
8
BLACK
6
CONTINUOUS
10
5.24351
20
-3.79365
11
5.24865
21
-3.78851
0
LINE
8
BLACK
6
CONTINUOUS
10
5.24865
20
-3.78851
11
5.25268
21
-3.78247
0
LINE
8
BLACK
6
CONTINUOUS
10
5.25268
20
-3.78247
11
5.25546
21
-3.77576
0
LINE
8
BLACK
6
CONTINUOUS
10
5.25546
20
-3.77576
11
5.25688
21
-3.76863
0
LINE
8
BLACK
6
CONTINUOUS
10
5.25688
20
-3.76863
11
5.25688
21
-3.765
0
LINE
8
BLACK
6
CONTINUOUS
10
5.25688
20
-3.765
11
5.25688
21
-3.765
0
LINE
8
BLACK
6
CONTINUOUS
10
5.25688
20
-3.765
11
5.25756
21
-3.75289
0
LINE
8
BLACK
6
CONTINUOUS
10
5.25756
20
-3.75289
11
5.25959
21
-3.74094
0
LINE
8
BLACK
6
CONTINUOUS
10
5.25959
20
-3.74094
11
5.26295
21
-3.72929
0
LINE
8
BLACK
6
CONTINUOUS
10
5.26295
20
-3.72929
11
5.26759
21
-3.71809
0
LINE
8
BLACK
6
CONTINUOUS
10
5.26759
20
-3.71809
11
5.27345
21
-3.70748
0
LINE
8
BLACK
6
CONTINUOUS
10
5.27345
20
-3.70748
11
5.28047
21
-3.69759
0
LINE
8
BLACK
6
CONTINUOUS
10
5.28047
20
-3.69759
11
5.28855
21
-3.68855
0
LINE
8
BLACK
6
CONTINUOUS
10
5.28855
20
-3.68855
11
5.29759
21
-3.68047
0
LINE
8
BLACK
6
CONTINUOUS
10
5.29759
20
-3.68047
11
5.30748
21
-3.67345
0
LINE
8
BLACK
6
CONTINUOUS
10
5.30748
20
-3.67345
11
5.31809
21
-3.66759
0
LINE
8
BLACK
6
CONTINUOUS
10
5.31809
20
-3.66759
11
5.32929
21
-3.66295
0
LINE
8
BLACK
6
CONTINUOUS
10
5.32929
20
-3.66295
11
5.34094
21
-3.65959
0
LINE
8
BLACK
6
CONTINUOUS
10
5.34094
20
-3.65959
11
5.35289
21
-3.65756
0
LINE
8
BLACK
6
CONTINUOUS
10
5.35289
20
-3.65756
11
5.365
21
-3.65688
0
LINE
8
BLACK
6
CONTINUOUS
10
5.365
20
-3.65688
11
5.36863
21
-3.65688
0
LINE
8
BLACK
6
CONTINUOUS
10
5.36863
20
-3.65688
11
5.37576
21
-3.65546
0
LINE
8
BLACK
6
CONTINUOUS
10
5.37576
20
-3.65546
11
5.38247
21
-3.65268
0
LINE
8
BLACK
6
CONTINUOUS
10
5.38247
20
-3.65268
11
5.38851
21
-3.64865
0
LINE
8
BLACK
6
CONTINUOUS
10
5.38851
20
-3.64865
11
5.39365
21
-3.64351
0
LINE
8
BLACK
6
CONTINUOUS
10
5.39365
20
-3.64351
11
5.39768
21
-3.63747
0
LINE
8
BLACK
6
CONTINUOUS
10
5.39768
20
-3.63747
11
5.40046
21
-3.63076
0
LINE
8
BLACK
6
CONTINUOUS
10
5.40046
20
-3.63076
11
5.40188
21
-3.62363
0
LINE
8
BLACK
6
CONTINUOUS
10
5.40188
20
-3.62363
11
5.40188
21
-3.61637
0
LINE
8
BLACK
6
CONTINUOUS
10
5.40188
20
-3.61637
11
5.40046
21
-3.60924
0
LINE
8
BLACK
6
CONTINUOUS
10
5.40046
20
-3.60924
11
5.39768
21
-3.60253
0
LINE
8
BLACK
6
CONTINUOUS
10
5.39768
20
-3.60253
11
5.39365
21
-3.59649
0
LINE
8
BLACK
6
CONTINUOUS
10
5.39365
20
-3.59649
11
5.38851
21
-3.59135
0
LINE
8
BLACK
6
CONTINUOUS
10
5.38851
20
-3.59135
11
5.38247
21
-3.58732
0
LINE
8
BLACK
6
CONTINUOUS
10
5.38247
20
-3.58732
11
5.37576
21
-3.58454
0
LINE
8
BLACK
6
CONTINUOUS
10
5.37576
20
-3.58454
11
5.36863
21
-3.58312
0
LINE
8
BLACK
6
CONTINUOUS
10
5.36863
20
-3.58312
11
5.365
21
-3.58312
0
LINE
8
BLACK
6
CONTINUOUS
10
5.365
20
-3.58312
11
5.35706
21
-3.58312
0
LINE
8
BLACK
6
CONTINUOUS
10
6.22047
20
-2.6926
11
6.22097
21
-2.69267
0
LINE
8
BLACK
6
CONTINUOUS
10
6.22097
20
-2.69267
11
6.26597
21
-2.71829
0
LINE
8
BLACK
6
CONTINUOUS
10
6.26597
20
-2.71829
11
6.26612
21
-2.71847
0
LINE
8
BLACK
6
CONTINUOUS
10
6.26612
20
-2.71847
11
6.26633
21
-2.71855
0
LINE
8
BLACK
6
CONTINUOUS
10
6.26633
20
-2.71855
11
6.31607
21
-2.76444
0
LINE
8
BLACK
6
CONTINUOUS
10
6.31607
20
-2.76444
11
6.31608
21
-2.76447
0
LINE
8
BLACK
6
CONTINUOUS
10
6.31608
20
-2.76447
11
6.31611
21
-2.76448
0
LINE
8
BLACK
6
CONTINUOUS
10
6.31611
20
-2.76448
11
6.34931
21
-2.79713
0
LINE
8
BLACK
6
CONTINUOUS
10
6.34931
20
-2.79713
11
6.34933
21
-2.79716
0
LINE
8
BLACK
6
CONTINUOUS
10
6.34933
20
-2.79716
11
6.34936
21
-2.79717
0
LINE
8
BLACK
6
CONTINUOUS
10
6.34936
20
-2.79717
11
6.38144
21
-2.83092
0
LINE
8
BLACK
6
CONTINUOUS
10
6.38144
20
-2.83092
11
6.38145
21
-2.83096
0
LINE
8
BLACK
6
CONTINUOUS
10
6.38145
20
-2.83096
11
6.38149
21
-2.83097
0
LINE
8
BLACK
6
CONTINUOUS
10
6.38149
20
-2.83097
11
6.41241
21
-2.86578
0
LINE
8
BLACK
6
CONTINUOUS
10
6.41241
20
-2.86578
11
6.41242
21
-2.86582
0
LINE
8
BLACK
6
CONTINUOUS
10
6.41242
20
-2.86582
11
6.41245
21
-2.86584
0
LINE
8
BLACK
6
CONTINUOUS
10
6.41245
20
-2.86584
11
6.44218
21
-2.90167
0
LINE
8
BLACK
6
CONTINUOUS
10
6.44218
20
-2.90167
11
6.44219
21
-2.90171
0
LINE
8
BLACK
6
CONTINUOUS
10
6.44219
20
-2.90171
11
6.44222
21
-2.90172
0
LINE
8
BLACK
6
CONTINUOUS
10
6.44222
20
-2.90172
11
6.47073
21
-2.93855
0
LINE
8
BLACK
6
CONTINUOUS
10
6.47073
20
-2.93855
11
6.47074
21
-2.93858
0
LINE
8
BLACK
6
CONTINUOUS
10
6.47074
20
-2.93858
11
6.47077
21
-2.9386
0
LINE
8
BLACK
6
CONTINUOUS
10
6.47077
20
-2.9386
11
6.49801
21
-2.97636
0
LINE
8
BLACK
6
CONTINUOUS
10
6.49801
20
-2.97636
11
6.49802
21
-2.9764
0
LINE
8
BLACK
6
CONTINUOUS
10
6.49802
20
-2.9764
11
6.49805
21
-2.97642
0
LINE
8
BLACK
6
CONTINUOUS
10
6.49805
20
-2.97642
11
6.524
21
-3.01508
0
LINE
8
BLACK
6
CONTINUOUS
10
6.524
20
-3.01508
11
6.524
21
-3.01511
0
LINE
8
BLACK
6
CONTINUOUS
10
6.524
20
-3.01511
11
6.52403
21
-3.01513
0
LINE
8
BLACK
6
CONTINUOUS
10
6.52403
20
-3.01513
11
6.54866
21
-3.05465
0
LINE
8
BLACK
6
CONTINUOUS
10
6.54866
20
-3.05465
11
6.54867
21
-3.05469
0
LINE
8
BLACK
6
CONTINUOUS
10
6.54867
20
-3.05469
11
6.5487
21
-3.05471
0
LINE
8
BLACK
6
CONTINUOUS
10
6.5487
20
-3.05471
11
6.57198
21
-3.09503
0
LINE
8
BLACK
6
CONTINUOUS
10
6.57198
20
-3.09503
11
6.57198
21
-3.09507
0
LINE
8
BLACK
6
CONTINUOUS
10
6.57198
20
-3.09507
11
6.57201
21
-3.09509
0
LINE
8
BLACK
6
CONTINUOUS
10
6.57201
20
-3.09509
11
6.59392
21
-3.13618
0
LINE
8
BLACK
6
CONTINUOUS
10
6.59392
20
-3.13618
11
6.59392
21
-3.13622
0
LINE
8
BLACK
6
CONTINUOUS
10
6.59392
20
-3.13622
11
6.59395
21
-3.13624
0
LINE
8
BLACK
6
CONTINUOUS
10
6.59395
20
-3.13624
11
6.61446
21
-3.17804
0
LINE
8
BLACK
6
CONTINUOUS
10
6.61446
20
-3.17804
11
6.61446
21
-3.17808
0
LINE
8
BLACK
6
CONTINUOUS
10
6.61446
20
-3.17808
11
6.61448
21
-3.17811
0
LINE
8
BLACK
6
CONTINUOUS
10
6.61448
20
-3.17811
11
6.63357
21
-3.22058
0
LINE
8
BLACK
6
CONTINUOUS
10
6.63357
20
-3.22058
11
6.63357
21
-3.22061
0
LINE
8
BLACK
6
CONTINUOUS
10
6.63357
20
-3.22061
11
6.63359
21
-3.22064
0
LINE
8
BLACK
6
CONTINUOUS
10
6.63359
20
-3.22064
11
6.65123
21
-3.26373
0
LINE
8
BLACK
6
CONTINUOUS
10
6.65123
20
-3.26373
11
6.65123
21
-3.26377
0
LINE
8
BLACK
6
CONTINUOUS
10
6.65123
20
-3.26377
11
6.65125
21
-3.2638
0
LINE
8
BLACK
6
CONTINUOUS
10
6.65125
20
-3.2638
11
6.66743
21
-3.30746
0
LINE
8
BLACK
6
CONTINUOUS
10
6.66743
20
-3.30746
11
6.66742
21
-3.3075
0
LINE
8
BLACK
6
CONTINUOUS
10
6.66742
20
-3.3075
11
6.66745
21
-3.30752
0
LINE
8
BLACK
6
CONTINUOUS
10
6.66745
20
-3.30752
11
6.68214
21
-3.35171
0
LINE
8
BLACK
6
CONTINUOUS
10
6.68214
20
-3.35171
11
6.68213
21
-3.35175
0
LINE
8
BLACK
6
CONTINUOUS
10
6.68213
20
-3.35175
11
6.68216
21
-3.35177
0
LINE
8
BLACK
6
CONTINUOUS
10
6.68216
20
-3.35177
11
6.69534
21
-3.39643
0
LINE
8
BLACK
6
CONTINUOUS
10
6.69534
20
-3.39643
11
6.69534
21
-3.39647
0
LINE
8
BLACK
6
CONTINUOUS
10
6.69534
20
-3.39647
11
6.69536
21
-3.3965
0
LINE
8
BLACK
6
CONTINUOUS
10
6.69536
20
-3.3965
11
6.70703
21
-3.44157
0
LINE
8
BLACK
6
CONTINUOUS
10
6.70703
20
-3.44157
11
6.70703
21
-3.44161
0
LINE
8
BLACK
6
CONTINUOUS
10
6.70703
20
-3.44161
11
6.70705
21
-3.44164
0
LINE
8
BLACK
6
CONTINUOUS
10
6.70705
20
-3.44164
11
6.71719
21
-3.48708
0
LINE
8
BLACK
6
CONTINUOUS
10
6.71719
20
-3.48708
11
6.71718
21
-3.48712
0
LINE
8
BLACK
6
CONTINUOUS
10
6.71718
20
-3.48712
11
6.7172
21
-3.48715
0
LINE
8
BLACK
6
CONTINUOUS
10
6.7172
20
-3.48715
11
6.72581
21
-3.53291
0
LINE
8
BLACK
6
CONTINUOUS
10
6.72581
20
-3.53291
11
6.7258
21
-3.53295
0
LINE
8
BLACK
6
CONTINUOUS
10
6.7258
20
-3.53295
11
6.72582
21
-3.53298
0
LINE
8
BLACK
6
CONTINUOUS
10
6.72582
20
-3.53298
11
6.73287
21
-3.579
0
LINE
8
BLACK
6
CONTINUOUS
10
6.73287
20
-3.579
11
6.73286
21
-3.57904
0
LINE
8
BLACK
6
CONTINUOUS
10
6.73286
20
-3.57904
11
6.73288
21
-3.57907
0
LINE
8
BLACK
6
CONTINUOUS
10
6.73288
20
-3.57907
11
6.73837
21
-3.62531
0
LINE
8
BLACK
6
CONTINUOUS
10
6.73837
20
-3.62531
11
6.73836
21
-3.62534
0
LINE
8
BLACK
6
CONTINUOUS
10
6.73836
20
-3.62534
11
6.73838
21
-3.62537
0
LINE
8
BLACK
6
CONTINUOUS
10
6.73838
20
-3.62537
11
6.7423
21
-3.67177
0
LINE
8
BLACK
6
CONTINUOUS
10
6.7423
20
-3.67177
11
6.74229
21
-3.67181
0
LINE
8
BLACK
6
CONTINUOUS
10
6.74229
20
-3.67181
11
6.74231
21
-3.67184
0
LINE
8
BLACK
6
CONTINUOUS
10
6.74231
20
-3.67184
11
6.74467
21
-3.71834
0
LINE
8
BLACK
6
CONTINUOUS
10
6.74467
20
-3.71834
11
6.74465
21
-3.71838
0
LINE
8
BLACK
6
CONTINUOUS
10
6.74465
20
-3.71838
11
6.74467
21
-3.71841
0
LINE
8
BLACK
6
CONTINUOUS
10
6.74467
20
-3.71841
11
6.74545
21
-3.76497
0
LINE
8
BLACK
6
CONTINUOUS
10
6.74545
20
-3.76497
11
6.74544
21
-3.765
0
LINE
8
BLACK
6
CONTINUOUS
10
6.74544
20
-3.765
11
6.74545
21
-3.76503
0
LINE
8
BLACK
6
CONTINUOUS
10
6.74545
20
-3.76503
11
6.74467
21
-3.81159
0
LINE
8
BLACK
6
CONTINUOUS
10
6.74467
20
-3.81159
11
6.74465
21
-3.81162
0
LINE
8
BLACK
6
CONTINUOUS
10
6.74465
20
-3.81162
11
6.74467
21
-3.81166
0
LINE
8
BLACK
6
CONTINUOUS
10
6.74467
20
-3.81166
11
6.74231
21
-3.85816
0
LINE
8
BLACK
6
CONTINUOUS
10
6.74231
20
-3.85816
11
6.74229
21
-3.85819
0
LINE
8
BLACK
6
CONTINUOUS
10
6.74229
20
-3.85819
11
6.7423
21
-3.85823
0
LINE
8
BLACK
6
CONTINUOUS
10
6.7423
20
-3.85823
11
6.73838
21
-3.90463
0
LINE
8
BLACK
6
CONTINUOUS
10
6.73838
20
-3.90463
11
6.73836
21
-3.90466
0
LINE
8
BLACK
6
CONTINUOUS
10
6.73836
20
-3.90466
11
6.73837
21
-3.90469
0
LINE
8
BLACK
6
CONTINUOUS
10
6.73837
20
-3.90469
11
6.73288
21
-3.95093
0
LINE
8
BLACK
6
CONTINUOUS
10
6.73288
20
-3.95093
11
6.73286
21
-3.95096
0
LINE
8
BLACK
6
CONTINUOUS
10
6.73286
20
-3.95096
11
6.73287
21
-3.951
0
LINE
8
BLACK
6
CONTINUOUS
10
6.73287
20
-3.951
11
6.72582
21
-3.99702
0
LINE
8
BLACK
6
CONTINUOUS
10
6.72582
20
-3.99702
11
6.7258
21
-3.99705
0
LINE
8
BLACK
6
CONTINUOUS
10
6.7258
20
-3.99705
11
6.72581
21
-3.99709
0
LINE
8
BLACK
6
CONTINUOUS
10
6.72581
20
-3.99709
11
6.7172
21
-4.04285
0
LINE
8
BLACK
6
CONTINUOUS
10
6.7172
20
-4.04285
11
6.71718
21
-4.04288
0
LINE
8
BLACK
6
CONTINUOUS
10
6.71718
20
-4.04288
11
6.71719
21
-4.04292
0
LINE
8
BLACK
6
CONTINUOUS
10
6.71719
20
-4.04292
11
6.70705
21
-4.08836
0
LINE
8
BLACK
6
CONTINUOUS
10
6.70705
20
-4.08836
11
6.70703
21
-4.08839
0
LINE
8
BLACK
6
CONTINUOUS
10
6.70703
20
-4.08839
11
6.70703
21
-4.08843
0
LINE
8
BLACK
6
CONTINUOUS
10
6.70703
20
-4.08843
11
6.69536
21
-4.1335
0
LINE
8
BLACK
6
CONTINUOUS
10
6.69536
20
-4.1335
11
6.69534
21
-4.13353
0
LINE
8
BLACK
6
CONTINUOUS
10
6.69534
20
-4.13353
11
6.69534
21
-4.13357
0
LINE
8
BLACK
6
CONTINUOUS
10
6.69534
20
-4.13357
11
6.68216
21
-4.17823
0
LINE
8
BLACK
6
CONTINUOUS
10
6.68216
20
-4.17823
11
6.68213
21
-4.17825
0
LINE
8
BLACK
6
CONTINUOUS
10
6.68213
20
-4.17825
11
6.68214
21
-4.17829
0
LINE
8
BLACK
6
CONTINUOUS
10
6.68214
20
-4.17829
11
6.66745
21
-4.22248
0
LINE
8
BLACK
6
CONTINUOUS
10
6.66745
20
-4.22248
11
6.66742
21
-4.2225
0
LINE
8
BLACK
6
CONTINUOUS
10
6.66742
20
-4.2225
11
6.66743
21
-4.22254
0
LINE
8
BLACK
6
CONTINUOUS
10
6.66743
20
-4.22254
11
6.65125
21
-4.2662
0
LINE
8
BLACK
6
CONTINUOUS
10
6.65125
20
-4.2662
11
6.65123
21
-4.26623
0
LINE
8
BLACK
6
CONTINUOUS
10
6.65123
20
-4.26623
11
6.65123
21
-4.26627
0
LINE
8
BLACK
6
CONTINUOUS
10
6.65123
20
-4.26627
11
6.63359
21
-4.30936
0
LINE
8
BLACK
6
CONTINUOUS
10
6.63359
20
-4.30936
11
6.63357
21
-4.30939
0
LINE
8
BLACK
6
CONTINUOUS
10
6.63357
20
-4.30939
11
6.63357
21
-4.30942
0
LINE
8
BLACK
6
CONTINUOUS
10
6.63357
20
-4.30942
11
6.61448
21
-4.35189
0
LINE
8
BLACK
6
CONTINUOUS
10
6.61448
20
-4.35189
11
6.61446
21
-4.35192
0
LINE
8
BLACK
6
CONTINUOUS
10
6.61446
20
-4.35192
11
6.61446
21
-4.35196
0
LINE
8
BLACK
6
CONTINUOUS
10
6.61446
20
-4.35196
11
6.59395
21
-4.39376
0
LINE
8
BLACK
6
CONTINUOUS
10
6.59395
20
-4.39376
11
6.59392
21
-4.39378
0
LINE
8
BLACK
6
CONTINUOUS
10
6.59392
20
-4.39378
11
6.59392
21
-4.39382
0
LINE
8
BLACK
6
CONTINUOUS
10
6.59392
20
-4.39382
11
6.57201
21
-4.43491
0
LINE
8
BLACK
6
CONTINUOUS
10
6.57201
20
-4.43491
11
6.57198
21
-4.43493
0
LINE
8
BLACK
6
CONTINUOUS
10
6.57198
20
-4.43493
11
6.57198
21
-4.43497
0
LINE
8
BLACK
6
CONTINUOUS
10
6.57198
20
-4.43497
11
6.5487
21
-4.47529
0
LINE
8
BLACK
6
CONTINUOUS
10
6.5487
20
-4.47529
11
6.54867
21
-4.47531
0
LINE
8
BLACK
6
CONTINUOUS
10
6.54867
20
-4.47531
11
6.54866
21
-4.47535
0
LINE
8
BLACK
6
CONTINUOUS
10
6.54866
20
-4.47535
11
6.52403
21
-4.51487
0
LINE
8
BLACK
6
CONTINUOUS
10
6.52403
20
-4.51487
11
6.524
21
-4.51489
0
LINE
8
BLACK
6
CONTINUOUS
10
6.524
20
-4.51489
11
6.524
21
-4.51492
0
LINE
8
BLACK
6
CONTINUOUS
10
6.524
20
-4.51492
11
6.49805
21
-4.55358
0
LINE
8
BLACK
6
CONTINUOUS
10
6.49805
20
-4.55358
11
6.49802
21
-4.5536
0
LINE
8
BLACK
6
CONTINUOUS
10
6.49802
20
-4.5536
11
6.49801
21
-4.55364
0
LINE
8
BLACK
6
CONTINUOUS
10
6.49801
20
-4.55364
11
6.47077
21
-4.5914
0
LINE
8
BLACK
6
CONTINUOUS
10
6.47077
20
-4.5914
11
6.47074
21
-4.59142
0
LINE
8
BLACK
6
CONTINUOUS
10
6.47074
20
-4.59142
11
6.47073
21
-4.59145
0
LINE
8
BLACK
6
CONTINUOUS
10
6.47073
20
-4.59145
11
6.44222
21
-4.62828
0
LINE
8
BLACK
6
CONTINUOUS
10
6.44222
20
-4.62828
11
6.44219
21
-4.62829
0
LINE
8
BLACK
6
CONTINUOUS
10
6.44219
20
-4.62829
11
6.44218
21
-4.62833
0
LINE
8
BLACK
6
CONTINUOUS
10
6.44218
20
-4.62833
11
6.41245
21
-4.66416
0
LINE
8
BLACK
6
CONTINUOUS
10
6.41245
20
-4.66416
11
6.41242
21
-4.66418
0
LINE
8
BLACK
6
CONTINUOUS
10
6.41242
20
-4.66418
11
6.41241
21
-4.66422
0
LINE
8
BLACK
6
CONTINUOUS
10
6.41241
20
-4.66422
11
6.38149
21
-4.69903
0
LINE
8
BLACK
6
CONTINUOUS
10
6.38149
20
-4.69903
11
6.38145
21
-4.69904
0
LINE
8
BLACK
6
CONTINUOUS
10
6.38145
20
-4.69904
11
6.38144
21
-4.69908
0
LINE
8
BLACK
6
CONTINUOUS
10
6.38144
20
-4.69908
11
6.34936
21
-4.73283
0
LINE
8
BLACK
6
CONTINUOUS
10
6.34936
20
-4.73283
11
6.34933
21
-4.73284
0
LINE
8
BLACK
6
CONTINUOUS
10
6.34933
20
-4.73284
11
6.34931
21
-4.73287
0
LINE
8
BLACK
6
CONTINUOUS
10
6.34931
20
-4.73287
11
6.31611
21
-4.76552
0
LINE
8
BLACK
6
CONTINUOUS
10
6.31611
20
-4.76552
11
6.31608
21
-4.76553
0
LINE
8
BLACK
6
CONTINUOUS
10
6.31608
20
-4.76553
11
6.31606
21
-4.76557
0
LINE
8
BLACK
6
CONTINUOUS
10
6.31606
20
-4.76557
11
6.28178
21
-4.79707
0
LINE
8
BLACK
6
CONTINUOUS
10
6.28178
20
-4.79707
11
6.28174
21
-4.79709
0
LINE
8
BLACK
6
CONTINUOUS
10
6.28174
20
-4.79709
11
6.28173
21
-4.79712
0
LINE
8
BLACK
6
CONTINUOUS
10
6.28173
20
-4.79712
11
6.2464
21
-4.82745
0
LINE
8
BLACK
6
CONTINUOUS
10
6.2464
20
-4.82745
11
6.24636
21
-4.82746
0
LINE
8
BLACK
6
CONTINUOUS
10
6.24636
20
-4.82746
11
6.24635
21
-4.82749
0
LINE
8
BLACK
6
CONTINUOUS
10
6.24635
20
-4.82749
11
6.21001
21
-4.85661
0
LINE
8
BLACK
6
CONTINUOUS
10
6.21001
20
-4.85661
11
6.20998
21
-4.85662
0
LINE
8
BLACK
6
CONTINUOUS
10
6.20998
20
-4.85662
11
6.20996
21
-4.85665
0
LINE
8
BLACK
6
CONTINUOUS
10
6.20996
20
-4.85665
11
6.17266
21
-4.88453
0
LINE
8
BLACK
6
CONTINUOUS
10
6.17266
20
-4.88453
11
6.17263
21
-4.88454
0
LINE
8
BLACK
6
CONTINUOUS
10
6.17263
20
-4.88454
11
6.17261
21
-4.88457
0
LINE
8
BLACK
6
CONTINUOUS
10
6.17261
20
-4.88457
11
6.13439
21
-4.91117
0
LINE
8
BLACK
6
CONTINUOUS
10
6.13439
20
-4.91117
11
6.13435
21
-4.91117
0
LINE
8
BLACK
6
CONTINUOUS
10
6.13435
20
-4.91117
11
6.13433
21
-4.9112
0
LINE
8
BLACK
6
CONTINUOUS
10
6.13433
20
-4.9112
11
6.09524
21
-4.9365
0
LINE
8
BLACK
6
CONTINUOUS
10
6.09524
20
-4.9365
11
6.0952
21
-4.9365
0
LINE
8
BLACK
6
CONTINUOUS
10
6.0952
20
-4.9365
11
6.09518
21
-4.93653
0
LINE
8
BLACK
6
CONTINUOUS
10
6.09518
20
-4.93653
11
6.05526
21
-4.96049
0
LINE
8
BLACK
6
CONTINUOUS
10
6.05526
20
-4.96049
11
6.05522
21
-4.9605
0
LINE
8
BLACK
6
CONTINUOUS
10
6.05522
20
-4.9605
11
6.0552
21
-4.96053
0
LINE
8
BLACK
6
CONTINUOUS
10
6.0552
20
-4.96053
11
6.01449
21
-4.98312
0
LINE
8
BLACK
6
CONTINUOUS
10
6.01449
20
-4.98312
11
6.01445
21
-4.98313
0
LINE
8
BLACK
6
CONTINUOUS
10
6.01445
20
-4.98313
11
6.01443
21
-4.98315
0
LINE
8
BLACK
6
CONTINUOUS
10
6.01443
20
-4.98315
11
5.97297
21
-5.00436
0
LINE
8
BLACK
6
CONTINUOUS
10
5.97297
20
-5.00436
11
5.97294
21
-5.00437
0
LINE
8
BLACK
6
CONTINUOUS
10
5.97294
20
-5.00437
11
5.97291
21
-5.00439
0
LINE
8
BLACK
6
CONTINUOUS
10
5.97291
20
-5.00439
11
5.93077
21
-5.02419
0
LINE
8
BLACK
6
CONTINUOUS
10
5.93077
20
-5.02419
11
5.93073
21
-5.02419
0
LINE
8
BLACK
6
CONTINUOUS
10
5.93073
20
-5.02419
11
5.93071
21
-5.02422
0
LINE
8
BLACK
6
CONTINUOUS
10
5.93071
20
-5.02422
11
5.88792
21
-5.04258
0
LINE
8
BLACK
6
CONTINUOUS
10
5.88792
20
-5.04258
11
5.88788
21
-5.04258
0
LINE
8
BLACK
6
CONTINUOUS
10
5.88788
20
-5.04258
11
5.88786
21
-5.04261
0
LINE
8
BLACK
6
CONTINUOUS
10
5.88786
20
-5.04261
11
5.84447
21
-5.05951
0
LINE
8
BLACK
6
CONTINUOUS
10
5.84447
20
-5.05951
11
5.84443
21
-5.05951
0
LINE
8
BLACK
6
CONTINUOUS
10
5.84443
20
-5.05951
11
5.84441
21
-5.05954
0
LINE
8
BLACK
6
CONTINUOUS
10
5.84441
20
-5.05954
11
5.80048
21
-5.07497
0
LINE
8
BLACK
6
CONTINUOUS
10
5.80048
20
-5.07497
11
5.80044
21
-5.07497
0
LINE
8
BLACK
6
CONTINUOUS
10
5.80044
20
-5.07497
11
5.80041
21
-5.07499
0
LINE
8
BLACK
6
CONTINUOUS
10
5.80041
20
-5.07499
11
5.75598
21
-5.08893
0
LINE
8
BLACK
6
CONTINUOUS
10
5.75598
20
-5.08893
11
5.75595
21
-5.08893
0
LINE
8
BLACK
6
CONTINUOUS
10
5.75595
20
-5.08893
11
5.75592
21
-5.08895
0
LINE
8
BLACK
6
CONTINUOUS
10
5.75592
20
-5.08895
11
5.71105
21
-5.10138
0
LINE
8
BLACK
6
CONTINUOUS
10
5.71105
20
-5.10138
11
5.71101
21
-5.10137
0
LINE
8
BLACK
6
CONTINUOUS
10
5.71101
20
-5.10137
11
5.71098
21
-5.10139
0
LINE
8
BLACK
6
CONTINUOUS
10
5.71098
20
-5.10139
11
5.66571
21
-5.1123
0
LINE
8
BLACK
6
CONTINUOUS
10
5.66571
20
-5.1123
11
5.66568
21
-5.1123
0
LINE
8
BLACK
6
CONTINUOUS
10
5.66568
20
-5.1123
11
5.66565
21
-5.11232
0
LINE
8
BLACK
6
CONTINUOUS
10
5.66565
20
-5.11232
11
5.62004
21
-5.12169
0
LINE
8
BLACK
6
CONTINUOUS
10
5.62004
20
-5.12169
11
5.62
21
-5.12168
0
LINE
8
BLACK
6
CONTINUOUS
10
5.62
20
-5.12168
11
5.61997
21
-5.1217
0
LINE
8
BLACK
6
CONTINUOUS
10
5.61997
20
-5.1217
11
5.57407
21
-5.12953
0
LINE
8
BLACK
6
CONTINUOUS
10
5.57407
20
-5.12953
11
5.5739
21
-5.12949
0
LINE
8
BLACK
6
CONTINUOUS
10
5.5739
20
-5.12949
11
5.57374
21
-5.12956
0
LINE
8
BLACK
6
CONTINUOUS
10
5.57374
20
-5.12956
11
5.15626
21
-5.12956
0
LINE
8
BLACK
6
CONTINUOUS
10
5.15626
20
-5.12956
11
5.1561
21
-5.12949
0
LINE
8
BLACK
6
CONTINUOUS
10
5.1561
20
-5.12949
11
5.15593
21
-5.12953
0
LINE
8
BLACK
6
CONTINUOUS
10
5.15593
20
-5.12953
11
5.11003
21
-5.1217
0
LINE
8
BLACK
6
CONTINUOUS
10
5.11003
20
-5.1217
11
5.11
21
-5.12168
0
LINE
8
BLACK
6
CONTINUOUS
10
5.11
20
-5.12168
11
5.10996
21
-5.12169
0
LINE
8
BLACK
6
CONTINUOUS
10
5.10996
20
-5.12169
11
5.06435
21
-5.11232
0
LINE
8
BLACK
6
CONTINUOUS
10
5.06435
20
-5.11232
11
5.06432
21
-5.1123
0
LINE
8
BLACK
6
CONTINUOUS
10
5.06432
20
-5.1123
11
5.06429
21
-5.1123
0
LINE
8
BLACK
6
CONTINUOUS
10
5.06429
20
-5.1123
11
5.01902
21
-5.10139
0
LINE
8
BLACK
6
CONTINUOUS
10
5.01902
20
-5.10139
11
5.01899
21
-5.10137
0
LINE
8
BLACK
6
CONTINUOUS
10
5.01899
20
-5.10137
11
5.01895
21
-5.10138
0
LINE
8
BLACK
6
CONTINUOUS
10
5.01895
20
-5.10138
11
4.97408
21
-5.08895
0
LINE
8
BLACK
6
CONTINUOUS
10
4.97408
20
-5.08895
11
4.97405
21
-5.08893
0
LINE
8
BLACK
6
CONTINUOUS
10
4.97405
20
-5.08893
11
4.97402
21
-5.08893
0
LINE
8
BLACK
6
CONTINUOUS
10
4.97402
20
-5.08893
11
4.92959
21
-5.07499
0
LINE
8
BLACK
6
CONTINUOUS
10
4.92959
20
-5.07499
11
4.92956
21
-5.07497
0
LINE
8
BLACK
6
CONTINUOUS
10
4.92956
20
-5.07497
11
4.92952
21
-5.07497
0
LINE
8
BLACK
6
CONTINUOUS
10
4.92952
20
-5.07497
11
4.88559
21
-5.05954
0
LINE
8
BLACK
6
CONTINUOUS
10
4.88559
20
-5.05954
11
4.88557
21
-5.05951
0
LINE
8
BLACK
6
CONTINUOUS
10
4.88557
20
-5.05951
11
4.88553
21
-5.05951
0
LINE
8
BLACK
6
CONTINUOUS
10
4.88553
20
-5.05951
11
4.84214
21
-5.04261
0
LINE
8
BLACK
6
CONTINUOUS
10
4.84214
20
-5.04261
11
4.84212
21
-5.04258
0
LINE
8
BLACK
6
CONTINUOUS
10
4.84212
20
-5.04258
11
4.84208
21
-5.04258
0
LINE
8
BLACK
6
CONTINUOUS
10
4.84208
20
-5.04258
11
4.79929
21
-5.02422
0
LINE
8
BLACK
6
CONTINUOUS
10
4.79929
20
-5.02422
11
4.79927
21
-5.02419
0
LINE
8
BLACK
6
CONTINUOUS
10
4.79927
20
-5.02419
11
4.79923
21
-5.02419
0
LINE
8
BLACK
6
CONTINUOUS
10
4.79923
20
-5.02419
11
4.75709
21
-5.00439
0
LINE
8
BLACK
6
CONTINUOUS
10
4.75709
20
-5.00439
11
4.75706
21
-5.00437
0
LINE
8
BLACK
6
CONTINUOUS
10
4.75706
20
-5.00437
11
4.75703
21
-5.00436
0
LINE
8
BLACK
6
CONTINUOUS
10
4.75703
20
-5.00436
11
4.71557
21
-4.98315
0
LINE
8
BLACK
6
CONTINUOUS
10
4.71557
20
-4.98315
11
4.71555
21
-4.98313
0
LINE
8
BLACK
6
CONTINUOUS
10
4.71555
20
-4.98313
11
4.71551
21
-4.98312
0
LINE
8
BLACK
6
CONTINUOUS
10
4.71551
20
-4.98312
11
4.6748
21
-4.96053
0
LINE
8
BLACK
6
CONTINUOUS
10
4.6748
20
-4.96053
11
4.67478
21
-4.9605
0
LINE
8
BLACK
6
CONTINUOUS
10
4.67478
20
-4.9605
11
4.67474
21
-4.96049
0
LINE
8
BLACK
6
CONTINUOUS
10
4.67474
20
-4.96049
11
4.63482
21
-4.93653
0
LINE
8
BLACK
6
CONTINUOUS
10
4.63482
20
-4.93653
11
4.6348
21
-4.9365
0
LINE
8
BLACK
6
CONTINUOUS
10
4.6348
20
-4.9365
11
4.63476
21
-4.9365
0
LINE
8
BLACK
6
CONTINUOUS
10
4.63476
20
-4.9365
11
4.59567
21
-4.9112
0
LINE
8
BLACK
6
CONTINUOUS
10
4.59567
20
-4.9112
11
4.59565
21
-4.91117
0
LINE
8
BLACK
6
CONTINUOUS
10
4.59565
20
-4.91117
11
4.59561
21
-4.91117
0
LINE
8
BLACK
6
CONTINUOUS
10
4.59561
20
-4.91117
11
4.55739
21
-4.88457
0
LINE
8
BLACK
6
CONTINUOUS
10
4.55739
20
-4.88457
11
4.55737
21
-4.88454
0
LINE
8
BLACK
6
CONTINUOUS
10
4.55737
20
-4.88454
11
4.55734
21
-4.88453
0
LINE
8
BLACK
6
CONTINUOUS
10
4.55734
20
-4.88453
11
4.52004
21
-4.85665
0
LINE
8
BLACK
6
CONTINUOUS
10
4.52004
20
-4.85665
11
4.52002
21
-4.85662
0
LINE
8
BLACK
6
CONTINUOUS
10
4.52002
20
-4.85662
11
4.51999
21
-4.85661
0
LINE
8
BLACK
6
CONTINUOUS
10
4.51999
20
-4.85661
11
4.48365
21
-4.82749
0
LINE
8
BLACK
6
CONTINUOUS
10
4.48365
20
-4.82749
11
4.48364
21
-4.82746
0
LINE
8
BLACK
6
CONTINUOUS
10
4.48364
20
-4.82746
11
4.4836
21
-4.82745
0
LINE
8
BLACK
6
CONTINUOUS
10
4.4836
20
-4.82745
11
4.44827
21
-4.79712
0
LINE
8
BLACK
6
CONTINUOUS
10
4.44827
20
-4.79712
11
4.44826
21
-4.79709
0
LINE
8
BLACK
6
CONTINUOUS
10
4.44826
20
-4.79709
11
4.44822
21
-4.79707
0
LINE
8
BLACK
6
CONTINUOUS
10
4.44822
20
-4.79707
11
4.41394
21
-4.76557
0
LINE
8
BLACK
6
CONTINUOUS
10
4.41394
20
-4.76557
11
4.41392
21
-4.76553
0
LINE
8
BLACK
6
CONTINUOUS
10
4.41392
20
-4.76553
11
4.41389
21
-4.76552
0
LINE
8
BLACK
6
CONTINUOUS
10
4.41389
20
-4.76552
11
4.38069
21
-4.73287
0
LINE
8
BLACK
6
CONTINUOUS
10
4.38069
20
-4.73287
11
4.38067
21
-4.73284
0
LINE
8
BLACK
6
CONTINUOUS
10
4.38067
20
-4.73284
11
4.38064
21
-4.73283
0
LINE
8
BLACK
6
CONTINUOUS
10
4.38064
20
-4.73283
11
4.34856
21
-4.69908
0
LINE
8
BLACK
6
CONTINUOUS
10
4.34856
20
-4.69908
11
4.34855
21
-4.69904
0
LINE
8
BLACK
6
CONTINUOUS
10
4.34855
20
-4.69904
11
4.34851
21
-4.69903
0
LINE
8
BLACK
6
CONTINUOUS
10
4.34851
20
-4.69903
11
4.31759
21
-4.66422
0
LINE
8
BLACK
6
CONTINUOUS
10
4.31759
20
-4.66422
11
4.31758
21
-4.66418
0
LINE
8
BLACK
6
CONTINUOUS
10
4.31758
20
-4.66418
11
4.31755
21
-4.66416
0
LINE
8
BLACK
6
CONTINUOUS
10
4.31755
20
-4.66416
11
4.28782
21
-4.62833
0
LINE
8
BLACK
6
CONTINUOUS
10
4.28782
20
-4.62833
11
4.28781
21
-4.62829
0
LINE
8
BLACK
6
CONTINUOUS
10
4.28781
20
-4.62829
11
4.28778
21
-4.62828
0
LINE
8
BLACK
6
CONTINUOUS
10
4.28778
20
-4.62828
11
4.25927
21
-4.59145
0
LINE
8
BLACK
6
CONTINUOUS
10
4.25927
20
-4.59145
11
4.25926
21
-4.59142
0
LINE
8
BLACK
6
CONTINUOUS
10
4.25926
20
-4.59142
11
4.25923
21
-4.5914
0
LINE
8
BLACK
6
CONTINUOUS
10
4.25923
20
-4.5914
11
4.23199
21
-4.55364
0
LINE
8
BLACK
6
CONTINUOUS
10
4.23199
20
-4.55364
11
4.23198
21
-4.5536
0
LINE
8
BLACK
6
CONTINUOUS
10
4.23198
20
-4.5536
11
4.23195
21
-4.55358
0
LINE
8
BLACK
6
CONTINUOUS
10
4.23195
20
-4.55358
11
4.206
21
-4.51492
0
LINE
8
BLACK
6
CONTINUOUS
10
4.206
20
-4.51492
11
4.206
21
-4.51489
0
LINE
8
BLACK
6
CONTINUOUS
10
4.206
20
-4.51489
11
4.20597
21
-4.51487
0
LINE
8
BLACK
6
CONTINUOUS
10
4.20597
20
-4.51487
11
4.18134
21
-4.47535
0
LINE
8
BLACK
6
CONTINUOUS
10
4.18134
20
-4.47535
11
4.18133
21
-4.47531
0
LINE
8
BLACK
6
CONTINUOUS
10
4.18133
20
-4.47531
11
4.1813
21
-4.47529
0
LINE
8
BLACK
6
CONTINUOUS
10
4.1813
20
-4.47529
11
4.15802
21
-4.43497
0
LINE
8
BLACK
6
CONTINUOUS
10
4.15802
20
-4.43497
11
4.15802
21
-4.43493
0
LINE
8
BLACK
6
CONTINUOUS
10
4.15802
20
-4.43493
11
4.15799
21
-4.43491
0
LINE
8
BLACK
6
CONTINUOUS
10
4.15799
20
-4.43491
11
4.13608
21
-4.39382
0
LINE
8
BLACK
6
CONTINUOUS
10
4.13608
20
-4.39382
11
4.13608
21
-4.39378
0
LINE
8
BLACK
6
CONTINUOUS
10
4.13608
20
-4.39378
11
4.13605
21
-4.39376
0
LINE
8
BLACK
6
CONTINUOUS
10
4.13605
20
-4.39376
11
4.11554
21
-4.35196
0
LINE
8
BLACK
6
CONTINUOUS
10
4.11554
20
-4.35196
11
4.11554
21
-4.35192
0
LINE
8
BLACK
6
CONTINUOUS
10
4.11554
20
-4.35192
11
4.11552
21
-4.35189
0
LINE
8
BLACK
6
CONTINUOUS
10
4.11552
20
-4.35189
11
4.09643
21
-4.30942
0
LINE
8
BLACK
6
CONTINUOUS
10
4.09643
20
-4.30942
11
4.09643
21
-4.30939
0
LINE
8
BLACK
6
CONTINUOUS
10
4.09643
20
-4.30939
11
4.09641
21
-4.30936
0
LINE
8
BLACK
6
CONTINUOUS
10
4.09641
20
-4.30936
11
4.07877
21
-4.26627
0
LINE
8
BLACK
6
CONTINUOUS
10
4.07877
20
-4.26627
11
4.07877
21
-4.26623
0
LINE
8
BLACK
6
CONTINUOUS
10
4.07877
20
-4.26623
11
4.07875
21
-4.2662
0
LINE
8
BLACK
6
CONTINUOUS
10
4.07875
20
-4.2662
11
4.06257
21
-4.22254
0
LINE
8
BLACK
6
CONTINUOUS
10
4.06257
20
-4.22254
11
4.06258
21
-4.2225
0
LINE
8
BLACK
6
CONTINUOUS
10
4.06258
20
-4.2225
11
4.06255
21
-4.22248
0
LINE
8
BLACK
6
CONTINUOUS
10
4.06255
20
-4.22248
11
4.04786
21
-4.17829
0
LINE
8
BLACK
6
CONTINUOUS
10
4.04786
20
-4.17829
11
4.04787
21
-4.17825
0
LINE
8
BLACK
6
CONTINUOUS
10
4.04787
20
-4.17825
11
4.04784
21
-4.17823
0
LINE
8
BLACK
6
CONTINUOUS
10
4.04784
20
-4.17823
11
4.03466
21
-4.13357
0
LINE
8
BLACK
6
CONTINUOUS
10
4.03466
20
-4.13357
11
4.03466
21
-4.13353
0
LINE
8
BLACK
6
CONTINUOUS
10
4.03466
20
-4.13353
11
4.03464
21
-4.1335
0
LINE
8
BLACK
6
CONTINUOUS
10
4.03464
20
-4.1335
11
4.02297
21
-4.08843
0
LINE
8
BLACK
6
CONTINUOUS
10
4.02297
20
-4.08843
11
4.02297
21
-4.08839
0
LINE
8
BLACK
6
CONTINUOUS
10
4.02297
20
-4.08839
11
4.02295
21
-4.08836
0
LINE
8
BLACK
6
CONTINUOUS
10
4.02295
20
-4.08836
11
4.01281
21
-4.04292
0
LINE
8
BLACK
6
CONTINUOUS
10
4.01281
20
-4.04292
11
4.01282
21
-4.04288
0
LINE
8
BLACK
6
CONTINUOUS
10
4.01282
20
-4.04288
11
4.0128
21
-4.04285
0
LINE
8
BLACK
6
CONTINUOUS
10
4.0128
20
-4.04285
11
4.0042
21
-3.99709
0
LINE
8
BLACK
6
CONTINUOUS
10
4.0042
20
-3.99709
11
4.0042
21
-3.99705
0
LINE
8
BLACK
6
CONTINUOUS
10
4.0042
20
-3.99705
11
4.00418
21
-3.99702
0
LINE
8
BLACK
6
CONTINUOUS
10
4.00418
20
-3.99702
11
3.99713
21
-3.951
0
LINE
8
BLACK
6
CONTINUOUS
10
3.99713
20
-3.951
11
3.99714
21
-3.95096
0
LINE
8
BLACK
6
CONTINUOUS
10
3.99714
20
-3.95096
11
3.99712
21
-3.95093
0
LINE
8
BLACK
6
CONTINUOUS
10
3.99712
20
-3.95093
11
3.99163
21
-3.90469
0
LINE
8
BLACK
6
CONTINUOUS
10
3.99163
20
-3.90469
11
3.99164
21
-3.90466
0
LINE
8
BLACK
6
CONTINUOUS
10
3.99164
20
-3.90466
11
3.99162
21
-3.90463
0
LINE
8
BLACK
6
CONTINUOUS
10
3.99162
20
-3.90463
11
3.9877
21
-3.85823
0
LINE
8
BLACK
6
CONTINUOUS
10
3.9877
20
-3.85823
11
3.98771
21
-3.85819
0
LINE
8
BLACK
6
CONTINUOUS
10
3.98771
20
-3.85819
11
3.98769
21
-3.85816
0
LINE
8
BLACK
6
CONTINUOUS
10
3.98769
20
-3.85816
11
3.98533
21
-3.81166
0
LINE
8
BLACK
6
CONTINUOUS
10
3.98533
20
-3.81166
11
3.98535
21
-3.81162
0
LINE
8
BLACK
6
CONTINUOUS
10
3.98535
20
-3.81162
11
3.98533
21
-3.81159
0
LINE
8
BLACK
6
CONTINUOUS
10
3.98533
20
-3.81159
11
3.98455
21
-3.76503
0
LINE
8
BLACK
6
CONTINUOUS
10
3.98455
20
-3.76503
11
3.98456
21
-3.765
0
LINE
8
BLACK
6
CONTINUOUS
10
3.98456
20
-3.765
11
3.98455
21
-3.76497
0
LINE
8
BLACK
6
CONTINUOUS
10
3.98455
20
-3.76497
11
3.98533
21
-3.71841
0
LINE
8
BLACK
6
CONTINUOUS
10
3.98533
20
-3.71841
11
3.98535
21
-3.71838
0
LINE
8
BLACK
6
CONTINUOUS
10
3.98535
20
-3.71838
11
3.98533
21
-3.71834
0
LINE
8
BLACK
6
CONTINUOUS
10
3.98533
20
-3.71834
11
3.98769
21
-3.67184
0
LINE
8
BLACK
6
CONTINUOUS
10
3.98769
20
-3.67184
11
3.98771
21
-3.67181
0
LINE
8
BLACK
6
CONTINUOUS
10
3.98771
20
-3.67181
11
3.9877
21
-3.67177
0
LINE
8
BLACK
6
CONTINUOUS
10
3.9877
20
-3.67177
11
3.99162
21
-3.62537
0
LINE
8
BLACK
6
CONTINUOUS
10
3.99162
20
-3.62537
11
3.99164
21
-3.62534
0
LINE
8
BLACK
6
CONTINUOUS
10
3.99164
20
-3.62534
11
3.99163
21
-3.62531
0
LINE
8
BLACK
6
CONTINUOUS
10
3.99163
20
-3.62531
11
3.99712
21
-3.57907
0
LINE
8
BLACK
6
CONTINUOUS
10
3.99712
20
-3.57907
11
3.99714
21
-3.57904
0
LINE
8
BLACK
6
CONTINUOUS
10
3.99714
20
-3.57904
11
3.99713
21
-3.579
0
LINE
8
BLACK
6
CONTINUOUS
10
3.99713
20
-3.579
11
4.00418
21
-3.53298
0
LINE
8
BLACK
6
CONTINUOUS
10
4.00418
20
-3.53298
11
4.0042
21
-3.53295
0
LINE
8
BLACK
6
CONTINUOUS
10
4.0042
20
-3.53295
11
4.0042
21
-3.53291
0
LINE
8
BLACK
6
CONTINUOUS
10
4.0042
20
-3.53291
11
4.0128
21
-3.48715
0
LINE
8
BLACK
6
CONTINUOUS
10
4.0128
20
-3.48715
11
4.01282
21
-3.48712
0
LINE
8
BLACK
6
CONTINUOUS
10
4.01282
20
-3.48712
11
4.01281
21
-3.48708
0
LINE
8
BLACK
6
CONTINUOUS
10
4.01281
20
-3.48708
11
4.02295
21
-3.44164
0
LINE
8
BLACK
6
CONTINUOUS
10
4.02295
20
-3.44164
11
4.02297
21
-3.44161
0
LINE
8
BLACK
6
CONTINUOUS
10
4.02297
20
-3.44161
11
4.02297
21
-3.44157
0
LINE
8
BLACK
6
CONTINUOUS
10
4.02297
20
-3.44157
11
4.03464
21
-3.3965
0
LINE
8
BLACK
6
CONTINUOUS
10
4.03464
20
-3.3965
11
4.03466
21
-3.39647
0
LINE
8
BLACK
6
CONTINUOUS
10
4.03466
20
-3.39647
11
4.03466
21
-3.39643
0
LINE
8
BLACK
6
CONTINUOUS
10
4.03466
20
-3.39643
11
4.04784
21
-3.35177
0
LINE
8
BLACK
6
CONTINUOUS
10
4.04784
20
-3.35177
11
4.04787
21
-3.35175
0
LINE
8
BLACK
6
CONTINUOUS
10
4.04787
20
-3.35175
11
4.04786
21
-3.35171
0
LINE
8
BLACK
6
CONTINUOUS
10
4.04786
20
-3.35171
11
4.06255
21
-3.30752
0
LINE
8
BLACK
6
CONTINUOUS
10
4.06255
20
-3.30752
11
4.06258
21
-3.3075
0
LINE
8
BLACK
6
CONTINUOUS
10
4.06258
20
-3.3075
11
4.06257
21
-3.30746
0
LINE
8
BLACK
6
CONTINUOUS
10
4.06257
20
-3.30746
11
4.07875
21
-3.2638
0
LINE
8
BLACK
6
CONTINUOUS
10
4.07875
20
-3.2638
11
4.07877
21
-3.26377
0
LINE
8
BLACK
6
CONTINUOUS
10
4.07877
20
-3.26377
11
4.07877
21
-3.26373
0
LINE
8
BLACK
6
CONTINUOUS
10
4.07877
20
-3.26373
11
4.09641
21
-3.22064
0
LINE
8
BLACK
6
CONTINUOUS
10
4.09641
20
-3.22064
11
4.09643
21
-3.22061
0
LINE
8
BLACK
6
CONTINUOUS
10
4.09643
20
-3.22061
11
4.09643
21
-3.22058
0
LINE
8
BLACK
6
CONTINUOUS
10
4.09643
20
-3.22058
11
4.11552
21
-3.17811
0
LINE
8
BLACK
6
CONTINUOUS
10
4.11552
20
-3.17811
11
4.11554
21
-3.17808
0
LINE
8
BLACK
6
CONTINUOUS
10
4.11554
20
-3.17808
11
4.11554
21
-3.17804
0
LINE
8
BLACK
6
CONTINUOUS
10
4.11554
20
-3.17804
11
4.13605
21
-3.13624
0
LINE
8
BLACK
6
CONTINUOUS
10
4.13605
20
-3.13624
11
4.13608
21
-3.13622
0
LINE
8
BLACK
6
CONTINUOUS
10
4.13608
20
-3.13622
11
4.13608
21
-3.13618
0
LINE
8
BLACK
6
CONTINUOUS
10
4.13608
20
-3.13618
11
4.15799
21
-3.09509
0
LINE
8
BLACK
6
CONTINUOUS
10
4.15799
20
-3.09509
11
4.15802
21
-3.09507
0
LINE
8
BLACK
6
CONTINUOUS
10
4.15802
20
-3.09507
11
4.15802
21
-3.09503
0
LINE
8
BLACK
6
CONTINUOUS
10
4.15802
20
-3.09503
11
4.1813
21
-3.05471
0
LINE
8
BLACK
6
CONTINUOUS
10
4.1813
20
-3.05471
11
4.18133
21
-3.05469
0
LINE
8
BLACK
6
CONTINUOUS
10
4.18133
20
-3.05469
11
4.18134
21
-3.05465
0
LINE
8
BLACK
6
CONTINUOUS
10
4.18134
20
-3.05465
11
4.20597
21
-3.01513
0
LINE
8
BLACK
6
CONTINUOUS
10
4.20597
20
-3.01513
11
4.206
21
-3.01511
0
LINE
8
BLACK
6
CONTINUOUS
10
4.206
20
-3.01511
11
4.206
21
-3.01508
0
LINE
8
BLACK
6
CONTINUOUS
10
4.206
20
-3.01508
11
4.23195
21
-2.97642
0
LINE
8
BLACK
6
CONTINUOUS
10
4.23195
20
-2.97642
11
4.23198
21
-2.9764
0
LINE
8
BLACK
6
CONTINUOUS
10
4.23198
20
-2.9764
11
4.23199
21
-2.97636
0
LINE
8
BLACK
6
CONTINUOUS
10
4.23199
20
-2.97636
11
4.25923
21
-2.9386
0
LINE
8
BLACK
6
CONTINUOUS
10
4.25923
20
-2.9386
11
4.25926
21
-2.93858
0
LINE
8
BLACK
6
CONTINUOUS
10
4.25926
20
-2.93858
11
4.25927
21
-2.93855
0
LINE
8
BLACK
6
CONTINUOUS
10
4.25927
20
-2.93855
11
4.28778
21
-2.90172
0
LINE
8
BLACK
6
CONTINUOUS
10
4.28778
20
-2.90172
11
4.28781
21
-2.90171
0
LINE
8
BLACK
6
CONTINUOUS
10
4.28781
20
-2.90171
11
4.28782
21
-2.90167
0
LINE
8
BLACK
6
CONTINUOUS
10
4.28782
20
-2.90167
11
4.31755
21
-2.86584
0
LINE
8
BLACK
6
CONTINUOUS
10
4.31755
20
-2.86584
11
4.31758
21
-2.86582
0
LINE
8
BLACK
6
CONTINUOUS
10
4.31758
20
-2.86582
11
4.31759
21
-2.86578
0
LINE
8
BLACK
6
CONTINUOUS
10
4.31759
20
-2.86578
11
4.34851
21
-2.83097
0
LINE
8
BLACK
6
CONTINUOUS
10
4.34851
20
-2.83097
11
4.34855
21
-2.83096
0
LINE
8
BLACK
6
CONTINUOUS
10
4.34855
20
-2.83096
11
4.34856
21
-2.83092
0
LINE
8
BLACK
6
CONTINUOUS
10
4.34856
20
-2.83092
11
4.38064
21
-2.79717
0
LINE
8
BLACK
6
CONTINUOUS
10
4.38064
20
-2.79717
11
4.38067
21
-2.79716
0
LINE
8
BLACK
6
CONTINUOUS
10
4.38067
20
-2.79716
11
4.38069
21
-2.79713
0
LINE
8
BLACK
6
CONTINUOUS
10
4.38069
20
-2.79713
11
4.41389
21
-2.76448
0
LINE
8
BLACK
6
CONTINUOUS
10
4.41389
20
-2.76448
11
4.41399
21
-2.76444
0
LINE
8
BLACK
6
CONTINUOUS
10
4.41399
20
-2.76444
11
4.41404
21
-2.76435
0
LINE
8
BLACK
6
CONTINUOUS
10
4.41404
20
-2.76435
11
4.45877
21
-2.72846
0
LINE
8
BLACK
6
CONTINUOUS
10
4.45877
20
-2.72846
11
4.45883
21
-2.72845
0
LINE
8
BLACK
6
CONTINUOUS
10
4.45883
20
-2.72845
11
4.45886
21
-2.7284
0
LINE
8
BLACK
6
CONTINUOUS
10
4.45886
20
-2.7284
11
4.50886
21
-2.69277
0
LINE
8
BLACK
6
CONTINUOUS
10
4.50886
20
-2.69277
11
4.50944
21
-2.69264
0
LINE
8
BLACK
6
CONTINUOUS
10
4.50944
20
-2.69264
11
4.51
21
-2.69241
0
LINE
8
BLACK
6
CONTINUOUS
10
4.51
20
-2.69241
11
6.22
21
-2.69241
0
LINE
8
BLACK
6
CONTINUOUS
10
6.22
20
-2.69241
11
6.22047
21
-2.6926
0
LINE
8
BLACK
6
CONTINUOUS
10
4.51063
20
-2.69635
11
4.46119
21
-2.73157
0
LINE
8
BLACK
6
CONTINUOUS
10
4.46119
20
-2.73157
11
4.41658
21
-2.76736
0
LINE
8
BLACK
6
CONTINUOUS
10
4.41658
20
-2.76736
11
4.38347
21
-2.79991
0
LINE
8
BLACK
6
CONTINUOUS
10
4.38347
20
-2.79991
11
4.35143
21
-2.83361
0
LINE
8
BLACK
6
CONTINUOUS
10
4.35143
20
-2.83361
11
4.32056
21
-2.86837
0
LINE
8
BLACK
6
CONTINUOUS
10
4.32056
20
-2.86837
11
4.29087
21
-2.90416
0
LINE
8
BLACK
6
CONTINUOUS
10
4.29087
20
-2.90416
11
4.26241
21
-2.94093
0
LINE
8
BLACK
6
CONTINUOUS
10
4.26241
20
-2.94093
11
4.2352
21
-2.97864
0
LINE
8
BLACK
6
CONTINUOUS
10
4.2352
20
-2.97864
11
4.20929
21
-3.01725
0
LINE
8
BLACK
6
CONTINUOUS
10
4.20929
20
-3.01725
11
4.1847
21
-3.05671
0
LINE
8
BLACK
6
CONTINUOUS
10
4.1847
20
-3.05671
11
4.16145
21
-3.09697
0
LINE
8
BLACK
6
CONTINUOUS
10
4.16145
20
-3.09697
11
4.13957
21
-3.138
0
LINE
8
BLACK
6
CONTINUOUS
10
4.13957
20
-3.138
11
4.11909
21
-3.17975
0
LINE
8
BLACK
6
CONTINUOUS
10
4.11909
20
-3.17975
11
4.10004
21
-3.22216
0
LINE
8
BLACK
6
CONTINUOUS
10
4.10004
20
-3.22216
11
4.08243
21
-3.26519
0
LINE
8
BLACK
6
CONTINUOUS
10
4.08243
20
-3.26519
11
4.06628
21
-3.3088
0
LINE
8
BLACK
6
CONTINUOUS
10
4.06628
20
-3.3088
11
4.05161
21
-3.35292
0
LINE
8
BLACK
6
CONTINUOUS
10
4.05161
20
-3.35292
11
4.03844
21
-3.39751
0
LINE
8
BLACK
6
CONTINUOUS
10
4.03844
20
-3.39751
11
4.02679
21
-3.44253
0
LINE
8
BLACK
6
CONTINUOUS
10
4.02679
20
-3.44253
11
4.01666
21
-3.48791
0
LINE
8
BLACK
6
CONTINUOUS
10
4.01666
20
-3.48791
11
4.00807
21
-3.53361
0
LINE
8
BLACK
6
CONTINUOUS
10
4.00807
20
-3.53361
11
4.00103
21
-3.57957
0
LINE
8
BLACK
6
CONTINUOUS
10
4.00103
20
-3.57957
11
3.99554
21
-3.62574
0
LINE
8
BLACK
6
CONTINUOUS
10
3.99554
20
-3.62574
11
3.99162
21
-3.67207
0
LINE
8
BLACK
6
CONTINUOUS
10
3.99162
20
-3.67207
11
3.98927
21
-3.71851
0
LINE
8
BLACK
6
CONTINUOUS
10
3.98927
20
-3.71851
11
3.98848
21
-3.765
0
LINE
8
BLACK
6
CONTINUOUS
10
3.98848
20
-3.765
11
3.98927
21
-3.81149
0
LINE
8
BLACK
6
CONTINUOUS
10
3.98927
20
-3.81149
11
3.99162
21
-3.85793
0
LINE
8
BLACK
6
CONTINUOUS
10
3.99162
20
-3.85793
11
3.99554
21
-3.90426
0
LINE
8
BLACK
6
CONTINUOUS
10
3.99554
20
-3.90426
11
4.00103
21
-3.95043
0
LINE
8
BLACK
6
CONTINUOUS
10
4.00103
20
-3.95043
11
4.00807
21
-3.99639
0
LINE
8
BLACK
6
CONTINUOUS
10
4.00807
20
-3.99639
11
4.01666
21
-4.04209
0
LINE
8
BLACK
6
CONTINUOUS
10
4.01666
20
-4.04209
11
4.02679
21
-4.08747
0
LINE
8
BLACK
6
CONTINUOUS
10
4.02679
20
-4.08747
11
4.03844
21
-4.13249
0
LINE
8
BLACK
6
CONTINUOUS
10
4.03844
20
-4.13249
11
4.05161
21
-4.17708
0
LINE
8
BLACK
6
CONTINUOUS
10
4.05161
20
-4.17708
11
4.06628
21
-4.2212
0
LINE
8
BLACK
6
CONTINUOUS
10
4.06628
20
-4.2212
11
4.08243
21
-4.26481
0
LINE
8
BLACK
6
CONTINUOUS
10
4.08243
20
-4.26481
11
4.10004
21
-4.30784
0
LINE
8
BLACK
6
CONTINUOUS
10
4.10004
20
-4.30784
11
4.11909
21
-4.35025
0
LINE
8
BLACK
6
CONTINUOUS
10
4.11909
20
-4.35025
11
4.13957
21
-4.392
0
LINE
8
BLACK
6
CONTINUOUS
10
4.13957
20
-4.392
11
4.16145
21
-4.43303
0
LINE
8
BLACK
6
CONTINUOUS
10
4.16145
20
-4.43303
11
4.1847
21
-4.47329
0
LINE
8
BLACK
6
CONTINUOUS
10
4.1847
20
-4.47329
11
4.20929
21
-4.51275
0
LINE
8
BLACK
6
CONTINUOUS
10
4.20929
20
-4.51275
11
4.2352
21
-4.55136
0
LINE
8
BLACK
6
CONTINUOUS
10
4.2352
20
-4.55136
11
4.26241
21
-4.58907
0
LINE
8
BLACK
6
CONTINUOUS
10
4.26241
20
-4.58907
11
4.29087
21
-4.62584
0
LINE
8
BLACK
6
CONTINUOUS
10
4.29087
20
-4.62584
11
4.32056
21
-4.66163
0
LINE
8
BLACK
6
CONTINUOUS
10
4.32056
20
-4.66163
11
4.35143
21
-4.69639
0
LINE
8
BLACK
6
CONTINUOUS
10
4.35143
20
-4.69639
11
4.38347
21
-4.73009
0
LINE
8
BLACK
6
CONTINUOUS
10
4.38347
20
-4.73009
11
4.41663
21
-4.76269
0
LINE
8
BLACK
6
CONTINUOUS
10
4.41663
20
-4.76269
11
4.45086
21
-4.79415
0
LINE
8
BLACK
6
CONTINUOUS
10
4.45086
20
-4.79415
11
4.48614
21
-4.82444
0
LINE
8
BLACK
6
CONTINUOUS
10
4.48614
20
-4.82444
11
4.52243
21
-4.85352
0
LINE
8
BLACK
6
CONTINUOUS
10
4.52243
20
-4.85352
11
4.55967
21
-4.88135
0
LINE
8
BLACK
6
CONTINUOUS
10
4.55967
20
-4.88135
11
4.59783
21
-4.90792
0
LINE
8
BLACK
6
CONTINUOUS
10
4.59783
20
-4.90792
11
4.63687
21
-4.93317
0
LINE
8
BLACK
6
CONTINUOUS
10
4.63687
20
-4.93317
11
4.67674
21
-4.9571
0
LINE
8
BLACK
6
CONTINUOUS
10
4.67674
20
-4.9571
11
4.7174
21
-4.97966
0
LINE
8
BLACK
6
CONTINUOUS
10
4.7174
20
-4.97966
11
4.75879
21
-5.00084
0
LINE
8
BLACK
6
CONTINUOUS
10
4.75879
20
-5.00084
11
4.80087
21
-5.02061
0
LINE
8
BLACK
6
CONTINUOUS
10
4.80087
20
-5.02061
11
4.8436
21
-5.03895
0
LINE
8
BLACK
6
CONTINUOUS
10
4.8436
20
-5.03895
11
4.88693
21
-5.05583
0
LINE
8
BLACK
6
CONTINUOUS
10
4.88693
20
-5.05583
11
4.9308
21
-5.07124
0
LINE
8
BLACK
6
CONTINUOUS
10
4.9308
20
-5.07124
11
4.97516
21
-5.08516
0
LINE
8
BLACK
6
CONTINUOUS
10
4.97516
20
-5.08516
11
5.01997
21
-5.09758
0
LINE
8
BLACK
6
CONTINUOUS
10
5.01997
20
-5.09758
11
5.06518
21
-5.10847
0
LINE
8
BLACK
6
CONTINUOUS
10
5.06518
20
-5.10847
11
5.11072
21
-5.11783
0
LINE
8
BLACK
6
CONTINUOUS
10
5.11072
20
-5.11783
11
5.15643
21
-5.12562
0
LINE
8
BLACK
6
CONTINUOUS
10
5.15643
20
-5.12562
11
5.57357
21
-5.12562
0
LINE
8
BLACK
6
CONTINUOUS
10
5.57357
20
-5.12562
11
5.61928
21
-5.11783
0
LINE
8
BLACK
6
CONTINUOUS
10
5.61928
20
-5.11783
11
5.66482
21
-5.10847
0
LINE
8
BLACK
6
CONTINUOUS
10
5.66482
20
-5.10847
11
5.71003
21
-5.09757
0
LINE
8
BLACK
6
CONTINUOUS
10
5.71003
20
-5.09757
11
5.75484
21
-5.08516
0
LINE
8
BLACK
6
CONTINUOUS
10
5.75484
20
-5.08516
11
5.7992
21
-5.07124
0
LINE
8
BLACK
6
CONTINUOUS
10
5.7992
20
-5.07124
11
5.84307
21
-5.05583
0
LINE
8
BLACK
6
CONTINUOUS
10
5.84307
20
-5.05583
11
5.8864
21
-5.03895
0
LINE
8
BLACK
6
CONTINUOUS
10
5.8864
20
-5.03895
11
5.92912
21
-5.02061
0
LINE
8
BLACK
6
CONTINUOUS
10
5.92912
20
-5.02061
11
5.97121
21
-5.00084
0
LINE
8
BLACK
6
CONTINUOUS
10
5.97121
20
-5.00084
11
6.0126
21
-4.97966
0
LINE
8
BLACK
6
CONTINUOUS
10
6.0126
20
-4.97966
11
6.05326
21
-4.9571
0
LINE
8
BLACK
6
CONTINUOUS
10
6.05326
20
-4.9571
11
6.09313
21
-4.93317
0
LINE
8
BLACK
6
CONTINUOUS
10
6.09313
20
-4.93317
11
6.13217
21
-4.90792
0
LINE
8
BLACK
6
CONTINUOUS
10
6.13217
20
-4.90792
11
6.17033
21
-4.88135
0
LINE
8
BLACK
6
CONTINUOUS
10
6.17033
20
-4.88135
11
6.20758
21
-4.85352
0
LINE
8
BLACK
6
CONTINUOUS
10
6.20758
20
-4.85352
11
6.24386
21
-4.82444
0
LINE
8
BLACK
6
CONTINUOUS
10
6.24386
20
-4.82444
11
6.27914
21
-4.79415
0
LINE
8
BLACK
6
CONTINUOUS
10
6.27914
20
-4.79415
11
6.31337
21
-4.76269
0
LINE
8
BLACK
6
CONTINUOUS
10
6.31337
20
-4.76269
11
6.34653
21
-4.73009
0
LINE
8
BLACK
6
CONTINUOUS
10
6.34653
20
-4.73009
11
6.37857
21
-4.69639
0
LINE
8
BLACK
6
CONTINUOUS
10
6.37857
20
-4.69639
11
6.40944
21
-4.66163
0
LINE
8
BLACK
6
CONTINUOUS
10
6.40944
20
-4.66163
11
6.43913
21
-4.62584
0
LINE
8
BLACK
6
CONTINUOUS
10
6.43913
20
-4.62584
11
6.46759
21
-4.58907
0
LINE
8
BLACK
6
CONTINUOUS
10
6.46759
20
-4.58907
11
6.4948
21
-4.55136
0
LINE
8
BLACK
6
CONTINUOUS
10
6.4948
20
-4.55136
11
6.52071
21
-4.51275
0
LINE
8
BLACK
6
CONTINUOUS
10
6.52071
20
-4.51275
11
6.54531
21
-4.47329
0
LINE
8
BLACK
6
CONTINUOUS
10
6.54531
20
-4.47329
11
6.56855
21
-4.43303
0
LINE
8
BLACK
6
CONTINUOUS
10
6.56855
20
-4.43303
11
6.59043
21
-4.392
0
LINE
8
BLACK
6
CONTINUOUS
10
6.59043
20
-4.392
11
6.61091
21
-4.35025
0
LINE
8
BLACK
6
CONTINUOUS
10
6.61091
20
-4.35025
11
6.62996
21
-4.30784
0
LINE
8
BLACK
6
CONTINUOUS
10
6.62996
20
-4.30784
11
6.64757
21
-4.26481
0
LINE
8
BLACK
6
CONTINUOUS
10
6.64757
20
-4.26481
11
6.66372
21
-4.2212
0
LINE
8
BLACK
6
CONTINUOUS
10
6.66372
20
-4.2212
11
6.67839
21
-4.17708
0
LINE
8
BLACK
6
CONTINUOUS
10
6.67839
20
-4.17708
11
6.69156
21
-4.13249
0
LINE
8
BLACK
6
CONTINUOUS
10
6.69156
20
-4.13249
11
6.70321
21
-4.08747
0
LINE
8
BLACK
6
CONTINUOUS
10
6.70321
20
-4.08747
11
6.71334
21
-4.04209
0
LINE
8
BLACK
6
CONTINUOUS
10
6.71334
20
-4.04209
11
6.72193
21
-3.99639
0
LINE
8
BLACK
6
CONTINUOUS
10
6.72193
20
-3.99639
11
6.72897
21
-3.95043
0
LINE
8
BLACK
6
CONTINUOUS
10
6.72897
20
-3.95043
11
6.73446
21
-3.90426
0
LINE
8
BLACK
6
CONTINUOUS
10
6.73446
20
-3.90426
11
6.73838
21
-3.85793
0
LINE
8
BLACK
6
CONTINUOUS
10
6.73838
20
-3.85793
11
6.74073
21
-3.81149
0
LINE
8
BLACK
6
CONTINUOUS
10
6.74073
20
-3.81149
11
6.74152
21
-3.765
0
LINE
8
BLACK
6
CONTINUOUS
10
6.74152
20
-3.765
11
6.74073
21
-3.71851
0
LINE
8
BLACK
6
CONTINUOUS
10
6.74073
20
-3.71851
11
6.73838
21
-3.67207
0
LINE
8
BLACK
6
CONTINUOUS
10
6.73838
20
-3.67207
11
6.73446
21
-3.62574
0
LINE
8
BLACK
6
CONTINUOUS
10
6.73446
20
-3.62574
11
6.72897
21
-3.57957
0
LINE
8
BLACK
6
CONTINUOUS
10
6.72897
20
-3.57957
11
6.72193
21
-3.53361
0
LINE
8
BLACK
6
CONTINUOUS
10
6.72193
20
-3.53361
11
6.71334
21
-3.48791
0
LINE
8
BLACK
6
CONTINUOUS
10
6.71334
20
-3.48791
11
6.70321
21
-3.44253
0
LINE
8
BLACK
6
CONTINUOUS
10
6.70321
20
-3.44253
11
6.69156
21
-3.39751
0
LINE
8
BLACK
6
CONTINUOUS
10
6.69156
20
-3.39751
11
6.67839
21
-3.35292
0
LINE
8
BLACK
6
CONTINUOUS
10
6.67839
20
-3.35292
11
6.66372
21
-3.3088
0
LINE
8
BLACK
6
CONTINUOUS
10
6.66372
20
-3.3088
11
6.64757
21
-3.26519
0
LINE
8
BLACK
6
CONTINUOUS
10
6.64757
20
-3.26519
11
6.62996
21
-3.22216
0
LINE
8
BLACK
6
CONTINUOUS
10
6.62996
20
-3.22216
11
6.61091
21
-3.17975
0
LINE
8
BLACK
6
CONTINUOUS
10
6.61091
20
-3.17975
11
6.59043
21
-3.138
0
LINE
8
BLACK
6
CONTINUOUS
10
6.59043
20
-3.138
11
6.56855
21
-3.09697
0
LINE
8
BLACK
6
CONTINUOUS
10
6.56855
20
-3.09697
11
6.54531
21
-3.05671
0
LINE
8
BLACK
6
CONTINUOUS
10
6.54531
20
-3.05671
11
6.52071
21
-3.01725
0
LINE
8
BLACK
6
CONTINUOUS
10
6.52071
20
-3.01725
11
6.4948
21
-2.97864
0
LINE
8
BLACK
6
CONTINUOUS
10
6.4948
20
-2.97864
11
6.46759
21
-2.94093
0
LINE
8
BLACK
6
CONTINUOUS
10
6.46759
20
-2.94093
11
6.43913
21
-2.90416
0
LINE
8
BLACK
6
CONTINUOUS
10
6.43913
20
-2.90416
11
6.40944
21
-2.86837
0
LINE
8
BLACK
6
CONTINUOUS
10
6.40944
20
-2.86837
11
6.37857
21
-2.83361
0
LINE
8
BLACK
6
CONTINUOUS
10
6.37857
20
-2.83361
11
6.34653
21
-2.79991
0
LINE
8
BLACK
6
CONTINUOUS
10
6.34653
20
-2.79991
11
6.31337
21
-2.76731
0
LINE
8
BLACK
6
CONTINUOUS
10
6.31337
20
-2.76731
11
6.26383
21
-2.7216
0
LINE
8
BLACK
6
CONTINUOUS
10
6.26383
20
-2.7216
11
6.21948
21
-2.69635
0
LINE
8
BLACK
6
CONTINUOUS
10
6.21948
20
-2.69635
11
4.51063
21
-2.69635
  0
ENDSEC
  0
EOF
