  0
SECTION
  2
HEADER
  9
$ANGBASE
  50
0.0
  9
$ANGDIR
  70
1
  9
$MEASUREMENT
  70
0
  0
ENDSEC
  0
SECTION
  2
TABLES
  0
TABLE
  2
LTYPE
  70
4
  0
LTYPE
  5
40F
  2
CONTINUOUS
  70
0
  3
Solid line
  72
65
  73
0
  40
0.0
  0
LTYPE
  5
410
  2
DASHDOT
 70
0
  3
Dash Dot ____ _ ____ _
 72
65
 73
4
 40
2.0
 49
1.25
 49
-0.25
 49
0.25
 49
-0.25
  0
LTYPE
  5
411
  2
DASHED
 70
0
  3
Dashed __ __ __ __ __
 72
65
 73
2
 40
0.75
 49
0.5
 49
-0.25
  0
LTYPE
  5
43B
  2
DOTTED
 70
0
  3
Dotted .  .  .  .
 72
65
 73
2
 40
0.2
 49
0.0
 49
-0.2
  0
ENDTAB
  0
TABLE
  2
STYLE
  70
4
  0
STYLE
  2
KICAD
  70
0
  40
0
  41
1
  42
1
  50
0
  71
0
  3
isocp.shx
  0
STYLE
  2
KICADB
  70
0
  40
0
  41
1
  42
1
  50
0
  71
0
  3
isocp.shx
  0
STYLE
  2
KICADI
  70
0
  40
0
  41
1
  42
1
  50
15
  71
0
  3
isocp.shx
  0
STYLE
  2
KICADBI
  70
0
  40
0
  41
1
  42
1
  50
15
  71
0
  3
isocp.shx
  0
ENDTAB
  0
TABLE
  2
LAYER
  70
1
  0
LAYER
  2
BLACK
  70
0
  62
7
  6
CONTINUOUS
  0
ENDTAB
  0
ENDSEC
  0
SECTION
  2
ENTITIES
0
LINE
8
BLACK
6
CONTINUOUS
10
5.2031
20
-4.98741
11
5.20781
21
-4.99044
0
LINE
8
BLACK
6
CONTINUOUS
10
5.20781
20
-4.99044
11
5.21148
21
-4.99467
0
LINE
8
BLACK
6
CONTINUOUS
10
5.21148
20
-4.99467
11
5.21381
21
-4.99977
0
LINE
8
BLACK
6
CONTINUOUS
10
5.21381
20
-4.99977
11
5.21461
21
-5.00531
0
LINE
8
BLACK
6
CONTINUOUS
10
5.21461
20
-5.00531
11
5.21461
21
-5.04469
0
LINE
8
BLACK
6
CONTINUOUS
10
5.21461
20
-5.04469
11
5.21381
21
-5.05023
0
LINE
8
BLACK
6
CONTINUOUS
10
5.21381
20
-5.05023
11
5.21148
21
-5.05533
0
LINE
8
BLACK
6
CONTINUOUS
10
5.21148
20
-5.05533
11
5.20781
21
-5.05956
0
LINE
8
BLACK
6
CONTINUOUS
10
5.20781
20
-5.05956
11
5.2031
21
-5.06259
0
LINE
8
BLACK
6
CONTINUOUS
10
5.2031
20
-5.06259
11
5.19772
21
-5.06417
0
LINE
8
BLACK
6
CONTINUOUS
10
5.19772
20
-5.06417
11
5.19212
21
-5.06417
0
LINE
8
BLACK
6
CONTINUOUS
10
5.19212
20
-5.06417
11
5.18674
21
-5.06259
0
LINE
8
BLACK
6
CONTINUOUS
10
5.18674
20
-5.06259
11
5.18203
21
-5.05956
0
LINE
8
BLACK
6
CONTINUOUS
10
5.18203
20
-5.05956
11
5.17836
21
-5.05533
0
LINE
8
BLACK
6
CONTINUOUS
10
5.17836
20
-5.05533
11
5.17603
21
-5.05023
0
LINE
8
BLACK
6
CONTINUOUS
10
5.17603
20
-5.05023
11
5.17524
21
-5.04469
0
LINE
8
BLACK
6
CONTINUOUS
10
5.17524
20
-5.04469
11
5.17524
21
-5.00531
0
LINE
8
BLACK
6
CONTINUOUS
10
5.17524
20
-5.00531
11
5.17603
21
-4.99977
0
LINE
8
BLACK
6
CONTINUOUS
10
5.17603
20
-4.99977
11
5.17836
21
-4.99467
0
LINE
8
BLACK
6
CONTINUOUS
10
5.17836
20
-4.99467
11
5.18203
21
-4.99044
0
LINE
8
BLACK
6
CONTINUOUS
10
5.18203
20
-4.99044
11
5.18674
21
-4.98741
0
LINE
8
BLACK
6
CONTINUOUS
10
5.18674
20
-4.98741
11
5.19212
21
-4.98583
0
LINE
8
BLACK
6
CONTINUOUS
10
5.19212
20
-4.98583
11
5.19772
21
-4.98583
0
LINE
8
BLACK
6
CONTINUOUS
10
5.19772
20
-4.98583
11
5.2031
21
-4.98741
0
LINE
8
BLACK
6
CONTINUOUS
10
5.54326
20
-4.98741
11
5.54797
21
-4.99044
0
LINE
8
BLACK
6
CONTINUOUS
10
5.54797
20
-4.99044
11
5.55164
21
-4.99467
0
LINE
8
BLACK
6
CONTINUOUS
10
5.55164
20
-4.99467
11
5.55397
21
-4.99977
0
LINE
8
BLACK
6
CONTINUOUS
10
5.55397
20
-4.99977
11
5.55476
21
-5.00531
0
LINE
8
BLACK
6
CONTINUOUS
10
5.55476
20
-5.00531
11
5.55476
21
-5.04469
0
LINE
8
BLACK
6
CONTINUOUS
10
5.55476
20
-5.04469
11
5.55397
21
-5.05023
0
LINE
8
BLACK
6
CONTINUOUS
10
5.55397
20
-5.05023
11
5.55164
21
-5.05533
0
LINE
8
BLACK
6
CONTINUOUS
10
5.55164
20
-5.05533
11
5.54797
21
-5.05956
0
LINE
8
BLACK
6
CONTINUOUS
10
5.54797
20
-5.05956
11
5.54326
21
-5.06259
0
LINE
8
BLACK
6
CONTINUOUS
10
5.54326
20
-5.06259
11
5.53788
21
-5.06417
0
LINE
8
BLACK
6
CONTINUOUS
10
5.53788
20
-5.06417
11
5.53228
21
-5.06417
0
LINE
8
BLACK
6
CONTINUOUS
10
5.53228
20
-5.06417
11
5.5269
21
-5.06259
0
LINE
8
BLACK
6
CONTINUOUS
10
5.5269
20
-5.06259
11
5.52219
21
-5.05956
0
LINE
8
BLACK
6
CONTINUOUS
10
5.52219
20
-5.05956
11
5.51852
21
-5.05533
0
LINE
8
BLACK
6
CONTINUOUS
10
5.51852
20
-5.05533
11
5.51619
21
-5.05023
0
LINE
8
BLACK
6
CONTINUOUS
10
5.51619
20
-5.05023
11
5.51539
21
-5.04469
0
LINE
8
BLACK
6
CONTINUOUS
10
5.51539
20
-5.04469
11
5.51539
21
-5.00531
0
LINE
8
BLACK
6
CONTINUOUS
10
5.51539
20
-5.00531
11
5.51619
21
-4.99977
0
LINE
8
BLACK
6
CONTINUOUS
10
5.51619
20
-4.99977
11
5.51852
21
-4.99467
0
LINE
8
BLACK
6
CONTINUOUS
10
5.51852
20
-4.99467
11
5.52219
21
-4.99044
0
LINE
8
BLACK
6
CONTINUOUS
10
5.52219
20
-4.99044
11
5.5269
21
-4.98741
0
LINE
8
BLACK
6
CONTINUOUS
10
5.5269
20
-4.98741
11
5.53228
21
-4.98583
0
LINE
8
BLACK
6
CONTINUOUS
10
5.53228
20
-4.98583
11
5.53788
21
-4.98583
0
LINE
8
BLACK
6
CONTINUOUS
10
5.53788
20
-4.98583
11
5.54326
21
-4.98741
0
LINE
8
BLACK
6
CONTINUOUS
10
3.95318
20
-4.96709
11
3.95789
21
-4.97012
0
LINE
8
BLACK
6
CONTINUOUS
10
3.95789
20
-4.97012
11
3.96156
21
-4.97436
0
LINE
8
BLACK
6
CONTINUOUS
10
3.96156
20
-4.97436
11
3.96389
21
-4.97945
0
LINE
8
BLACK
6
CONTINUOUS
10
3.96389
20
-4.97945
11
3.96469
21
-4.985
0
LINE
8
BLACK
6
CONTINUOUS
10
3.96469
20
-4.985
11
3.96389
21
-4.99055
0
LINE
8
BLACK
6
CONTINUOUS
10
3.96389
20
-4.99055
11
3.96156
21
-4.99564
0
LINE
8
BLACK
6
CONTINUOUS
10
3.96156
20
-4.99564
11
3.95789
21
-4.99988
0
LINE
8
BLACK
6
CONTINUOUS
10
3.95789
20
-4.99988
11
3.95318
21
-5.00291
0
LINE
8
BLACK
6
CONTINUOUS
10
3.95318
20
-5.00291
11
3.9478
21
-5.00448
0
LINE
8
BLACK
6
CONTINUOUS
10
3.9478
20
-5.00448
11
3.9422
21
-5.00448
0
LINE
8
BLACK
6
CONTINUOUS
10
3.9422
20
-5.00448
11
3.93682
21
-5.00291
0
LINE
8
BLACK
6
CONTINUOUS
10
3.93682
20
-5.00291
11
3.93211
21
-4.99988
0
LINE
8
BLACK
6
CONTINUOUS
10
3.93211
20
-4.99988
11
3.92844
21
-4.99564
0
LINE
8
BLACK
6
CONTINUOUS
10
3.92844
20
-4.99564
11
3.92611
21
-4.99055
0
LINE
8
BLACK
6
CONTINUOUS
10
3.92611
20
-4.99055
11
3.92531
21
-4.985
0
LINE
8
BLACK
6
CONTINUOUS
10
3.92531
20
-4.985
11
3.92611
21
-4.97945
0
LINE
8
BLACK
6
CONTINUOUS
10
3.92611
20
-4.97945
11
3.92844
21
-4.97436
0
LINE
8
BLACK
6
CONTINUOUS
10
3.92844
20
-4.97436
11
3.93211
21
-4.97012
0
LINE
8
BLACK
6
CONTINUOUS
10
3.93211
20
-4.97012
11
3.93682
21
-4.96709
0
LINE
8
BLACK
6
CONTINUOUS
10
3.93682
20
-4.96709
11
3.9422
21
-4.96552
0
LINE
8
BLACK
6
CONTINUOUS
10
3.9422
20
-4.96552
11
3.9478
21
-4.96552
0
LINE
8
BLACK
6
CONTINUOUS
10
3.9478
20
-4.96552
11
3.95318
21
-4.96709
0
LINE
8
BLACK
6
CONTINUOUS
10
4.19818
20
-4.96709
11
4.20289
21
-4.97012
0
LINE
8
BLACK
6
CONTINUOUS
10
4.20289
20
-4.97012
11
4.20656
21
-4.97436
0
LINE
8
BLACK
6
CONTINUOUS
10
4.20656
20
-4.97436
11
4.20889
21
-4.97945
0
LINE
8
BLACK
6
CONTINUOUS
10
4.20889
20
-4.97945
11
4.20969
21
-4.985
0
LINE
8
BLACK
6
CONTINUOUS
10
4.20969
20
-4.985
11
4.20889
21
-4.99055
0
LINE
8
BLACK
6
CONTINUOUS
10
4.20889
20
-4.99055
11
4.20656
21
-4.99564
0
LINE
8
BLACK
6
CONTINUOUS
10
4.20656
20
-4.99564
11
4.20289
21
-4.99988
0
LINE
8
BLACK
6
CONTINUOUS
10
4.20289
20
-4.99988
11
4.19818
21
-5.00291
0
LINE
8
BLACK
6
CONTINUOUS
10
4.19818
20
-5.00291
11
4.1928
21
-5.00448
0
LINE
8
BLACK
6
CONTINUOUS
10
4.1928
20
-5.00448
11
4.1872
21
-5.00448
0
LINE
8
BLACK
6
CONTINUOUS
10
4.1872
20
-5.00448
11
4.18182
21
-5.00291
0
LINE
8
BLACK
6
CONTINUOUS
10
4.18182
20
-5.00291
11
4.17711
21
-4.99988
0
LINE
8
BLACK
6
CONTINUOUS
10
4.17711
20
-4.99988
11
4.17344
21
-4.99564
0
LINE
8
BLACK
6
CONTINUOUS
10
4.17344
20
-4.99564
11
4.17111
21
-4.99055
0
LINE
8
BLACK
6
CONTINUOUS
10
4.17111
20
-4.99055
11
4.17031
21
-4.985
0
LINE
8
BLACK
6
CONTINUOUS
10
4.17031
20
-4.985
11
4.17111
21
-4.97945
0
LINE
8
BLACK
6
CONTINUOUS
10
4.17111
20
-4.97945
11
4.17344
21
-4.97436
0
LINE
8
BLACK
6
CONTINUOUS
10
4.17344
20
-4.97436
11
4.17711
21
-4.97012
0
LINE
8
BLACK
6
CONTINUOUS
10
4.17711
20
-4.97012
11
4.18182
21
-4.96709
0
LINE
8
BLACK
6
CONTINUOUS
10
4.18182
20
-4.96709
11
4.1872
21
-4.96552
0
LINE
8
BLACK
6
CONTINUOUS
10
4.1872
20
-4.96552
11
4.1928
21
-4.96552
0
LINE
8
BLACK
6
CONTINUOUS
10
4.1928
20
-4.96552
11
4.19818
21
-4.96709
0
LINE
8
BLACK
6
CONTINUOUS
10
5.19913
20
-4.81953
11
5.20443
21
-4.82141
0
LINE
8
BLACK
6
CONTINUOUS
10
5.20443
20
-4.82141
11
5.20903
21
-4.82466
0
LINE
8
BLACK
6
CONTINUOUS
10
5.20903
20
-4.82466
11
5.21258
21
-4.82902
0
LINE
8
BLACK
6
CONTINUOUS
10
5.21258
20
-4.82902
11
5.21482
21
-4.83419
0
LINE
8
BLACK
6
CONTINUOUS
10
5.21482
20
-4.83419
11
5.21559
21
-4.83976
0
LINE
8
BLACK
6
CONTINUOUS
10
5.21559
20
-4.83976
11
5.21559
21
-4.8811
0
LINE
8
BLACK
6
CONTINUOUS
10
5.21559
20
-4.8811
11
5.2154
21
-4.88392
0
LINE
8
BLACK
6
CONTINUOUS
10
5.2154
20
-4.88392
11
5.21388
21
-4.88934
0
LINE
8
BLACK
6
CONTINUOUS
10
5.21388
20
-4.88934
11
5.21095
21
-4.89415
0
LINE
8
BLACK
6
CONTINUOUS
10
5.21095
20
-4.89415
11
5.20684
21
-4.89799
0
LINE
8
BLACK
6
CONTINUOUS
10
5.20684
20
-4.89799
11
5.20184
21
-4.90058
0
LINE
8
BLACK
6
CONTINUOUS
10
5.20184
20
-4.90058
11
5.19633
21
-4.90172
0
LINE
8
BLACK
6
CONTINUOUS
10
5.19633
20
-4.90172
11
5.19072
21
-4.90134
0
LINE
8
BLACK
6
CONTINUOUS
10
5.19072
20
-4.90134
11
5.18541
21
-4.89945
0
LINE
8
BLACK
6
CONTINUOUS
10
5.18541
20
-4.89945
11
5.18081
21
-4.89621
0
LINE
8
BLACK
6
CONTINUOUS
10
5.18081
20
-4.89621
11
5.17726
21
-4.89184
0
LINE
8
BLACK
6
CONTINUOUS
10
5.17726
20
-4.89184
11
5.17502
21
-4.88668
0
LINE
8
BLACK
6
CONTINUOUS
10
5.17502
20
-4.88668
11
5.17425
21
-4.8811
0
LINE
8
BLACK
6
CONTINUOUS
10
5.17425
20
-4.8811
11
5.17425
21
-4.83976
0
LINE
8
BLACK
6
CONTINUOUS
10
5.17425
20
-4.83976
11
5.17444
21
-4.83695
0
LINE
8
BLACK
6
CONTINUOUS
10
5.17444
20
-4.83695
11
5.17596
21
-4.83153
0
LINE
8
BLACK
6
CONTINUOUS
10
5.17596
20
-4.83153
11
5.17889
21
-4.82672
0
LINE
8
BLACK
6
CONTINUOUS
10
5.17889
20
-4.82672
11
5.183
21
-4.82288
0
LINE
8
BLACK
6
CONTINUOUS
10
5.183
20
-4.82288
11
5.188
21
-4.82029
0
LINE
8
BLACK
6
CONTINUOUS
10
5.188
20
-4.82029
11
5.19351
21
-4.81914
0
LINE
8
BLACK
6
CONTINUOUS
10
5.19351
20
-4.81914
11
5.19913
21
-4.81953
0
LINE
8
BLACK
6
CONTINUOUS
10
5.53928
20
-4.81953
11
5.54459
21
-4.82141
0
LINE
8
BLACK
6
CONTINUOUS
10
5.54459
20
-4.82141
11
5.54919
21
-4.82466
0
LINE
8
BLACK
6
CONTINUOUS
10
5.54919
20
-4.82466
11
5.55274
21
-4.82902
0
LINE
8
BLACK
6
CONTINUOUS
10
5.55274
20
-4.82902
11
5.55498
21
-4.83419
0
LINE
8
BLACK
6
CONTINUOUS
10
5.55498
20
-4.83419
11
5.55575
21
-4.83976
0
LINE
8
BLACK
6
CONTINUOUS
10
5.55575
20
-4.83976
11
5.55575
21
-4.8811
0
LINE
8
BLACK
6
CONTINUOUS
10
5.55575
20
-4.8811
11
5.55556
21
-4.88392
0
LINE
8
BLACK
6
CONTINUOUS
10
5.55556
20
-4.88392
11
5.55404
21
-4.88934
0
LINE
8
BLACK
6
CONTINUOUS
10
5.55404
20
-4.88934
11
5.55111
21
-4.89415
0
LINE
8
BLACK
6
CONTINUOUS
10
5.55111
20
-4.89415
11
5.547
21
-4.89799
0
LINE
8
BLACK
6
CONTINUOUS
10
5.547
20
-4.89799
11
5.542
21
-4.90058
0
LINE
8
BLACK
6
CONTINUOUS
10
5.542
20
-4.90058
11
5.53649
21
-4.90172
0
LINE
8
BLACK
6
CONTINUOUS
10
5.53649
20
-4.90172
11
5.53087
21
-4.90134
0
LINE
8
BLACK
6
CONTINUOUS
10
5.53087
20
-4.90134
11
5.52557
21
-4.89945
0
LINE
8
BLACK
6
CONTINUOUS
10
5.52557
20
-4.89945
11
5.52097
21
-4.89621
0
LINE
8
BLACK
6
CONTINUOUS
10
5.52097
20
-4.89621
11
5.51742
21
-4.89184
0
LINE
8
BLACK
6
CONTINUOUS
10
5.51742
20
-4.89184
11
5.51518
21
-4.88668
0
LINE
8
BLACK
6
CONTINUOUS
10
5.51518
20
-4.88668
11
5.51441
21
-4.8811
0
LINE
8
BLACK
6
CONTINUOUS
10
5.51441
20
-4.8811
11
5.51441
21
-4.83976
0
LINE
8
BLACK
6
CONTINUOUS
10
5.51441
20
-4.83976
11
5.5146
21
-4.83695
0
LINE
8
BLACK
6
CONTINUOUS
10
5.5146
20
-4.83695
11
5.51612
21
-4.83153
0
LINE
8
BLACK
6
CONTINUOUS
10
5.51612
20
-4.83153
11
5.51905
21
-4.82672
0
LINE
8
BLACK
6
CONTINUOUS
10
5.51905
20
-4.82672
11
5.52316
21
-4.82288
0
LINE
8
BLACK
6
CONTINUOUS
10
5.52316
20
-4.82288
11
5.52816
21
-4.82029
0
LINE
8
BLACK
6
CONTINUOUS
10
5.52816
20
-4.82029
11
5.53367
21
-4.81914
0
LINE
8
BLACK
6
CONTINUOUS
10
5.53367
20
-4.81914
11
5.53928
21
-4.81953
0
LINE
8
BLACK
6
CONTINUOUS
10
6.27244
20
-3.50665
11
6.22913
21
-3.50665
0
LINE
8
BLACK
6
CONTINUOUS
10
6.22913
20
-3.50665
11
6.22913
21
-3.46335
0
LINE
8
BLACK
6
CONTINUOUS
10
6.22913
20
-3.46335
11
6.27244
21
-3.46335
0
LINE
8
BLACK
6
CONTINUOUS
10
6.27244
20
-3.46335
11
6.27244
21
-3.50665
0
LINE
8
BLACK
6
CONTINUOUS
10
6.35482
20
-3.46408
11
6.36004
21
-3.46625
0
LINE
8
BLACK
6
CONTINUOUS
10
6.36004
20
-3.46625
11
6.36452
21
-3.46969
0
LINE
8
BLACK
6
CONTINUOUS
10
6.36452
20
-3.46969
11
6.36797
21
-3.47417
0
LINE
8
BLACK
6
CONTINUOUS
10
6.36797
20
-3.47417
11
6.37013
21
-3.4794
0
LINE
8
BLACK
6
CONTINUOUS
10
6.37013
20
-3.4794
11
6.37087
21
-3.485
0
LINE
8
BLACK
6
CONTINUOUS
10
6.37087
20
-3.485
11
6.37013
21
-3.4906
0
LINE
8
BLACK
6
CONTINUOUS
10
6.37013
20
-3.4906
11
6.36797
21
-3.49583
0
LINE
8
BLACK
6
CONTINUOUS
10
6.36797
20
-3.49583
11
6.36452
21
-3.50031
0
LINE
8
BLACK
6
CONTINUOUS
10
6.36452
20
-3.50031
11
6.36004
21
-3.50375
0
LINE
8
BLACK
6
CONTINUOUS
10
6.36004
20
-3.50375
11
6.35482
21
-3.50592
0
LINE
8
BLACK
6
CONTINUOUS
10
6.35482
20
-3.50592
11
6.34921
21
-3.50665
0
LINE
8
BLACK
6
CONTINUOUS
10
6.34921
20
-3.50665
11
6.34361
21
-3.50592
0
LINE
8
BLACK
6
CONTINUOUS
10
6.34361
20
-3.50592
11
6.33839
21
-3.50375
0
LINE
8
BLACK
6
CONTINUOUS
10
6.33839
20
-3.50375
11
6.3339
21
-3.50031
0
LINE
8
BLACK
6
CONTINUOUS
10
6.3339
20
-3.50031
11
6.33046
21
-3.49583
0
LINE
8
BLACK
6
CONTINUOUS
10
6.33046
20
-3.49583
11
6.3283
21
-3.4906
0
LINE
8
BLACK
6
CONTINUOUS
10
6.3283
20
-3.4906
11
6.32756
21
-3.485
0
LINE
8
BLACK
6
CONTINUOUS
10
6.32756
20
-3.485
11
6.3283
21
-3.4794
0
LINE
8
BLACK
6
CONTINUOUS
10
6.3283
20
-3.4794
11
6.33046
21
-3.47417
0
LINE
8
BLACK
6
CONTINUOUS
10
6.33046
20
-3.47417
11
6.3339
21
-3.46969
0
LINE
8
BLACK
6
CONTINUOUS
10
6.3339
20
-3.46969
11
6.33839
21
-3.46625
0
LINE
8
BLACK
6
CONTINUOUS
10
6.33839
20
-3.46625
11
6.34361
21
-3.46408
0
LINE
8
BLACK
6
CONTINUOUS
10
6.34361
20
-3.46408
11
6.34921
21
-3.46335
0
LINE
8
BLACK
6
CONTINUOUS
10
6.34921
20
-3.46335
11
6.35482
21
-3.46408
0
LINE
8
BLACK
6
CONTINUOUS
10
5.87219
20
-3.34432
11
5.87858
21
-3.34716
0
LINE
8
BLACK
6
CONTINUOUS
10
5.87858
20
-3.34716
11
5.88424
21
-3.35127
0
LINE
8
BLACK
6
CONTINUOUS
10
5.88424
20
-3.35127
11
5.88892
21
-3.35647
0
LINE
8
BLACK
6
CONTINUOUS
10
5.88892
20
-3.35647
11
5.89242
21
-3.36253
0
LINE
8
BLACK
6
CONTINUOUS
10
5.89242
20
-3.36253
11
5.89458
21
-3.36918
0
LINE
8
BLACK
6
CONTINUOUS
10
5.89458
20
-3.36918
11
5.89531
21
-3.37614
0
LINE
8
BLACK
6
CONTINUOUS
10
5.89531
20
-3.37614
11
5.89458
21
-3.3831
0
LINE
8
BLACK
6
CONTINUOUS
10
5.89458
20
-3.3831
11
5.89242
21
-3.38975
0
LINE
8
BLACK
6
CONTINUOUS
10
5.89242
20
-3.38975
11
5.88892
21
-3.39581
0
LINE
8
BLACK
6
CONTINUOUS
10
5.88892
20
-3.39581
11
5.88424
21
-3.40101
0
LINE
8
BLACK
6
CONTINUOUS
10
5.88424
20
-3.40101
11
5.87858
21
-3.40512
0
LINE
8
BLACK
6
CONTINUOUS
10
5.87858
20
-3.40512
11
5.87219
21
-3.40797
0
LINE
8
BLACK
6
CONTINUOUS
10
5.87219
20
-3.40797
11
5.86535
21
-3.40942
0
LINE
8
BLACK
6
CONTINUOUS
10
5.86535
20
-3.40942
11
5.85835
21
-3.40942
0
LINE
8
BLACK
6
CONTINUOUS
10
5.85835
20
-3.40942
11
5.85151
21
-3.40797
0
LINE
8
BLACK
6
CONTINUOUS
10
5.85151
20
-3.40797
11
5.84512
21
-3.40512
0
LINE
8
BLACK
6
CONTINUOUS
10
5.84512
20
-3.40512
11
5.83946
21
-3.40101
0
LINE
8
BLACK
6
CONTINUOUS
10
5.83946
20
-3.40101
11
5.83478
21
-3.39581
0
LINE
8
BLACK
6
CONTINUOUS
10
5.83478
20
-3.39581
11
5.83128
21
-3.38975
0
LINE
8
BLACK
6
CONTINUOUS
10
5.83128
20
-3.38975
11
5.82912
21
-3.3831
0
LINE
8
BLACK
6
CONTINUOUS
10
5.82912
20
-3.3831
11
5.82839
21
-3.37614
0
LINE
8
BLACK
6
CONTINUOUS
10
5.82839
20
-3.37614
11
5.82912
21
-3.36918
0
LINE
8
BLACK
6
CONTINUOUS
10
5.82912
20
-3.36918
11
5.83128
21
-3.36253
0
LINE
8
BLACK
6
CONTINUOUS
10
5.83128
20
-3.36253
11
5.83478
21
-3.35647
0
LINE
8
BLACK
6
CONTINUOUS
10
5.83478
20
-3.35647
11
5.83946
21
-3.35127
0
LINE
8
BLACK
6
CONTINUOUS
10
5.83946
20
-3.35127
11
5.84512
21
-3.34716
0
LINE
8
BLACK
6
CONTINUOUS
10
5.84512
20
-3.34716
11
5.85151
21
-3.34432
0
LINE
8
BLACK
6
CONTINUOUS
10
5.85151
20
-3.34432
11
5.85835
21
-3.34286
0
LINE
8
BLACK
6
CONTINUOUS
10
5.85835
20
-3.34286
11
5.86535
21
-3.34286
0
LINE
8
BLACK
6
CONTINUOUS
10
5.86535
20
-3.34286
11
5.87219
21
-3.34432
0
LINE
8
BLACK
6
CONTINUOUS
10
5.87219
20
-3.24432
11
5.87858
21
-3.24716
0
LINE
8
BLACK
6
CONTINUOUS
10
5.87858
20
-3.24716
11
5.88424
21
-3.25127
0
LINE
8
BLACK
6
CONTINUOUS
10
5.88424
20
-3.25127
11
5.88892
21
-3.25647
0
LINE
8
BLACK
6
CONTINUOUS
10
5.88892
20
-3.25647
11
5.89242
21
-3.26253
0
LINE
8
BLACK
6
CONTINUOUS
10
5.89242
20
-3.26253
11
5.89458
21
-3.26918
0
LINE
8
BLACK
6
CONTINUOUS
10
5.89458
20
-3.26918
11
5.89531
21
-3.27614
0
LINE
8
BLACK
6
CONTINUOUS
10
5.89531
20
-3.27614
11
5.89458
21
-3.2831
0
LINE
8
BLACK
6
CONTINUOUS
10
5.89458
20
-3.2831
11
5.89242
21
-3.28975
0
LINE
8
BLACK
6
CONTINUOUS
10
5.89242
20
-3.28975
11
5.88892
21
-3.29581
0
LINE
8
BLACK
6
CONTINUOUS
10
5.88892
20
-3.29581
11
5.88424
21
-3.30101
0
LINE
8
BLACK
6
CONTINUOUS
10
5.88424
20
-3.30101
11
5.87858
21
-3.30512
0
LINE
8
BLACK
6
CONTINUOUS
10
5.87858
20
-3.30512
11
5.87219
21
-3.30797
0
LINE
8
BLACK
6
CONTINUOUS
10
5.87219
20
-3.30797
11
5.86535
21
-3.30942
0
LINE
8
BLACK
6
CONTINUOUS
10
5.86535
20
-3.30942
11
5.85835
21
-3.30942
0
LINE
8
BLACK
6
CONTINUOUS
10
5.85835
20
-3.30942
11
5.85151
21
-3.30797
0
LINE
8
BLACK
6
CONTINUOUS
10
5.85151
20
-3.30797
11
5.84512
21
-3.30512
0
LINE
8
BLACK
6
CONTINUOUS
10
5.84512
20
-3.30512
11
5.83946
21
-3.30101
0
LINE
8
BLACK
6
CONTINUOUS
10
5.83946
20
-3.30101
11
5.83478
21
-3.29581
0
LINE
8
BLACK
6
CONTINUOUS
10
5.83478
20
-3.29581
11
5.83128
21
-3.28975
0
LINE
8
BLACK
6
CONTINUOUS
10
5.83128
20
-3.28975
11
5.82912
21
-3.2831
0
LINE
8
BLACK
6
CONTINUOUS
10
5.82912
20
-3.2831
11
5.82839
21
-3.27614
0
LINE
8
BLACK
6
CONTINUOUS
10
5.82839
20
-3.27614
11
5.82912
21
-3.26918
0
LINE
8
BLACK
6
CONTINUOUS
10
5.82912
20
-3.26918
11
5.83128
21
-3.26253
0
LINE
8
BLACK
6
CONTINUOUS
10
5.83128
20
-3.26253
11
5.83478
21
-3.25647
0
LINE
8
BLACK
6
CONTINUOUS
10
5.83478
20
-3.25647
11
5.83946
21
-3.25127
0
LINE
8
BLACK
6
CONTINUOUS
10
5.83946
20
-3.25127
11
5.84512
21
-3.24716
0
LINE
8
BLACK
6
CONTINUOUS
10
5.84512
20
-3.24716
11
5.85151
21
-3.24432
0
LINE
8
BLACK
6
CONTINUOUS
10
5.85151
20
-3.24432
11
5.85835
21
-3.24286
0
LINE
8
BLACK
6
CONTINUOUS
10
5.85835
20
-3.24286
11
5.86535
21
-3.24286
0
LINE
8
BLACK
6
CONTINUOUS
10
5.86535
20
-3.24286
11
5.87219
21
-3.24432
0
LINE
8
BLACK
6
CONTINUOUS
10
5.87219
20
-3.14432
11
5.87858
21
-3.14716
0
LINE
8
BLACK
6
CONTINUOUS
10
5.87858
20
-3.14716
11
5.88424
21
-3.15127
0
LINE
8
BLACK
6
CONTINUOUS
10
5.88424
20
-3.15127
11
5.88892
21
-3.15647
0
LINE
8
BLACK
6
CONTINUOUS
10
5.88892
20
-3.15647
11
5.89242
21
-3.16253
0
LINE
8
BLACK
6
CONTINUOUS
10
5.89242
20
-3.16253
11
5.89458
21
-3.16918
0
LINE
8
BLACK
6
CONTINUOUS
10
5.89458
20
-3.16918
11
5.89531
21
-3.17614
0
LINE
8
BLACK
6
CONTINUOUS
10
5.89531
20
-3.17614
11
5.89458
21
-3.1831
0
LINE
8
BLACK
6
CONTINUOUS
10
5.89458
20
-3.1831
11
5.89242
21
-3.18975
0
LINE
8
BLACK
6
CONTINUOUS
10
5.89242
20
-3.18975
11
5.88892
21
-3.19581
0
LINE
8
BLACK
6
CONTINUOUS
10
5.88892
20
-3.19581
11
5.88424
21
-3.20101
0
LINE
8
BLACK
6
CONTINUOUS
10
5.88424
20
-3.20101
11
5.87858
21
-3.20512
0
LINE
8
BLACK
6
CONTINUOUS
10
5.87858
20
-3.20512
11
5.87219
21
-3.20797
0
LINE
8
BLACK
6
CONTINUOUS
10
5.87219
20
-3.20797
11
5.86535
21
-3.20942
0
LINE
8
BLACK
6
CONTINUOUS
10
5.86535
20
-3.20942
11
5.85835
21
-3.20942
0
LINE
8
BLACK
6
CONTINUOUS
10
5.85835
20
-3.20942
11
5.85151
21
-3.20797
0
LINE
8
BLACK
6
CONTINUOUS
10
5.85151
20
-3.20797
11
5.84512
21
-3.20512
0
LINE
8
BLACK
6
CONTINUOUS
10
5.84512
20
-3.20512
11
5.83946
21
-3.20101
0
LINE
8
BLACK
6
CONTINUOUS
10
5.83946
20
-3.20101
11
5.83478
21
-3.19581
0
LINE
8
BLACK
6
CONTINUOUS
10
5.83478
20
-3.19581
11
5.83128
21
-3.18975
0
LINE
8
BLACK
6
CONTINUOUS
10
5.83128
20
-3.18975
11
5.82912
21
-3.1831
0
LINE
8
BLACK
6
CONTINUOUS
10
5.82912
20
-3.1831
11
5.82839
21
-3.17614
0
LINE
8
BLACK
6
CONTINUOUS
10
5.82839
20
-3.17614
11
5.82912
21
-3.16918
0
LINE
8
BLACK
6
CONTINUOUS
10
5.82912
20
-3.16918
11
5.83128
21
-3.16253
0
LINE
8
BLACK
6
CONTINUOUS
10
5.83128
20
-3.16253
11
5.83478
21
-3.15647
0
LINE
8
BLACK
6
CONTINUOUS
10
5.83478
20
-3.15647
11
5.83946
21
-3.15127
0
LINE
8
BLACK
6
CONTINUOUS
10
5.83946
20
-3.15127
11
5.84512
21
-3.14716
0
LINE
8
BLACK
6
CONTINUOUS
10
5.84512
20
-3.14716
11
5.85151
21
-3.14432
0
LINE
8
BLACK
6
CONTINUOUS
10
5.85151
20
-3.14432
11
5.85835
21
-3.14286
0
LINE
8
BLACK
6
CONTINUOUS
10
5.85835
20
-3.14286
11
5.86535
21
-3.14286
0
LINE
8
BLACK
6
CONTINUOUS
10
5.86535
20
-3.14286
11
5.87219
21
-3.14432
0
LINE
8
BLACK
6
CONTINUOUS
10
5.87219
20
-3.04432
11
5.87858
21
-3.04716
0
LINE
8
BLACK
6
CONTINUOUS
10
5.87858
20
-3.04716
11
5.88424
21
-3.05127
0
LINE
8
BLACK
6
CONTINUOUS
10
5.88424
20
-3.05127
11
5.88892
21
-3.05647
0
LINE
8
BLACK
6
CONTINUOUS
10
5.88892
20
-3.05647
11
5.89242
21
-3.06253
0
LINE
8
BLACK
6
CONTINUOUS
10
5.89242
20
-3.06253
11
5.89458
21
-3.06918
0
LINE
8
BLACK
6
CONTINUOUS
10
5.89458
20
-3.06918
11
5.89531
21
-3.07614
0
LINE
8
BLACK
6
CONTINUOUS
10
5.89531
20
-3.07614
11
5.89458
21
-3.0831
0
LINE
8
BLACK
6
CONTINUOUS
10
5.89458
20
-3.0831
11
5.89242
21
-3.08975
0
LINE
8
BLACK
6
CONTINUOUS
10
5.89242
20
-3.08975
11
5.88892
21
-3.09581
0
LINE
8
BLACK
6
CONTINUOUS
10
5.88892
20
-3.09581
11
5.88424
21
-3.10101
0
LINE
8
BLACK
6
CONTINUOUS
10
5.88424
20
-3.10101
11
5.87858
21
-3.10512
0
LINE
8
BLACK
6
CONTINUOUS
10
5.87858
20
-3.10512
11
5.87219
21
-3.10797
0
LINE
8
BLACK
6
CONTINUOUS
10
5.87219
20
-3.10797
11
5.86535
21
-3.10942
0
LINE
8
BLACK
6
CONTINUOUS
10
5.86535
20
-3.10942
11
5.85835
21
-3.10942
0
LINE
8
BLACK
6
CONTINUOUS
10
5.85835
20
-3.10942
11
5.85151
21
-3.10797
0
LINE
8
BLACK
6
CONTINUOUS
10
5.85151
20
-3.10797
11
5.84512
21
-3.10512
0
LINE
8
BLACK
6
CONTINUOUS
10
5.84512
20
-3.10512
11
5.83946
21
-3.10101
0
LINE
8
BLACK
6
CONTINUOUS
10
5.83946
20
-3.10101
11
5.83478
21
-3.09581
0
LINE
8
BLACK
6
CONTINUOUS
10
5.83478
20
-3.09581
11
5.83128
21
-3.08975
0
LINE
8
BLACK
6
CONTINUOUS
10
5.83128
20
-3.08975
11
5.82912
21
-3.0831
0
LINE
8
BLACK
6
CONTINUOUS
10
5.82912
20
-3.0831
11
5.82839
21
-3.07614
0
LINE
8
BLACK
6
CONTINUOUS
10
5.82839
20
-3.07614
11
5.82912
21
-3.06918
0
LINE
8
BLACK
6
CONTINUOUS
10
5.82912
20
-3.06918
11
5.83128
21
-3.06253
0
LINE
8
BLACK
6
CONTINUOUS
10
5.83128
20
-3.06253
11
5.83478
21
-3.05647
0
LINE
8
BLACK
6
CONTINUOUS
10
5.83478
20
-3.05647
11
5.83946
21
-3.05127
0
LINE
8
BLACK
6
CONTINUOUS
10
5.83946
20
-3.05127
11
5.84512
21
-3.04716
0
LINE
8
BLACK
6
CONTINUOUS
10
5.84512
20
-3.04716
11
5.85151
21
-3.04432
0
LINE
8
BLACK
6
CONTINUOUS
10
5.85151
20
-3.04432
11
5.85835
21
-3.04286
0
LINE
8
BLACK
6
CONTINUOUS
10
5.85835
20
-3.04286
11
5.86535
21
-3.04286
0
LINE
8
BLACK
6
CONTINUOUS
10
5.86535
20
-3.04286
11
5.87219
21
-3.04432
0
LINE
8
BLACK
6
CONTINUOUS
10
5.87219
20
-2.94432
11
5.87858
21
-2.94716
0
LINE
8
BLACK
6
CONTINUOUS
10
5.87858
20
-2.94716
11
5.88424
21
-2.95127
0
LINE
8
BLACK
6
CONTINUOUS
10
5.88424
20
-2.95127
11
5.88892
21
-2.95647
0
LINE
8
BLACK
6
CONTINUOUS
10
5.88892
20
-2.95647
11
5.89242
21
-2.96253
0
LINE
8
BLACK
6
CONTINUOUS
10
5.89242
20
-2.96253
11
5.89458
21
-2.96918
0
LINE
8
BLACK
6
CONTINUOUS
10
5.89458
20
-2.96918
11
5.89531
21
-2.97614
0
LINE
8
BLACK
6
CONTINUOUS
10
5.89531
20
-2.97614
11
5.89458
21
-2.9831
0
LINE
8
BLACK
6
CONTINUOUS
10
5.89458
20
-2.9831
11
5.89242
21
-2.98975
0
LINE
8
BLACK
6
CONTINUOUS
10
5.89242
20
-2.98975
11
5.88892
21
-2.99581
0
LINE
8
BLACK
6
CONTINUOUS
10
5.88892
20
-2.99581
11
5.88424
21
-3.00101
0
LINE
8
BLACK
6
CONTINUOUS
10
5.88424
20
-3.00101
11
5.87858
21
-3.00512
0
LINE
8
BLACK
6
CONTINUOUS
10
5.87858
20
-3.00512
11
5.87219
21
-3.00797
0
LINE
8
BLACK
6
CONTINUOUS
10
5.87219
20
-3.00797
11
5.86535
21
-3.00942
0
LINE
8
BLACK
6
CONTINUOUS
10
5.86535
20
-3.00942
11
5.85835
21
-3.00942
0
LINE
8
BLACK
6
CONTINUOUS
10
5.85835
20
-3.00942
11
5.85151
21
-3.00797
0
LINE
8
BLACK
6
CONTINUOUS
10
5.85151
20
-3.00797
11
5.84512
21
-3.00512
0
LINE
8
BLACK
6
CONTINUOUS
10
5.84512
20
-3.00512
11
5.83946
21
-3.00101
0
LINE
8
BLACK
6
CONTINUOUS
10
5.83946
20
-3.00101
11
5.83478
21
-2.99581
0
LINE
8
BLACK
6
CONTINUOUS
10
5.83478
20
-2.99581
11
5.83128
21
-2.98975
0
LINE
8
BLACK
6
CONTINUOUS
10
5.83128
20
-2.98975
11
5.82912
21
-2.9831
0
LINE
8
BLACK
6
CONTINUOUS
10
5.82912
20
-2.9831
11
5.82839
21
-2.97614
0
LINE
8
BLACK
6
CONTINUOUS
10
5.82839
20
-2.97614
11
5.82912
21
-2.96918
0
LINE
8
BLACK
6
CONTINUOUS
10
5.82912
20
-2.96918
11
5.83128
21
-2.96253
0
LINE
8
BLACK
6
CONTINUOUS
10
5.83128
20
-2.96253
11
5.83478
21
-2.95647
0
LINE
8
BLACK
6
CONTINUOUS
10
5.83478
20
-2.95647
11
5.83946
21
-2.95127
0
LINE
8
BLACK
6
CONTINUOUS
10
5.83946
20
-2.95127
11
5.84512
21
-2.94716
0
LINE
8
BLACK
6
CONTINUOUS
10
5.84512
20
-2.94716
11
5.85151
21
-2.94432
0
LINE
8
BLACK
6
CONTINUOUS
10
5.85151
20
-2.94432
11
5.85835
21
-2.94286
0
LINE
8
BLACK
6
CONTINUOUS
10
5.85835
20
-2.94286
11
5.86535
21
-2.94286
0
LINE
8
BLACK
6
CONTINUOUS
10
5.86535
20
-2.94286
11
5.87219
21
-2.94432
0
LINE
8
BLACK
6
CONTINUOUS
10
5.87219
20
-2.84432
11
5.87858
21
-2.84716
0
LINE
8
BLACK
6
CONTINUOUS
10
5.87858
20
-2.84716
11
5.88424
21
-2.85127
0
LINE
8
BLACK
6
CONTINUOUS
10
5.88424
20
-2.85127
11
5.88892
21
-2.85647
0
LINE
8
BLACK
6
CONTINUOUS
10
5.88892
20
-2.85647
11
5.89242
21
-2.86253
0
LINE
8
BLACK
6
CONTINUOUS
10
5.89242
20
-2.86253
11
5.89458
21
-2.86918
0
LINE
8
BLACK
6
CONTINUOUS
10
5.89458
20
-2.86918
11
5.89531
21
-2.87614
0
LINE
8
BLACK
6
CONTINUOUS
10
5.89531
20
-2.87614
11
5.89458
21
-2.8831
0
LINE
8
BLACK
6
CONTINUOUS
10
5.89458
20
-2.8831
11
5.89242
21
-2.88975
0
LINE
8
BLACK
6
CONTINUOUS
10
5.89242
20
-2.88975
11
5.88892
21
-2.89581
0
LINE
8
BLACK
6
CONTINUOUS
10
5.88892
20
-2.89581
11
5.88424
21
-2.90101
0
LINE
8
BLACK
6
CONTINUOUS
10
5.88424
20
-2.90101
11
5.87858
21
-2.90512
0
LINE
8
BLACK
6
CONTINUOUS
10
5.87858
20
-2.90512
11
5.87219
21
-2.90797
0
LINE
8
BLACK
6
CONTINUOUS
10
5.87219
20
-2.90797
11
5.86535
21
-2.90942
0
LINE
8
BLACK
6
CONTINUOUS
10
5.86535
20
-2.90942
11
5.85835
21
-2.90942
0
LINE
8
BLACK
6
CONTINUOUS
10
5.85835
20
-2.90942
11
5.85151
21
-2.90797
0
LINE
8
BLACK
6
CONTINUOUS
10
5.85151
20
-2.90797
11
5.84512
21
-2.90512
0
LINE
8
BLACK
6
CONTINUOUS
10
5.84512
20
-2.90512
11
5.83946
21
-2.90101
0
LINE
8
BLACK
6
CONTINUOUS
10
5.83946
20
-2.90101
11
5.83478
21
-2.89581
0
LINE
8
BLACK
6
CONTINUOUS
10
5.83478
20
-2.89581
11
5.83128
21
-2.88975
0
LINE
8
BLACK
6
CONTINUOUS
10
5.83128
20
-2.88975
11
5.82912
21
-2.8831
0
LINE
8
BLACK
6
CONTINUOUS
10
5.82912
20
-2.8831
11
5.82839
21
-2.87614
0
LINE
8
BLACK
6
CONTINUOUS
10
5.82839
20
-2.87614
11
5.82912
21
-2.86918
0
LINE
8
BLACK
6
CONTINUOUS
10
5.82912
20
-2.86918
11
5.83128
21
-2.86253
0
LINE
8
BLACK
6
CONTINUOUS
10
5.83128
20
-2.86253
11
5.83478
21
-2.85647
0
LINE
8
BLACK
6
CONTINUOUS
10
5.83478
20
-2.85647
11
5.83946
21
-2.85127
0
LINE
8
BLACK
6
CONTINUOUS
10
5.83946
20
-2.85127
11
5.84512
21
-2.84716
0
LINE
8
BLACK
6
CONTINUOUS
10
5.84512
20
-2.84716
11
5.85151
21
-2.84432
0
LINE
8
BLACK
6
CONTINUOUS
10
5.85151
20
-2.84432
11
5.85835
21
-2.84286
0
LINE
8
BLACK
6
CONTINUOUS
10
5.85835
20
-2.84286
11
5.86535
21
-2.84286
0
LINE
8
BLACK
6
CONTINUOUS
10
5.86535
20
-2.84286
11
5.87219
21
-2.84432
0
LINE
8
BLACK
6
CONTINUOUS
10
5.89531
20
-2.80961
11
5.82839
21
-2.80961
0
LINE
8
BLACK
6
CONTINUOUS
10
5.82839
20
-2.80961
11
5.82839
21
-2.74268
0
LINE
8
BLACK
6
CONTINUOUS
10
5.82839
20
-2.74268
11
5.89531
21
-2.74268
0
LINE
8
BLACK
6
CONTINUOUS
10
5.89531
20
-2.74268
11
5.89531
21
-2.80961
  0
ENDSEC
  0
EOF
