  0
SECTION
  2
HEADER
  9
$ANGBASE
  50
0.0
  9
$ANGDIR
  70
1
  9
$MEASUREMENT
  70
0
  0
ENDSEC
  0
SECTION
  2
TABLES
  0
TABLE
  2
LTYPE
  70
4
  0
LTYPE
  5
40F
  2
CONTINUOUS
  70
0
  3
Solid line
  72
65
  73
0
  40
0.0
  0
LTYPE
  5
410
  2
DASHDOT
 70
0
  3
Dash Dot ____ _ ____ _
 72
65
 73
4
 40
2.0
 49
1.25
 49
-0.25
 49
0.25
 49
-0.25
  0
LTYPE
  5
411
  2
DASHED
 70
0
  3
Dashed __ __ __ __ __
 72
65
 73
2
 40
0.75
 49
0.5
 49
-0.25
  0
LTYPE
  5
43B
  2
DOTTED
 70
0
  3
Dotted .  .  .  .
 72
65
 73
2
 40
0.2
 49
0.0
 49
-0.2
  0
ENDTAB
  0
TABLE
  2
STYLE
  70
4
  0
STYLE
  2
KICAD
  70
0
  40
0
  41
1
  42
1
  50
0
  71
0
  3
isocp.shx
  0
STYLE
  2
KICADB
  70
0
  40
0
  41
1
  42
1
  50
0
  71
0
  3
isocp.shx
  0
STYLE
  2
KICADI
  70
0
  40
0
  41
1
  42
1
  50
15
  71
0
  3
isocp.shx
  0
STYLE
  2
KICADBI
  70
0
  40
0
  41
1
  42
1
  50
15
  71
0
  3
isocp.shx
  0
ENDTAB
  0
TABLE
  2
LAYER
  70
1
  0
LAYER
  2
BLACK
  70
0
  62
7
  6
CONTINUOUS
  0
ENDTAB
  0
ENDSEC
  0
SECTION
  2
ENTITIES
0
LINE
8
BLACK
6
CONTINUOUS
10
5.2031
20
-4.98741
11
5.20781
21
-4.99044
0
LINE
8
BLACK
6
CONTINUOUS
10
5.20781
20
-4.99044
11
5.21148
21
-4.99467
0
LINE
8
BLACK
6
CONTINUOUS
10
5.21148
20
-4.99467
11
5.21381
21
-4.99977
0
LINE
8
BLACK
6
CONTINUOUS
10
5.21381
20
-4.99977
11
5.21461
21
-5.00531
0
LINE
8
BLACK
6
CONTINUOUS
10
5.21461
20
-5.00531
11
5.21461
21
-5.04469
0
LINE
8
BLACK
6
CONTINUOUS
10
5.21461
20
-5.04469
11
5.21381
21
-5.05023
0
LINE
8
BLACK
6
CONTINUOUS
10
5.21381
20
-5.05023
11
5.21148
21
-5.05533
0
LINE
8
BLACK
6
CONTINUOUS
10
5.21148
20
-5.05533
11
5.20781
21
-5.05956
0
LINE
8
BLACK
6
CONTINUOUS
10
5.20781
20
-5.05956
11
5.2031
21
-5.06259
0
LINE
8
BLACK
6
CONTINUOUS
10
5.2031
20
-5.06259
11
5.19772
21
-5.06417
0
LINE
8
BLACK
6
CONTINUOUS
10
5.19772
20
-5.06417
11
5.19212
21
-5.06417
0
LINE
8
BLACK
6
CONTINUOUS
10
5.19212
20
-5.06417
11
5.18674
21
-5.06259
0
LINE
8
BLACK
6
CONTINUOUS
10
5.18674
20
-5.06259
11
5.18203
21
-5.05956
0
LINE
8
BLACK
6
CONTINUOUS
10
5.18203
20
-5.05956
11
5.17836
21
-5.05533
0
LINE
8
BLACK
6
CONTINUOUS
10
5.17836
20
-5.05533
11
5.17603
21
-5.05023
0
LINE
8
BLACK
6
CONTINUOUS
10
5.17603
20
-5.05023
11
5.17524
21
-5.04469
0
LINE
8
BLACK
6
CONTINUOUS
10
5.17524
20
-5.04469
11
5.17524
21
-5.00531
0
LINE
8
BLACK
6
CONTINUOUS
10
5.17524
20
-5.00531
11
5.17603
21
-4.99977
0
LINE
8
BLACK
6
CONTINUOUS
10
5.17603
20
-4.99977
11
5.17836
21
-4.99467
0
LINE
8
BLACK
6
CONTINUOUS
10
5.17836
20
-4.99467
11
5.18203
21
-4.99044
0
LINE
8
BLACK
6
CONTINUOUS
10
5.18203
20
-4.99044
11
5.18674
21
-4.98741
0
LINE
8
BLACK
6
CONTINUOUS
10
5.18674
20
-4.98741
11
5.19212
21
-4.98583
0
LINE
8
BLACK
6
CONTINUOUS
10
5.19212
20
-4.98583
11
5.19772
21
-4.98583
0
LINE
8
BLACK
6
CONTINUOUS
10
5.19772
20
-4.98583
11
5.2031
21
-4.98741
0
LINE
8
BLACK
6
CONTINUOUS
10
5.54326
20
-4.98741
11
5.54797
21
-4.99044
0
LINE
8
BLACK
6
CONTINUOUS
10
5.54797
20
-4.99044
11
5.55164
21
-4.99467
0
LINE
8
BLACK
6
CONTINUOUS
10
5.55164
20
-4.99467
11
5.55397
21
-4.99977
0
LINE
8
BLACK
6
CONTINUOUS
10
5.55397
20
-4.99977
11
5.55476
21
-5.00531
0
LINE
8
BLACK
6
CONTINUOUS
10
5.55476
20
-5.00531
11
5.55476
21
-5.04469
0
LINE
8
BLACK
6
CONTINUOUS
10
5.55476
20
-5.04469
11
5.55397
21
-5.05023
0
LINE
8
BLACK
6
CONTINUOUS
10
5.55397
20
-5.05023
11
5.55164
21
-5.05533
0
LINE
8
BLACK
6
CONTINUOUS
10
5.55164
20
-5.05533
11
5.54797
21
-5.05956
0
LINE
8
BLACK
6
CONTINUOUS
10
5.54797
20
-5.05956
11
5.54326
21
-5.06259
0
LINE
8
BLACK
6
CONTINUOUS
10
5.54326
20
-5.06259
11
5.53788
21
-5.06417
0
LINE
8
BLACK
6
CONTINUOUS
10
5.53788
20
-5.06417
11
5.53228
21
-5.06417
0
LINE
8
BLACK
6
CONTINUOUS
10
5.53228
20
-5.06417
11
5.5269
21
-5.06259
0
LINE
8
BLACK
6
CONTINUOUS
10
5.5269
20
-5.06259
11
5.52219
21
-5.05956
0
LINE
8
BLACK
6
CONTINUOUS
10
5.52219
20
-5.05956
11
5.51852
21
-5.05533
0
LINE
8
BLACK
6
CONTINUOUS
10
5.51852
20
-5.05533
11
5.51619
21
-5.05023
0
LINE
8
BLACK
6
CONTINUOUS
10
5.51619
20
-5.05023
11
5.51539
21
-5.04469
0
LINE
8
BLACK
6
CONTINUOUS
10
5.51539
20
-5.04469
11
5.51539
21
-5.00531
0
LINE
8
BLACK
6
CONTINUOUS
10
5.51539
20
-5.00531
11
5.51619
21
-4.99977
0
LINE
8
BLACK
6
CONTINUOUS
10
5.51619
20
-4.99977
11
5.51852
21
-4.99467
0
LINE
8
BLACK
6
CONTINUOUS
10
5.51852
20
-4.99467
11
5.52219
21
-4.99044
0
LINE
8
BLACK
6
CONTINUOUS
10
5.52219
20
-4.99044
11
5.5269
21
-4.98741
0
LINE
8
BLACK
6
CONTINUOUS
10
5.5269
20
-4.98741
11
5.53228
21
-4.98583
0
LINE
8
BLACK
6
CONTINUOUS
10
5.53228
20
-4.98583
11
5.53788
21
-4.98583
0
LINE
8
BLACK
6
CONTINUOUS
10
5.53788
20
-4.98583
11
5.54326
21
-4.98741
0
LINE
8
BLACK
6
CONTINUOUS
10
3.95318
20
-4.96709
11
3.95789
21
-4.97012
0
LINE
8
BLACK
6
CONTINUOUS
10
3.95789
20
-4.97012
11
3.96156
21
-4.97436
0
LINE
8
BLACK
6
CONTINUOUS
10
3.96156
20
-4.97436
11
3.96389
21
-4.97945
0
LINE
8
BLACK
6
CONTINUOUS
10
3.96389
20
-4.97945
11
3.96469
21
-4.985
0
LINE
8
BLACK
6
CONTINUOUS
10
3.96469
20
-4.985
11
3.96389
21
-4.99055
0
LINE
8
BLACK
6
CONTINUOUS
10
3.96389
20
-4.99055
11
3.96156
21
-4.99564
0
LINE
8
BLACK
6
CONTINUOUS
10
3.96156
20
-4.99564
11
3.95789
21
-4.99988
0
LINE
8
BLACK
6
CONTINUOUS
10
3.95789
20
-4.99988
11
3.95318
21
-5.00291
0
LINE
8
BLACK
6
CONTINUOUS
10
3.95318
20
-5.00291
11
3.9478
21
-5.00448
0
LINE
8
BLACK
6
CONTINUOUS
10
3.9478
20
-5.00448
11
3.9422
21
-5.00448
0
LINE
8
BLACK
6
CONTINUOUS
10
3.9422
20
-5.00448
11
3.93682
21
-5.00291
0
LINE
8
BLACK
6
CONTINUOUS
10
3.93682
20
-5.00291
11
3.93211
21
-4.99988
0
LINE
8
BLACK
6
CONTINUOUS
10
3.93211
20
-4.99988
11
3.92844
21
-4.99564
0
LINE
8
BLACK
6
CONTINUOUS
10
3.92844
20
-4.99564
11
3.92611
21
-4.99055
0
LINE
8
BLACK
6
CONTINUOUS
10
3.92611
20
-4.99055
11
3.92531
21
-4.985
0
LINE
8
BLACK
6
CONTINUOUS
10
3.92531
20
-4.985
11
3.92611
21
-4.97945
0
LINE
8
BLACK
6
CONTINUOUS
10
3.92611
20
-4.97945
11
3.92844
21
-4.97436
0
LINE
8
BLACK
6
CONTINUOUS
10
3.92844
20
-4.97436
11
3.93211
21
-4.97012
0
LINE
8
BLACK
6
CONTINUOUS
10
3.93211
20
-4.97012
11
3.93682
21
-4.96709
0
LINE
8
BLACK
6
CONTINUOUS
10
3.93682
20
-4.96709
11
3.9422
21
-4.96552
0
LINE
8
BLACK
6
CONTINUOUS
10
3.9422
20
-4.96552
11
3.9478
21
-4.96552
0
LINE
8
BLACK
6
CONTINUOUS
10
3.9478
20
-4.96552
11
3.95318
21
-4.96709
0
LINE
8
BLACK
6
CONTINUOUS
10
4.19818
20
-4.96709
11
4.20289
21
-4.97012
0
LINE
8
BLACK
6
CONTINUOUS
10
4.20289
20
-4.97012
11
4.20656
21
-4.97436
0
LINE
8
BLACK
6
CONTINUOUS
10
4.20656
20
-4.97436
11
4.20889
21
-4.97945
0
LINE
8
BLACK
6
CONTINUOUS
10
4.20889
20
-4.97945
11
4.20969
21
-4.985
0
LINE
8
BLACK
6
CONTINUOUS
10
4.20969
20
-4.985
11
4.20889
21
-4.99055
0
LINE
8
BLACK
6
CONTINUOUS
10
4.20889
20
-4.99055
11
4.20656
21
-4.99564
0
LINE
8
BLACK
6
CONTINUOUS
10
4.20656
20
-4.99564
11
4.20289
21
-4.99988
0
LINE
8
BLACK
6
CONTINUOUS
10
4.20289
20
-4.99988
11
4.19818
21
-5.00291
0
LINE
8
BLACK
6
CONTINUOUS
10
4.19818
20
-5.00291
11
4.1928
21
-5.00448
0
LINE
8
BLACK
6
CONTINUOUS
10
4.1928
20
-5.00448
11
4.1872
21
-5.00448
0
LINE
8
BLACK
6
CONTINUOUS
10
4.1872
20
-5.00448
11
4.18182
21
-5.00291
0
LINE
8
BLACK
6
CONTINUOUS
10
4.18182
20
-5.00291
11
4.17711
21
-4.99988
0
LINE
8
BLACK
6
CONTINUOUS
10
4.17711
20
-4.99988
11
4.17344
21
-4.99564
0
LINE
8
BLACK
6
CONTINUOUS
10
4.17344
20
-4.99564
11
4.17111
21
-4.99055
0
LINE
8
BLACK
6
CONTINUOUS
10
4.17111
20
-4.99055
11
4.17031
21
-4.985
0
LINE
8
BLACK
6
CONTINUOUS
10
4.17031
20
-4.985
11
4.17111
21
-4.97945
0
LINE
8
BLACK
6
CONTINUOUS
10
4.17111
20
-4.97945
11
4.17344
21
-4.97436
0
LINE
8
BLACK
6
CONTINUOUS
10
4.17344
20
-4.97436
11
4.17711
21
-4.97012
0
LINE
8
BLACK
6
CONTINUOUS
10
4.17711
20
-4.97012
11
4.18182
21
-4.96709
0
LINE
8
BLACK
6
CONTINUOUS
10
4.18182
20
-4.96709
11
4.1872
21
-4.96552
0
LINE
8
BLACK
6
CONTINUOUS
10
4.1872
20
-4.96552
11
4.1928
21
-4.96552
0
LINE
8
BLACK
6
CONTINUOUS
10
4.1928
20
-4.96552
11
4.19818
21
-4.96709
0
LINE
8
BLACK
6
CONTINUOUS
10
5.19913
20
-4.81953
11
5.20443
21
-4.82141
0
LINE
8
BLACK
6
CONTINUOUS
10
5.20443
20
-4.82141
11
5.20903
21
-4.82466
0
LINE
8
BLACK
6
CONTINUOUS
10
5.20903
20
-4.82466
11
5.21258
21
-4.82902
0
LINE
8
BLACK
6
CONTINUOUS
10
5.21258
20
-4.82902
11
5.21482
21
-4.83419
0
LINE
8
BLACK
6
CONTINUOUS
10
5.21482
20
-4.83419
11
5.21559
21
-4.83976
0
LINE
8
BLACK
6
CONTINUOUS
10
5.21559
20
-4.83976
11
5.21559
21
-4.8811
0
LINE
8
BLACK
6
CONTINUOUS
10
5.21559
20
-4.8811
11
5.2154
21
-4.88392
0
LINE
8
BLACK
6
CONTINUOUS
10
5.2154
20
-4.88392
11
5.21388
21
-4.88934
0
LINE
8
BLACK
6
CONTINUOUS
10
5.21388
20
-4.88934
11
5.21095
21
-4.89415
0
LINE
8
BLACK
6
CONTINUOUS
10
5.21095
20
-4.89415
11
5.20684
21
-4.89799
0
LINE
8
BLACK
6
CONTINUOUS
10
5.20684
20
-4.89799
11
5.20184
21
-4.90058
0
LINE
8
BLACK
6
CONTINUOUS
10
5.20184
20
-4.90058
11
5.19633
21
-4.90172
0
LINE
8
BLACK
6
CONTINUOUS
10
5.19633
20
-4.90172
11
5.19072
21
-4.90134
0
LINE
8
BLACK
6
CONTINUOUS
10
5.19072
20
-4.90134
11
5.18541
21
-4.89945
0
LINE
8
BLACK
6
CONTINUOUS
10
5.18541
20
-4.89945
11
5.18081
21
-4.89621
0
LINE
8
BLACK
6
CONTINUOUS
10
5.18081
20
-4.89621
11
5.17726
21
-4.89184
0
LINE
8
BLACK
6
CONTINUOUS
10
5.17726
20
-4.89184
11
5.17502
21
-4.88668
0
LINE
8
BLACK
6
CONTINUOUS
10
5.17502
20
-4.88668
11
5.17425
21
-4.8811
0
LINE
8
BLACK
6
CONTINUOUS
10
5.17425
20
-4.8811
11
5.17425
21
-4.83976
0
LINE
8
BLACK
6
CONTINUOUS
10
5.17425
20
-4.83976
11
5.17444
21
-4.83695
0
LINE
8
BLACK
6
CONTINUOUS
10
5.17444
20
-4.83695
11
5.17596
21
-4.83153
0
LINE
8
BLACK
6
CONTINUOUS
10
5.17596
20
-4.83153
11
5.17889
21
-4.82672
0
LINE
8
BLACK
6
CONTINUOUS
10
5.17889
20
-4.82672
11
5.183
21
-4.82288
0
LINE
8
BLACK
6
CONTINUOUS
10
5.183
20
-4.82288
11
5.188
21
-4.82029
0
LINE
8
BLACK
6
CONTINUOUS
10
5.188
20
-4.82029
11
5.19351
21
-4.81914
0
LINE
8
BLACK
6
CONTINUOUS
10
5.19351
20
-4.81914
11
5.19913
21
-4.81953
0
LINE
8
BLACK
6
CONTINUOUS
10
5.53928
20
-4.81953
11
5.54459
21
-4.82141
0
LINE
8
BLACK
6
CONTINUOUS
10
5.54459
20
-4.82141
11
5.54919
21
-4.82466
0
LINE
8
BLACK
6
CONTINUOUS
10
5.54919
20
-4.82466
11
5.55274
21
-4.82902
0
LINE
8
BLACK
6
CONTINUOUS
10
5.55274
20
-4.82902
11
5.55498
21
-4.83419
0
LINE
8
BLACK
6
CONTINUOUS
10
5.55498
20
-4.83419
11
5.55575
21
-4.83976
0
LINE
8
BLACK
6
CONTINUOUS
10
5.55575
20
-4.83976
11
5.55575
21
-4.8811
0
LINE
8
BLACK
6
CONTINUOUS
10
5.55575
20
-4.8811
11
5.55556
21
-4.88392
0
LINE
8
BLACK
6
CONTINUOUS
10
5.55556
20
-4.88392
11
5.55404
21
-4.88934
0
LINE
8
BLACK
6
CONTINUOUS
10
5.55404
20
-4.88934
11
5.55111
21
-4.89415
0
LINE
8
BLACK
6
CONTINUOUS
10
5.55111
20
-4.89415
11
5.547
21
-4.89799
0
LINE
8
BLACK
6
CONTINUOUS
10
5.547
20
-4.89799
11
5.542
21
-4.90058
0
LINE
8
BLACK
6
CONTINUOUS
10
5.542
20
-4.90058
11
5.53649
21
-4.90172
0
LINE
8
BLACK
6
CONTINUOUS
10
5.53649
20
-4.90172
11
5.53087
21
-4.90134
0
LINE
8
BLACK
6
CONTINUOUS
10
5.53087
20
-4.90134
11
5.52557
21
-4.89945
0
LINE
8
BLACK
6
CONTINUOUS
10
5.52557
20
-4.89945
11
5.52097
21
-4.89621
0
LINE
8
BLACK
6
CONTINUOUS
10
5.52097
20
-4.89621
11
5.51742
21
-4.89184
0
LINE
8
BLACK
6
CONTINUOUS
10
5.51742
20
-4.89184
11
5.51518
21
-4.88668
0
LINE
8
BLACK
6
CONTINUOUS
10
5.51518
20
-4.88668
11
5.51441
21
-4.8811
0
LINE
8
BLACK
6
CONTINUOUS
10
5.51441
20
-4.8811
11
5.51441
21
-4.83976
0
LINE
8
BLACK
6
CONTINUOUS
10
5.51441
20
-4.83976
11
5.5146
21
-4.83695
0
LINE
8
BLACK
6
CONTINUOUS
10
5.5146
20
-4.83695
11
5.51612
21
-4.83153
0
LINE
8
BLACK
6
CONTINUOUS
10
5.51612
20
-4.83153
11
5.51905
21
-4.82672
0
LINE
8
BLACK
6
CONTINUOUS
10
5.51905
20
-4.82672
11
5.52316
21
-4.82288
0
LINE
8
BLACK
6
CONTINUOUS
10
5.52316
20
-4.82288
11
5.52816
21
-4.82029
0
LINE
8
BLACK
6
CONTINUOUS
10
5.52816
20
-4.82029
11
5.53367
21
-4.81914
0
LINE
8
BLACK
6
CONTINUOUS
10
5.53367
20
-4.81914
11
5.53928
21
-4.81953
0
LINE
8
BLACK
6
CONTINUOUS
10
5.25762
20
-4.86904
11
5.26102
21
-4.87189
0
LINE
8
BLACK
6
CONTINUOUS
10
5.26102
20
-4.87189
11
5.26324
21
-4.87574
0
LINE
8
BLACK
6
CONTINUOUS
10
5.26324
20
-4.87574
11
5.26402
21
-4.88012
0
LINE
8
BLACK
6
CONTINUOUS
10
5.26402
20
-4.88012
11
5.26324
21
-4.88449
0
LINE
8
BLACK
6
CONTINUOUS
10
5.26324
20
-4.88449
11
5.26102
21
-4.88834
0
LINE
8
BLACK
6
CONTINUOUS
10
5.26102
20
-4.88834
11
5.25762
21
-4.8912
0
LINE
8
BLACK
6
CONTINUOUS
10
5.25762
20
-4.8912
11
5.25344
21
-4.89272
0
LINE
8
BLACK
6
CONTINUOUS
10
5.25344
20
-4.89272
11
5.249
21
-4.89272
0
LINE
8
BLACK
6
CONTINUOUS
10
5.249
20
-4.89272
11
5.24482
21
-4.8912
0
LINE
8
BLACK
6
CONTINUOUS
10
5.24482
20
-4.8912
11
5.24142
21
-4.88834
0
LINE
8
BLACK
6
CONTINUOUS
10
5.24142
20
-4.88834
11
5.2392
21
-4.88449
0
LINE
8
BLACK
6
CONTINUOUS
10
5.2392
20
-4.88449
11
5.23843
21
-4.88012
0
LINE
8
BLACK
6
CONTINUOUS
10
5.23843
20
-4.88012
11
5.2392
21
-4.87574
0
LINE
8
BLACK
6
CONTINUOUS
10
5.2392
20
-4.87574
11
5.24142
21
-4.87189
0
LINE
8
BLACK
6
CONTINUOUS
10
5.24142
20
-4.87189
11
5.24482
21
-4.86904
0
LINE
8
BLACK
6
CONTINUOUS
10
5.24482
20
-4.86904
11
5.249
21
-4.86752
0
LINE
8
BLACK
6
CONTINUOUS
10
5.249
20
-4.86752
11
5.25344
21
-4.86752
0
LINE
8
BLACK
6
CONTINUOUS
10
5.25344
20
-4.86752
11
5.25762
21
-4.86904
0
LINE
8
BLACK
6
CONTINUOUS
10
5.48518
20
-4.86904
11
5.48858
21
-4.87189
0
LINE
8
BLACK
6
CONTINUOUS
10
5.48858
20
-4.87189
11
5.4908
21
-4.87574
0
LINE
8
BLACK
6
CONTINUOUS
10
5.4908
20
-4.87574
11
5.49157
21
-4.88012
0
LINE
8
BLACK
6
CONTINUOUS
10
5.49157
20
-4.88012
11
5.4908
21
-4.88449
0
LINE
8
BLACK
6
CONTINUOUS
10
5.4908
20
-4.88449
11
5.48858
21
-4.88834
0
LINE
8
BLACK
6
CONTINUOUS
10
5.48858
20
-4.88834
11
5.48518
21
-4.8912
0
LINE
8
BLACK
6
CONTINUOUS
10
5.48518
20
-4.8912
11
5.481
21
-4.89272
0
LINE
8
BLACK
6
CONTINUOUS
10
5.481
20
-4.89272
11
5.47656
21
-4.89272
0
LINE
8
BLACK
6
CONTINUOUS
10
5.47656
20
-4.89272
11
5.47238
21
-4.8912
0
LINE
8
BLACK
6
CONTINUOUS
10
5.47238
20
-4.8912
11
5.46898
21
-4.88834
0
LINE
8
BLACK
6
CONTINUOUS
10
5.46898
20
-4.88834
11
5.46676
21
-4.88449
0
LINE
8
BLACK
6
CONTINUOUS
10
5.46676
20
-4.88449
11
5.46598
21
-4.88012
0
LINE
8
BLACK
6
CONTINUOUS
10
5.46598
20
-4.88012
11
5.46676
21
-4.87574
0
LINE
8
BLACK
6
CONTINUOUS
10
5.46676
20
-4.87574
11
5.46898
21
-4.87189
0
LINE
8
BLACK
6
CONTINUOUS
10
5.46898
20
-4.87189
11
5.47238
21
-4.86904
0
LINE
8
BLACK
6
CONTINUOUS
10
5.47238
20
-4.86904
11
5.47656
21
-4.86752
0
LINE
8
BLACK
6
CONTINUOUS
10
5.47656
20
-4.86752
11
5.481
21
-4.86752
0
LINE
8
BLACK
6
CONTINUOUS
10
5.481
20
-4.86752
11
5.48518
21
-4.86904
0
LINE
8
BLACK
6
CONTINUOUS
10
3.96969
20
-4.8624
11
3.93031
21
-4.8624
0
LINE
8
BLACK
6
CONTINUOUS
10
3.93031
20
-4.8624
11
3.93031
21
-4.7876
0
LINE
8
BLACK
6
CONTINUOUS
10
3.93031
20
-4.7876
11
3.96969
21
-4.7876
0
LINE
8
BLACK
6
CONTINUOUS
10
3.96969
20
-4.7876
11
3.96969
21
-4.8624
0
LINE
8
BLACK
6
CONTINUOUS
10
4.04969
20
-4.8624
11
4.01031
21
-4.8624
0
LINE
8
BLACK
6
CONTINUOUS
10
4.01031
20
-4.8624
11
4.01031
21
-4.7876
0
LINE
8
BLACK
6
CONTINUOUS
10
4.01031
20
-4.7876
11
4.04969
21
-4.7876
0
LINE
8
BLACK
6
CONTINUOUS
10
4.04969
20
-4.7876
11
4.04969
21
-4.8624
0
LINE
8
BLACK
6
CONTINUOUS
10
4.12969
20
-4.8624
11
4.09031
21
-4.8624
0
LINE
8
BLACK
6
CONTINUOUS
10
4.09031
20
-4.8624
11
4.09031
21
-4.7876
0
LINE
8
BLACK
6
CONTINUOUS
10
4.09031
20
-4.7876
11
4.12969
21
-4.7876
0
LINE
8
BLACK
6
CONTINUOUS
10
4.12969
20
-4.7876
11
4.12969
21
-4.8624
0
LINE
8
BLACK
6
CONTINUOUS
10
5.25083
20
-4.86043
11
5.2272
21
-4.86043
0
LINE
8
BLACK
6
CONTINUOUS
10
5.2272
20
-4.86043
11
5.2272
21
-4.81516
0
LINE
8
BLACK
6
CONTINUOUS
10
5.2272
20
-4.81516
11
5.25083
21
-4.81516
0
LINE
8
BLACK
6
CONTINUOUS
10
5.25083
20
-4.81516
11
5.25083
21
-4.86043
0
LINE
8
BLACK
6
CONTINUOUS
10
5.28232
20
-4.86043
11
5.2587
21
-4.86043
0
LINE
8
BLACK
6
CONTINUOUS
10
5.2587
20
-4.86043
11
5.2587
21
-4.81516
0
LINE
8
BLACK
6
CONTINUOUS
10
5.2587
20
-4.81516
11
5.28232
21
-4.81516
0
LINE
8
BLACK
6
CONTINUOUS
10
5.28232
20
-4.81516
11
5.28232
21
-4.86043
0
LINE
8
BLACK
6
CONTINUOUS
10
5.30201
20
-4.86043
11
5.2902
21
-4.86043
0
LINE
8
BLACK
6
CONTINUOUS
10
5.2902
20
-4.86043
11
5.2902
21
-4.81516
0
LINE
8
BLACK
6
CONTINUOUS
10
5.2902
20
-4.81516
11
5.30201
21
-4.81516
0
LINE
8
BLACK
6
CONTINUOUS
10
5.30201
20
-4.81516
11
5.30201
21
-4.86043
0
LINE
8
BLACK
6
CONTINUOUS
10
5.32169
20
-4.86043
11
5.30988
21
-4.86043
0
LINE
8
BLACK
6
CONTINUOUS
10
5.30988
20
-4.86043
11
5.30988
21
-4.81516
0
LINE
8
BLACK
6
CONTINUOUS
10
5.30988
20
-4.81516
11
5.32169
21
-4.81516
0
LINE
8
BLACK
6
CONTINUOUS
10
5.32169
20
-4.81516
11
5.32169
21
-4.86043
0
LINE
8
BLACK
6
CONTINUOUS
10
5.34138
20
-4.86043
11
5.32957
21
-4.86043
0
LINE
8
BLACK
6
CONTINUOUS
10
5.32957
20
-4.86043
11
5.32957
21
-4.81516
0
LINE
8
BLACK
6
CONTINUOUS
10
5.32957
20
-4.81516
11
5.34138
21
-4.81516
0
LINE
8
BLACK
6
CONTINUOUS
10
5.34138
20
-4.81516
11
5.34138
21
-4.86043
0
LINE
8
BLACK
6
CONTINUOUS
10
5.36106
20
-4.86043
11
5.34925
21
-4.86043
0
LINE
8
BLACK
6
CONTINUOUS
10
5.34925
20
-4.86043
11
5.34925
21
-4.81516
0
LINE
8
BLACK
6
CONTINUOUS
10
5.34925
20
-4.81516
11
5.36106
21
-4.81516
0
LINE
8
BLACK
6
CONTINUOUS
10
5.36106
20
-4.81516
11
5.36106
21
-4.86043
0
LINE
8
BLACK
6
CONTINUOUS
10
5.38075
20
-4.86043
11
5.36894
21
-4.86043
0
LINE
8
BLACK
6
CONTINUOUS
10
5.36894
20
-4.86043
11
5.36894
21
-4.81516
0
LINE
8
BLACK
6
CONTINUOUS
10
5.36894
20
-4.81516
11
5.38075
21
-4.81516
0
LINE
8
BLACK
6
CONTINUOUS
10
5.38075
20
-4.81516
11
5.38075
21
-4.86043
0
LINE
8
BLACK
6
CONTINUOUS
10
5.40043
20
-4.86043
11
5.38862
21
-4.86043
0
LINE
8
BLACK
6
CONTINUOUS
10
5.38862
20
-4.86043
11
5.38862
21
-4.81516
0
LINE
8
BLACK
6
CONTINUOUS
10
5.38862
20
-4.81516
11
5.40043
21
-4.81516
0
LINE
8
BLACK
6
CONTINUOUS
10
5.40043
20
-4.81516
11
5.40043
21
-4.86043
0
LINE
8
BLACK
6
CONTINUOUS
10
5.42012
20
-4.86043
11
5.40831
21
-4.86043
0
LINE
8
BLACK
6
CONTINUOUS
10
5.40831
20
-4.86043
11
5.40831
21
-4.81516
0
LINE
8
BLACK
6
CONTINUOUS
10
5.40831
20
-4.81516
11
5.42012
21
-4.81516
0
LINE
8
BLACK
6
CONTINUOUS
10
5.42012
20
-4.81516
11
5.42012
21
-4.86043
0
LINE
8
BLACK
6
CONTINUOUS
10
5.4398
20
-4.86043
11
5.42799
21
-4.86043
0
LINE
8
BLACK
6
CONTINUOUS
10
5.42799
20
-4.86043
11
5.42799
21
-4.81516
0
LINE
8
BLACK
6
CONTINUOUS
10
5.42799
20
-4.81516
11
5.4398
21
-4.81516
0
LINE
8
BLACK
6
CONTINUOUS
10
5.4398
20
-4.81516
11
5.4398
21
-4.86043
0
LINE
8
BLACK
6
CONTINUOUS
10
5.4713
20
-4.86043
11
5.44768
21
-4.86043
0
LINE
8
BLACK
6
CONTINUOUS
10
5.44768
20
-4.86043
11
5.44768
21
-4.81516
0
LINE
8
BLACK
6
CONTINUOUS
10
5.44768
20
-4.81516
11
5.4713
21
-4.81516
0
LINE
8
BLACK
6
CONTINUOUS
10
5.4713
20
-4.81516
11
5.4713
21
-4.86043
0
LINE
8
BLACK
6
CONTINUOUS
10
5.5028
20
-4.86043
11
5.47917
21
-4.86043
0
LINE
8
BLACK
6
CONTINUOUS
10
5.47917
20
-4.86043
11
5.47917
21
-4.81516
0
LINE
8
BLACK
6
CONTINUOUS
10
5.47917
20
-4.81516
11
5.5028
21
-4.81516
0
LINE
8
BLACK
6
CONTINUOUS
10
5.5028
20
-4.81516
11
5.5028
21
-4.86043
0
LINE
8
BLACK
6
CONTINUOUS
10
5.34384
20
-4.67733
11
5.34639
21
-4.67904
0
LINE
8
BLACK
6
CONTINUOUS
10
5.34639
20
-4.67904
11
5.3481
21
-4.68159
0
LINE
8
BLACK
6
CONTINUOUS
10
5.3481
20
-4.68159
11
5.3487
21
-4.68461
0
LINE
8
BLACK
6
CONTINUOUS
10
5.3487
20
-4.68461
11
5.3487
21
-4.70035
0
LINE
8
BLACK
6
CONTINUOUS
10
5.3487
20
-4.70035
11
5.3481
21
-4.70337
0
LINE
8
BLACK
6
CONTINUOUS
10
5.3481
20
-4.70337
11
5.34639
21
-4.70592
0
LINE
8
BLACK
6
CONTINUOUS
10
5.34639
20
-4.70592
11
5.34384
21
-4.70763
0
LINE
8
BLACK
6
CONTINUOUS
10
5.34384
20
-4.70763
11
5.34083
21
-4.70823
0
LINE
8
BLACK
6
CONTINUOUS
10
5.34083
20
-4.70823
11
5.31917
21
-4.70823
0
LINE
8
BLACK
6
CONTINUOUS
10
5.31917
20
-4.70823
11
5.31616
21
-4.70763
0
LINE
8
BLACK
6
CONTINUOUS
10
5.31616
20
-4.70763
11
5.31361
21
-4.70592
0
LINE
8
BLACK
6
CONTINUOUS
10
5.31361
20
-4.70592
11
5.3119
21
-4.70337
0
LINE
8
BLACK
6
CONTINUOUS
10
5.3119
20
-4.70337
11
5.3113
21
-4.70035
0
LINE
8
BLACK
6
CONTINUOUS
10
5.3113
20
-4.70035
11
5.3113
21
-4.68461
0
LINE
8
BLACK
6
CONTINUOUS
10
5.3113
20
-4.68461
11
5.3119
21
-4.68159
0
LINE
8
BLACK
6
CONTINUOUS
10
5.3119
20
-4.68159
11
5.31361
21
-4.67904
0
LINE
8
BLACK
6
CONTINUOUS
10
5.31361
20
-4.67904
11
5.31616
21
-4.67733
0
LINE
8
BLACK
6
CONTINUOUS
10
5.31616
20
-4.67733
11
5.31917
21
-4.67673
0
LINE
8
BLACK
6
CONTINUOUS
10
5.31917
20
-4.67673
11
5.34083
21
-4.67673
0
LINE
8
BLACK
6
CONTINUOUS
10
5.34083
20
-4.67673
11
5.34384
21
-4.67733
0
LINE
8
BLACK
6
CONTINUOUS
10
5.41384
20
-4.67733
11
5.41639
21
-4.67904
0
LINE
8
BLACK
6
CONTINUOUS
10
5.41639
20
-4.67904
11
5.4181
21
-4.68159
0
LINE
8
BLACK
6
CONTINUOUS
10
5.4181
20
-4.68159
11
5.4187
21
-4.68461
0
LINE
8
BLACK
6
CONTINUOUS
10
5.4187
20
-4.68461
11
5.4187
21
-4.70035
0
LINE
8
BLACK
6
CONTINUOUS
10
5.4187
20
-4.70035
11
5.4181
21
-4.70337
0
LINE
8
BLACK
6
CONTINUOUS
10
5.4181
20
-4.70337
11
5.41639
21
-4.70592
0
LINE
8
BLACK
6
CONTINUOUS
10
5.41639
20
-4.70592
11
5.41384
21
-4.70763
0
LINE
8
BLACK
6
CONTINUOUS
10
5.41384
20
-4.70763
11
5.41083
21
-4.70823
0
LINE
8
BLACK
6
CONTINUOUS
10
5.41083
20
-4.70823
11
5.38917
21
-4.70823
0
LINE
8
BLACK
6
CONTINUOUS
10
5.38917
20
-4.70823
11
5.38616
21
-4.70763
0
LINE
8
BLACK
6
CONTINUOUS
10
5.38616
20
-4.70763
11
5.38361
21
-4.70592
0
LINE
8
BLACK
6
CONTINUOUS
10
5.38361
20
-4.70592
11
5.3819
21
-4.70337
0
LINE
8
BLACK
6
CONTINUOUS
10
5.3819
20
-4.70337
11
5.3813
21
-4.70035
0
LINE
8
BLACK
6
CONTINUOUS
10
5.3813
20
-4.70035
11
5.3813
21
-4.68461
0
LINE
8
BLACK
6
CONTINUOUS
10
5.3813
20
-4.68461
11
5.3819
21
-4.68159
0
LINE
8
BLACK
6
CONTINUOUS
10
5.3819
20
-4.68159
11
5.38361
21
-4.67904
0
LINE
8
BLACK
6
CONTINUOUS
10
5.38361
20
-4.67904
11
5.38616
21
-4.67733
0
LINE
8
BLACK
6
CONTINUOUS
10
5.38616
20
-4.67733
11
5.38917
21
-4.67673
0
LINE
8
BLACK
6
CONTINUOUS
10
5.38917
20
-4.67673
11
5.41083
21
-4.67673
0
LINE
8
BLACK
6
CONTINUOUS
10
5.41083
20
-4.67673
11
5.41384
21
-4.67733
0
LINE
8
BLACK
6
CONTINUOUS
10
3.08467
20
-4.55382
11
3.08787
21
-4.55595
0
LINE
8
BLACK
6
CONTINUOUS
10
3.08787
20
-4.55595
11
3.09
21
-4.55915
0
LINE
8
BLACK
6
CONTINUOUS
10
3.09
20
-4.55915
11
3.09075
21
-4.56291
0
LINE
8
BLACK
6
CONTINUOUS
10
3.09075
20
-4.56291
11
3.09075
21
-4.67709
0
LINE
8
BLACK
6
CONTINUOUS
10
3.09075
20
-4.67709
11
3.09
21
-4.68085
0
LINE
8
BLACK
6
CONTINUOUS
10
3.09
20
-4.68085
11
3.08787
21
-4.68405
0
LINE
8
BLACK
6
CONTINUOUS
10
3.08787
20
-4.68405
11
3.08467
21
-4.68618
0
LINE
8
BLACK
6
CONTINUOUS
10
3.08467
20
-4.68618
11
3.08091
21
-4.68693
0
LINE
8
BLACK
6
CONTINUOUS
10
3.08091
20
-4.68693
11
3.04154
21
-4.68693
0
LINE
8
BLACK
6
CONTINUOUS
10
3.04154
20
-4.68693
11
3.03777
21
-4.68618
0
LINE
8
BLACK
6
CONTINUOUS
10
3.03777
20
-4.68618
11
3.03458
21
-4.68405
0
LINE
8
BLACK
6
CONTINUOUS
10
3.03458
20
-4.68405
11
3.03244
21
-4.68085
0
LINE
8
BLACK
6
CONTINUOUS
10
3.03244
20
-4.68085
11
3.03169
21
-4.67709
0
LINE
8
BLACK
6
CONTINUOUS
10
3.03169
20
-4.67709
11
3.03169
21
-4.56291
0
LINE
8
BLACK
6
CONTINUOUS
10
3.03169
20
-4.56291
11
3.03244
21
-4.55915
0
LINE
8
BLACK
6
CONTINUOUS
10
3.03244
20
-4.55915
11
3.03458
21
-4.55595
0
LINE
8
BLACK
6
CONTINUOUS
10
3.03458
20
-4.55595
11
3.03777
21
-4.55382
0
LINE
8
BLACK
6
CONTINUOUS
10
3.03777
20
-4.55382
11
3.04154
21
-4.55307
0
LINE
8
BLACK
6
CONTINUOUS
10
3.04154
20
-4.55307
11
3.08091
21
-4.55307
0
LINE
8
BLACK
6
CONTINUOUS
10
3.08091
20
-4.55307
11
3.08467
21
-4.55382
0
LINE
8
BLACK
6
CONTINUOUS
10
3.34845
20
-4.55382
11
3.35164
21
-4.55595
0
LINE
8
BLACK
6
CONTINUOUS
10
3.35164
20
-4.55595
11
3.35378
21
-4.55915
0
LINE
8
BLACK
6
CONTINUOUS
10
3.35378
20
-4.55915
11
3.35453
21
-4.56291
0
LINE
8
BLACK
6
CONTINUOUS
10
3.35453
20
-4.56291
11
3.35453
21
-4.67709
0
LINE
8
BLACK
6
CONTINUOUS
10
3.35453
20
-4.67709
11
3.35378
21
-4.68085
0
LINE
8
BLACK
6
CONTINUOUS
10
3.35378
20
-4.68085
11
3.35164
21
-4.68405
0
LINE
8
BLACK
6
CONTINUOUS
10
3.35164
20
-4.68405
11
3.34845
21
-4.68618
0
LINE
8
BLACK
6
CONTINUOUS
10
3.34845
20
-4.68618
11
3.34468
21
-4.68693
0
LINE
8
BLACK
6
CONTINUOUS
10
3.34468
20
-4.68693
11
3.30531
21
-4.68693
0
LINE
8
BLACK
6
CONTINUOUS
10
3.30531
20
-4.68693
11
3.30155
21
-4.68618
0
LINE
8
BLACK
6
CONTINUOUS
10
3.30155
20
-4.68618
11
3.29836
21
-4.68405
0
LINE
8
BLACK
6
CONTINUOUS
10
3.29836
20
-4.68405
11
3.29622
21
-4.68085
0
LINE
8
BLACK
6
CONTINUOUS
10
3.29622
20
-4.68085
11
3.29547
21
-4.67709
0
LINE
8
BLACK
6
CONTINUOUS
10
3.29547
20
-4.67709
11
3.29547
21
-4.56291
0
LINE
8
BLACK
6
CONTINUOUS
10
3.29547
20
-4.56291
11
3.29622
21
-4.55915
0
LINE
8
BLACK
6
CONTINUOUS
10
3.29622
20
-4.55915
11
3.29836
21
-4.55595
0
LINE
8
BLACK
6
CONTINUOUS
10
3.29836
20
-4.55595
11
3.30155
21
-4.55382
0
LINE
8
BLACK
6
CONTINUOUS
10
3.30155
20
-4.55382
11
3.30532
21
-4.55307
0
LINE
8
BLACK
6
CONTINUOUS
10
3.30532
20
-4.55307
11
3.34469
21
-4.55307
0
LINE
8
BLACK
6
CONTINUOUS
10
3.34469
20
-4.55307
11
3.34845
21
-4.55382
0
LINE
8
BLACK
6
CONTINUOUS
10
5.34384
20
-4.61237
11
5.34639
21
-4.61408
0
LINE
8
BLACK
6
CONTINUOUS
10
5.34639
20
-4.61408
11
5.3481
21
-4.61663
0
LINE
8
BLACK
6
CONTINUOUS
10
5.3481
20
-4.61663
11
5.3487
21
-4.61965
0
LINE
8
BLACK
6
CONTINUOUS
10
5.3487
20
-4.61965
11
5.3487
21
-4.63539
0
LINE
8
BLACK
6
CONTINUOUS
10
5.3487
20
-4.63539
11
5.3481
21
-4.63841
0
LINE
8
BLACK
6
CONTINUOUS
10
5.3481
20
-4.63841
11
5.34639
21
-4.64096
0
LINE
8
BLACK
6
CONTINUOUS
10
5.34639
20
-4.64096
11
5.34384
21
-4.64267
0
LINE
8
BLACK
6
CONTINUOUS
10
5.34384
20
-4.64267
11
5.34083
21
-4.64327
0
LINE
8
BLACK
6
CONTINUOUS
10
5.34083
20
-4.64327
11
5.31917
21
-4.64327
0
LINE
8
BLACK
6
CONTINUOUS
10
5.31917
20
-4.64327
11
5.31616
21
-4.64267
0
LINE
8
BLACK
6
CONTINUOUS
10
5.31616
20
-4.64267
11
5.31361
21
-4.64096
0
LINE
8
BLACK
6
CONTINUOUS
10
5.31361
20
-4.64096
11
5.3119
21
-4.63841
0
LINE
8
BLACK
6
CONTINUOUS
10
5.3119
20
-4.63841
11
5.3113
21
-4.63539
0
LINE
8
BLACK
6
CONTINUOUS
10
5.3113
20
-4.63539
11
5.3113
21
-4.61965
0
LINE
8
BLACK
6
CONTINUOUS
10
5.3113
20
-4.61965
11
5.3119
21
-4.61663
0
LINE
8
BLACK
6
CONTINUOUS
10
5.3119
20
-4.61663
11
5.31361
21
-4.61408
0
LINE
8
BLACK
6
CONTINUOUS
10
5.31361
20
-4.61408
11
5.31616
21
-4.61237
0
LINE
8
BLACK
6
CONTINUOUS
10
5.31616
20
-4.61237
11
5.31917
21
-4.61177
0
LINE
8
BLACK
6
CONTINUOUS
10
5.31917
20
-4.61177
11
5.34083
21
-4.61177
0
LINE
8
BLACK
6
CONTINUOUS
10
5.34083
20
-4.61177
11
5.34384
21
-4.61237
0
LINE
8
BLACK
6
CONTINUOUS
10
5.41384
20
-4.61237
11
5.41639
21
-4.61408
0
LINE
8
BLACK
6
CONTINUOUS
10
5.41639
20
-4.61408
11
5.4181
21
-4.61663
0
LINE
8
BLACK
6
CONTINUOUS
10
5.4181
20
-4.61663
11
5.4187
21
-4.61965
0
LINE
8
BLACK
6
CONTINUOUS
10
5.4187
20
-4.61965
11
5.4187
21
-4.63539
0
LINE
8
BLACK
6
CONTINUOUS
10
5.4187
20
-4.63539
11
5.4181
21
-4.63841
0
LINE
8
BLACK
6
CONTINUOUS
10
5.4181
20
-4.63841
11
5.41639
21
-4.64096
0
LINE
8
BLACK
6
CONTINUOUS
10
5.41639
20
-4.64096
11
5.41384
21
-4.64267
0
LINE
8
BLACK
6
CONTINUOUS
10
5.41384
20
-4.64267
11
5.41083
21
-4.64327
0
LINE
8
BLACK
6
CONTINUOUS
10
5.41083
20
-4.64327
11
5.38917
21
-4.64327
0
LINE
8
BLACK
6
CONTINUOUS
10
5.38917
20
-4.64327
11
5.38616
21
-4.64267
0
LINE
8
BLACK
6
CONTINUOUS
10
5.38616
20
-4.64267
11
5.38361
21
-4.64096
0
LINE
8
BLACK
6
CONTINUOUS
10
5.38361
20
-4.64096
11
5.3819
21
-4.63841
0
LINE
8
BLACK
6
CONTINUOUS
10
5.3819
20
-4.63841
11
5.3813
21
-4.63539
0
LINE
8
BLACK
6
CONTINUOUS
10
5.3813
20
-4.63539
11
5.3813
21
-4.61965
0
LINE
8
BLACK
6
CONTINUOUS
10
5.3813
20
-4.61965
11
5.3819
21
-4.61663
0
LINE
8
BLACK
6
CONTINUOUS
10
5.3819
20
-4.61663
11
5.38361
21
-4.61408
0
LINE
8
BLACK
6
CONTINUOUS
10
5.38361
20
-4.61408
11
5.38616
21
-4.61237
0
LINE
8
BLACK
6
CONTINUOUS
10
5.38616
20
-4.61237
11
5.38917
21
-4.61177
0
LINE
8
BLACK
6
CONTINUOUS
10
5.38917
20
-4.61177
11
5.41083
21
-4.61177
0
LINE
8
BLACK
6
CONTINUOUS
10
5.41083
20
-4.61177
11
5.41384
21
-4.61237
0
LINE
8
BLACK
6
CONTINUOUS
10
5.99341
20
-4.43099
11
5.99596
21
-4.4327
0
LINE
8
BLACK
6
CONTINUOUS
10
5.99596
20
-4.4327
11
5.99767
21
-4.43525
0
LINE
8
BLACK
6
CONTINUOUS
10
5.99767
20
-4.43525
11
5.99827
21
-4.43827
0
LINE
8
BLACK
6
CONTINUOUS
10
5.99827
20
-4.43827
11
5.99827
21
-4.45992
0
LINE
8
BLACK
6
CONTINUOUS
10
5.99827
20
-4.45992
11
5.99767
21
-4.46293
0
LINE
8
BLACK
6
CONTINUOUS
10
5.99767
20
-4.46293
11
5.99596
21
-4.46549
0
LINE
8
BLACK
6
CONTINUOUS
10
5.99596
20
-4.46549
11
5.99341
21
-4.4672
0
LINE
8
BLACK
6
CONTINUOUS
10
5.99341
20
-4.4672
11
5.99039
21
-4.4678
0
LINE
8
BLACK
6
CONTINUOUS
10
5.99039
20
-4.4678
11
5.97465
21
-4.4678
0
LINE
8
BLACK
6
CONTINUOUS
10
5.97465
20
-4.4678
11
5.97163
21
-4.4672
0
LINE
8
BLACK
6
CONTINUOUS
10
5.97163
20
-4.4672
11
5.96908
21
-4.46549
0
LINE
8
BLACK
6
CONTINUOUS
10
5.96908
20
-4.46549
11
5.96737
21
-4.46293
0
LINE
8
BLACK
6
CONTINUOUS
10
5.96737
20
-4.46293
11
5.96677
21
-4.45992
0
LINE
8
BLACK
6
CONTINUOUS
10
5.96677
20
-4.45992
11
5.96677
21
-4.43827
0
LINE
8
BLACK
6
CONTINUOUS
10
5.96677
20
-4.43827
11
5.96737
21
-4.43525
0
LINE
8
BLACK
6
CONTINUOUS
10
5.96737
20
-4.43525
11
5.96908
21
-4.4327
0
LINE
8
BLACK
6
CONTINUOUS
10
5.96908
20
-4.4327
11
5.97163
21
-4.43099
0
LINE
8
BLACK
6
CONTINUOUS
10
5.97163
20
-4.43099
11
5.97465
21
-4.43039
0
LINE
8
BLACK
6
CONTINUOUS
10
5.97465
20
-4.43039
11
5.99039
21
-4.43039
0
LINE
8
BLACK
6
CONTINUOUS
10
5.99039
20
-4.43039
11
5.99341
21
-4.43099
0
LINE
8
BLACK
6
CONTINUOUS
10
6.05837
20
-4.43099
11
6.06092
21
-4.4327
0
LINE
8
BLACK
6
CONTINUOUS
10
6.06092
20
-4.4327
11
6.06263
21
-4.43525
0
LINE
8
BLACK
6
CONTINUOUS
10
6.06263
20
-4.43525
11
6.06323
21
-4.43827
0
LINE
8
BLACK
6
CONTINUOUS
10
6.06323
20
-4.43827
11
6.06323
21
-4.45992
0
LINE
8
BLACK
6
CONTINUOUS
10
6.06323
20
-4.45992
11
6.06263
21
-4.46293
0
LINE
8
BLACK
6
CONTINUOUS
10
6.06263
20
-4.46293
11
6.06092
21
-4.46549
0
LINE
8
BLACK
6
CONTINUOUS
10
6.06092
20
-4.46549
11
6.05837
21
-4.4672
0
LINE
8
BLACK
6
CONTINUOUS
10
6.05837
20
-4.4672
11
6.05535
21
-4.4678
0
LINE
8
BLACK
6
CONTINUOUS
10
6.05535
20
-4.4678
11
6.03961
21
-4.4678
0
LINE
8
BLACK
6
CONTINUOUS
10
6.03961
20
-4.4678
11
6.03659
21
-4.4672
0
LINE
8
BLACK
6
CONTINUOUS
10
6.03659
20
-4.4672
11
6.03404
21
-4.46549
0
LINE
8
BLACK
6
CONTINUOUS
10
6.03404
20
-4.46549
11
6.03233
21
-4.46293
0
LINE
8
BLACK
6
CONTINUOUS
10
6.03233
20
-4.46293
11
6.03173
21
-4.45992
0
LINE
8
BLACK
6
CONTINUOUS
10
6.03173
20
-4.45992
11
6.03173
21
-4.43827
0
LINE
8
BLACK
6
CONTINUOUS
10
6.03173
20
-4.43827
11
6.03233
21
-4.43525
0
LINE
8
BLACK
6
CONTINUOUS
10
6.03233
20
-4.43525
11
6.03404
21
-4.4327
0
LINE
8
BLACK
6
CONTINUOUS
10
6.03404
20
-4.4327
11
6.03659
21
-4.43099
0
LINE
8
BLACK
6
CONTINUOUS
10
6.03659
20
-4.43099
11
6.03961
21
-4.43039
0
LINE
8
BLACK
6
CONTINUOUS
10
6.03961
20
-4.43039
11
6.05535
21
-4.43039
0
LINE
8
BLACK
6
CONTINUOUS
10
6.05535
20
-4.43039
11
6.05837
21
-4.43099
0
LINE
8
BLACK
6
CONTINUOUS
10
3.16735
20
-4.32547
11
3.17054
21
-4.32761
0
LINE
8
BLACK
6
CONTINUOUS
10
3.17054
20
-4.32761
11
3.17268
21
-4.3308
0
LINE
8
BLACK
6
CONTINUOUS
10
3.17268
20
-4.3308
11
3.17343
21
-4.33457
0
LINE
8
BLACK
6
CONTINUOUS
10
3.17343
20
-4.33457
11
3.17343
21
-4.45268
0
LINE
8
BLACK
6
CONTINUOUS
10
3.17343
20
-4.45268
11
3.17268
21
-4.45644
0
LINE
8
BLACK
6
CONTINUOUS
10
3.17268
20
-4.45644
11
3.17054
21
-4.45964
0
LINE
8
BLACK
6
CONTINUOUS
10
3.17054
20
-4.45964
11
3.16735
21
-4.46177
0
LINE
8
BLACK
6
CONTINUOUS
10
3.16735
20
-4.46177
11
3.16358
21
-4.46252
0
LINE
8
BLACK
6
CONTINUOUS
10
3.16358
20
-4.46252
11
3.1439
21
-4.46252
0
LINE
8
BLACK
6
CONTINUOUS
10
3.1439
20
-4.46252
11
3.14013
21
-4.46177
0
LINE
8
BLACK
6
CONTINUOUS
10
3.14013
20
-4.46177
11
3.13694
21
-4.45964
0
LINE
8
BLACK
6
CONTINUOUS
10
3.13694
20
-4.45964
11
3.1348
21
-4.45644
0
LINE
8
BLACK
6
CONTINUOUS
10
3.1348
20
-4.45644
11
3.13406
21
-4.45268
0
LINE
8
BLACK
6
CONTINUOUS
10
3.13406
20
-4.45268
11
3.13406
21
-4.33457
0
LINE
8
BLACK
6
CONTINUOUS
10
3.13406
20
-4.33457
11
3.1348
21
-4.3308
0
LINE
8
BLACK
6
CONTINUOUS
10
3.1348
20
-4.3308
11
3.13694
21
-4.32761
0
LINE
8
BLACK
6
CONTINUOUS
10
3.13694
20
-4.32761
11
3.14013
21
-4.32547
0
LINE
8
BLACK
6
CONTINUOUS
10
3.14013
20
-4.32547
11
3.1439
21
-4.32472
0
LINE
8
BLACK
6
CONTINUOUS
10
3.1439
20
-4.32472
11
3.16358
21
-4.32472
0
LINE
8
BLACK
6
CONTINUOUS
10
3.16358
20
-4.32472
11
3.16735
21
-4.32547
0
LINE
8
BLACK
6
CONTINUOUS
10
3.24609
20
-4.32547
11
3.24928
21
-4.32761
0
LINE
8
BLACK
6
CONTINUOUS
10
3.24928
20
-4.32761
11
3.25142
21
-4.3308
0
LINE
8
BLACK
6
CONTINUOUS
10
3.25142
20
-4.3308
11
3.25217
21
-4.33457
0
LINE
8
BLACK
6
CONTINUOUS
10
3.25217
20
-4.33457
11
3.25217
21
-4.45268
0
LINE
8
BLACK
6
CONTINUOUS
10
3.25217
20
-4.45268
11
3.25142
21
-4.45644
0
LINE
8
BLACK
6
CONTINUOUS
10
3.25142
20
-4.45644
11
3.24928
21
-4.45964
0
LINE
8
BLACK
6
CONTINUOUS
10
3.24928
20
-4.45964
11
3.24609
21
-4.46177
0
LINE
8
BLACK
6
CONTINUOUS
10
3.24609
20
-4.46177
11
3.24232
21
-4.46252
0
LINE
8
BLACK
6
CONTINUOUS
10
3.24232
20
-4.46252
11
3.22264
21
-4.46252
0
LINE
8
BLACK
6
CONTINUOUS
10
3.22264
20
-4.46252
11
3.21887
21
-4.46177
0
LINE
8
BLACK
6
CONTINUOUS
10
3.21887
20
-4.46177
11
3.21568
21
-4.45964
0
LINE
8
BLACK
6
CONTINUOUS
10
3.21568
20
-4.45964
11
3.21354
21
-4.45644
0
LINE
8
BLACK
6
CONTINUOUS
10
3.21354
20
-4.45644
11
3.2128
21
-4.45268
0
LINE
8
BLACK
6
CONTINUOUS
10
3.2128
20
-4.45268
11
3.2128
21
-4.33457
0
LINE
8
BLACK
6
CONTINUOUS
10
3.2128
20
-4.33457
11
3.21354
21
-4.3308
0
LINE
8
BLACK
6
CONTINUOUS
10
3.21354
20
-4.3308
11
3.21568
21
-4.32761
0
LINE
8
BLACK
6
CONTINUOUS
10
3.21568
20
-4.32761
11
3.21887
21
-4.32547
0
LINE
8
BLACK
6
CONTINUOUS
10
3.21887
20
-4.32547
11
3.22264
21
-4.32472
0
LINE
8
BLACK
6
CONTINUOUS
10
3.22264
20
-4.32472
11
3.24232
21
-4.32472
0
LINE
8
BLACK
6
CONTINUOUS
10
3.24232
20
-4.32472
11
3.24609
21
-4.32547
0
LINE
8
BLACK
6
CONTINUOUS
10
4.36382
20
-4.42458
11
4.36637
21
-4.42628
0
LINE
8
BLACK
6
CONTINUOUS
10
4.36637
20
-4.42628
11
4.36808
21
-4.42884
0
LINE
8
BLACK
6
CONTINUOUS
10
4.36808
20
-4.42884
11
4.36868
21
-4.43185
0
LINE
8
BLACK
6
CONTINUOUS
10
4.36868
20
-4.43185
11
4.36868
21
-4.4535
0
LINE
8
BLACK
6
CONTINUOUS
10
4.36868
20
-4.4535
11
4.36808
21
-4.45652
0
LINE
8
BLACK
6
CONTINUOUS
10
4.36808
20
-4.45652
11
4.36637
21
-4.45907
0
LINE
8
BLACK
6
CONTINUOUS
10
4.36637
20
-4.45907
11
4.36382
21
-4.46078
0
LINE
8
BLACK
6
CONTINUOUS
10
4.36382
20
-4.46078
11
4.36081
21
-4.46138
0
LINE
8
BLACK
6
CONTINUOUS
10
4.36081
20
-4.46138
11
4.34506
21
-4.46138
0
LINE
8
BLACK
6
CONTINUOUS
10
4.34506
20
-4.46138
11
4.34205
21
-4.46078
0
LINE
8
BLACK
6
CONTINUOUS
10
4.34205
20
-4.46078
11
4.33949
21
-4.45907
0
LINE
8
BLACK
6
CONTINUOUS
10
4.33949
20
-4.45907
11
4.33778
21
-4.45652
0
LINE
8
BLACK
6
CONTINUOUS
10
4.33778
20
-4.45652
11
4.33719
21
-4.4535
0
LINE
8
BLACK
6
CONTINUOUS
10
4.33719
20
-4.4535
11
4.33719
21
-4.43185
0
LINE
8
BLACK
6
CONTINUOUS
10
4.33719
20
-4.43185
11
4.33778
21
-4.42884
0
LINE
8
BLACK
6
CONTINUOUS
10
4.33778
20
-4.42884
11
4.33949
21
-4.42628
0
LINE
8
BLACK
6
CONTINUOUS
10
4.33949
20
-4.42628
11
4.34205
21
-4.42458
0
LINE
8
BLACK
6
CONTINUOUS
10
4.34205
20
-4.42458
11
4.34506
21
-4.42398
0
LINE
8
BLACK
6
CONTINUOUS
10
4.34506
20
-4.42398
11
4.36081
21
-4.42398
0
LINE
8
BLACK
6
CONTINUOUS
10
4.36081
20
-4.42398
11
4.36382
21
-4.42458
0
LINE
8
BLACK
6
CONTINUOUS
10
4.42878
20
-4.42458
11
4.43134
21
-4.42628
0
LINE
8
BLACK
6
CONTINUOUS
10
4.43134
20
-4.42628
11
4.43304
21
-4.42884
0
LINE
8
BLACK
6
CONTINUOUS
10
4.43304
20
-4.42884
11
4.43364
21
-4.43185
0
LINE
8
BLACK
6
CONTINUOUS
10
4.43364
20
-4.43185
11
4.43364
21
-4.4535
0
LINE
8
BLACK
6
CONTINUOUS
10
4.43364
20
-4.4535
11
4.43304
21
-4.45652
0
LINE
8
BLACK
6
CONTINUOUS
10
4.43304
20
-4.45652
11
4.43134
21
-4.45907
0
LINE
8
BLACK
6
CONTINUOUS
10
4.43134
20
-4.45907
11
4.42878
21
-4.46078
0
LINE
8
BLACK
6
CONTINUOUS
10
4.42878
20
-4.46078
11
4.42577
21
-4.46138
0
LINE
8
BLACK
6
CONTINUOUS
10
4.42577
20
-4.46138
11
4.41002
21
-4.46138
0
LINE
8
BLACK
6
CONTINUOUS
10
4.41002
20
-4.46138
11
4.40701
21
-4.46078
0
LINE
8
BLACK
6
CONTINUOUS
10
4.40701
20
-4.46078
11
4.40445
21
-4.45907
0
LINE
8
BLACK
6
CONTINUOUS
10
4.40445
20
-4.45907
11
4.40275
21
-4.45652
0
LINE
8
BLACK
6
CONTINUOUS
10
4.40275
20
-4.45652
11
4.40215
21
-4.4535
0
LINE
8
BLACK
6
CONTINUOUS
10
4.40215
20
-4.4535
11
4.40215
21
-4.43185
0
LINE
8
BLACK
6
CONTINUOUS
10
4.40215
20
-4.43185
11
4.40275
21
-4.42884
0
LINE
8
BLACK
6
CONTINUOUS
10
4.40275
20
-4.42884
11
4.40445
21
-4.42628
0
LINE
8
BLACK
6
CONTINUOUS
10
4.40445
20
-4.42628
11
4.40701
21
-4.42458
0
LINE
8
BLACK
6
CONTINUOUS
10
4.40701
20
-4.42458
11
4.41002
21
-4.42398
0
LINE
8
BLACK
6
CONTINUOUS
10
4.41002
20
-4.42398
11
4.42577
21
-4.42398
0
LINE
8
BLACK
6
CONTINUOUS
10
4.42577
20
-4.42398
11
4.42878
21
-4.42458
0
LINE
8
BLACK
6
CONTINUOUS
10
5.99341
20
-4.33217
11
5.99596
21
-4.33388
0
LINE
8
BLACK
6
CONTINUOUS
10
5.99596
20
-4.33388
11
5.99767
21
-4.33644
0
LINE
8
BLACK
6
CONTINUOUS
10
5.99767
20
-4.33644
11
5.99827
21
-4.33945
0
LINE
8
BLACK
6
CONTINUOUS
10
5.99827
20
-4.33945
11
5.99827
21
-4.3611
0
LINE
8
BLACK
6
CONTINUOUS
10
5.99827
20
-4.3611
11
5.99767
21
-4.36412
0
LINE
8
BLACK
6
CONTINUOUS
10
5.99767
20
-4.36412
11
5.99596
21
-4.36667
0
LINE
8
BLACK
6
CONTINUOUS
10
5.99596
20
-4.36667
11
5.99341
21
-4.36838
0
LINE
8
BLACK
6
CONTINUOUS
10
5.99341
20
-4.36838
11
5.99039
21
-4.36898
0
LINE
8
BLACK
6
CONTINUOUS
10
5.99039
20
-4.36898
11
5.97465
21
-4.36898
0
LINE
8
BLACK
6
CONTINUOUS
10
5.97465
20
-4.36898
11
5.97163
21
-4.36838
0
LINE
8
BLACK
6
CONTINUOUS
10
5.97163
20
-4.36838
11
5.96908
21
-4.36667
0
LINE
8
BLACK
6
CONTINUOUS
10
5.96908
20
-4.36667
11
5.96737
21
-4.36412
0
LINE
8
BLACK
6
CONTINUOUS
10
5.96737
20
-4.36412
11
5.96677
21
-4.3611
0
LINE
8
BLACK
6
CONTINUOUS
10
5.96677
20
-4.3611
11
5.96677
21
-4.33945
0
LINE
8
BLACK
6
CONTINUOUS
10
5.96677
20
-4.33945
11
5.96737
21
-4.33644
0
LINE
8
BLACK
6
CONTINUOUS
10
5.96737
20
-4.33644
11
5.96908
21
-4.33388
0
LINE
8
BLACK
6
CONTINUOUS
10
5.96908
20
-4.33388
11
5.97163
21
-4.33217
0
LINE
8
BLACK
6
CONTINUOUS
10
5.97163
20
-4.33217
11
5.97465
21
-4.33157
0
LINE
8
BLACK
6
CONTINUOUS
10
5.97465
20
-4.33157
11
5.99039
21
-4.33157
0
LINE
8
BLACK
6
CONTINUOUS
10
5.99039
20
-4.33157
11
5.99341
21
-4.33217
0
LINE
8
BLACK
6
CONTINUOUS
10
6.05837
20
-4.33217
11
6.06092
21
-4.33388
0
LINE
8
BLACK
6
CONTINUOUS
10
6.06092
20
-4.33388
11
6.06263
21
-4.33644
0
LINE
8
BLACK
6
CONTINUOUS
10
6.06263
20
-4.33644
11
6.06323
21
-4.33945
0
LINE
8
BLACK
6
CONTINUOUS
10
6.06323
20
-4.33945
11
6.06323
21
-4.3611
0
LINE
8
BLACK
6
CONTINUOUS
10
6.06323
20
-4.3611
11
6.06263
21
-4.36412
0
LINE
8
BLACK
6
CONTINUOUS
10
6.06263
20
-4.36412
11
6.06092
21
-4.36667
0
LINE
8
BLACK
6
CONTINUOUS
10
6.06092
20
-4.36667
11
6.05837
21
-4.36838
0
LINE
8
BLACK
6
CONTINUOUS
10
6.05837
20
-4.36838
11
6.05535
21
-4.36898
0
LINE
8
BLACK
6
CONTINUOUS
10
6.05535
20
-4.36898
11
6.03961
21
-4.36898
0
LINE
8
BLACK
6
CONTINUOUS
10
6.03961
20
-4.36898
11
6.03659
21
-4.36838
0
LINE
8
BLACK
6
CONTINUOUS
10
6.03659
20
-4.36838
11
6.03404
21
-4.36667
0
LINE
8
BLACK
6
CONTINUOUS
10
6.03404
20
-4.36667
11
6.03233
21
-4.36412
0
LINE
8
BLACK
6
CONTINUOUS
10
6.03233
20
-4.36412
11
6.03173
21
-4.3611
0
LINE
8
BLACK
6
CONTINUOUS
10
6.03173
20
-4.3611
11
6.03173
21
-4.33945
0
LINE
8
BLACK
6
CONTINUOUS
10
6.03173
20
-4.33945
11
6.03233
21
-4.33644
0
LINE
8
BLACK
6
CONTINUOUS
10
6.03233
20
-4.33644
11
6.03404
21
-4.33388
0
LINE
8
BLACK
6
CONTINUOUS
10
6.03404
20
-4.33388
11
6.03659
21
-4.33217
0
LINE
8
BLACK
6
CONTINUOUS
10
6.03659
20
-4.33217
11
6.03961
21
-4.33157
0
LINE
8
BLACK
6
CONTINUOUS
10
6.03961
20
-4.33157
11
6.05535
21
-4.33157
0
LINE
8
BLACK
6
CONTINUOUS
10
6.05535
20
-4.33157
11
6.05837
21
-4.33217
0
LINE
8
BLACK
6
CONTINUOUS
10
4.36715
20
-4.32583
11
4.37002
21
-4.32775
0
LINE
8
BLACK
6
CONTINUOUS
10
4.37002
20
-4.32775
11
4.37194
21
-4.33063
0
LINE
8
BLACK
6
CONTINUOUS
10
4.37194
20
-4.33063
11
4.37262
21
-4.33402
0
LINE
8
BLACK
6
CONTINUOUS
10
4.37262
20
-4.33402
11
4.37262
21
-4.3537
0
LINE
8
BLACK
6
CONTINUOUS
10
4.37262
20
-4.3537
11
4.37194
21
-4.35709
0
LINE
8
BLACK
6
CONTINUOUS
10
4.37194
20
-4.35709
11
4.37002
21
-4.35996
0
LINE
8
BLACK
6
CONTINUOUS
10
4.37002
20
-4.35996
11
4.36715
21
-4.36188
0
LINE
8
BLACK
6
CONTINUOUS
10
4.36715
20
-4.36188
11
4.36376
21
-4.36256
0
LINE
8
BLACK
6
CONTINUOUS
10
4.36376
20
-4.36256
11
4.34604
21
-4.36256
0
LINE
8
BLACK
6
CONTINUOUS
10
4.34604
20
-4.36256
11
4.34265
21
-4.36188
0
LINE
8
BLACK
6
CONTINUOUS
10
4.34265
20
-4.36188
11
4.33978
21
-4.35996
0
LINE
8
BLACK
6
CONTINUOUS
10
4.33978
20
-4.35996
11
4.33786
21
-4.35709
0
LINE
8
BLACK
6
CONTINUOUS
10
4.33786
20
-4.35709
11
4.33719
21
-4.3537
0
LINE
8
BLACK
6
CONTINUOUS
10
4.33719
20
-4.3537
11
4.33719
21
-4.33402
0
LINE
8
BLACK
6
CONTINUOUS
10
4.33719
20
-4.33402
11
4.33786
21
-4.33063
0
LINE
8
BLACK
6
CONTINUOUS
10
4.33786
20
-4.33063
11
4.33978
21
-4.32775
0
LINE
8
BLACK
6
CONTINUOUS
10
4.33978
20
-4.32775
11
4.34265
21
-4.32583
0
LINE
8
BLACK
6
CONTINUOUS
10
4.34265
20
-4.32583
11
4.34604
21
-4.32516
0
LINE
8
BLACK
6
CONTINUOUS
10
4.34604
20
-4.32516
11
4.36376
21
-4.32516
0
LINE
8
BLACK
6
CONTINUOUS
10
4.36376
20
-4.32516
11
4.36715
21
-4.32583
0
LINE
8
BLACK
6
CONTINUOUS
10
4.42817
20
-4.32583
11
4.43105
21
-4.32775
0
LINE
8
BLACK
6
CONTINUOUS
10
4.43105
20
-4.32775
11
4.43297
21
-4.33063
0
LINE
8
BLACK
6
CONTINUOUS
10
4.43297
20
-4.33063
11
4.43364
21
-4.33402
0
LINE
8
BLACK
6
CONTINUOUS
10
4.43364
20
-4.33402
11
4.43364
21
-4.3537
0
LINE
8
BLACK
6
CONTINUOUS
10
4.43364
20
-4.3537
11
4.43297
21
-4.35709
0
LINE
8
BLACK
6
CONTINUOUS
10
4.43297
20
-4.35709
11
4.43105
21
-4.35996
0
LINE
8
BLACK
6
CONTINUOUS
10
4.43105
20
-4.35996
11
4.42817
21
-4.36188
0
LINE
8
BLACK
6
CONTINUOUS
10
4.42817
20
-4.36188
11
4.42478
21
-4.36256
0
LINE
8
BLACK
6
CONTINUOUS
10
4.42478
20
-4.36256
11
4.40707
21
-4.36256
0
LINE
8
BLACK
6
CONTINUOUS
10
4.40707
20
-4.36256
11
4.40368
21
-4.36188
0
LINE
8
BLACK
6
CONTINUOUS
10
4.40368
20
-4.36188
11
4.4008
21
-4.35996
0
LINE
8
BLACK
6
CONTINUOUS
10
4.4008
20
-4.35996
11
4.39888
21
-4.35709
0
LINE
8
BLACK
6
CONTINUOUS
10
4.39888
20
-4.35709
11
4.39821
21
-4.3537
0
LINE
8
BLACK
6
CONTINUOUS
10
4.39821
20
-4.3537
11
4.39821
21
-4.33402
0
LINE
8
BLACK
6
CONTINUOUS
10
4.39821
20
-4.33402
11
4.39888
21
-4.33063
0
LINE
8
BLACK
6
CONTINUOUS
10
4.39888
20
-4.33063
11
4.4008
21
-4.32775
0
LINE
8
BLACK
6
CONTINUOUS
10
4.4008
20
-4.32775
11
4.40368
21
-4.32583
0
LINE
8
BLACK
6
CONTINUOUS
10
4.40368
20
-4.32583
11
4.40707
21
-4.32516
0
LINE
8
BLACK
6
CONTINUOUS
10
4.40707
20
-4.32516
11
4.42478
21
-4.32516
0
LINE
8
BLACK
6
CONTINUOUS
10
4.42478
20
-4.32516
11
4.42817
21
-4.32583
0
LINE
8
BLACK
6
CONTINUOUS
10
4.52169
20
-4.32576
11
4.52425
21
-4.32746
0
LINE
8
BLACK
6
CONTINUOUS
10
4.52425
20
-4.32746
11
4.52596
21
-4.33002
0
LINE
8
BLACK
6
CONTINUOUS
10
4.52596
20
-4.33002
11
4.52656
21
-4.33303
0
LINE
8
BLACK
6
CONTINUOUS
10
4.52656
20
-4.33303
11
4.52656
21
-4.35469
0
LINE
8
BLACK
6
CONTINUOUS
10
4.52656
20
-4.35469
11
4.52596
21
-4.3577
0
LINE
8
BLACK
6
CONTINUOUS
10
4.52596
20
-4.3577
11
4.52425
21
-4.36025
0
LINE
8
BLACK
6
CONTINUOUS
10
4.52425
20
-4.36025
11
4.52169
21
-4.36196
0
LINE
8
BLACK
6
CONTINUOUS
10
4.52169
20
-4.36196
11
4.51868
21
-4.36256
0
LINE
8
BLACK
6
CONTINUOUS
10
4.51868
20
-4.36256
11
4.50293
21
-4.36256
0
LINE
8
BLACK
6
CONTINUOUS
10
4.50293
20
-4.36256
11
4.49992
21
-4.36196
0
LINE
8
BLACK
6
CONTINUOUS
10
4.49992
20
-4.36196
11
4.49737
21
-4.36025
0
LINE
8
BLACK
6
CONTINUOUS
10
4.49737
20
-4.36025
11
4.49566
21
-4.3577
0
LINE
8
BLACK
6
CONTINUOUS
10
4.49566
20
-4.3577
11
4.49506
21
-4.35469
0
LINE
8
BLACK
6
CONTINUOUS
10
4.49506
20
-4.35469
11
4.49506
21
-4.33303
0
LINE
8
BLACK
6
CONTINUOUS
10
4.49506
20
-4.33303
11
4.49566
21
-4.33002
0
LINE
8
BLACK
6
CONTINUOUS
10
4.49566
20
-4.33002
11
4.49737
21
-4.32746
0
LINE
8
BLACK
6
CONTINUOUS
10
4.49737
20
-4.32746
11
4.49992
21
-4.32576
0
LINE
8
BLACK
6
CONTINUOUS
10
4.49992
20
-4.32576
11
4.50293
21
-4.32516
0
LINE
8
BLACK
6
CONTINUOUS
10
4.50293
20
-4.32516
11
4.51868
21
-4.32516
0
LINE
8
BLACK
6
CONTINUOUS
10
4.51868
20
-4.32516
11
4.52169
21
-4.32576
0
LINE
8
BLACK
6
CONTINUOUS
10
4.58665
20
-4.32576
11
4.58921
21
-4.32746
0
LINE
8
BLACK
6
CONTINUOUS
10
4.58921
20
-4.32746
11
4.59092
21
-4.33002
0
LINE
8
BLACK
6
CONTINUOUS
10
4.59092
20
-4.33002
11
4.59152
21
-4.33303
0
LINE
8
BLACK
6
CONTINUOUS
10
4.59152
20
-4.33303
11
4.59152
21
-4.35469
0
LINE
8
BLACK
6
CONTINUOUS
10
4.59152
20
-4.35469
11
4.59092
21
-4.3577
0
LINE
8
BLACK
6
CONTINUOUS
10
4.59092
20
-4.3577
11
4.58921
21
-4.36025
0
LINE
8
BLACK
6
CONTINUOUS
10
4.58921
20
-4.36025
11
4.58665
21
-4.36196
0
LINE
8
BLACK
6
CONTINUOUS
10
4.58665
20
-4.36196
11
4.58364
21
-4.36256
0
LINE
8
BLACK
6
CONTINUOUS
10
4.58364
20
-4.36256
11
4.56789
21
-4.36256
0
LINE
8
BLACK
6
CONTINUOUS
10
4.56789
20
-4.36256
11
4.56488
21
-4.36196
0
LINE
8
BLACK
6
CONTINUOUS
10
4.56488
20
-4.36196
11
4.56233
21
-4.36025
0
LINE
8
BLACK
6
CONTINUOUS
10
4.56233
20
-4.36025
11
4.56062
21
-4.3577
0
LINE
8
BLACK
6
CONTINUOUS
10
4.56062
20
-4.3577
11
4.56002
21
-4.35469
0
LINE
8
BLACK
6
CONTINUOUS
10
4.56002
20
-4.35469
11
4.56002
21
-4.33303
0
LINE
8
BLACK
6
CONTINUOUS
10
4.56002
20
-4.33303
11
4.56062
21
-4.33002
0
LINE
8
BLACK
6
CONTINUOUS
10
4.56062
20
-4.33002
11
4.56233
21
-4.32746
0
LINE
8
BLACK
6
CONTINUOUS
10
4.56233
20
-4.32746
11
4.56488
21
-4.32576
0
LINE
8
BLACK
6
CONTINUOUS
10
4.56488
20
-4.32576
11
4.56789
21
-4.32516
0
LINE
8
BLACK
6
CONTINUOUS
10
4.56789
20
-4.32516
11
4.58364
21
-4.32516
0
LINE
8
BLACK
6
CONTINUOUS
10
4.58364
20
-4.32516
11
4.58665
21
-4.32576
0
LINE
8
BLACK
6
CONTINUOUS
10
6.15535
20
-4.29207
11
6.15815
21
-4.29394
0
LINE
8
BLACK
6
CONTINUOUS
10
6.15815
20
-4.29394
11
6.16001
21
-4.29673
0
LINE
8
BLACK
6
CONTINUOUS
10
6.16001
20
-4.29673
11
6.16067
21
-4.30003
0
LINE
8
BLACK
6
CONTINUOUS
10
6.16067
20
-4.30003
11
6.16067
21
-4.32021
0
LINE
8
BLACK
6
CONTINUOUS
10
6.16067
20
-4.32021
11
6.16001
21
-4.3235
0
LINE
8
BLACK
6
CONTINUOUS
10
6.16001
20
-4.3235
11
6.15815
21
-4.3263
0
LINE
8
BLACK
6
CONTINUOUS
10
6.15815
20
-4.3263
11
6.15535
21
-4.32816
0
LINE
8
BLACK
6
CONTINUOUS
10
6.15535
20
-4.32816
11
6.15206
21
-4.32882
0
LINE
8
BLACK
6
CONTINUOUS
10
6.15206
20
-4.32882
11
6.13483
21
-4.32882
0
LINE
8
BLACK
6
CONTINUOUS
10
6.13483
20
-4.32882
11
6.13154
21
-4.32816
0
LINE
8
BLACK
6
CONTINUOUS
10
6.13154
20
-4.32816
11
6.12874
21
-4.3263
0
LINE
8
BLACK
6
CONTINUOUS
10
6.12874
20
-4.3263
11
6.12688
21
-4.3235
0
LINE
8
BLACK
6
CONTINUOUS
10
6.12688
20
-4.3235
11
6.12622
21
-4.32021
0
LINE
8
BLACK
6
CONTINUOUS
10
6.12622
20
-4.32021
11
6.12622
21
-4.30003
0
LINE
8
BLACK
6
CONTINUOUS
10
6.12622
20
-4.30003
11
6.12688
21
-4.29673
0
LINE
8
BLACK
6
CONTINUOUS
10
6.12688
20
-4.29673
11
6.12874
21
-4.29394
0
LINE
8
BLACK
6
CONTINUOUS
10
6.12874
20
-4.29394
11
6.13154
21
-4.29207
0
LINE
8
BLACK
6
CONTINUOUS
10
6.13154
20
-4.29207
11
6.13483
21
-4.29142
0
LINE
8
BLACK
6
CONTINUOUS
10
6.13483
20
-4.29142
11
6.15206
21
-4.29142
0
LINE
8
BLACK
6
CONTINUOUS
10
6.15206
20
-4.29142
11
6.15535
21
-4.29207
0
LINE
8
BLACK
6
CONTINUOUS
10
6.21736
20
-4.29207
11
6.22015
21
-4.29394
0
LINE
8
BLACK
6
CONTINUOUS
10
6.22015
20
-4.29394
11
6.22202
21
-4.29673
0
LINE
8
BLACK
6
CONTINUOUS
10
6.22202
20
-4.29673
11
6.22268
21
-4.30003
0
LINE
8
BLACK
6
CONTINUOUS
10
6.22268
20
-4.30003
11
6.22268
21
-4.32021
0
LINE
8
BLACK
6
CONTINUOUS
10
6.22268
20
-4.32021
11
6.22202
21
-4.3235
0
LINE
8
BLACK
6
CONTINUOUS
10
6.22202
20
-4.3235
11
6.22015
21
-4.3263
0
LINE
8
BLACK
6
CONTINUOUS
10
6.22015
20
-4.3263
11
6.21736
21
-4.32816
0
LINE
8
BLACK
6
CONTINUOUS
10
6.21736
20
-4.32816
11
6.21406
21
-4.32882
0
LINE
8
BLACK
6
CONTINUOUS
10
6.21406
20
-4.32882
11
6.19684
21
-4.32882
0
LINE
8
BLACK
6
CONTINUOUS
10
6.19684
20
-4.32882
11
6.19354
21
-4.32816
0
LINE
8
BLACK
6
CONTINUOUS
10
6.19354
20
-4.32816
11
6.19075
21
-4.3263
0
LINE
8
BLACK
6
CONTINUOUS
10
6.19075
20
-4.3263
11
6.18888
21
-4.3235
0
LINE
8
BLACK
6
CONTINUOUS
10
6.18888
20
-4.3235
11
6.18823
21
-4.32021
0
LINE
8
BLACK
6
CONTINUOUS
10
6.18823
20
-4.32021
11
6.18823
21
-4.30003
0
LINE
8
BLACK
6
CONTINUOUS
10
6.18823
20
-4.30003
11
6.18888
21
-4.29673
0
LINE
8
BLACK
6
CONTINUOUS
10
6.18888
20
-4.29673
11
6.19075
21
-4.29394
0
LINE
8
BLACK
6
CONTINUOUS
10
6.19075
20
-4.29394
11
6.19354
21
-4.29207
0
LINE
8
BLACK
6
CONTINUOUS
10
6.19354
20
-4.29207
11
6.19684
21
-4.29142
0
LINE
8
BLACK
6
CONTINUOUS
10
6.19684
20
-4.29142
11
6.21406
21
-4.29142
0
LINE
8
BLACK
6
CONTINUOUS
10
6.21406
20
-4.29142
11
6.21736
21
-4.29207
0
LINE
8
BLACK
6
CONTINUOUS
10
5.99341
20
-4.23336
11
5.99596
21
-4.23506
0
LINE
8
BLACK
6
CONTINUOUS
10
5.99596
20
-4.23506
11
5.99767
21
-4.23762
0
LINE
8
BLACK
6
CONTINUOUS
10
5.99767
20
-4.23762
11
5.99827
21
-4.24063
0
LINE
8
BLACK
6
CONTINUOUS
10
5.99827
20
-4.24063
11
5.99827
21
-4.26228
0
LINE
8
BLACK
6
CONTINUOUS
10
5.99827
20
-4.26228
11
5.99767
21
-4.2653
0
LINE
8
BLACK
6
CONTINUOUS
10
5.99767
20
-4.2653
11
5.99596
21
-4.26785
0
LINE
8
BLACK
6
CONTINUOUS
10
5.99596
20
-4.26785
11
5.99341
21
-4.26956
0
LINE
8
BLACK
6
CONTINUOUS
10
5.99341
20
-4.26956
11
5.99039
21
-4.27016
0
LINE
8
BLACK
6
CONTINUOUS
10
5.99039
20
-4.27016
11
5.97465
21
-4.27016
0
LINE
8
BLACK
6
CONTINUOUS
10
5.97465
20
-4.27016
11
5.97163
21
-4.26956
0
LINE
8
BLACK
6
CONTINUOUS
10
5.97163
20
-4.26956
11
5.96908
21
-4.26785
0
LINE
8
BLACK
6
CONTINUOUS
10
5.96908
20
-4.26785
11
5.96737
21
-4.2653
0
LINE
8
BLACK
6
CONTINUOUS
10
5.96737
20
-4.2653
11
5.96677
21
-4.26228
0
LINE
8
BLACK
6
CONTINUOUS
10
5.96677
20
-4.26228
11
5.96677
21
-4.24063
0
LINE
8
BLACK
6
CONTINUOUS
10
5.96677
20
-4.24063
11
5.96737
21
-4.23762
0
LINE
8
BLACK
6
CONTINUOUS
10
5.96737
20
-4.23762
11
5.96908
21
-4.23506
0
LINE
8
BLACK
6
CONTINUOUS
10
5.96908
20
-4.23506
11
5.97163
21
-4.23336
0
LINE
8
BLACK
6
CONTINUOUS
10
5.97163
20
-4.23336
11
5.97465
21
-4.23276
0
LINE
8
BLACK
6
CONTINUOUS
10
5.97465
20
-4.23276
11
5.99039
21
-4.23276
0
LINE
8
BLACK
6
CONTINUOUS
10
5.99039
20
-4.23276
11
5.99341
21
-4.23336
0
LINE
8
BLACK
6
CONTINUOUS
10
6.05837
20
-4.23336
11
6.06092
21
-4.23506
0
LINE
8
BLACK
6
CONTINUOUS
10
6.06092
20
-4.23506
11
6.06263
21
-4.23762
0
LINE
8
BLACK
6
CONTINUOUS
10
6.06263
20
-4.23762
11
6.06323
21
-4.24063
0
LINE
8
BLACK
6
CONTINUOUS
10
6.06323
20
-4.24063
11
6.06323
21
-4.26228
0
LINE
8
BLACK
6
CONTINUOUS
10
6.06323
20
-4.26228
11
6.06263
21
-4.2653
0
LINE
8
BLACK
6
CONTINUOUS
10
6.06263
20
-4.2653
11
6.06092
21
-4.26785
0
LINE
8
BLACK
6
CONTINUOUS
10
6.06092
20
-4.26785
11
6.05837
21
-4.26956
0
LINE
8
BLACK
6
CONTINUOUS
10
6.05837
20
-4.26956
11
6.05535
21
-4.27016
0
LINE
8
BLACK
6
CONTINUOUS
10
6.05535
20
-4.27016
11
6.03961
21
-4.27016
0
LINE
8
BLACK
6
CONTINUOUS
10
6.03961
20
-4.27016
11
6.03659
21
-4.26956
0
LINE
8
BLACK
6
CONTINUOUS
10
6.03659
20
-4.26956
11
6.03404
21
-4.26785
0
LINE
8
BLACK
6
CONTINUOUS
10
6.03404
20
-4.26785
11
6.03233
21
-4.2653
0
LINE
8
BLACK
6
CONTINUOUS
10
6.03233
20
-4.2653
11
6.03173
21
-4.26228
0
LINE
8
BLACK
6
CONTINUOUS
10
6.03173
20
-4.26228
11
6.03173
21
-4.24063
0
LINE
8
BLACK
6
CONTINUOUS
10
6.03173
20
-4.24063
11
6.03233
21
-4.23762
0
LINE
8
BLACK
6
CONTINUOUS
10
6.03233
20
-4.23762
11
6.03404
21
-4.23506
0
LINE
8
BLACK
6
CONTINUOUS
10
6.03404
20
-4.23506
11
6.03659
21
-4.23336
0
LINE
8
BLACK
6
CONTINUOUS
10
6.03659
20
-4.23336
11
6.03961
21
-4.23276
0
LINE
8
BLACK
6
CONTINUOUS
10
6.03961
20
-4.23276
11
6.05535
21
-4.23276
0
LINE
8
BLACK
6
CONTINUOUS
10
6.05535
20
-4.23276
11
6.05837
21
-4.23336
0
LINE
8
BLACK
6
CONTINUOUS
10
4.36715
20
-4.22701
11
4.37002
21
-4.22893
0
LINE
8
BLACK
6
CONTINUOUS
10
4.37002
20
-4.22893
11
4.37194
21
-4.23181
0
LINE
8
BLACK
6
CONTINUOUS
10
4.37194
20
-4.23181
11
4.37262
21
-4.2352
0
LINE
8
BLACK
6
CONTINUOUS
10
4.37262
20
-4.2352
11
4.37262
21
-4.25488
0
LINE
8
BLACK
6
CONTINUOUS
10
4.37262
20
-4.25488
11
4.37194
21
-4.25827
0
LINE
8
BLACK
6
CONTINUOUS
10
4.37194
20
-4.25827
11
4.37002
21
-4.26115
0
LINE
8
BLACK
6
CONTINUOUS
10
4.37002
20
-4.26115
11
4.36715
21
-4.26307
0
LINE
8
BLACK
6
CONTINUOUS
10
4.36715
20
-4.26307
11
4.36376
21
-4.26374
0
LINE
8
BLACK
6
CONTINUOUS
10
4.36376
20
-4.26374
11
4.34604
21
-4.26374
0
LINE
8
BLACK
6
CONTINUOUS
10
4.34604
20
-4.26374
11
4.34265
21
-4.26307
0
LINE
8
BLACK
6
CONTINUOUS
10
4.34265
20
-4.26307
11
4.33978
21
-4.26115
0
LINE
8
BLACK
6
CONTINUOUS
10
4.33978
20
-4.26115
11
4.33786
21
-4.25827
0
LINE
8
BLACK
6
CONTINUOUS
10
4.33786
20
-4.25827
11
4.33719
21
-4.25488
0
LINE
8
BLACK
6
CONTINUOUS
10
4.33719
20
-4.25488
11
4.33719
21
-4.2352
0
LINE
8
BLACK
6
CONTINUOUS
10
4.33719
20
-4.2352
11
4.33786
21
-4.23181
0
LINE
8
BLACK
6
CONTINUOUS
10
4.33786
20
-4.23181
11
4.33978
21
-4.22893
0
LINE
8
BLACK
6
CONTINUOUS
10
4.33978
20
-4.22893
11
4.34265
21
-4.22701
0
LINE
8
BLACK
6
CONTINUOUS
10
4.34265
20
-4.22701
11
4.34604
21
-4.22634
0
LINE
8
BLACK
6
CONTINUOUS
10
4.34604
20
-4.22634
11
4.36376
21
-4.22634
0
LINE
8
BLACK
6
CONTINUOUS
10
4.36376
20
-4.22634
11
4.36715
21
-4.22701
0
LINE
8
BLACK
6
CONTINUOUS
10
4.42817
20
-4.22701
11
4.43105
21
-4.22893
0
LINE
8
BLACK
6
CONTINUOUS
10
4.43105
20
-4.22893
11
4.43297
21
-4.23181
0
LINE
8
BLACK
6
CONTINUOUS
10
4.43297
20
-4.23181
11
4.43364
21
-4.2352
0
LINE
8
BLACK
6
CONTINUOUS
10
4.43364
20
-4.2352
11
4.43364
21
-4.25488
0
LINE
8
BLACK
6
CONTINUOUS
10
4.43364
20
-4.25488
11
4.43297
21
-4.25827
0
LINE
8
BLACK
6
CONTINUOUS
10
4.43297
20
-4.25827
11
4.43105
21
-4.26115
0
LINE
8
BLACK
6
CONTINUOUS
10
4.43105
20
-4.26115
11
4.42817
21
-4.26307
0
LINE
8
BLACK
6
CONTINUOUS
10
4.42817
20
-4.26307
11
4.42478
21
-4.26374
0
LINE
8
BLACK
6
CONTINUOUS
10
4.42478
20
-4.26374
11
4.40707
21
-4.26374
0
LINE
8
BLACK
6
CONTINUOUS
10
4.40707
20
-4.26374
11
4.40368
21
-4.26307
0
LINE
8
BLACK
6
CONTINUOUS
10
4.40368
20
-4.26307
11
4.4008
21
-4.26115
0
LINE
8
BLACK
6
CONTINUOUS
10
4.4008
20
-4.26115
11
4.39888
21
-4.25827
0
LINE
8
BLACK
6
CONTINUOUS
10
4.39888
20
-4.25827
11
4.39821
21
-4.25488
0
LINE
8
BLACK
6
CONTINUOUS
10
4.39821
20
-4.25488
11
4.39821
21
-4.2352
0
LINE
8
BLACK
6
CONTINUOUS
10
4.39821
20
-4.2352
11
4.39888
21
-4.23181
0
LINE
8
BLACK
6
CONTINUOUS
10
4.39888
20
-4.23181
11
4.4008
21
-4.22893
0
LINE
8
BLACK
6
CONTINUOUS
10
4.4008
20
-4.22893
11
4.40368
21
-4.22701
0
LINE
8
BLACK
6
CONTINUOUS
10
4.40368
20
-4.22701
11
4.40707
21
-4.22634
0
LINE
8
BLACK
6
CONTINUOUS
10
4.40707
20
-4.22634
11
4.42478
21
-4.22634
0
LINE
8
BLACK
6
CONTINUOUS
10
4.42478
20
-4.22634
11
4.42817
21
-4.22701
0
LINE
8
BLACK
6
CONTINUOUS
10
4.52169
20
-4.22694
11
4.52425
21
-4.22864
0
LINE
8
BLACK
6
CONTINUOUS
10
4.52425
20
-4.22864
11
4.52596
21
-4.2312
0
LINE
8
BLACK
6
CONTINUOUS
10
4.52596
20
-4.2312
11
4.52656
21
-4.23421
0
LINE
8
BLACK
6
CONTINUOUS
10
4.52656
20
-4.23421
11
4.52656
21
-4.25587
0
LINE
8
BLACK
6
CONTINUOUS
10
4.52656
20
-4.25587
11
4.52596
21
-4.25888
0
LINE
8
BLACK
6
CONTINUOUS
10
4.52596
20
-4.25888
11
4.52425
21
-4.26143
0
LINE
8
BLACK
6
CONTINUOUS
10
4.52425
20
-4.26143
11
4.52169
21
-4.26314
0
LINE
8
BLACK
6
CONTINUOUS
10
4.52169
20
-4.26314
11
4.51868
21
-4.26374
0
LINE
8
BLACK
6
CONTINUOUS
10
4.51868
20
-4.26374
11
4.50293
21
-4.26374
0
LINE
8
BLACK
6
CONTINUOUS
10
4.50293
20
-4.26374
11
4.49992
21
-4.26314
0
LINE
8
BLACK
6
CONTINUOUS
10
4.49992
20
-4.26314
11
4.49737
21
-4.26143
0
LINE
8
BLACK
6
CONTINUOUS
10
4.49737
20
-4.26143
11
4.49566
21
-4.25888
0
LINE
8
BLACK
6
CONTINUOUS
10
4.49566
20
-4.25888
11
4.49506
21
-4.25587
0
LINE
8
BLACK
6
CONTINUOUS
10
4.49506
20
-4.25587
11
4.49506
21
-4.23421
0
LINE
8
BLACK
6
CONTINUOUS
10
4.49506
20
-4.23421
11
4.49566
21
-4.2312
0
LINE
8
BLACK
6
CONTINUOUS
10
4.49566
20
-4.2312
11
4.49737
21
-4.22864
0
LINE
8
BLACK
6
CONTINUOUS
10
4.49737
20
-4.22864
11
4.49992
21
-4.22694
0
LINE
8
BLACK
6
CONTINUOUS
10
4.49992
20
-4.22694
11
4.50293
21
-4.22634
0
LINE
8
BLACK
6
CONTINUOUS
10
4.50293
20
-4.22634
11
4.51868
21
-4.22634
0
LINE
8
BLACK
6
CONTINUOUS
10
4.51868
20
-4.22634
11
4.52169
21
-4.22694
0
LINE
8
BLACK
6
CONTINUOUS
10
4.58665
20
-4.22694
11
4.58921
21
-4.22864
0
LINE
8
BLACK
6
CONTINUOUS
10
4.58921
20
-4.22864
11
4.59092
21
-4.2312
0
LINE
8
BLACK
6
CONTINUOUS
10
4.59092
20
-4.2312
11
4.59152
21
-4.23421
0
LINE
8
BLACK
6
CONTINUOUS
10
4.59152
20
-4.23421
11
4.59152
21
-4.25587
0
LINE
8
BLACK
6
CONTINUOUS
10
4.59152
20
-4.25587
11
4.59092
21
-4.25888
0
LINE
8
BLACK
6
CONTINUOUS
10
4.59092
20
-4.25888
11
4.58921
21
-4.26143
0
LINE
8
BLACK
6
CONTINUOUS
10
4.58921
20
-4.26143
11
4.58665
21
-4.26314
0
LINE
8
BLACK
6
CONTINUOUS
10
4.58665
20
-4.26314
11
4.58364
21
-4.26374
0
LINE
8
BLACK
6
CONTINUOUS
10
4.58364
20
-4.26374
11
4.56789
21
-4.26374
0
LINE
8
BLACK
6
CONTINUOUS
10
4.56789
20
-4.26374
11
4.56488
21
-4.26314
0
LINE
8
BLACK
6
CONTINUOUS
10
4.56488
20
-4.26314
11
4.56233
21
-4.26143
0
LINE
8
BLACK
6
CONTINUOUS
10
4.56233
20
-4.26143
11
4.56062
21
-4.25888
0
LINE
8
BLACK
6
CONTINUOUS
10
4.56062
20
-4.25888
11
4.56002
21
-4.25587
0
LINE
8
BLACK
6
CONTINUOUS
10
4.56002
20
-4.25587
11
4.56002
21
-4.23421
0
LINE
8
BLACK
6
CONTINUOUS
10
4.56002
20
-4.23421
11
4.56062
21
-4.2312
0
LINE
8
BLACK
6
CONTINUOUS
10
4.56062
20
-4.2312
11
4.56233
21
-4.22864
0
LINE
8
BLACK
6
CONTINUOUS
10
4.56233
20
-4.22864
11
4.56488
21
-4.22694
0
LINE
8
BLACK
6
CONTINUOUS
10
4.56488
20
-4.22694
11
4.56789
21
-4.22634
0
LINE
8
BLACK
6
CONTINUOUS
10
4.56789
20
-4.22634
11
4.58364
21
-4.22634
0
LINE
8
BLACK
6
CONTINUOUS
10
4.58364
20
-4.22634
11
4.58665
21
-4.22694
0
LINE
8
BLACK
6
CONTINUOUS
10
6.15535
20
-4.1901
11
6.15815
21
-4.19197
0
LINE
8
BLACK
6
CONTINUOUS
10
6.15815
20
-4.19197
11
6.16001
21
-4.19477
0
LINE
8
BLACK
6
CONTINUOUS
10
6.16001
20
-4.19477
11
6.16067
21
-4.19806
0
LINE
8
BLACK
6
CONTINUOUS
10
6.16067
20
-4.19806
11
6.16067
21
-4.21824
0
LINE
8
BLACK
6
CONTINUOUS
10
6.16067
20
-4.21824
11
6.16001
21
-4.22153
0
LINE
8
BLACK
6
CONTINUOUS
10
6.16001
20
-4.22153
11
6.15815
21
-4.22433
0
LINE
8
BLACK
6
CONTINUOUS
10
6.15815
20
-4.22433
11
6.15535
21
-4.22619
0
LINE
8
BLACK
6
CONTINUOUS
10
6.15535
20
-4.22619
11
6.15206
21
-4.22685
0
LINE
8
BLACK
6
CONTINUOUS
10
6.15206
20
-4.22685
11
6.13483
21
-4.22685
0
LINE
8
BLACK
6
CONTINUOUS
10
6.13483
20
-4.22685
11
6.13154
21
-4.22619
0
LINE
8
BLACK
6
CONTINUOUS
10
6.13154
20
-4.22619
11
6.12874
21
-4.22433
0
LINE
8
BLACK
6
CONTINUOUS
10
6.12874
20
-4.22433
11
6.12688
21
-4.22153
0
LINE
8
BLACK
6
CONTINUOUS
10
6.12688
20
-4.22153
11
6.12622
21
-4.21824
0
LINE
8
BLACK
6
CONTINUOUS
10
6.12622
20
-4.21824
11
6.12622
21
-4.19806
0
LINE
8
BLACK
6
CONTINUOUS
10
6.12622
20
-4.19806
11
6.12688
21
-4.19477
0
LINE
8
BLACK
6
CONTINUOUS
10
6.12688
20
-4.19477
11
6.12874
21
-4.19197
0
LINE
8
BLACK
6
CONTINUOUS
10
6.12874
20
-4.19197
11
6.13154
21
-4.1901
0
LINE
8
BLACK
6
CONTINUOUS
10
6.13154
20
-4.1901
11
6.13483
21
-4.18945
0
LINE
8
BLACK
6
CONTINUOUS
10
6.13483
20
-4.18945
11
6.15206
21
-4.18945
0
LINE
8
BLACK
6
CONTINUOUS
10
6.15206
20
-4.18945
11
6.15535
21
-4.1901
0
LINE
8
BLACK
6
CONTINUOUS
10
6.21736
20
-4.1901
11
6.22015
21
-4.19197
0
LINE
8
BLACK
6
CONTINUOUS
10
6.22015
20
-4.19197
11
6.22202
21
-4.19477
0
LINE
8
BLACK
6
CONTINUOUS
10
6.22202
20
-4.19477
11
6.22268
21
-4.19806
0
LINE
8
BLACK
6
CONTINUOUS
10
6.22268
20
-4.19806
11
6.22268
21
-4.21824
0
LINE
8
BLACK
6
CONTINUOUS
10
6.22268
20
-4.21824
11
6.22202
21
-4.22153
0
LINE
8
BLACK
6
CONTINUOUS
10
6.22202
20
-4.22153
11
6.22015
21
-4.22433
0
LINE
8
BLACK
6
CONTINUOUS
10
6.22015
20
-4.22433
11
6.21736
21
-4.22619
0
LINE
8
BLACK
6
CONTINUOUS
10
6.21736
20
-4.22619
11
6.21406
21
-4.22685
0
LINE
8
BLACK
6
CONTINUOUS
10
6.21406
20
-4.22685
11
6.19684
21
-4.22685
0
LINE
8
BLACK
6
CONTINUOUS
10
6.19684
20
-4.22685
11
6.19354
21
-4.22619
0
LINE
8
BLACK
6
CONTINUOUS
10
6.19354
20
-4.22619
11
6.19075
21
-4.22433
0
LINE
8
BLACK
6
CONTINUOUS
10
6.19075
20
-4.22433
11
6.18888
21
-4.22153
0
LINE
8
BLACK
6
CONTINUOUS
10
6.18888
20
-4.22153
11
6.18823
21
-4.21824
0
LINE
8
BLACK
6
CONTINUOUS
10
6.18823
20
-4.21824
11
6.18823
21
-4.19806
0
LINE
8
BLACK
6
CONTINUOUS
10
6.18823
20
-4.19806
11
6.18888
21
-4.19477
0
LINE
8
BLACK
6
CONTINUOUS
10
6.18888
20
-4.19477
11
6.19075
21
-4.19197
0
LINE
8
BLACK
6
CONTINUOUS
10
6.19075
20
-4.19197
11
6.19354
21
-4.1901
0
LINE
8
BLACK
6
CONTINUOUS
10
6.19354
20
-4.1901
11
6.19684
21
-4.18945
0
LINE
8
BLACK
6
CONTINUOUS
10
6.19684
20
-4.18945
11
6.21406
21
-4.18945
0
LINE
8
BLACK
6
CONTINUOUS
10
6.21406
20
-4.18945
11
6.21736
21
-4.1901
0
LINE
8
BLACK
6
CONTINUOUS
10
4.68075
20
-4.19437
11
4.64925
21
-4.19437
0
LINE
8
BLACK
6
CONTINUOUS
10
4.64925
20
-4.19437
11
4.64925
21
-4.11563
0
LINE
8
BLACK
6
CONTINUOUS
10
4.64925
20
-4.11563
11
4.68075
21
-4.11563
0
LINE
8
BLACK
6
CONTINUOUS
10
4.68075
20
-4.11563
11
4.68075
21
-4.19437
0
LINE
8
BLACK
6
CONTINUOUS
10
4.84575
20
-4.19437
11
4.81425
21
-4.19437
0
LINE
8
BLACK
6
CONTINUOUS
10
4.81425
20
-4.19437
11
4.81425
21
-4.11563
0
LINE
8
BLACK
6
CONTINUOUS
10
4.81425
20
-4.11563
11
4.84575
21
-4.11563
0
LINE
8
BLACK
6
CONTINUOUS
10
4.84575
20
-4.11563
11
4.84575
21
-4.19437
0
LINE
8
BLACK
6
CONTINUOUS
10
5.99674
20
-4.13461
11
5.99961
21
-4.13653
0
LINE
8
BLACK
6
CONTINUOUS
10
5.99961
20
-4.13653
11
6.00153
21
-4.13941
0
LINE
8
BLACK
6
CONTINUOUS
10
6.00153
20
-4.13941
11
6.0022
21
-4.1428
0
LINE
8
BLACK
6
CONTINUOUS
10
6.0022
20
-4.1428
11
6.0022
21
-4.16248
0
LINE
8
BLACK
6
CONTINUOUS
10
6.0022
20
-4.16248
11
6.00153
21
-4.16587
0
LINE
8
BLACK
6
CONTINUOUS
10
6.00153
20
-4.16587
11
5.99961
21
-4.16874
0
LINE
8
BLACK
6
CONTINUOUS
10
5.99961
20
-4.16874
11
5.99674
21
-4.17066
0
LINE
8
BLACK
6
CONTINUOUS
10
5.99674
20
-4.17066
11
5.99335
21
-4.17134
0
LINE
8
BLACK
6
CONTINUOUS
10
5.99335
20
-4.17134
11
5.97563
21
-4.17134
0
LINE
8
BLACK
6
CONTINUOUS
10
5.97563
20
-4.17134
11
5.97224
21
-4.17066
0
LINE
8
BLACK
6
CONTINUOUS
10
5.97224
20
-4.17066
11
5.96937
21
-4.16874
0
LINE
8
BLACK
6
CONTINUOUS
10
5.96937
20
-4.16874
11
5.96745
21
-4.16587
0
LINE
8
BLACK
6
CONTINUOUS
10
5.96745
20
-4.16587
11
5.96677
21
-4.16248
0
LINE
8
BLACK
6
CONTINUOUS
10
5.96677
20
-4.16248
11
5.96677
21
-4.1428
0
LINE
8
BLACK
6
CONTINUOUS
10
5.96677
20
-4.1428
11
5.96745
21
-4.13941
0
LINE
8
BLACK
6
CONTINUOUS
10
5.96745
20
-4.13941
11
5.96937
21
-4.13653
0
LINE
8
BLACK
6
CONTINUOUS
10
5.96937
20
-4.13653
11
5.97224
21
-4.13461
0
LINE
8
BLACK
6
CONTINUOUS
10
5.97224
20
-4.13461
11
5.97563
21
-4.13394
0
LINE
8
BLACK
6
CONTINUOUS
10
5.97563
20
-4.13394
11
5.99335
21
-4.13394
0
LINE
8
BLACK
6
CONTINUOUS
10
5.99335
20
-4.13394
11
5.99674
21
-4.13461
0
LINE
8
BLACK
6
CONTINUOUS
10
6.05776
20
-4.13461
11
6.06063
21
-4.13653
0
LINE
8
BLACK
6
CONTINUOUS
10
6.06063
20
-4.13653
11
6.06255
21
-4.13941
0
LINE
8
BLACK
6
CONTINUOUS
10
6.06255
20
-4.13941
11
6.06323
21
-4.1428
0
LINE
8
BLACK
6
CONTINUOUS
10
6.06323
20
-4.1428
11
6.06323
21
-4.16248
0
LINE
8
BLACK
6
CONTINUOUS
10
6.06323
20
-4.16248
11
6.06255
21
-4.16587
0
LINE
8
BLACK
6
CONTINUOUS
10
6.06255
20
-4.16587
11
6.06063
21
-4.16874
0
LINE
8
BLACK
6
CONTINUOUS
10
6.06063
20
-4.16874
11
6.05776
21
-4.17066
0
LINE
8
BLACK
6
CONTINUOUS
10
6.05776
20
-4.17066
11
6.05437
21
-4.17134
0
LINE
8
BLACK
6
CONTINUOUS
10
6.05437
20
-4.17134
11
6.03665
21
-4.17134
0
LINE
8
BLACK
6
CONTINUOUS
10
6.03665
20
-4.17134
11
6.03326
21
-4.17066
0
LINE
8
BLACK
6
CONTINUOUS
10
6.03326
20
-4.17066
11
6.03039
21
-4.16874
0
LINE
8
BLACK
6
CONTINUOUS
10
6.03039
20
-4.16874
11
6.02847
21
-4.16587
0
LINE
8
BLACK
6
CONTINUOUS
10
6.02847
20
-4.16587
11
6.0278
21
-4.16248
0
LINE
8
BLACK
6
CONTINUOUS
10
6.0278
20
-4.16248
11
6.0278
21
-4.1428
0
LINE
8
BLACK
6
CONTINUOUS
10
6.0278
20
-4.1428
11
6.02847
21
-4.13941
0
LINE
8
BLACK
6
CONTINUOUS
10
6.02847
20
-4.13941
11
6.03039
21
-4.13653
0
LINE
8
BLACK
6
CONTINUOUS
10
6.03039
20
-4.13653
11
6.03326
21
-4.13461
0
LINE
8
BLACK
6
CONTINUOUS
10
6.03326
20
-4.13461
11
6.03665
21
-4.13394
0
LINE
8
BLACK
6
CONTINUOUS
10
6.03665
20
-4.13394
11
6.05437
21
-4.13394
0
LINE
8
BLACK
6
CONTINUOUS
10
6.05437
20
-4.13394
11
6.05776
21
-4.13461
0
LINE
8
BLACK
6
CONTINUOUS
10
4.36715
20
-4.12819
11
4.37002
21
-4.13011
0
LINE
8
BLACK
6
CONTINUOUS
10
4.37002
20
-4.13011
11
4.37194
21
-4.13299
0
LINE
8
BLACK
6
CONTINUOUS
10
4.37194
20
-4.13299
11
4.37262
21
-4.13638
0
LINE
8
BLACK
6
CONTINUOUS
10
4.37262
20
-4.13638
11
4.37262
21
-4.15606
0
LINE
8
BLACK
6
CONTINUOUS
10
4.37262
20
-4.15606
11
4.37194
21
-4.15945
0
LINE
8
BLACK
6
CONTINUOUS
10
4.37194
20
-4.15945
11
4.37002
21
-4.16233
0
LINE
8
BLACK
6
CONTINUOUS
10
4.37002
20
-4.16233
11
4.36715
21
-4.16425
0
LINE
8
BLACK
6
CONTINUOUS
10
4.36715
20
-4.16425
11
4.36376
21
-4.16492
0
LINE
8
BLACK
6
CONTINUOUS
10
4.36376
20
-4.16492
11
4.34604
21
-4.16492
0
LINE
8
BLACK
6
CONTINUOUS
10
4.34604
20
-4.16492
11
4.34265
21
-4.16425
0
LINE
8
BLACK
6
CONTINUOUS
10
4.34265
20
-4.16425
11
4.33978
21
-4.16233
0
LINE
8
BLACK
6
CONTINUOUS
10
4.33978
20
-4.16233
11
4.33786
21
-4.15945
0
LINE
8
BLACK
6
CONTINUOUS
10
4.33786
20
-4.15945
11
4.33719
21
-4.15606
0
LINE
8
BLACK
6
CONTINUOUS
10
4.33719
20
-4.15606
11
4.33719
21
-4.13638
0
LINE
8
BLACK
6
CONTINUOUS
10
4.33719
20
-4.13638
11
4.33786
21
-4.13299
0
LINE
8
BLACK
6
CONTINUOUS
10
4.33786
20
-4.13299
11
4.33978
21
-4.13011
0
LINE
8
BLACK
6
CONTINUOUS
10
4.33978
20
-4.13011
11
4.34265
21
-4.12819
0
LINE
8
BLACK
6
CONTINUOUS
10
4.34265
20
-4.12819
11
4.34604
21
-4.12752
0
LINE
8
BLACK
6
CONTINUOUS
10
4.34604
20
-4.12752
11
4.36376
21
-4.12752
0
LINE
8
BLACK
6
CONTINUOUS
10
4.36376
20
-4.12752
11
4.36715
21
-4.12819
0
LINE
8
BLACK
6
CONTINUOUS
10
4.42817
20
-4.12819
11
4.43105
21
-4.13011
0
LINE
8
BLACK
6
CONTINUOUS
10
4.43105
20
-4.13011
11
4.43297
21
-4.13299
0
LINE
8
BLACK
6
CONTINUOUS
10
4.43297
20
-4.13299
11
4.43364
21
-4.13638
0
LINE
8
BLACK
6
CONTINUOUS
10
4.43364
20
-4.13638
11
4.43364
21
-4.15606
0
LINE
8
BLACK
6
CONTINUOUS
10
4.43364
20
-4.15606
11
4.43297
21
-4.15945
0
LINE
8
BLACK
6
CONTINUOUS
10
4.43297
20
-4.15945
11
4.43105
21
-4.16233
0
LINE
8
BLACK
6
CONTINUOUS
10
4.43105
20
-4.16233
11
4.42817
21
-4.16425
0
LINE
8
BLACK
6
CONTINUOUS
10
4.42817
20
-4.16425
11
4.42478
21
-4.16492
0
LINE
8
BLACK
6
CONTINUOUS
10
4.42478
20
-4.16492
11
4.40707
21
-4.16492
0
LINE
8
BLACK
6
CONTINUOUS
10
4.40707
20
-4.16492
11
4.40368
21
-4.16425
0
LINE
8
BLACK
6
CONTINUOUS
10
4.40368
20
-4.16425
11
4.4008
21
-4.16233
0
LINE
8
BLACK
6
CONTINUOUS
10
4.4008
20
-4.16233
11
4.39888
21
-4.15945
0
LINE
8
BLACK
6
CONTINUOUS
10
4.39888
20
-4.15945
11
4.39821
21
-4.15606
0
LINE
8
BLACK
6
CONTINUOUS
10
4.39821
20
-4.15606
11
4.39821
21
-4.13638
0
LINE
8
BLACK
6
CONTINUOUS
10
4.39821
20
-4.13638
11
4.39888
21
-4.13299
0
LINE
8
BLACK
6
CONTINUOUS
10
4.39888
20
-4.13299
11
4.4008
21
-4.13011
0
LINE
8
BLACK
6
CONTINUOUS
10
4.4008
20
-4.13011
11
4.40368
21
-4.12819
0
LINE
8
BLACK
6
CONTINUOUS
10
4.40368
20
-4.12819
11
4.40707
21
-4.12752
0
LINE
8
BLACK
6
CONTINUOUS
10
4.40707
20
-4.12752
11
4.42478
21
-4.12752
0
LINE
8
BLACK
6
CONTINUOUS
10
4.42478
20
-4.12752
11
4.42817
21
-4.12819
0
LINE
8
BLACK
6
CONTINUOUS
10
4.52169
20
-4.12812
11
4.52425
21
-4.12983
0
LINE
8
BLACK
6
CONTINUOUS
10
4.52425
20
-4.12983
11
4.52596
21
-4.13238
0
LINE
8
BLACK
6
CONTINUOUS
10
4.52596
20
-4.13238
11
4.52656
21
-4.13539
0
LINE
8
BLACK
6
CONTINUOUS
10
4.52656
20
-4.13539
11
4.52656
21
-4.15705
0
LINE
8
BLACK
6
CONTINUOUS
10
4.52656
20
-4.15705
11
4.52596
21
-4.16006
0
LINE
8
BLACK
6
CONTINUOUS
10
4.52596
20
-4.16006
11
4.52425
21
-4.16261
0
LINE
8
BLACK
6
CONTINUOUS
10
4.52425
20
-4.16261
11
4.52169
21
-4.16432
0
LINE
8
BLACK
6
CONTINUOUS
10
4.52169
20
-4.16432
11
4.51868
21
-4.16492
0
LINE
8
BLACK
6
CONTINUOUS
10
4.51868
20
-4.16492
11
4.50293
21
-4.16492
0
LINE
8
BLACK
6
CONTINUOUS
10
4.50293
20
-4.16492
11
4.49992
21
-4.16432
0
LINE
8
BLACK
6
CONTINUOUS
10
4.49992
20
-4.16432
11
4.49737
21
-4.16261
0
LINE
8
BLACK
6
CONTINUOUS
10
4.49737
20
-4.16261
11
4.49566
21
-4.16006
0
LINE
8
BLACK
6
CONTINUOUS
10
4.49566
20
-4.16006
11
4.49506
21
-4.15705
0
LINE
8
BLACK
6
CONTINUOUS
10
4.49506
20
-4.15705
11
4.49506
21
-4.13539
0
LINE
8
BLACK
6
CONTINUOUS
10
4.49506
20
-4.13539
11
4.49566
21
-4.13238
0
LINE
8
BLACK
6
CONTINUOUS
10
4.49566
20
-4.13238
11
4.49737
21
-4.12983
0
LINE
8
BLACK
6
CONTINUOUS
10
4.49737
20
-4.12983
11
4.49992
21
-4.12812
0
LINE
8
BLACK
6
CONTINUOUS
10
4.49992
20
-4.12812
11
4.50293
21
-4.12752
0
LINE
8
BLACK
6
CONTINUOUS
10
4.50293
20
-4.12752
11
4.51868
21
-4.12752
0
LINE
8
BLACK
6
CONTINUOUS
10
4.51868
20
-4.12752
11
4.52169
21
-4.12812
0
LINE
8
BLACK
6
CONTINUOUS
10
4.58665
20
-4.12812
11
4.58921
21
-4.12983
0
LINE
8
BLACK
6
CONTINUOUS
10
4.58921
20
-4.12983
11
4.59092
21
-4.13238
0
LINE
8
BLACK
6
CONTINUOUS
10
4.59092
20
-4.13238
11
4.59152
21
-4.13539
0
LINE
8
BLACK
6
CONTINUOUS
10
4.59152
20
-4.13539
11
4.59152
21
-4.15705
0
LINE
8
BLACK
6
CONTINUOUS
10
4.59152
20
-4.15705
11
4.59092
21
-4.16006
0
LINE
8
BLACK
6
CONTINUOUS
10
4.59092
20
-4.16006
11
4.58921
21
-4.16261
0
LINE
8
BLACK
6
CONTINUOUS
10
4.58921
20
-4.16261
11
4.58665
21
-4.16432
0
LINE
8
BLACK
6
CONTINUOUS
10
4.58665
20
-4.16432
11
4.58364
21
-4.16492
0
LINE
8
BLACK
6
CONTINUOUS
10
4.58364
20
-4.16492
11
4.56789
21
-4.16492
0
LINE
8
BLACK
6
CONTINUOUS
10
4.56789
20
-4.16492
11
4.56488
21
-4.16432
0
LINE
8
BLACK
6
CONTINUOUS
10
4.56488
20
-4.16432
11
4.56233
21
-4.16261
0
LINE
8
BLACK
6
CONTINUOUS
10
4.56233
20
-4.16261
11
4.56062
21
-4.16006
0
LINE
8
BLACK
6
CONTINUOUS
10
4.56062
20
-4.16006
11
4.56002
21
-4.15705
0
LINE
8
BLACK
6
CONTINUOUS
10
4.56002
20
-4.15705
11
4.56002
21
-4.13539
0
LINE
8
BLACK
6
CONTINUOUS
10
4.56002
20
-4.13539
11
4.56062
21
-4.13238
0
LINE
8
BLACK
6
CONTINUOUS
10
4.56062
20
-4.13238
11
4.56233
21
-4.12983
0
LINE
8
BLACK
6
CONTINUOUS
10
4.56233
20
-4.12983
11
4.56488
21
-4.12812
0
LINE
8
BLACK
6
CONTINUOUS
10
4.56488
20
-4.12812
11
4.56789
21
-4.12752
0
LINE
8
BLACK
6
CONTINUOUS
10
4.56789
20
-4.12752
11
4.58364
21
-4.12752
0
LINE
8
BLACK
6
CONTINUOUS
10
4.58364
20
-4.12752
11
4.58665
21
-4.12812
0
LINE
8
BLACK
6
CONTINUOUS
10
6.17297
20
-4.09561
11
6.17488
21
-4.09689
0
LINE
8
BLACK
6
CONTINUOUS
10
6.17488
20
-4.09689
11
6.17616
21
-4.0988
0
LINE
8
BLACK
6
CONTINUOUS
10
6.17616
20
-4.0988
11
6.17661
21
-4.10106
0
LINE
8
BLACK
6
CONTINUOUS
10
6.17661
20
-4.10106
11
6.17661
21
-4.11287
0
LINE
8
BLACK
6
CONTINUOUS
10
6.17661
20
-4.11287
11
6.17616
21
-4.11513
0
LINE
8
BLACK
6
CONTINUOUS
10
6.17616
20
-4.11513
11
6.17488
21
-4.11705
0
LINE
8
BLACK
6
CONTINUOUS
10
6.17488
20
-4.11705
11
6.17297
21
-4.11833
0
LINE
8
BLACK
6
CONTINUOUS
10
6.17297
20
-4.11833
11
6.17071
21
-4.11878
0
LINE
8
BLACK
6
CONTINUOUS
10
6.17071
20
-4.11878
11
6.13035
21
-4.11878
0
LINE
8
BLACK
6
CONTINUOUS
10
6.13035
20
-4.11878
11
6.12809
21
-4.11833
0
LINE
8
BLACK
6
CONTINUOUS
10
6.12809
20
-4.11833
11
6.12618
21
-4.11705
0
LINE
8
BLACK
6
CONTINUOUS
10
6.12618
20
-4.11705
11
6.1249
21
-4.11513
0
LINE
8
BLACK
6
CONTINUOUS
10
6.1249
20
-4.11513
11
6.12445
21
-4.11287
0
LINE
8
BLACK
6
CONTINUOUS
10
6.12445
20
-4.11287
11
6.12445
21
-4.10106
0
LINE
8
BLACK
6
CONTINUOUS
10
6.12445
20
-4.10106
11
6.1249
21
-4.0988
0
LINE
8
BLACK
6
CONTINUOUS
10
6.1249
20
-4.0988
11
6.12618
21
-4.09689
0
LINE
8
BLACK
6
CONTINUOUS
10
6.12618
20
-4.09689
11
6.12809
21
-4.09561
0
LINE
8
BLACK
6
CONTINUOUS
10
6.12809
20
-4.09561
11
6.13035
21
-4.09516
0
LINE
8
BLACK
6
CONTINUOUS
10
6.13035
20
-4.09516
11
6.17071
21
-4.09516
0
LINE
8
BLACK
6
CONTINUOUS
10
6.17071
20
-4.09516
11
6.17297
21
-4.09561
0
LINE
8
BLACK
6
CONTINUOUS
10
6.26254
20
-4.09561
11
6.26445
21
-4.09689
0
LINE
8
BLACK
6
CONTINUOUS
10
6.26445
20
-4.09689
11
6.26573
21
-4.0988
0
LINE
8
BLACK
6
CONTINUOUS
10
6.26573
20
-4.0988
11
6.26618
21
-4.10106
0
LINE
8
BLACK
6
CONTINUOUS
10
6.26618
20
-4.10106
11
6.26618
21
-4.11287
0
LINE
8
BLACK
6
CONTINUOUS
10
6.26618
20
-4.11287
11
6.26573
21
-4.11513
0
LINE
8
BLACK
6
CONTINUOUS
10
6.26573
20
-4.11513
11
6.26445
21
-4.11705
0
LINE
8
BLACK
6
CONTINUOUS
10
6.26445
20
-4.11705
11
6.26254
21
-4.11833
0
LINE
8
BLACK
6
CONTINUOUS
10
6.26254
20
-4.11833
11
6.26028
21
-4.11878
0
LINE
8
BLACK
6
CONTINUOUS
10
6.26028
20
-4.11878
11
6.21992
21
-4.11878
0
LINE
8
BLACK
6
CONTINUOUS
10
6.21992
20
-4.11878
11
6.21766
21
-4.11833
0
LINE
8
BLACK
6
CONTINUOUS
10
6.21766
20
-4.11833
11
6.21575
21
-4.11705
0
LINE
8
BLACK
6
CONTINUOUS
10
6.21575
20
-4.11705
11
6.21447
21
-4.11513
0
LINE
8
BLACK
6
CONTINUOUS
10
6.21447
20
-4.11513
11
6.21402
21
-4.11287
0
LINE
8
BLACK
6
CONTINUOUS
10
6.21402
20
-4.11287
11
6.21402
21
-4.10106
0
LINE
8
BLACK
6
CONTINUOUS
10
6.21402
20
-4.10106
11
6.21447
21
-4.0988
0
LINE
8
BLACK
6
CONTINUOUS
10
6.21447
20
-4.0988
11
6.21575
21
-4.09689
0
LINE
8
BLACK
6
CONTINUOUS
10
6.21575
20
-4.09689
11
6.21766
21
-4.09561
0
LINE
8
BLACK
6
CONTINUOUS
10
6.21766
20
-4.09561
11
6.21992
21
-4.09516
0
LINE
8
BLACK
6
CONTINUOUS
10
6.21992
20
-4.09516
11
6.26028
21
-4.09516
0
LINE
8
BLACK
6
CONTINUOUS
10
6.26028
20
-4.09516
11
6.26254
21
-4.09561
0
LINE
8
BLACK
6
CONTINUOUS
10
6.17297
20
-4.05821
11
6.17488
21
-4.05949
0
LINE
8
BLACK
6
CONTINUOUS
10
6.17488
20
-4.05949
11
6.17616
21
-4.0614
0
LINE
8
BLACK
6
CONTINUOUS
10
6.17616
20
-4.0614
11
6.17661
21
-4.06366
0
LINE
8
BLACK
6
CONTINUOUS
10
6.17661
20
-4.06366
11
6.17661
21
-4.07547
0
LINE
8
BLACK
6
CONTINUOUS
10
6.17661
20
-4.07547
11
6.17616
21
-4.07773
0
LINE
8
BLACK
6
CONTINUOUS
10
6.17616
20
-4.07773
11
6.17488
21
-4.07965
0
LINE
8
BLACK
6
CONTINUOUS
10
6.17488
20
-4.07965
11
6.17297
21
-4.08093
0
LINE
8
BLACK
6
CONTINUOUS
10
6.17297
20
-4.08093
11
6.17071
21
-4.08138
0
LINE
8
BLACK
6
CONTINUOUS
10
6.17071
20
-4.08138
11
6.13035
21
-4.08138
0
LINE
8
BLACK
6
CONTINUOUS
10
6.13035
20
-4.08138
11
6.12809
21
-4.08093
0
LINE
8
BLACK
6
CONTINUOUS
10
6.12809
20
-4.08093
11
6.12618
21
-4.07965
0
LINE
8
BLACK
6
CONTINUOUS
10
6.12618
20
-4.07965
11
6.1249
21
-4.07773
0
LINE
8
BLACK
6
CONTINUOUS
10
6.1249
20
-4.07773
11
6.12445
21
-4.07547
0
LINE
8
BLACK
6
CONTINUOUS
10
6.12445
20
-4.07547
11
6.12445
21
-4.06366
0
LINE
8
BLACK
6
CONTINUOUS
10
6.12445
20
-4.06366
11
6.1249
21
-4.0614
0
LINE
8
BLACK
6
CONTINUOUS
10
6.1249
20
-4.0614
11
6.12618
21
-4.05949
0
LINE
8
BLACK
6
CONTINUOUS
10
6.12618
20
-4.05949
11
6.12809
21
-4.05821
0
LINE
8
BLACK
6
CONTINUOUS
10
6.12809
20
-4.05821
11
6.13035
21
-4.05776
0
LINE
8
BLACK
6
CONTINUOUS
10
6.13035
20
-4.05776
11
6.17071
21
-4.05776
0
LINE
8
BLACK
6
CONTINUOUS
10
6.17071
20
-4.05776
11
6.17297
21
-4.05821
0
LINE
8
BLACK
6
CONTINUOUS
10
5.99674
20
-4.03579
11
5.99961
21
-4.03771
0
LINE
8
BLACK
6
CONTINUOUS
10
5.99961
20
-4.03771
11
6.00153
21
-4.04059
0
LINE
8
BLACK
6
CONTINUOUS
10
6.00153
20
-4.04059
11
6.0022
21
-4.04398
0
LINE
8
BLACK
6
CONTINUOUS
10
6.0022
20
-4.04398
11
6.0022
21
-4.06366
0
LINE
8
BLACK
6
CONTINUOUS
10
6.0022
20
-4.06366
11
6.00153
21
-4.06705
0
LINE
8
BLACK
6
CONTINUOUS
10
6.00153
20
-4.06705
11
5.99961
21
-4.06993
0
LINE
8
BLACK
6
CONTINUOUS
10
5.99961
20
-4.06993
11
5.99674
21
-4.07185
0
LINE
8
BLACK
6
CONTINUOUS
10
5.99674
20
-4.07185
11
5.99335
21
-4.07252
0
LINE
8
BLACK
6
CONTINUOUS
10
5.99335
20
-4.07252
11
5.97563
21
-4.07252
0
LINE
8
BLACK
6
CONTINUOUS
10
5.97563
20
-4.07252
11
5.97224
21
-4.07185
0
LINE
8
BLACK
6
CONTINUOUS
10
5.97224
20
-4.07185
11
5.96937
21
-4.06993
0
LINE
8
BLACK
6
CONTINUOUS
10
5.96937
20
-4.06993
11
5.96745
21
-4.06705
0
LINE
8
BLACK
6
CONTINUOUS
10
5.96745
20
-4.06705
11
5.96677
21
-4.06366
0
LINE
8
BLACK
6
CONTINUOUS
10
5.96677
20
-4.06366
11
5.96677
21
-4.04398
0
LINE
8
BLACK
6
CONTINUOUS
10
5.96677
20
-4.04398
11
5.96745
21
-4.04059
0
LINE
8
BLACK
6
CONTINUOUS
10
5.96745
20
-4.04059
11
5.96937
21
-4.03771
0
LINE
8
BLACK
6
CONTINUOUS
10
5.96937
20
-4.03771
11
5.97224
21
-4.03579
0
LINE
8
BLACK
6
CONTINUOUS
10
5.97224
20
-4.03579
11
5.97563
21
-4.03512
0
LINE
8
BLACK
6
CONTINUOUS
10
5.97563
20
-4.03512
11
5.99335
21
-4.03512
0
LINE
8
BLACK
6
CONTINUOUS
10
5.99335
20
-4.03512
11
5.99674
21
-4.03579
0
LINE
8
BLACK
6
CONTINUOUS
10
6.05776
20
-4.03579
11
6.06063
21
-4.03771
0
LINE
8
BLACK
6
CONTINUOUS
10
6.06063
20
-4.03771
11
6.06255
21
-4.04059
0
LINE
8
BLACK
6
CONTINUOUS
10
6.06255
20
-4.04059
11
6.06323
21
-4.04398
0
LINE
8
BLACK
6
CONTINUOUS
10
6.06323
20
-4.04398
11
6.06323
21
-4.06366
0
LINE
8
BLACK
6
CONTINUOUS
10
6.06323
20
-4.06366
11
6.06255
21
-4.06705
0
LINE
8
BLACK
6
CONTINUOUS
10
6.06255
20
-4.06705
11
6.06063
21
-4.06993
0
LINE
8
BLACK
6
CONTINUOUS
10
6.06063
20
-4.06993
11
6.05776
21
-4.07185
0
LINE
8
BLACK
6
CONTINUOUS
10
6.05776
20
-4.07185
11
6.05437
21
-4.07252
0
LINE
8
BLACK
6
CONTINUOUS
10
6.05437
20
-4.07252
11
6.03665
21
-4.07252
0
LINE
8
BLACK
6
CONTINUOUS
10
6.03665
20
-4.07252
11
6.03326
21
-4.07185
0
LINE
8
BLACK
6
CONTINUOUS
10
6.03326
20
-4.07185
11
6.03039
21
-4.06993
0
LINE
8
BLACK
6
CONTINUOUS
10
6.03039
20
-4.06993
11
6.02847
21
-4.06705
0
LINE
8
BLACK
6
CONTINUOUS
10
6.02847
20
-4.06705
11
6.0278
21
-4.06366
0
LINE
8
BLACK
6
CONTINUOUS
10
6.0278
20
-4.06366
11
6.0278
21
-4.04398
0
LINE
8
BLACK
6
CONTINUOUS
10
6.0278
20
-4.04398
11
6.02847
21
-4.04059
0
LINE
8
BLACK
6
CONTINUOUS
10
6.02847
20
-4.04059
11
6.03039
21
-4.03771
0
LINE
8
BLACK
6
CONTINUOUS
10
6.03039
20
-4.03771
11
6.03326
21
-4.03579
0
LINE
8
BLACK
6
CONTINUOUS
10
6.03326
20
-4.03579
11
6.03665
21
-4.03512
0
LINE
8
BLACK
6
CONTINUOUS
10
6.03665
20
-4.03512
11
6.05437
21
-4.03512
0
LINE
8
BLACK
6
CONTINUOUS
10
6.05437
20
-4.03512
11
6.05776
21
-4.03579
0
LINE
8
BLACK
6
CONTINUOUS
10
4.36715
20
-4.02938
11
4.37002
21
-4.0313
0
LINE
8
BLACK
6
CONTINUOUS
10
4.37002
20
-4.0313
11
4.37194
21
-4.03417
0
LINE
8
BLACK
6
CONTINUOUS
10
4.37194
20
-4.03417
11
4.37262
21
-4.03756
0
LINE
8
BLACK
6
CONTINUOUS
10
4.37262
20
-4.03756
11
4.37262
21
-4.05724
0
LINE
8
BLACK
6
CONTINUOUS
10
4.37262
20
-4.05724
11
4.37194
21
-4.06063
0
LINE
8
BLACK
6
CONTINUOUS
10
4.37194
20
-4.06063
11
4.37002
21
-4.06351
0
LINE
8
BLACK
6
CONTINUOUS
10
4.37002
20
-4.06351
11
4.36715
21
-4.06543
0
LINE
8
BLACK
6
CONTINUOUS
10
4.36715
20
-4.06543
11
4.36376
21
-4.0661
0
LINE
8
BLACK
6
CONTINUOUS
10
4.36376
20
-4.0661
11
4.34604
21
-4.0661
0
LINE
8
BLACK
6
CONTINUOUS
10
4.34604
20
-4.0661
11
4.34265
21
-4.06543
0
LINE
8
BLACK
6
CONTINUOUS
10
4.34265
20
-4.06543
11
4.33978
21
-4.06351
0
LINE
8
BLACK
6
CONTINUOUS
10
4.33978
20
-4.06351
11
4.33786
21
-4.06063
0
LINE
8
BLACK
6
CONTINUOUS
10
4.33786
20
-4.06063
11
4.33719
21
-4.05724
0
LINE
8
BLACK
6
CONTINUOUS
10
4.33719
20
-4.05724
11
4.33719
21
-4.03756
0
LINE
8
BLACK
6
CONTINUOUS
10
4.33719
20
-4.03756
11
4.33786
21
-4.03417
0
LINE
8
BLACK
6
CONTINUOUS
10
4.33786
20
-4.03417
11
4.33978
21
-4.0313
0
LINE
8
BLACK
6
CONTINUOUS
10
4.33978
20
-4.0313
11
4.34265
21
-4.02938
0
LINE
8
BLACK
6
CONTINUOUS
10
4.34265
20
-4.02938
11
4.34604
21
-4.0287
0
LINE
8
BLACK
6
CONTINUOUS
10
4.34604
20
-4.0287
11
4.36376
21
-4.0287
0
LINE
8
BLACK
6
CONTINUOUS
10
4.36376
20
-4.0287
11
4.36715
21
-4.02938
0
LINE
8
BLACK
6
CONTINUOUS
10
4.42817
20
-4.02938
11
4.43105
21
-4.0313
0
LINE
8
BLACK
6
CONTINUOUS
10
4.43105
20
-4.0313
11
4.43297
21
-4.03417
0
LINE
8
BLACK
6
CONTINUOUS
10
4.43297
20
-4.03417
11
4.43364
21
-4.03756
0
LINE
8
BLACK
6
CONTINUOUS
10
4.43364
20
-4.03756
11
4.43364
21
-4.05724
0
LINE
8
BLACK
6
CONTINUOUS
10
4.43364
20
-4.05724
11
4.43297
21
-4.06063
0
LINE
8
BLACK
6
CONTINUOUS
10
4.43297
20
-4.06063
11
4.43105
21
-4.06351
0
LINE
8
BLACK
6
CONTINUOUS
10
4.43105
20
-4.06351
11
4.42817
21
-4.06543
0
LINE
8
BLACK
6
CONTINUOUS
10
4.42817
20
-4.06543
11
4.42478
21
-4.0661
0
LINE
8
BLACK
6
CONTINUOUS
10
4.42478
20
-4.0661
11
4.40707
21
-4.0661
0
LINE
8
BLACK
6
CONTINUOUS
10
4.40707
20
-4.0661
11
4.40368
21
-4.06543
0
LINE
8
BLACK
6
CONTINUOUS
10
4.40368
20
-4.06543
11
4.4008
21
-4.06351
0
LINE
8
BLACK
6
CONTINUOUS
10
4.4008
20
-4.06351
11
4.39888
21
-4.06063
0
LINE
8
BLACK
6
CONTINUOUS
10
4.39888
20
-4.06063
11
4.39821
21
-4.05724
0
LINE
8
BLACK
6
CONTINUOUS
10
4.39821
20
-4.05724
11
4.39821
21
-4.03756
0
LINE
8
BLACK
6
CONTINUOUS
10
4.39821
20
-4.03756
11
4.39888
21
-4.03417
0
LINE
8
BLACK
6
CONTINUOUS
10
4.39888
20
-4.03417
11
4.4008
21
-4.0313
0
LINE
8
BLACK
6
CONTINUOUS
10
4.4008
20
-4.0313
11
4.40368
21
-4.02938
0
LINE
8
BLACK
6
CONTINUOUS
10
4.40368
20
-4.02938
11
4.40707
21
-4.0287
0
LINE
8
BLACK
6
CONTINUOUS
10
4.40707
20
-4.0287
11
4.42478
21
-4.0287
0
LINE
8
BLACK
6
CONTINUOUS
10
4.42478
20
-4.0287
11
4.42817
21
-4.02938
0
LINE
8
BLACK
6
CONTINUOUS
10
4.52169
20
-4.0293
11
4.52425
21
-4.03101
0
LINE
8
BLACK
6
CONTINUOUS
10
4.52425
20
-4.03101
11
4.52596
21
-4.03356
0
LINE
8
BLACK
6
CONTINUOUS
10
4.52596
20
-4.03356
11
4.52656
21
-4.03657
0
LINE
8
BLACK
6
CONTINUOUS
10
4.52656
20
-4.03657
11
4.52656
21
-4.05823
0
LINE
8
BLACK
6
CONTINUOUS
10
4.52656
20
-4.05823
11
4.52596
21
-4.06124
0
LINE
8
BLACK
6
CONTINUOUS
10
4.52596
20
-4.06124
11
4.52425
21
-4.0638
0
LINE
8
BLACK
6
CONTINUOUS
10
4.52425
20
-4.0638
11
4.52169
21
-4.0655
0
LINE
8
BLACK
6
CONTINUOUS
10
4.52169
20
-4.0655
11
4.51868
21
-4.0661
0
LINE
8
BLACK
6
CONTINUOUS
10
4.51868
20
-4.0661
11
4.50293
21
-4.0661
0
LINE
8
BLACK
6
CONTINUOUS
10
4.50293
20
-4.0661
11
4.49992
21
-4.0655
0
LINE
8
BLACK
6
CONTINUOUS
10
4.49992
20
-4.0655
11
4.49737
21
-4.0638
0
LINE
8
BLACK
6
CONTINUOUS
10
4.49737
20
-4.0638
11
4.49566
21
-4.06124
0
LINE
8
BLACK
6
CONTINUOUS
10
4.49566
20
-4.06124
11
4.49506
21
-4.05823
0
LINE
8
BLACK
6
CONTINUOUS
10
4.49506
20
-4.05823
11
4.49506
21
-4.03657
0
LINE
8
BLACK
6
CONTINUOUS
10
4.49506
20
-4.03657
11
4.49566
21
-4.03356
0
LINE
8
BLACK
6
CONTINUOUS
10
4.49566
20
-4.03356
11
4.49737
21
-4.03101
0
LINE
8
BLACK
6
CONTINUOUS
10
4.49737
20
-4.03101
11
4.49992
21
-4.0293
0
LINE
8
BLACK
6
CONTINUOUS
10
4.49992
20
-4.0293
11
4.50293
21
-4.0287
0
LINE
8
BLACK
6
CONTINUOUS
10
4.50293
20
-4.0287
11
4.51868
21
-4.0287
0
LINE
8
BLACK
6
CONTINUOUS
10
4.51868
20
-4.0287
11
4.52169
21
-4.0293
0
LINE
8
BLACK
6
CONTINUOUS
10
4.58665
20
-4.0293
11
4.58921
21
-4.03101
0
LINE
8
BLACK
6
CONTINUOUS
10
4.58921
20
-4.03101
11
4.59092
21
-4.03356
0
LINE
8
BLACK
6
CONTINUOUS
10
4.59092
20
-4.03356
11
4.59152
21
-4.03657
0
LINE
8
BLACK
6
CONTINUOUS
10
4.59152
20
-4.03657
11
4.59152
21
-4.05823
0
LINE
8
BLACK
6
CONTINUOUS
10
4.59152
20
-4.05823
11
4.59092
21
-4.06124
0
LINE
8
BLACK
6
CONTINUOUS
10
4.59092
20
-4.06124
11
4.58921
21
-4.0638
0
LINE
8
BLACK
6
CONTINUOUS
10
4.58921
20
-4.0638
11
4.58665
21
-4.0655
0
LINE
8
BLACK
6
CONTINUOUS
10
4.58665
20
-4.0655
11
4.58364
21
-4.0661
0
LINE
8
BLACK
6
CONTINUOUS
10
4.58364
20
-4.0661
11
4.56789
21
-4.0661
0
LINE
8
BLACK
6
CONTINUOUS
10
4.56789
20
-4.0661
11
4.56488
21
-4.0655
0
LINE
8
BLACK
6
CONTINUOUS
10
4.56488
20
-4.0655
11
4.56233
21
-4.0638
0
LINE
8
BLACK
6
CONTINUOUS
10
4.56233
20
-4.0638
11
4.56062
21
-4.06124
0
LINE
8
BLACK
6
CONTINUOUS
10
4.56062
20
-4.06124
11
4.56002
21
-4.05823
0
LINE
8
BLACK
6
CONTINUOUS
10
4.56002
20
-4.05823
11
4.56002
21
-4.03657
0
LINE
8
BLACK
6
CONTINUOUS
10
4.56002
20
-4.03657
11
4.56062
21
-4.03356
0
LINE
8
BLACK
6
CONTINUOUS
10
4.56062
20
-4.03356
11
4.56233
21
-4.03101
0
LINE
8
BLACK
6
CONTINUOUS
10
4.56233
20
-4.03101
11
4.56488
21
-4.0293
0
LINE
8
BLACK
6
CONTINUOUS
10
4.56488
20
-4.0293
11
4.56789
21
-4.0287
0
LINE
8
BLACK
6
CONTINUOUS
10
4.56789
20
-4.0287
11
4.58364
21
-4.0287
0
LINE
8
BLACK
6
CONTINUOUS
10
4.58364
20
-4.0287
11
4.58665
21
-4.0293
0
LINE
8
BLACK
6
CONTINUOUS
10
6.17297
20
-4.0208
11
6.17488
21
-4.02208
0
LINE
8
BLACK
6
CONTINUOUS
10
6.17488
20
-4.02208
11
6.17616
21
-4.024
0
LINE
8
BLACK
6
CONTINUOUS
10
6.17616
20
-4.024
11
6.17661
21
-4.02626
0
LINE
8
BLACK
6
CONTINUOUS
10
6.17661
20
-4.02626
11
6.17661
21
-4.03807
0
LINE
8
BLACK
6
CONTINUOUS
10
6.17661
20
-4.03807
11
6.17616
21
-4.04033
0
LINE
8
BLACK
6
CONTINUOUS
10
6.17616
20
-4.04033
11
6.17488
21
-4.04225
0
LINE
8
BLACK
6
CONTINUOUS
10
6.17488
20
-4.04225
11
6.17297
21
-4.04353
0
LINE
8
BLACK
6
CONTINUOUS
10
6.17297
20
-4.04353
11
6.17071
21
-4.04398
0
LINE
8
BLACK
6
CONTINUOUS
10
6.17071
20
-4.04398
11
6.13035
21
-4.04398
0
LINE
8
BLACK
6
CONTINUOUS
10
6.13035
20
-4.04398
11
6.12809
21
-4.04353
0
LINE
8
BLACK
6
CONTINUOUS
10
6.12809
20
-4.04353
11
6.12618
21
-4.04225
0
LINE
8
BLACK
6
CONTINUOUS
10
6.12618
20
-4.04225
11
6.1249
21
-4.04033
0
LINE
8
BLACK
6
CONTINUOUS
10
6.1249
20
-4.04033
11
6.12445
21
-4.03807
0
LINE
8
BLACK
6
CONTINUOUS
10
6.12445
20
-4.03807
11
6.12445
21
-4.02626
0
LINE
8
BLACK
6
CONTINUOUS
10
6.12445
20
-4.02626
11
6.1249
21
-4.024
0
LINE
8
BLACK
6
CONTINUOUS
10
6.1249
20
-4.024
11
6.12618
21
-4.02208
0
LINE
8
BLACK
6
CONTINUOUS
10
6.12618
20
-4.02208
11
6.12809
21
-4.0208
0
LINE
8
BLACK
6
CONTINUOUS
10
6.12809
20
-4.0208
11
6.13035
21
-4.02035
0
LINE
8
BLACK
6
CONTINUOUS
10
6.13035
20
-4.02035
11
6.17071
21
-4.02035
0
LINE
8
BLACK
6
CONTINUOUS
10
6.17071
20
-4.02035
11
6.17297
21
-4.0208
0
LINE
8
BLACK
6
CONTINUOUS
10
6.26254
20
-4.0208
11
6.26445
21
-4.02208
0
LINE
8
BLACK
6
CONTINUOUS
10
6.26445
20
-4.02208
11
6.26573
21
-4.024
0
LINE
8
BLACK
6
CONTINUOUS
10
6.26573
20
-4.024
11
6.26618
21
-4.02626
0
LINE
8
BLACK
6
CONTINUOUS
10
6.26618
20
-4.02626
11
6.26618
21
-4.03807
0
LINE
8
BLACK
6
CONTINUOUS
10
6.26618
20
-4.03807
11
6.26573
21
-4.04033
0
LINE
8
BLACK
6
CONTINUOUS
10
6.26573
20
-4.04033
11
6.26445
21
-4.04225
0
LINE
8
BLACK
6
CONTINUOUS
10
6.26445
20
-4.04225
11
6.26254
21
-4.04353
0
LINE
8
BLACK
6
CONTINUOUS
10
6.26254
20
-4.04353
11
6.26028
21
-4.04398
0
LINE
8
BLACK
6
CONTINUOUS
10
6.26028
20
-4.04398
11
6.21992
21
-4.04398
0
LINE
8
BLACK
6
CONTINUOUS
10
6.21992
20
-4.04398
11
6.21766
21
-4.04353
0
LINE
8
BLACK
6
CONTINUOUS
10
6.21766
20
-4.04353
11
6.21575
21
-4.04225
0
LINE
8
BLACK
6
CONTINUOUS
10
6.21575
20
-4.04225
11
6.21447
21
-4.04033
0
LINE
8
BLACK
6
CONTINUOUS
10
6.21447
20
-4.04033
11
6.21402
21
-4.03807
0
LINE
8
BLACK
6
CONTINUOUS
10
6.21402
20
-4.03807
11
6.21402
21
-4.02626
0
LINE
8
BLACK
6
CONTINUOUS
10
6.21402
20
-4.02626
11
6.21447
21
-4.024
0
LINE
8
BLACK
6
CONTINUOUS
10
6.21447
20
-4.024
11
6.21575
21
-4.02208
0
LINE
8
BLACK
6
CONTINUOUS
10
6.21575
20
-4.02208
11
6.21766
21
-4.0208
0
LINE
8
BLACK
6
CONTINUOUS
10
6.21766
20
-4.0208
11
6.21992
21
-4.02035
0
LINE
8
BLACK
6
CONTINUOUS
10
6.21992
20
-4.02035
11
6.26028
21
-4.02035
0
LINE
8
BLACK
6
CONTINUOUS
10
6.26028
20
-4.02035
11
6.26254
21
-4.0208
0
LINE
8
BLACK
6
CONTINUOUS
10
4.68075
20
-4.02382
11
4.64925
21
-4.02382
0
LINE
8
BLACK
6
CONTINUOUS
10
4.64925
20
-4.02382
11
4.64925
21
-3.94508
0
LINE
8
BLACK
6
CONTINUOUS
10
4.64925
20
-3.94508
11
4.68075
21
-3.94508
0
LINE
8
BLACK
6
CONTINUOUS
10
4.68075
20
-3.94508
11
4.68075
21
-4.02382
0
LINE
8
BLACK
6
CONTINUOUS
10
4.84575
20
-4.02382
11
4.81425
21
-4.02382
0
LINE
8
BLACK
6
CONTINUOUS
10
4.81425
20
-4.02382
11
4.81425
21
-3.94508
0
LINE
8
BLACK
6
CONTINUOUS
10
4.81425
20
-3.94508
11
4.84575
21
-3.94508
0
LINE
8
BLACK
6
CONTINUOUS
10
4.84575
20
-3.94508
11
4.84575
21
-4.02382
0
LINE
8
BLACK
6
CONTINUOUS
10
5.99674
20
-3.93697
11
5.99961
21
-3.93889
0
LINE
8
BLACK
6
CONTINUOUS
10
5.99961
20
-3.93889
11
6.00153
21
-3.94177
0
LINE
8
BLACK
6
CONTINUOUS
10
6.00153
20
-3.94177
11
6.0022
21
-3.94516
0
LINE
8
BLACK
6
CONTINUOUS
10
6.0022
20
-3.94516
11
6.0022
21
-3.96484
0
LINE
8
BLACK
6
CONTINUOUS
10
6.0022
20
-3.96484
11
6.00153
21
-3.96823
0
LINE
8
BLACK
6
CONTINUOUS
10
6.00153
20
-3.96823
11
5.99961
21
-3.97111
0
LINE
8
BLACK
6
CONTINUOUS
10
5.99961
20
-3.97111
11
5.99674
21
-3.97303
0
LINE
8
BLACK
6
CONTINUOUS
10
5.99674
20
-3.97303
11
5.99335
21
-3.9737
0
LINE
8
BLACK
6
CONTINUOUS
10
5.99335
20
-3.9737
11
5.97563
21
-3.9737
0
LINE
8
BLACK
6
CONTINUOUS
10
5.97563
20
-3.9737
11
5.97224
21
-3.97303
0
LINE
8
BLACK
6
CONTINUOUS
10
5.97224
20
-3.97303
11
5.96937
21
-3.97111
0
LINE
8
BLACK
6
CONTINUOUS
10
5.96937
20
-3.97111
11
5.96745
21
-3.96823
0
LINE
8
BLACK
6
CONTINUOUS
10
5.96745
20
-3.96823
11
5.96677
21
-3.96484
0
LINE
8
BLACK
6
CONTINUOUS
10
5.96677
20
-3.96484
11
5.96677
21
-3.94516
0
LINE
8
BLACK
6
CONTINUOUS
10
5.96677
20
-3.94516
11
5.96745
21
-3.94177
0
LINE
8
BLACK
6
CONTINUOUS
10
5.96745
20
-3.94177
11
5.96937
21
-3.93889
0
LINE
8
BLACK
6
CONTINUOUS
10
5.96937
20
-3.93889
11
5.97224
21
-3.93697
0
LINE
8
BLACK
6
CONTINUOUS
10
5.97224
20
-3.93697
11
5.97563
21
-3.9363
0
LINE
8
BLACK
6
CONTINUOUS
10
5.97563
20
-3.9363
11
5.99335
21
-3.9363
0
LINE
8
BLACK
6
CONTINUOUS
10
5.99335
20
-3.9363
11
5.99674
21
-3.93697
0
LINE
8
BLACK
6
CONTINUOUS
10
6.05776
20
-3.93697
11
6.06063
21
-3.93889
0
LINE
8
BLACK
6
CONTINUOUS
10
6.06063
20
-3.93889
11
6.06255
21
-3.94177
0
LINE
8
BLACK
6
CONTINUOUS
10
6.06255
20
-3.94177
11
6.06323
21
-3.94516
0
LINE
8
BLACK
6
CONTINUOUS
10
6.06323
20
-3.94516
11
6.06323
21
-3.96484
0
LINE
8
BLACK
6
CONTINUOUS
10
6.06323
20
-3.96484
11
6.06255
21
-3.96823
0
LINE
8
BLACK
6
CONTINUOUS
10
6.06255
20
-3.96823
11
6.06063
21
-3.97111
0
LINE
8
BLACK
6
CONTINUOUS
10
6.06063
20
-3.97111
11
6.05776
21
-3.97303
0
LINE
8
BLACK
6
CONTINUOUS
10
6.05776
20
-3.97303
11
6.05437
21
-3.9737
0
LINE
8
BLACK
6
CONTINUOUS
10
6.05437
20
-3.9737
11
6.03665
21
-3.9737
0
LINE
8
BLACK
6
CONTINUOUS
10
6.03665
20
-3.9737
11
6.03326
21
-3.97303
0
LINE
8
BLACK
6
CONTINUOUS
10
6.03326
20
-3.97303
11
6.03039
21
-3.97111
0
LINE
8
BLACK
6
CONTINUOUS
10
6.03039
20
-3.97111
11
6.02847
21
-3.96823
0
LINE
8
BLACK
6
CONTINUOUS
10
6.02847
20
-3.96823
11
6.0278
21
-3.96484
0
LINE
8
BLACK
6
CONTINUOUS
10
6.0278
20
-3.96484
11
6.0278
21
-3.94516
0
LINE
8
BLACK
6
CONTINUOUS
10
6.0278
20
-3.94516
11
6.02847
21
-3.94177
0
LINE
8
BLACK
6
CONTINUOUS
10
6.02847
20
-3.94177
11
6.03039
21
-3.93889
0
LINE
8
BLACK
6
CONTINUOUS
10
6.03039
20
-3.93889
11
6.03326
21
-3.93697
0
LINE
8
BLACK
6
CONTINUOUS
10
6.03326
20
-3.93697
11
6.03665
21
-3.9363
0
LINE
8
BLACK
6
CONTINUOUS
10
6.03665
20
-3.9363
11
6.05437
21
-3.9363
0
LINE
8
BLACK
6
CONTINUOUS
10
6.05437
20
-3.9363
11
6.05776
21
-3.93697
0
LINE
8
BLACK
6
CONTINUOUS
10
4.36715
20
-3.93056
11
4.37002
21
-3.93248
0
LINE
8
BLACK
6
CONTINUOUS
10
4.37002
20
-3.93248
11
4.37194
21
-3.93535
0
LINE
8
BLACK
6
CONTINUOUS
10
4.37194
20
-3.93535
11
4.37262
21
-3.93874
0
LINE
8
BLACK
6
CONTINUOUS
10
4.37262
20
-3.93874
11
4.37262
21
-3.95843
0
LINE
8
BLACK
6
CONTINUOUS
10
4.37262
20
-3.95843
11
4.37194
21
-3.96182
0
LINE
8
BLACK
6
CONTINUOUS
10
4.37194
20
-3.96182
11
4.37002
21
-3.96469
0
LINE
8
BLACK
6
CONTINUOUS
10
4.37002
20
-3.96469
11
4.36715
21
-3.96661
0
LINE
8
BLACK
6
CONTINUOUS
10
4.36715
20
-3.96661
11
4.36376
21
-3.96728
0
LINE
8
BLACK
6
CONTINUOUS
10
4.36376
20
-3.96728
11
4.34604
21
-3.96728
0
LINE
8
BLACK
6
CONTINUOUS
10
4.34604
20
-3.96728
11
4.34265
21
-3.96661
0
LINE
8
BLACK
6
CONTINUOUS
10
4.34265
20
-3.96661
11
4.33978
21
-3.96469
0
LINE
8
BLACK
6
CONTINUOUS
10
4.33978
20
-3.96469
11
4.33786
21
-3.96182
0
LINE
8
BLACK
6
CONTINUOUS
10
4.33786
20
-3.96182
11
4.33719
21
-3.95843
0
LINE
8
BLACK
6
CONTINUOUS
10
4.33719
20
-3.95843
11
4.33719
21
-3.93874
0
LINE
8
BLACK
6
CONTINUOUS
10
4.33719
20
-3.93874
11
4.33786
21
-3.93535
0
LINE
8
BLACK
6
CONTINUOUS
10
4.33786
20
-3.93535
11
4.33978
21
-3.93248
0
LINE
8
BLACK
6
CONTINUOUS
10
4.33978
20
-3.93248
11
4.34265
21
-3.93056
0
LINE
8
BLACK
6
CONTINUOUS
10
4.34265
20
-3.93056
11
4.34604
21
-3.92988
0
LINE
8
BLACK
6
CONTINUOUS
10
4.34604
20
-3.92988
11
4.36376
21
-3.92988
0
LINE
8
BLACK
6
CONTINUOUS
10
4.36376
20
-3.92988
11
4.36715
21
-3.93056
0
LINE
8
BLACK
6
CONTINUOUS
10
4.42817
20
-3.93056
11
4.43105
21
-3.93248
0
LINE
8
BLACK
6
CONTINUOUS
10
4.43105
20
-3.93248
11
4.43297
21
-3.93535
0
LINE
8
BLACK
6
CONTINUOUS
10
4.43297
20
-3.93535
11
4.43364
21
-3.93874
0
LINE
8
BLACK
6
CONTINUOUS
10
4.43364
20
-3.93874
11
4.43364
21
-3.95843
0
LINE
8
BLACK
6
CONTINUOUS
10
4.43364
20
-3.95843
11
4.43297
21
-3.96182
0
LINE
8
BLACK
6
CONTINUOUS
10
4.43297
20
-3.96182
11
4.43105
21
-3.96469
0
LINE
8
BLACK
6
CONTINUOUS
10
4.43105
20
-3.96469
11
4.42817
21
-3.96661
0
LINE
8
BLACK
6
CONTINUOUS
10
4.42817
20
-3.96661
11
4.42478
21
-3.96728
0
LINE
8
BLACK
6
CONTINUOUS
10
4.42478
20
-3.96728
11
4.40707
21
-3.96728
0
LINE
8
BLACK
6
CONTINUOUS
10
4.40707
20
-3.96728
11
4.40368
21
-3.96661
0
LINE
8
BLACK
6
CONTINUOUS
10
4.40368
20
-3.96661
11
4.4008
21
-3.96469
0
LINE
8
BLACK
6
CONTINUOUS
10
4.4008
20
-3.96469
11
4.39888
21
-3.96182
0
LINE
8
BLACK
6
CONTINUOUS
10
4.39888
20
-3.96182
11
4.39821
21
-3.95843
0
LINE
8
BLACK
6
CONTINUOUS
10
4.39821
20
-3.95843
11
4.39821
21
-3.93874
0
LINE
8
BLACK
6
CONTINUOUS
10
4.39821
20
-3.93874
11
4.39888
21
-3.93535
0
LINE
8
BLACK
6
CONTINUOUS
10
4.39888
20
-3.93535
11
4.4008
21
-3.93248
0
LINE
8
BLACK
6
CONTINUOUS
10
4.4008
20
-3.93248
11
4.40368
21
-3.93056
0
LINE
8
BLACK
6
CONTINUOUS
10
4.40368
20
-3.93056
11
4.40707
21
-3.92988
0
LINE
8
BLACK
6
CONTINUOUS
10
4.40707
20
-3.92988
11
4.42478
21
-3.92988
0
LINE
8
BLACK
6
CONTINUOUS
10
4.42478
20
-3.92988
11
4.42817
21
-3.93056
0
LINE
8
BLACK
6
CONTINUOUS
10
4.52169
20
-3.93048
11
4.52425
21
-3.93219
0
LINE
8
BLACK
6
CONTINUOUS
10
4.52425
20
-3.93219
11
4.52596
21
-3.93474
0
LINE
8
BLACK
6
CONTINUOUS
10
4.52596
20
-3.93474
11
4.52656
21
-3.93776
0
LINE
8
BLACK
6
CONTINUOUS
10
4.52656
20
-3.93776
11
4.52656
21
-3.95941
0
LINE
8
BLACK
6
CONTINUOUS
10
4.52656
20
-3.95941
11
4.52596
21
-3.96242
0
LINE
8
BLACK
6
CONTINUOUS
10
4.52596
20
-3.96242
11
4.52425
21
-3.96498
0
LINE
8
BLACK
6
CONTINUOUS
10
4.52425
20
-3.96498
11
4.52169
21
-3.96668
0
LINE
8
BLACK
6
CONTINUOUS
10
4.52169
20
-3.96668
11
4.51868
21
-3.96728
0
LINE
8
BLACK
6
CONTINUOUS
10
4.51868
20
-3.96728
11
4.50293
21
-3.96728
0
LINE
8
BLACK
6
CONTINUOUS
10
4.50293
20
-3.96728
11
4.49992
21
-3.96668
0
LINE
8
BLACK
6
CONTINUOUS
10
4.49992
20
-3.96668
11
4.49737
21
-3.96498
0
LINE
8
BLACK
6
CONTINUOUS
10
4.49737
20
-3.96498
11
4.49566
21
-3.96242
0
LINE
8
BLACK
6
CONTINUOUS
10
4.49566
20
-3.96242
11
4.49506
21
-3.95941
0
LINE
8
BLACK
6
CONTINUOUS
10
4.49506
20
-3.95941
11
4.49506
21
-3.93776
0
LINE
8
BLACK
6
CONTINUOUS
10
4.49506
20
-3.93776
11
4.49566
21
-3.93474
0
LINE
8
BLACK
6
CONTINUOUS
10
4.49566
20
-3.93474
11
4.49737
21
-3.93219
0
LINE
8
BLACK
6
CONTINUOUS
10
4.49737
20
-3.93219
11
4.49992
21
-3.93048
0
LINE
8
BLACK
6
CONTINUOUS
10
4.49992
20
-3.93048
11
4.50293
21
-3.92988
0
LINE
8
BLACK
6
CONTINUOUS
10
4.50293
20
-3.92988
11
4.51868
21
-3.92988
0
LINE
8
BLACK
6
CONTINUOUS
10
4.51868
20
-3.92988
11
4.52169
21
-3.93048
0
LINE
8
BLACK
6
CONTINUOUS
10
4.58665
20
-3.93048
11
4.58921
21
-3.93219
0
LINE
8
BLACK
6
CONTINUOUS
10
4.58921
20
-3.93219
11
4.59092
21
-3.93474
0
LINE
8
BLACK
6
CONTINUOUS
10
4.59092
20
-3.93474
11
4.59152
21
-3.93776
0
LINE
8
BLACK
6
CONTINUOUS
10
4.59152
20
-3.93776
11
4.59152
21
-3.95941
0
LINE
8
BLACK
6
CONTINUOUS
10
4.59152
20
-3.95941
11
4.59092
21
-3.96242
0
LINE
8
BLACK
6
CONTINUOUS
10
4.59092
20
-3.96242
11
4.58921
21
-3.96498
0
LINE
8
BLACK
6
CONTINUOUS
10
4.58921
20
-3.96498
11
4.58665
21
-3.96668
0
LINE
8
BLACK
6
CONTINUOUS
10
4.58665
20
-3.96668
11
4.58364
21
-3.96728
0
LINE
8
BLACK
6
CONTINUOUS
10
4.58364
20
-3.96728
11
4.56789
21
-3.96728
0
LINE
8
BLACK
6
CONTINUOUS
10
4.56789
20
-3.96728
11
4.56488
21
-3.96668
0
LINE
8
BLACK
6
CONTINUOUS
10
4.56488
20
-3.96668
11
4.56233
21
-3.96498
0
LINE
8
BLACK
6
CONTINUOUS
10
4.56233
20
-3.96498
11
4.56062
21
-3.96242
0
LINE
8
BLACK
6
CONTINUOUS
10
4.56062
20
-3.96242
11
4.56002
21
-3.95941
0
LINE
8
BLACK
6
CONTINUOUS
10
4.56002
20
-3.95941
11
4.56002
21
-3.93776
0
LINE
8
BLACK
6
CONTINUOUS
10
4.56002
20
-3.93776
11
4.56062
21
-3.93474
0
LINE
8
BLACK
6
CONTINUOUS
10
4.56062
20
-3.93474
11
4.56233
21
-3.93219
0
LINE
8
BLACK
6
CONTINUOUS
10
4.56233
20
-3.93219
11
4.56488
21
-3.93048
0
LINE
8
BLACK
6
CONTINUOUS
10
4.56488
20
-3.93048
11
4.56789
21
-3.92988
0
LINE
8
BLACK
6
CONTINUOUS
10
4.56789
20
-3.92988
11
4.58364
21
-3.92988
0
LINE
8
BLACK
6
CONTINUOUS
10
4.58364
20
-3.92988
11
4.58665
21
-3.93048
0
LINE
8
BLACK
6
CONTINUOUS
10
6.17297
20
-3.92041
11
6.17488
21
-3.92169
0
LINE
8
BLACK
6
CONTINUOUS
10
6.17488
20
-3.92169
11
6.17616
21
-3.92361
0
LINE
8
BLACK
6
CONTINUOUS
10
6.17616
20
-3.92361
11
6.17661
21
-3.92587
0
LINE
8
BLACK
6
CONTINUOUS
10
6.17661
20
-3.92587
11
6.17661
21
-3.93768
0
LINE
8
BLACK
6
CONTINUOUS
10
6.17661
20
-3.93768
11
6.17616
21
-3.93994
0
LINE
8
BLACK
6
CONTINUOUS
10
6.17616
20
-3.93994
11
6.17488
21
-3.94185
0
LINE
8
BLACK
6
CONTINUOUS
10
6.17488
20
-3.94185
11
6.17297
21
-3.94313
0
LINE
8
BLACK
6
CONTINUOUS
10
6.17297
20
-3.94313
11
6.17071
21
-3.94358
0
LINE
8
BLACK
6
CONTINUOUS
10
6.17071
20
-3.94358
11
6.13035
21
-3.94358
0
LINE
8
BLACK
6
CONTINUOUS
10
6.13035
20
-3.94358
11
6.12809
21
-3.94313
0
LINE
8
BLACK
6
CONTINUOUS
10
6.12809
20
-3.94313
11
6.12618
21
-3.94185
0
LINE
8
BLACK
6
CONTINUOUS
10
6.12618
20
-3.94185
11
6.1249
21
-3.93994
0
LINE
8
BLACK
6
CONTINUOUS
10
6.1249
20
-3.93994
11
6.12445
21
-3.93768
0
LINE
8
BLACK
6
CONTINUOUS
10
6.12445
20
-3.93768
11
6.12445
21
-3.92587
0
LINE
8
BLACK
6
CONTINUOUS
10
6.12445
20
-3.92587
11
6.1249
21
-3.92361
0
LINE
8
BLACK
6
CONTINUOUS
10
6.1249
20
-3.92361
11
6.12618
21
-3.92169
0
LINE
8
BLACK
6
CONTINUOUS
10
6.12618
20
-3.92169
11
6.12809
21
-3.92041
0
LINE
8
BLACK
6
CONTINUOUS
10
6.12809
20
-3.92041
11
6.13035
21
-3.91996
0
LINE
8
BLACK
6
CONTINUOUS
10
6.13035
20
-3.91996
11
6.17071
21
-3.91996
0
LINE
8
BLACK
6
CONTINUOUS
10
6.17071
20
-3.91996
11
6.17297
21
-3.92041
0
LINE
8
BLACK
6
CONTINUOUS
10
6.26254
20
-3.92041
11
6.26445
21
-3.92169
0
LINE
8
BLACK
6
CONTINUOUS
10
6.26445
20
-3.92169
11
6.26573
21
-3.92361
0
LINE
8
BLACK
6
CONTINUOUS
10
6.26573
20
-3.92361
11
6.26618
21
-3.92587
0
LINE
8
BLACK
6
CONTINUOUS
10
6.26618
20
-3.92587
11
6.26618
21
-3.93768
0
LINE
8
BLACK
6
CONTINUOUS
10
6.26618
20
-3.93768
11
6.26573
21
-3.93994
0
LINE
8
BLACK
6
CONTINUOUS
10
6.26573
20
-3.93994
11
6.26445
21
-3.94185
0
LINE
8
BLACK
6
CONTINUOUS
10
6.26445
20
-3.94185
11
6.26254
21
-3.94313
0
LINE
8
BLACK
6
CONTINUOUS
10
6.26254
20
-3.94313
11
6.26028
21
-3.94358
0
LINE
8
BLACK
6
CONTINUOUS
10
6.26028
20
-3.94358
11
6.21992
21
-3.94358
0
LINE
8
BLACK
6
CONTINUOUS
10
6.21992
20
-3.94358
11
6.21766
21
-3.94313
0
LINE
8
BLACK
6
CONTINUOUS
10
6.21766
20
-3.94313
11
6.21575
21
-3.94185
0
LINE
8
BLACK
6
CONTINUOUS
10
6.21575
20
-3.94185
11
6.21447
21
-3.93994
0
LINE
8
BLACK
6
CONTINUOUS
10
6.21447
20
-3.93994
11
6.21402
21
-3.93768
0
LINE
8
BLACK
6
CONTINUOUS
10
6.21402
20
-3.93768
11
6.21402
21
-3.92587
0
LINE
8
BLACK
6
CONTINUOUS
10
6.21402
20
-3.92587
11
6.21447
21
-3.92361
0
LINE
8
BLACK
6
CONTINUOUS
10
6.21447
20
-3.92361
11
6.21575
21
-3.92169
0
LINE
8
BLACK
6
CONTINUOUS
10
6.21575
20
-3.92169
11
6.21766
21
-3.92041
0
LINE
8
BLACK
6
CONTINUOUS
10
6.21766
20
-3.92041
11
6.21992
21
-3.91996
0
LINE
8
BLACK
6
CONTINUOUS
10
6.21992
20
-3.91996
11
6.26028
21
-3.91996
0
LINE
8
BLACK
6
CONTINUOUS
10
6.26028
20
-3.91996
11
6.26254
21
-3.92041
0
LINE
8
BLACK
6
CONTINUOUS
10
6.17297
20
-3.88301
11
6.17488
21
-3.88429
0
LINE
8
BLACK
6
CONTINUOUS
10
6.17488
20
-3.88429
11
6.17616
21
-3.8862
0
LINE
8
BLACK
6
CONTINUOUS
10
6.17616
20
-3.8862
11
6.17661
21
-3.88846
0
LINE
8
BLACK
6
CONTINUOUS
10
6.17661
20
-3.88846
11
6.17661
21
-3.90028
0
LINE
8
BLACK
6
CONTINUOUS
10
6.17661
20
-3.90028
11
6.17616
21
-3.90254
0
LINE
8
BLACK
6
CONTINUOUS
10
6.17616
20
-3.90254
11
6.17488
21
-3.90445
0
LINE
8
BLACK
6
CONTINUOUS
10
6.17488
20
-3.90445
11
6.17297
21
-3.90573
0
LINE
8
BLACK
6
CONTINUOUS
10
6.17297
20
-3.90573
11
6.17071
21
-3.90618
0
LINE
8
BLACK
6
CONTINUOUS
10
6.17071
20
-3.90618
11
6.13035
21
-3.90618
0
LINE
8
BLACK
6
CONTINUOUS
10
6.13035
20
-3.90618
11
6.12809
21
-3.90573
0
LINE
8
BLACK
6
CONTINUOUS
10
6.12809
20
-3.90573
11
6.12618
21
-3.90445
0
LINE
8
BLACK
6
CONTINUOUS
10
6.12618
20
-3.90445
11
6.1249
21
-3.90254
0
LINE
8
BLACK
6
CONTINUOUS
10
6.1249
20
-3.90254
11
6.12445
21
-3.90028
0
LINE
8
BLACK
6
CONTINUOUS
10
6.12445
20
-3.90028
11
6.12445
21
-3.88846
0
LINE
8
BLACK
6
CONTINUOUS
10
6.12445
20
-3.88846
11
6.1249
21
-3.8862
0
LINE
8
BLACK
6
CONTINUOUS
10
6.1249
20
-3.8862
11
6.12618
21
-3.88429
0
LINE
8
BLACK
6
CONTINUOUS
10
6.12618
20
-3.88429
11
6.12809
21
-3.88301
0
LINE
8
BLACK
6
CONTINUOUS
10
6.12809
20
-3.88301
11
6.13035
21
-3.88256
0
LINE
8
BLACK
6
CONTINUOUS
10
6.13035
20
-3.88256
11
6.17071
21
-3.88256
0
LINE
8
BLACK
6
CONTINUOUS
10
6.17071
20
-3.88256
11
6.17297
21
-3.88301
0
LINE
8
BLACK
6
CONTINUOUS
10
5.99674
20
-3.83815
11
5.99961
21
-3.84007
0
LINE
8
BLACK
6
CONTINUOUS
10
5.99961
20
-3.84007
11
6.00153
21
-3.84295
0
LINE
8
BLACK
6
CONTINUOUS
10
6.00153
20
-3.84295
11
6.0022
21
-3.84634
0
LINE
8
BLACK
6
CONTINUOUS
10
6.0022
20
-3.84634
11
6.0022
21
-3.86602
0
LINE
8
BLACK
6
CONTINUOUS
10
6.0022
20
-3.86602
11
6.00153
21
-3.86941
0
LINE
8
BLACK
6
CONTINUOUS
10
6.00153
20
-3.86941
11
5.99961
21
-3.87229
0
LINE
8
BLACK
6
CONTINUOUS
10
5.99961
20
-3.87229
11
5.99674
21
-3.87421
0
LINE
8
BLACK
6
CONTINUOUS
10
5.99674
20
-3.87421
11
5.99335
21
-3.87488
0
LINE
8
BLACK
6
CONTINUOUS
10
5.99335
20
-3.87488
11
5.97563
21
-3.87488
0
LINE
8
BLACK
6
CONTINUOUS
10
5.97563
20
-3.87488
11
5.97224
21
-3.87421
0
LINE
8
BLACK
6
CONTINUOUS
10
5.97224
20
-3.87421
11
5.96937
21
-3.87229
0
LINE
8
BLACK
6
CONTINUOUS
10
5.96937
20
-3.87229
11
5.96745
21
-3.86941
0
LINE
8
BLACK
6
CONTINUOUS
10
5.96745
20
-3.86941
11
5.96677
21
-3.86602
0
LINE
8
BLACK
6
CONTINUOUS
10
5.96677
20
-3.86602
11
5.96677
21
-3.84634
0
LINE
8
BLACK
6
CONTINUOUS
10
5.96677
20
-3.84634
11
5.96745
21
-3.84295
0
LINE
8
BLACK
6
CONTINUOUS
10
5.96745
20
-3.84295
11
5.96937
21
-3.84007
0
LINE
8
BLACK
6
CONTINUOUS
10
5.96937
20
-3.84007
11
5.97224
21
-3.83815
0
LINE
8
BLACK
6
CONTINUOUS
10
5.97224
20
-3.83815
11
5.97563
21
-3.83748
0
LINE
8
BLACK
6
CONTINUOUS
10
5.97563
20
-3.83748
11
5.99335
21
-3.83748
0
LINE
8
BLACK
6
CONTINUOUS
10
5.99335
20
-3.83748
11
5.99674
21
-3.83815
0
LINE
8
BLACK
6
CONTINUOUS
10
6.05776
20
-3.83815
11
6.06063
21
-3.84007
0
LINE
8
BLACK
6
CONTINUOUS
10
6.06063
20
-3.84007
11
6.06255
21
-3.84295
0
LINE
8
BLACK
6
CONTINUOUS
10
6.06255
20
-3.84295
11
6.06323
21
-3.84634
0
LINE
8
BLACK
6
CONTINUOUS
10
6.06323
20
-3.84634
11
6.06323
21
-3.86602
0
LINE
8
BLACK
6
CONTINUOUS
10
6.06323
20
-3.86602
11
6.06255
21
-3.86941
0
LINE
8
BLACK
6
CONTINUOUS
10
6.06255
20
-3.86941
11
6.06063
21
-3.87229
0
LINE
8
BLACK
6
CONTINUOUS
10
6.06063
20
-3.87229
11
6.05776
21
-3.87421
0
LINE
8
BLACK
6
CONTINUOUS
10
6.05776
20
-3.87421
11
6.05437
21
-3.87488
0
LINE
8
BLACK
6
CONTINUOUS
10
6.05437
20
-3.87488
11
6.03665
21
-3.87488
0
LINE
8
BLACK
6
CONTINUOUS
10
6.03665
20
-3.87488
11
6.03326
21
-3.87421
0
LINE
8
BLACK
6
CONTINUOUS
10
6.03326
20
-3.87421
11
6.03039
21
-3.87229
0
LINE
8
BLACK
6
CONTINUOUS
10
6.03039
20
-3.87229
11
6.02847
21
-3.86941
0
LINE
8
BLACK
6
CONTINUOUS
10
6.02847
20
-3.86941
11
6.0278
21
-3.86602
0
LINE
8
BLACK
6
CONTINUOUS
10
6.0278
20
-3.86602
11
6.0278
21
-3.84634
0
LINE
8
BLACK
6
CONTINUOUS
10
6.0278
20
-3.84634
11
6.02847
21
-3.84295
0
LINE
8
BLACK
6
CONTINUOUS
10
6.02847
20
-3.84295
11
6.03039
21
-3.84007
0
LINE
8
BLACK
6
CONTINUOUS
10
6.03039
20
-3.84007
11
6.03326
21
-3.83815
0
LINE
8
BLACK
6
CONTINUOUS
10
6.03326
20
-3.83815
11
6.03665
21
-3.83748
0
LINE
8
BLACK
6
CONTINUOUS
10
6.03665
20
-3.83748
11
6.05437
21
-3.83748
0
LINE
8
BLACK
6
CONTINUOUS
10
6.05437
20
-3.83748
11
6.05776
21
-3.83815
0
LINE
8
BLACK
6
CONTINUOUS
10
6.17297
20
-3.84561
11
6.17488
21
-3.84689
0
LINE
8
BLACK
6
CONTINUOUS
10
6.17488
20
-3.84689
11
6.17616
21
-3.8488
0
LINE
8
BLACK
6
CONTINUOUS
10
6.17616
20
-3.8488
11
6.17661
21
-3.85106
0
LINE
8
BLACK
6
CONTINUOUS
10
6.17661
20
-3.85106
11
6.17661
21
-3.86287
0
LINE
8
BLACK
6
CONTINUOUS
10
6.17661
20
-3.86287
11
6.17616
21
-3.86513
0
LINE
8
BLACK
6
CONTINUOUS
10
6.17616
20
-3.86513
11
6.17488
21
-3.86705
0
LINE
8
BLACK
6
CONTINUOUS
10
6.17488
20
-3.86705
11
6.17297
21
-3.86833
0
LINE
8
BLACK
6
CONTINUOUS
10
6.17297
20
-3.86833
11
6.17071
21
-3.86878
0
LINE
8
BLACK
6
CONTINUOUS
10
6.17071
20
-3.86878
11
6.13035
21
-3.86878
0
LINE
8
BLACK
6
CONTINUOUS
10
6.13035
20
-3.86878
11
6.12809
21
-3.86833
0
LINE
8
BLACK
6
CONTINUOUS
10
6.12809
20
-3.86833
11
6.12618
21
-3.86705
0
LINE
8
BLACK
6
CONTINUOUS
10
6.12618
20
-3.86705
11
6.1249
21
-3.86513
0
LINE
8
BLACK
6
CONTINUOUS
10
6.1249
20
-3.86513
11
6.12445
21
-3.86287
0
LINE
8
BLACK
6
CONTINUOUS
10
6.12445
20
-3.86287
11
6.12445
21
-3.85106
0
LINE
8
BLACK
6
CONTINUOUS
10
6.12445
20
-3.85106
11
6.1249
21
-3.8488
0
LINE
8
BLACK
6
CONTINUOUS
10
6.1249
20
-3.8488
11
6.12618
21
-3.84689
0
LINE
8
BLACK
6
CONTINUOUS
10
6.12618
20
-3.84689
11
6.12809
21
-3.84561
0
LINE
8
BLACK
6
CONTINUOUS
10
6.12809
20
-3.84561
11
6.13035
21
-3.84516
0
LINE
8
BLACK
6
CONTINUOUS
10
6.13035
20
-3.84516
11
6.17071
21
-3.84516
0
LINE
8
BLACK
6
CONTINUOUS
10
6.17071
20
-3.84516
11
6.17297
21
-3.84561
0
LINE
8
BLACK
6
CONTINUOUS
10
6.26254
20
-3.84561
11
6.26445
21
-3.84689
0
LINE
8
BLACK
6
CONTINUOUS
10
6.26445
20
-3.84689
11
6.26573
21
-3.8488
0
LINE
8
BLACK
6
CONTINUOUS
10
6.26573
20
-3.8488
11
6.26618
21
-3.85106
0
LINE
8
BLACK
6
CONTINUOUS
10
6.26618
20
-3.85106
11
6.26618
21
-3.86287
0
LINE
8
BLACK
6
CONTINUOUS
10
6.26618
20
-3.86287
11
6.26573
21
-3.86513
0
LINE
8
BLACK
6
CONTINUOUS
10
6.26573
20
-3.86513
11
6.26445
21
-3.86705
0
LINE
8
BLACK
6
CONTINUOUS
10
6.26445
20
-3.86705
11
6.26254
21
-3.86833
0
LINE
8
BLACK
6
CONTINUOUS
10
6.26254
20
-3.86833
11
6.26028
21
-3.86878
0
LINE
8
BLACK
6
CONTINUOUS
10
6.26028
20
-3.86878
11
6.21992
21
-3.86878
0
LINE
8
BLACK
6
CONTINUOUS
10
6.21992
20
-3.86878
11
6.21766
21
-3.86833
0
LINE
8
BLACK
6
CONTINUOUS
10
6.21766
20
-3.86833
11
6.21575
21
-3.86705
0
LINE
8
BLACK
6
CONTINUOUS
10
6.21575
20
-3.86705
11
6.21447
21
-3.86513
0
LINE
8
BLACK
6
CONTINUOUS
10
6.21447
20
-3.86513
11
6.21402
21
-3.86287
0
LINE
8
BLACK
6
CONTINUOUS
10
6.21402
20
-3.86287
11
6.21402
21
-3.85106
0
LINE
8
BLACK
6
CONTINUOUS
10
6.21402
20
-3.85106
11
6.21447
21
-3.8488
0
LINE
8
BLACK
6
CONTINUOUS
10
6.21447
20
-3.8488
11
6.21575
21
-3.84689
0
LINE
8
BLACK
6
CONTINUOUS
10
6.21575
20
-3.84689
11
6.21766
21
-3.84561
0
LINE
8
BLACK
6
CONTINUOUS
10
6.21766
20
-3.84561
11
6.21992
21
-3.84516
0
LINE
8
BLACK
6
CONTINUOUS
10
6.21992
20
-3.84516
11
6.26028
21
-3.84516
0
LINE
8
BLACK
6
CONTINUOUS
10
6.26028
20
-3.84516
11
6.26254
21
-3.84561
0
LINE
8
BLACK
6
CONTINUOUS
10
5.34327
20
-3.81102
11
5.32949
21
-3.81102
0
LINE
8
BLACK
6
CONTINUOUS
10
5.32949
20
-3.81102
11
5.32949
21
-3.79724
0
LINE
8
BLACK
6
CONTINUOUS
10
5.32949
20
-3.79724
11
5.34327
21
-3.79724
0
LINE
8
BLACK
6
CONTINUOUS
10
5.34327
20
-3.79724
11
5.34327
21
-3.81102
0
LINE
8
BLACK
6
CONTINUOUS
10
5.40035
20
-3.81102
11
5.38657
21
-3.81102
0
LINE
8
BLACK
6
CONTINUOUS
10
5.38657
20
-3.81102
11
5.38657
21
-3.79724
0
LINE
8
BLACK
6
CONTINUOUS
10
5.38657
20
-3.79724
11
5.40035
21
-3.79724
0
LINE
8
BLACK
6
CONTINUOUS
10
5.40035
20
-3.79724
11
5.40035
21
-3.81102
0
LINE
8
BLACK
6
CONTINUOUS
10
5.34327
20
-3.78543
11
5.32949
21
-3.78543
0
LINE
8
BLACK
6
CONTINUOUS
10
5.32949
20
-3.78543
11
5.32949
21
-3.77165
0
LINE
8
BLACK
6
CONTINUOUS
10
5.32949
20
-3.77165
11
5.34327
21
-3.77165
0
LINE
8
BLACK
6
CONTINUOUS
10
5.34327
20
-3.77165
11
5.34327
21
-3.78543
0
LINE
8
BLACK
6
CONTINUOUS
10
5.40035
20
-3.78543
11
5.38657
21
-3.78543
0
LINE
8
BLACK
6
CONTINUOUS
10
5.38657
20
-3.78543
11
5.38657
21
-3.77165
0
LINE
8
BLACK
6
CONTINUOUS
10
5.38657
20
-3.77165
11
5.40035
21
-3.77165
0
LINE
8
BLACK
6
CONTINUOUS
10
5.40035
20
-3.77165
11
5.40035
21
-3.78543
0
LINE
8
BLACK
6
CONTINUOUS
10
5.34327
20
-3.75984
11
5.32949
21
-3.75984
0
LINE
8
BLACK
6
CONTINUOUS
10
5.32949
20
-3.75984
11
5.32949
21
-3.74606
0
LINE
8
BLACK
6
CONTINUOUS
10
5.32949
20
-3.74606
11
5.34327
21
-3.74606
0
LINE
8
BLACK
6
CONTINUOUS
10
5.34327
20
-3.74606
11
5.34327
21
-3.75984
0
LINE
8
BLACK
6
CONTINUOUS
10
5.40035
20
-3.75984
11
5.38657
21
-3.75984
0
LINE
8
BLACK
6
CONTINUOUS
10
5.38657
20
-3.75984
11
5.38657
21
-3.74606
0
LINE
8
BLACK
6
CONTINUOUS
10
5.38657
20
-3.74606
11
5.40035
21
-3.74606
0
LINE
8
BLACK
6
CONTINUOUS
10
5.40035
20
-3.74606
11
5.40035
21
-3.75984
0
LINE
8
BLACK
6
CONTINUOUS
10
5.34327
20
-3.73425
11
5.32949
21
-3.73425
0
LINE
8
BLACK
6
CONTINUOUS
10
5.32949
20
-3.73425
11
5.32949
21
-3.72047
0
LINE
8
BLACK
6
CONTINUOUS
10
5.32949
20
-3.72047
11
5.34327
21
-3.72047
0
LINE
8
BLACK
6
CONTINUOUS
10
5.34327
20
-3.72047
11
5.34327
21
-3.73425
0
LINE
8
BLACK
6
CONTINUOUS
10
5.40035
20
-3.73425
11
5.38657
21
-3.73425
0
LINE
8
BLACK
6
CONTINUOUS
10
5.38657
20
-3.73425
11
5.38657
21
-3.72047
0
LINE
8
BLACK
6
CONTINUOUS
10
5.38657
20
-3.72047
11
5.40035
21
-3.72047
0
LINE
8
BLACK
6
CONTINUOUS
10
5.40035
20
-3.72047
11
5.40035
21
-3.73425
0
LINE
8
BLACK
6
CONTINUOUS
10
6.27244
20
-3.50665
11
6.22913
21
-3.50665
0
LINE
8
BLACK
6
CONTINUOUS
10
6.22913
20
-3.50665
11
6.22913
21
-3.46335
0
LINE
8
BLACK
6
CONTINUOUS
10
6.22913
20
-3.46335
11
6.27244
21
-3.46335
0
LINE
8
BLACK
6
CONTINUOUS
10
6.27244
20
-3.46335
11
6.27244
21
-3.50665
0
LINE
8
BLACK
6
CONTINUOUS
10
6.35482
20
-3.46408
11
6.36004
21
-3.46625
0
LINE
8
BLACK
6
CONTINUOUS
10
6.36004
20
-3.46625
11
6.36452
21
-3.46969
0
LINE
8
BLACK
6
CONTINUOUS
10
6.36452
20
-3.46969
11
6.36797
21
-3.47417
0
LINE
8
BLACK
6
CONTINUOUS
10
6.36797
20
-3.47417
11
6.37013
21
-3.4794
0
LINE
8
BLACK
6
CONTINUOUS
10
6.37013
20
-3.4794
11
6.37087
21
-3.485
0
LINE
8
BLACK
6
CONTINUOUS
10
6.37087
20
-3.485
11
6.37013
21
-3.4906
0
LINE
8
BLACK
6
CONTINUOUS
10
6.37013
20
-3.4906
11
6.36797
21
-3.49583
0
LINE
8
BLACK
6
CONTINUOUS
10
6.36797
20
-3.49583
11
6.36452
21
-3.50031
0
LINE
8
BLACK
6
CONTINUOUS
10
6.36452
20
-3.50031
11
6.36004
21
-3.50375
0
LINE
8
BLACK
6
CONTINUOUS
10
6.36004
20
-3.50375
11
6.35482
21
-3.50592
0
LINE
8
BLACK
6
CONTINUOUS
10
6.35482
20
-3.50592
11
6.34921
21
-3.50665
0
LINE
8
BLACK
6
CONTINUOUS
10
6.34921
20
-3.50665
11
6.34361
21
-3.50592
0
LINE
8
BLACK
6
CONTINUOUS
10
6.34361
20
-3.50592
11
6.33839
21
-3.50375
0
LINE
8
BLACK
6
CONTINUOUS
10
6.33839
20
-3.50375
11
6.3339
21
-3.50031
0
LINE
8
BLACK
6
CONTINUOUS
10
6.3339
20
-3.50031
11
6.33046
21
-3.49583
0
LINE
8
BLACK
6
CONTINUOUS
10
6.33046
20
-3.49583
11
6.3283
21
-3.4906
0
LINE
8
BLACK
6
CONTINUOUS
10
6.3283
20
-3.4906
11
6.32756
21
-3.485
0
LINE
8
BLACK
6
CONTINUOUS
10
6.32756
20
-3.485
11
6.3283
21
-3.4794
0
LINE
8
BLACK
6
CONTINUOUS
10
6.3283
20
-3.4794
11
6.33046
21
-3.47417
0
LINE
8
BLACK
6
CONTINUOUS
10
6.33046
20
-3.47417
11
6.3339
21
-3.46969
0
LINE
8
BLACK
6
CONTINUOUS
10
6.3339
20
-3.46969
11
6.33839
21
-3.46625
0
LINE
8
BLACK
6
CONTINUOUS
10
6.33839
20
-3.46625
11
6.34361
21
-3.46408
0
LINE
8
BLACK
6
CONTINUOUS
10
6.34361
20
-3.46408
11
6.34921
21
-3.46335
0
LINE
8
BLACK
6
CONTINUOUS
10
6.34921
20
-3.46335
11
6.35482
21
-3.46408
0
LINE
8
BLACK
6
CONTINUOUS
10
5.87219
20
-3.34432
11
5.87858
21
-3.34716
0
LINE
8
BLACK
6
CONTINUOUS
10
5.87858
20
-3.34716
11
5.88424
21
-3.35127
0
LINE
8
BLACK
6
CONTINUOUS
10
5.88424
20
-3.35127
11
5.88892
21
-3.35647
0
LINE
8
BLACK
6
CONTINUOUS
10
5.88892
20
-3.35647
11
5.89242
21
-3.36253
0
LINE
8
BLACK
6
CONTINUOUS
10
5.89242
20
-3.36253
11
5.89458
21
-3.36918
0
LINE
8
BLACK
6
CONTINUOUS
10
5.89458
20
-3.36918
11
5.89531
21
-3.37614
0
LINE
8
BLACK
6
CONTINUOUS
10
5.89531
20
-3.37614
11
5.89458
21
-3.3831
0
LINE
8
BLACK
6
CONTINUOUS
10
5.89458
20
-3.3831
11
5.89242
21
-3.38975
0
LINE
8
BLACK
6
CONTINUOUS
10
5.89242
20
-3.38975
11
5.88892
21
-3.39581
0
LINE
8
BLACK
6
CONTINUOUS
10
5.88892
20
-3.39581
11
5.88424
21
-3.40101
0
LINE
8
BLACK
6
CONTINUOUS
10
5.88424
20
-3.40101
11
5.87858
21
-3.40512
0
LINE
8
BLACK
6
CONTINUOUS
10
5.87858
20
-3.40512
11
5.87219
21
-3.40797
0
LINE
8
BLACK
6
CONTINUOUS
10
5.87219
20
-3.40797
11
5.86535
21
-3.40942
0
LINE
8
BLACK
6
CONTINUOUS
10
5.86535
20
-3.40942
11
5.85835
21
-3.40942
0
LINE
8
BLACK
6
CONTINUOUS
10
5.85835
20
-3.40942
11
5.85151
21
-3.40797
0
LINE
8
BLACK
6
CONTINUOUS
10
5.85151
20
-3.40797
11
5.84512
21
-3.40512
0
LINE
8
BLACK
6
CONTINUOUS
10
5.84512
20
-3.40512
11
5.83946
21
-3.40101
0
LINE
8
BLACK
6
CONTINUOUS
10
5.83946
20
-3.40101
11
5.83478
21
-3.39581
0
LINE
8
BLACK
6
CONTINUOUS
10
5.83478
20
-3.39581
11
5.83128
21
-3.38975
0
LINE
8
BLACK
6
CONTINUOUS
10
5.83128
20
-3.38975
11
5.82912
21
-3.3831
0
LINE
8
BLACK
6
CONTINUOUS
10
5.82912
20
-3.3831
11
5.82839
21
-3.37614
0
LINE
8
BLACK
6
CONTINUOUS
10
5.82839
20
-3.37614
11
5.82912
21
-3.36918
0
LINE
8
BLACK
6
CONTINUOUS
10
5.82912
20
-3.36918
11
5.83128
21
-3.36253
0
LINE
8
BLACK
6
CONTINUOUS
10
5.83128
20
-3.36253
11
5.83478
21
-3.35647
0
LINE
8
BLACK
6
CONTINUOUS
10
5.83478
20
-3.35647
11
5.83946
21
-3.35127
0
LINE
8
BLACK
6
CONTINUOUS
10
5.83946
20
-3.35127
11
5.84512
21
-3.34716
0
LINE
8
BLACK
6
CONTINUOUS
10
5.84512
20
-3.34716
11
5.85151
21
-3.34432
0
LINE
8
BLACK
6
CONTINUOUS
10
5.85151
20
-3.34432
11
5.85835
21
-3.34286
0
LINE
8
BLACK
6
CONTINUOUS
10
5.85835
20
-3.34286
11
5.86535
21
-3.34286
0
LINE
8
BLACK
6
CONTINUOUS
10
5.86535
20
-3.34286
11
5.87219
21
-3.34432
0
LINE
8
BLACK
6
CONTINUOUS
10
6.01073
20
-3.30883
11
6.01328
21
-3.31053
0
LINE
8
BLACK
6
CONTINUOUS
10
6.01328
20
-3.31053
11
6.01499
21
-3.31309
0
LINE
8
BLACK
6
CONTINUOUS
10
6.01499
20
-3.31309
11
6.01559
21
-3.3161
0
LINE
8
BLACK
6
CONTINUOUS
10
6.01559
20
-3.3161
11
6.01559
21
-3.33776
0
LINE
8
BLACK
6
CONTINUOUS
10
6.01559
20
-3.33776
11
6.01499
21
-3.34077
0
LINE
8
BLACK
6
CONTINUOUS
10
6.01499
20
-3.34077
11
6.01328
21
-3.34332
0
LINE
8
BLACK
6
CONTINUOUS
10
6.01328
20
-3.34332
11
6.01073
21
-3.34503
0
LINE
8
BLACK
6
CONTINUOUS
10
6.01073
20
-3.34503
11
6.00772
21
-3.34563
0
LINE
8
BLACK
6
CONTINUOUS
10
6.00772
20
-3.34563
11
5.99197
21
-3.34563
0
LINE
8
BLACK
6
CONTINUOUS
10
5.99197
20
-3.34563
11
5.98896
21
-3.34503
0
LINE
8
BLACK
6
CONTINUOUS
10
5.98896
20
-3.34503
11
5.9864
21
-3.34332
0
LINE
8
BLACK
6
CONTINUOUS
10
5.9864
20
-3.34332
11
5.98469
21
-3.34077
0
LINE
8
BLACK
6
CONTINUOUS
10
5.98469
20
-3.34077
11
5.98409
21
-3.33776
0
LINE
8
BLACK
6
CONTINUOUS
10
5.98409
20
-3.33776
11
5.98409
21
-3.3161
0
LINE
8
BLACK
6
CONTINUOUS
10
5.98409
20
-3.3161
11
5.98469
21
-3.31309
0
LINE
8
BLACK
6
CONTINUOUS
10
5.98469
20
-3.31309
11
5.9864
21
-3.31053
0
LINE
8
BLACK
6
CONTINUOUS
10
5.9864
20
-3.31053
11
5.98896
21
-3.30883
0
LINE
8
BLACK
6
CONTINUOUS
10
5.98896
20
-3.30883
11
5.99197
21
-3.30823
0
LINE
8
BLACK
6
CONTINUOUS
10
5.99197
20
-3.30823
11
6.00772
21
-3.30823
0
LINE
8
BLACK
6
CONTINUOUS
10
6.00772
20
-3.30823
11
6.01073
21
-3.30883
0
LINE
8
BLACK
6
CONTINUOUS
10
6.07569
20
-3.30883
11
6.07824
21
-3.31053
0
LINE
8
BLACK
6
CONTINUOUS
10
6.07824
20
-3.31053
11
6.07995
21
-3.31309
0
LINE
8
BLACK
6
CONTINUOUS
10
6.07995
20
-3.31309
11
6.08055
21
-3.3161
0
LINE
8
BLACK
6
CONTINUOUS
10
6.08055
20
-3.3161
11
6.08055
21
-3.33776
0
LINE
8
BLACK
6
CONTINUOUS
10
6.08055
20
-3.33776
11
6.07995
21
-3.34077
0
LINE
8
BLACK
6
CONTINUOUS
10
6.07995
20
-3.34077
11
6.07824
21
-3.34332
0
LINE
8
BLACK
6
CONTINUOUS
10
6.07824
20
-3.34332
11
6.07569
21
-3.34503
0
LINE
8
BLACK
6
CONTINUOUS
10
6.07569
20
-3.34503
11
6.07268
21
-3.34563
0
LINE
8
BLACK
6
CONTINUOUS
10
6.07268
20
-3.34563
11
6.05693
21
-3.34563
0
LINE
8
BLACK
6
CONTINUOUS
10
6.05693
20
-3.34563
11
6.05392
21
-3.34503
0
LINE
8
BLACK
6
CONTINUOUS
10
6.05392
20
-3.34503
11
6.05136
21
-3.34332
0
LINE
8
BLACK
6
CONTINUOUS
10
6.05136
20
-3.34332
11
6.04965
21
-3.34077
0
LINE
8
BLACK
6
CONTINUOUS
10
6.04965
20
-3.34077
11
6.04906
21
-3.33776
0
LINE
8
BLACK
6
CONTINUOUS
10
6.04906
20
-3.33776
11
6.04906
21
-3.3161
0
LINE
8
BLACK
6
CONTINUOUS
10
6.04906
20
-3.3161
11
6.04965
21
-3.31309
0
LINE
8
BLACK
6
CONTINUOUS
10
6.04965
20
-3.31309
11
6.05136
21
-3.31053
0
LINE
8
BLACK
6
CONTINUOUS
10
6.05136
20
-3.31053
11
6.05392
21
-3.30883
0
LINE
8
BLACK
6
CONTINUOUS
10
6.05392
20
-3.30883
11
6.05693
21
-3.30823
0
LINE
8
BLACK
6
CONTINUOUS
10
6.05693
20
-3.30823
11
6.07268
21
-3.30823
0
LINE
8
BLACK
6
CONTINUOUS
10
6.07268
20
-3.30823
11
6.07569
21
-3.30883
0
LINE
8
BLACK
6
CONTINUOUS
10
5.87219
20
-3.24432
11
5.87858
21
-3.24716
0
LINE
8
BLACK
6
CONTINUOUS
10
5.87858
20
-3.24716
11
5.88424
21
-3.25127
0
LINE
8
BLACK
6
CONTINUOUS
10
5.88424
20
-3.25127
11
5.88892
21
-3.25647
0
LINE
8
BLACK
6
CONTINUOUS
10
5.88892
20
-3.25647
11
5.89242
21
-3.26253
0
LINE
8
BLACK
6
CONTINUOUS
10
5.89242
20
-3.26253
11
5.89458
21
-3.26918
0
LINE
8
BLACK
6
CONTINUOUS
10
5.89458
20
-3.26918
11
5.89531
21
-3.27614
0
LINE
8
BLACK
6
CONTINUOUS
10
5.89531
20
-3.27614
11
5.89458
21
-3.2831
0
LINE
8
BLACK
6
CONTINUOUS
10
5.89458
20
-3.2831
11
5.89242
21
-3.28975
0
LINE
8
BLACK
6
CONTINUOUS
10
5.89242
20
-3.28975
11
5.88892
21
-3.29581
0
LINE
8
BLACK
6
CONTINUOUS
10
5.88892
20
-3.29581
11
5.88424
21
-3.30101
0
LINE
8
BLACK
6
CONTINUOUS
10
5.88424
20
-3.30101
11
5.87858
21
-3.30512
0
LINE
8
BLACK
6
CONTINUOUS
10
5.87858
20
-3.30512
11
5.87219
21
-3.30797
0
LINE
8
BLACK
6
CONTINUOUS
10
5.87219
20
-3.30797
11
5.86535
21
-3.30942
0
LINE
8
BLACK
6
CONTINUOUS
10
5.86535
20
-3.30942
11
5.85835
21
-3.30942
0
LINE
8
BLACK
6
CONTINUOUS
10
5.85835
20
-3.30942
11
5.85151
21
-3.30797
0
LINE
8
BLACK
6
CONTINUOUS
10
5.85151
20
-3.30797
11
5.84512
21
-3.30512
0
LINE
8
BLACK
6
CONTINUOUS
10
5.84512
20
-3.30512
11
5.83946
21
-3.30101
0
LINE
8
BLACK
6
CONTINUOUS
10
5.83946
20
-3.30101
11
5.83478
21
-3.29581
0
LINE
8
BLACK
6
CONTINUOUS
10
5.83478
20
-3.29581
11
5.83128
21
-3.28975
0
LINE
8
BLACK
6
CONTINUOUS
10
5.83128
20
-3.28975
11
5.82912
21
-3.2831
0
LINE
8
BLACK
6
CONTINUOUS
10
5.82912
20
-3.2831
11
5.82839
21
-3.27614
0
LINE
8
BLACK
6
CONTINUOUS
10
5.82839
20
-3.27614
11
5.82912
21
-3.26918
0
LINE
8
BLACK
6
CONTINUOUS
10
5.82912
20
-3.26918
11
5.83128
21
-3.26253
0
LINE
8
BLACK
6
CONTINUOUS
10
5.83128
20
-3.26253
11
5.83478
21
-3.25647
0
LINE
8
BLACK
6
CONTINUOUS
10
5.83478
20
-3.25647
11
5.83946
21
-3.25127
0
LINE
8
BLACK
6
CONTINUOUS
10
5.83946
20
-3.25127
11
5.84512
21
-3.24716
0
LINE
8
BLACK
6
CONTINUOUS
10
5.84512
20
-3.24716
11
5.85151
21
-3.24432
0
LINE
8
BLACK
6
CONTINUOUS
10
5.85151
20
-3.24432
11
5.85835
21
-3.24286
0
LINE
8
BLACK
6
CONTINUOUS
10
5.85835
20
-3.24286
11
5.86535
21
-3.24286
0
LINE
8
BLACK
6
CONTINUOUS
10
5.86535
20
-3.24286
11
5.87219
21
-3.24432
0
LINE
8
BLACK
6
CONTINUOUS
10
5.06953
20
-3.30126
11
5.0026
21
-3.30126
0
LINE
8
BLACK
6
CONTINUOUS
10
5.0026
20
-3.30126
11
5.0026
21
-3.26976
0
LINE
8
BLACK
6
CONTINUOUS
10
5.0026
20
-3.26976
11
5.06953
21
-3.26976
0
LINE
8
BLACK
6
CONTINUOUS
10
5.06953
20
-3.26976
11
5.06953
21
-3.30126
0
LINE
8
BLACK
6
CONTINUOUS
10
5.7152
20
-3.30126
11
5.64827
21
-3.30126
0
LINE
8
BLACK
6
CONTINUOUS
10
5.64827
20
-3.30126
11
5.64827
21
-3.26976
0
LINE
8
BLACK
6
CONTINUOUS
10
5.64827
20
-3.26976
11
5.7152
21
-3.26976
0
LINE
8
BLACK
6
CONTINUOUS
10
5.7152
20
-3.26976
11
5.7152
21
-3.30126
0
LINE
8
BLACK
6
CONTINUOUS
10
6.24854
20
-3.28075
11
6.22886
21
-3.28075
0
LINE
8
BLACK
6
CONTINUOUS
10
6.22886
20
-3.28075
11
6.22886
21
-3.24925
0
LINE
8
BLACK
6
CONTINUOUS
10
6.22886
20
-3.24925
11
6.24854
21
-3.24925
0
LINE
8
BLACK
6
CONTINUOUS
10
6.24854
20
-3.24925
11
6.24854
21
-3.28075
0
LINE
8
BLACK
6
CONTINUOUS
10
6.28398
20
-3.28075
11
6.26429
21
-3.28075
0
LINE
8
BLACK
6
CONTINUOUS
10
6.26429
20
-3.28075
11
6.26429
21
-3.24925
0
LINE
8
BLACK
6
CONTINUOUS
10
6.26429
20
-3.24925
11
6.28398
21
-3.24925
0
LINE
8
BLACK
6
CONTINUOUS
10
6.28398
20
-3.24925
11
6.28398
21
-3.28075
0
LINE
8
BLACK
6
CONTINUOUS
10
6.31941
20
-3.28075
11
6.29972
21
-3.28075
0
LINE
8
BLACK
6
CONTINUOUS
10
6.29972
20
-3.28075
11
6.29972
21
-3.24925
0
LINE
8
BLACK
6
CONTINUOUS
10
6.29972
20
-3.24925
11
6.31941
21
-3.24925
0
LINE
8
BLACK
6
CONTINUOUS
10
6.31941
20
-3.24925
11
6.31941
21
-3.28075
0
LINE
8
BLACK
6
CONTINUOUS
10
6.35484
20
-3.28075
11
6.33516
21
-3.28075
0
LINE
8
BLACK
6
CONTINUOUS
10
6.33516
20
-3.28075
11
6.33516
21
-3.24925
0
LINE
8
BLACK
6
CONTINUOUS
10
6.33516
20
-3.24925
11
6.35484
21
-3.24925
0
LINE
8
BLACK
6
CONTINUOUS
10
6.35484
20
-3.24925
11
6.35484
21
-3.28075
0
LINE
8
BLACK
6
CONTINUOUS
10
5.06953
20
-3.25795
11
5.0026
21
-3.25795
0
LINE
8
BLACK
6
CONTINUOUS
10
5.0026
20
-3.25795
11
5.0026
21
-3.22646
0
LINE
8
BLACK
6
CONTINUOUS
10
5.0026
20
-3.22646
11
5.06953
21
-3.22646
0
LINE
8
BLACK
6
CONTINUOUS
10
5.06953
20
-3.22646
11
5.06953
21
-3.25795
0
LINE
8
BLACK
6
CONTINUOUS
10
5.7152
20
-3.25795
11
5.64827
21
-3.25795
0
LINE
8
BLACK
6
CONTINUOUS
10
5.64827
20
-3.25795
11
5.64827
21
-3.22646
0
LINE
8
BLACK
6
CONTINUOUS
10
5.64827
20
-3.22646
11
5.7152
21
-3.22646
0
LINE
8
BLACK
6
CONTINUOUS
10
5.7152
20
-3.22646
11
5.7152
21
-3.25795
0
LINE
8
BLACK
6
CONTINUOUS
10
6.01073
20
-3.21001
11
6.01328
21
-3.21172
0
LINE
8
BLACK
6
CONTINUOUS
10
6.01328
20
-3.21172
11
6.01499
21
-3.21427
0
LINE
8
BLACK
6
CONTINUOUS
10
6.01499
20
-3.21427
11
6.01559
21
-3.21728
0
LINE
8
BLACK
6
CONTINUOUS
10
6.01559
20
-3.21728
11
6.01559
21
-3.23894
0
LINE
8
BLACK
6
CONTINUOUS
10
6.01559
20
-3.23894
11
6.01499
21
-3.24195
0
LINE
8
BLACK
6
CONTINUOUS
10
6.01499
20
-3.24195
11
6.01328
21
-3.2445
0
LINE
8
BLACK
6
CONTINUOUS
10
6.01328
20
-3.2445
11
6.01073
21
-3.24621
0
LINE
8
BLACK
6
CONTINUOUS
10
6.01073
20
-3.24621
11
6.00772
21
-3.24681
0
LINE
8
BLACK
6
CONTINUOUS
10
6.00772
20
-3.24681
11
5.99197
21
-3.24681
0
LINE
8
BLACK
6
CONTINUOUS
10
5.99197
20
-3.24681
11
5.98896
21
-3.24621
0
LINE
8
BLACK
6
CONTINUOUS
10
5.98896
20
-3.24621
11
5.9864
21
-3.2445
0
LINE
8
BLACK
6
CONTINUOUS
10
5.9864
20
-3.2445
11
5.98469
21
-3.24195
0
LINE
8
BLACK
6
CONTINUOUS
10
5.98469
20
-3.24195
11
5.98409
21
-3.23894
0
LINE
8
BLACK
6
CONTINUOUS
10
5.98409
20
-3.23894
11
5.98409
21
-3.21728
0
LINE
8
BLACK
6
CONTINUOUS
10
5.98409
20
-3.21728
11
5.98469
21
-3.21427
0
LINE
8
BLACK
6
CONTINUOUS
10
5.98469
20
-3.21427
11
5.9864
21
-3.21172
0
LINE
8
BLACK
6
CONTINUOUS
10
5.9864
20
-3.21172
11
5.98896
21
-3.21001
0
LINE
8
BLACK
6
CONTINUOUS
10
5.98896
20
-3.21001
11
5.99197
21
-3.20941
0
LINE
8
BLACK
6
CONTINUOUS
10
5.99197
20
-3.20941
11
6.00772
21
-3.20941
0
LINE
8
BLACK
6
CONTINUOUS
10
6.00772
20
-3.20941
11
6.01073
21
-3.21001
0
LINE
8
BLACK
6
CONTINUOUS
10
6.07569
20
-3.21001
11
6.07824
21
-3.21172
0
LINE
8
BLACK
6
CONTINUOUS
10
6.07824
20
-3.21172
11
6.07995
21
-3.21427
0
LINE
8
BLACK
6
CONTINUOUS
10
6.07995
20
-3.21427
11
6.08055
21
-3.21728
0
LINE
8
BLACK
6
CONTINUOUS
10
6.08055
20
-3.21728
11
6.08055
21
-3.23894
0
LINE
8
BLACK
6
CONTINUOUS
10
6.08055
20
-3.23894
11
6.07995
21
-3.24195
0
LINE
8
BLACK
6
CONTINUOUS
10
6.07995
20
-3.24195
11
6.07824
21
-3.2445
0
LINE
8
BLACK
6
CONTINUOUS
10
6.07824
20
-3.2445
11
6.07569
21
-3.24621
0
LINE
8
BLACK
6
CONTINUOUS
10
6.07569
20
-3.24621
11
6.07268
21
-3.24681
0
LINE
8
BLACK
6
CONTINUOUS
10
6.07268
20
-3.24681
11
6.05693
21
-3.24681
0
LINE
8
BLACK
6
CONTINUOUS
10
6.05693
20
-3.24681
11
6.05392
21
-3.24621
0
LINE
8
BLACK
6
CONTINUOUS
10
6.05392
20
-3.24621
11
6.05136
21
-3.2445
0
LINE
8
BLACK
6
CONTINUOUS
10
6.05136
20
-3.2445
11
6.04965
21
-3.24195
0
LINE
8
BLACK
6
CONTINUOUS
10
6.04965
20
-3.24195
11
6.04906
21
-3.23894
0
LINE
8
BLACK
6
CONTINUOUS
10
6.04906
20
-3.23894
11
6.04906
21
-3.21728
0
LINE
8
BLACK
6
CONTINUOUS
10
6.04906
20
-3.21728
11
6.04965
21
-3.21427
0
LINE
8
BLACK
6
CONTINUOUS
10
6.04965
20
-3.21427
11
6.05136
21
-3.21172
0
LINE
8
BLACK
6
CONTINUOUS
10
6.05136
20
-3.21172
11
6.05392
21
-3.21001
0
LINE
8
BLACK
6
CONTINUOUS
10
6.05392
20
-3.21001
11
6.05693
21
-3.20941
0
LINE
8
BLACK
6
CONTINUOUS
10
6.05693
20
-3.20941
11
6.07268
21
-3.20941
0
LINE
8
BLACK
6
CONTINUOUS
10
6.07268
20
-3.20941
11
6.07569
21
-3.21001
0
LINE
8
BLACK
6
CONTINUOUS
10
6.24854
20
-3.2335
11
6.22886
21
-3.2335
0
LINE
8
BLACK
6
CONTINUOUS
10
6.22886
20
-3.2335
11
6.22886
21
-3.20201
0
LINE
8
BLACK
6
CONTINUOUS
10
6.22886
20
-3.20201
11
6.24854
21
-3.20201
0
LINE
8
BLACK
6
CONTINUOUS
10
6.24854
20
-3.20201
11
6.24854
21
-3.2335
0
LINE
8
BLACK
6
CONTINUOUS
10
6.28398
20
-3.2335
11
6.26429
21
-3.2335
0
LINE
8
BLACK
6
CONTINUOUS
10
6.26429
20
-3.2335
11
6.26429
21
-3.20201
0
LINE
8
BLACK
6
CONTINUOUS
10
6.26429
20
-3.20201
11
6.28398
21
-3.20201
0
LINE
8
BLACK
6
CONTINUOUS
10
6.28398
20
-3.20201
11
6.28398
21
-3.2335
0
LINE
8
BLACK
6
CONTINUOUS
10
6.31941
20
-3.2335
11
6.29972
21
-3.2335
0
LINE
8
BLACK
6
CONTINUOUS
10
6.29972
20
-3.2335
11
6.29972
21
-3.20201
0
LINE
8
BLACK
6
CONTINUOUS
10
6.29972
20
-3.20201
11
6.31941
21
-3.20201
0
LINE
8
BLACK
6
CONTINUOUS
10
6.31941
20
-3.20201
11
6.31941
21
-3.2335
0
LINE
8
BLACK
6
CONTINUOUS
10
6.35484
20
-3.2335
11
6.33516
21
-3.2335
0
LINE
8
BLACK
6
CONTINUOUS
10
6.33516
20
-3.2335
11
6.33516
21
-3.20201
0
LINE
8
BLACK
6
CONTINUOUS
10
6.33516
20
-3.20201
11
6.35484
21
-3.20201
0
LINE
8
BLACK
6
CONTINUOUS
10
6.35484
20
-3.20201
11
6.35484
21
-3.2335
0
LINE
8
BLACK
6
CONTINUOUS
10
5.06953
20
-3.21465
11
5.0026
21
-3.21465
0
LINE
8
BLACK
6
CONTINUOUS
10
5.0026
20
-3.21465
11
5.0026
21
-3.18315
0
LINE
8
BLACK
6
CONTINUOUS
10
5.0026
20
-3.18315
11
5.06953
21
-3.18315
0
LINE
8
BLACK
6
CONTINUOUS
10
5.06953
20
-3.18315
11
5.06953
21
-3.21465
0
LINE
8
BLACK
6
CONTINUOUS
10
5.7152
20
-3.21465
11
5.64827
21
-3.21465
0
LINE
8
BLACK
6
CONTINUOUS
10
5.64827
20
-3.21465
11
5.64827
21
-3.18315
0
LINE
8
BLACK
6
CONTINUOUS
10
5.64827
20
-3.18315
11
5.7152
21
-3.18315
0
LINE
8
BLACK
6
CONTINUOUS
10
5.7152
20
-3.18315
11
5.7152
21
-3.21465
0
LINE
8
BLACK
6
CONTINUOUS
10
5.87219
20
-3.14432
11
5.87858
21
-3.14716
0
LINE
8
BLACK
6
CONTINUOUS
10
5.87858
20
-3.14716
11
5.88424
21
-3.15127
0
LINE
8
BLACK
6
CONTINUOUS
10
5.88424
20
-3.15127
11
5.88892
21
-3.15647
0
LINE
8
BLACK
6
CONTINUOUS
10
5.88892
20
-3.15647
11
5.89242
21
-3.16253
0
LINE
8
BLACK
6
CONTINUOUS
10
5.89242
20
-3.16253
11
5.89458
21
-3.16918
0
LINE
8
BLACK
6
CONTINUOUS
10
5.89458
20
-3.16918
11
5.89531
21
-3.17614
0
LINE
8
BLACK
6
CONTINUOUS
10
5.89531
20
-3.17614
11
5.89458
21
-3.1831
0
LINE
8
BLACK
6
CONTINUOUS
10
5.89458
20
-3.1831
11
5.89242
21
-3.18975
0
LINE
8
BLACK
6
CONTINUOUS
10
5.89242
20
-3.18975
11
5.88892
21
-3.19581
0
LINE
8
BLACK
6
CONTINUOUS
10
5.88892
20
-3.19581
11
5.88424
21
-3.20101
0
LINE
8
BLACK
6
CONTINUOUS
10
5.88424
20
-3.20101
11
5.87858
21
-3.20512
0
LINE
8
BLACK
6
CONTINUOUS
10
5.87858
20
-3.20512
11
5.87219
21
-3.20797
0
LINE
8
BLACK
6
CONTINUOUS
10
5.87219
20
-3.20797
11
5.86535
21
-3.20942
0
LINE
8
BLACK
6
CONTINUOUS
10
5.86535
20
-3.20942
11
5.85835
21
-3.20942
0
LINE
8
BLACK
6
CONTINUOUS
10
5.85835
20
-3.20942
11
5.85151
21
-3.20797
0
LINE
8
BLACK
6
CONTINUOUS
10
5.85151
20
-3.20797
11
5.84512
21
-3.20512
0
LINE
8
BLACK
6
CONTINUOUS
10
5.84512
20
-3.20512
11
5.83946
21
-3.20101
0
LINE
8
BLACK
6
CONTINUOUS
10
5.83946
20
-3.20101
11
5.83478
21
-3.19581
0
LINE
8
BLACK
6
CONTINUOUS
10
5.83478
20
-3.19581
11
5.83128
21
-3.18975
0
LINE
8
BLACK
6
CONTINUOUS
10
5.83128
20
-3.18975
11
5.82912
21
-3.1831
0
LINE
8
BLACK
6
CONTINUOUS
10
5.82912
20
-3.1831
11
5.82839
21
-3.17614
0
LINE
8
BLACK
6
CONTINUOUS
10
5.82839
20
-3.17614
11
5.82912
21
-3.16918
0
LINE
8
BLACK
6
CONTINUOUS
10
5.82912
20
-3.16918
11
5.83128
21
-3.16253
0
LINE
8
BLACK
6
CONTINUOUS
10
5.83128
20
-3.16253
11
5.83478
21
-3.15647
0
LINE
8
BLACK
6
CONTINUOUS
10
5.83478
20
-3.15647
11
5.83946
21
-3.15127
0
LINE
8
BLACK
6
CONTINUOUS
10
5.83946
20
-3.15127
11
5.84512
21
-3.14716
0
LINE
8
BLACK
6
CONTINUOUS
10
5.84512
20
-3.14716
11
5.85151
21
-3.14432
0
LINE
8
BLACK
6
CONTINUOUS
10
5.85151
20
-3.14432
11
5.85835
21
-3.14286
0
LINE
8
BLACK
6
CONTINUOUS
10
5.85835
20
-3.14286
11
5.86535
21
-3.14286
0
LINE
8
BLACK
6
CONTINUOUS
10
5.86535
20
-3.14286
11
5.87219
21
-3.14432
0
LINE
8
BLACK
6
CONTINUOUS
10
5.06953
20
-3.17134
11
5.0026
21
-3.17134
0
LINE
8
BLACK
6
CONTINUOUS
10
5.0026
20
-3.17134
11
5.0026
21
-3.13984
0
LINE
8
BLACK
6
CONTINUOUS
10
5.0026
20
-3.13984
11
5.06953
21
-3.13984
0
LINE
8
BLACK
6
CONTINUOUS
10
5.06953
20
-3.13984
11
5.06953
21
-3.17134
0
LINE
8
BLACK
6
CONTINUOUS
10
5.7152
20
-3.17134
11
5.64827
21
-3.17134
0
LINE
8
BLACK
6
CONTINUOUS
10
5.64827
20
-3.17134
11
5.64827
21
-3.13984
0
LINE
8
BLACK
6
CONTINUOUS
10
5.64827
20
-3.13984
11
5.7152
21
-3.13984
0
LINE
8
BLACK
6
CONTINUOUS
10
5.7152
20
-3.13984
11
5.7152
21
-3.17134
0
LINE
8
BLACK
6
CONTINUOUS
10
6.01073
20
-3.11119
11
6.01328
21
-3.1129
0
LINE
8
BLACK
6
CONTINUOUS
10
6.01328
20
-3.1129
11
6.01499
21
-3.11545
0
LINE
8
BLACK
6
CONTINUOUS
10
6.01499
20
-3.11545
11
6.01559
21
-3.11846
0
LINE
8
BLACK
6
CONTINUOUS
10
6.01559
20
-3.11846
11
6.01559
21
-3.14012
0
LINE
8
BLACK
6
CONTINUOUS
10
6.01559
20
-3.14012
11
6.01499
21
-3.14313
0
LINE
8
BLACK
6
CONTINUOUS
10
6.01499
20
-3.14313
11
6.01328
21
-3.14569
0
LINE
8
BLACK
6
CONTINUOUS
10
6.01328
20
-3.14569
11
6.01073
21
-3.14739
0
LINE
8
BLACK
6
CONTINUOUS
10
6.01073
20
-3.14739
11
6.00772
21
-3.14799
0
LINE
8
BLACK
6
CONTINUOUS
10
6.00772
20
-3.14799
11
5.99197
21
-3.14799
0
LINE
8
BLACK
6
CONTINUOUS
10
5.99197
20
-3.14799
11
5.98896
21
-3.14739
0
LINE
8
BLACK
6
CONTINUOUS
10
5.98896
20
-3.14739
11
5.9864
21
-3.14569
0
LINE
8
BLACK
6
CONTINUOUS
10
5.9864
20
-3.14569
11
5.98469
21
-3.14313
0
LINE
8
BLACK
6
CONTINUOUS
10
5.98469
20
-3.14313
11
5.98409
21
-3.14012
0
LINE
8
BLACK
6
CONTINUOUS
10
5.98409
20
-3.14012
11
5.98409
21
-3.11846
0
LINE
8
BLACK
6
CONTINUOUS
10
5.98409
20
-3.11846
11
5.98469
21
-3.11545
0
LINE
8
BLACK
6
CONTINUOUS
10
5.98469
20
-3.11545
11
5.9864
21
-3.1129
0
LINE
8
BLACK
6
CONTINUOUS
10
5.9864
20
-3.1129
11
5.98896
21
-3.11119
0
LINE
8
BLACK
6
CONTINUOUS
10
5.98896
20
-3.11119
11
5.99197
21
-3.11059
0
LINE
8
BLACK
6
CONTINUOUS
10
5.99197
20
-3.11059
11
6.00772
21
-3.11059
0
LINE
8
BLACK
6
CONTINUOUS
10
6.00772
20
-3.11059
11
6.01073
21
-3.11119
0
LINE
8
BLACK
6
CONTINUOUS
10
6.07569
20
-3.11119
11
6.07824
21
-3.1129
0
LINE
8
BLACK
6
CONTINUOUS
10
6.07824
20
-3.1129
11
6.07995
21
-3.11545
0
LINE
8
BLACK
6
CONTINUOUS
10
6.07995
20
-3.11545
11
6.08055
21
-3.11846
0
LINE
8
BLACK
6
CONTINUOUS
10
6.08055
20
-3.11846
11
6.08055
21
-3.14012
0
LINE
8
BLACK
6
CONTINUOUS
10
6.08055
20
-3.14012
11
6.07995
21
-3.14313
0
LINE
8
BLACK
6
CONTINUOUS
10
6.07995
20
-3.14313
11
6.07824
21
-3.14569
0
LINE
8
BLACK
6
CONTINUOUS
10
6.07824
20
-3.14569
11
6.07569
21
-3.14739
0
LINE
8
BLACK
6
CONTINUOUS
10
6.07569
20
-3.14739
11
6.07268
21
-3.14799
0
LINE
8
BLACK
6
CONTINUOUS
10
6.07268
20
-3.14799
11
6.05693
21
-3.14799
0
LINE
8
BLACK
6
CONTINUOUS
10
6.05693
20
-3.14799
11
6.05392
21
-3.14739
0
LINE
8
BLACK
6
CONTINUOUS
10
6.05392
20
-3.14739
11
6.05136
21
-3.14569
0
LINE
8
BLACK
6
CONTINUOUS
10
6.05136
20
-3.14569
11
6.04965
21
-3.14313
0
LINE
8
BLACK
6
CONTINUOUS
10
6.04965
20
-3.14313
11
6.04906
21
-3.14012
0
LINE
8
BLACK
6
CONTINUOUS
10
6.04906
20
-3.14012
11
6.04906
21
-3.11846
0
LINE
8
BLACK
6
CONTINUOUS
10
6.04906
20
-3.11846
11
6.04965
21
-3.11545
0
LINE
8
BLACK
6
CONTINUOUS
10
6.04965
20
-3.11545
11
6.05136
21
-3.1129
0
LINE
8
BLACK
6
CONTINUOUS
10
6.05136
20
-3.1129
11
6.05392
21
-3.11119
0
LINE
8
BLACK
6
CONTINUOUS
10
6.05392
20
-3.11119
11
6.05693
21
-3.11059
0
LINE
8
BLACK
6
CONTINUOUS
10
6.05693
20
-3.11059
11
6.07268
21
-3.11059
0
LINE
8
BLACK
6
CONTINUOUS
10
6.07268
20
-3.11059
11
6.07569
21
-3.11119
0
LINE
8
BLACK
6
CONTINUOUS
10
5.06953
20
-3.12803
11
5.0026
21
-3.12803
0
LINE
8
BLACK
6
CONTINUOUS
10
5.0026
20
-3.12803
11
5.0026
21
-3.09654
0
LINE
8
BLACK
6
CONTINUOUS
10
5.0026
20
-3.09654
11
5.06953
21
-3.09654
0
LINE
8
BLACK
6
CONTINUOUS
10
5.06953
20
-3.09654
11
5.06953
21
-3.12803
0
LINE
8
BLACK
6
CONTINUOUS
10
5.7152
20
-3.12803
11
5.64827
21
-3.12803
0
LINE
8
BLACK
6
CONTINUOUS
10
5.64827
20
-3.12803
11
5.64827
21
-3.09654
0
LINE
8
BLACK
6
CONTINUOUS
10
5.64827
20
-3.09654
11
5.7152
21
-3.09654
0
LINE
8
BLACK
6
CONTINUOUS
10
5.7152
20
-3.09654
11
5.7152
21
-3.12803
0
LINE
8
BLACK
6
CONTINUOUS
10
5.87219
20
-3.04432
11
5.87858
21
-3.04716
0
LINE
8
BLACK
6
CONTINUOUS
10
5.87858
20
-3.04716
11
5.88424
21
-3.05127
0
LINE
8
BLACK
6
CONTINUOUS
10
5.88424
20
-3.05127
11
5.88892
21
-3.05647
0
LINE
8
BLACK
6
CONTINUOUS
10
5.88892
20
-3.05647
11
5.89242
21
-3.06253
0
LINE
8
BLACK
6
CONTINUOUS
10
5.89242
20
-3.06253
11
5.89458
21
-3.06918
0
LINE
8
BLACK
6
CONTINUOUS
10
5.89458
20
-3.06918
11
5.89531
21
-3.07614
0
LINE
8
BLACK
6
CONTINUOUS
10
5.89531
20
-3.07614
11
5.89458
21
-3.0831
0
LINE
8
BLACK
6
CONTINUOUS
10
5.89458
20
-3.0831
11
5.89242
21
-3.08975
0
LINE
8
BLACK
6
CONTINUOUS
10
5.89242
20
-3.08975
11
5.88892
21
-3.09581
0
LINE
8
BLACK
6
CONTINUOUS
10
5.88892
20
-3.09581
11
5.88424
21
-3.10101
0
LINE
8
BLACK
6
CONTINUOUS
10
5.88424
20
-3.10101
11
5.87858
21
-3.10512
0
LINE
8
BLACK
6
CONTINUOUS
10
5.87858
20
-3.10512
11
5.87219
21
-3.10797
0
LINE
8
BLACK
6
CONTINUOUS
10
5.87219
20
-3.10797
11
5.86535
21
-3.10942
0
LINE
8
BLACK
6
CONTINUOUS
10
5.86535
20
-3.10942
11
5.85835
21
-3.10942
0
LINE
8
BLACK
6
CONTINUOUS
10
5.85835
20
-3.10942
11
5.85151
21
-3.10797
0
LINE
8
BLACK
6
CONTINUOUS
10
5.85151
20
-3.10797
11
5.84512
21
-3.10512
0
LINE
8
BLACK
6
CONTINUOUS
10
5.84512
20
-3.10512
11
5.83946
21
-3.10101
0
LINE
8
BLACK
6
CONTINUOUS
10
5.83946
20
-3.10101
11
5.83478
21
-3.09581
0
LINE
8
BLACK
6
CONTINUOUS
10
5.83478
20
-3.09581
11
5.83128
21
-3.08975
0
LINE
8
BLACK
6
CONTINUOUS
10
5.83128
20
-3.08975
11
5.82912
21
-3.0831
0
LINE
8
BLACK
6
CONTINUOUS
10
5.82912
20
-3.0831
11
5.82839
21
-3.07614
0
LINE
8
BLACK
6
CONTINUOUS
10
5.82839
20
-3.07614
11
5.82912
21
-3.06918
0
LINE
8
BLACK
6
CONTINUOUS
10
5.82912
20
-3.06918
11
5.83128
21
-3.06253
0
LINE
8
BLACK
6
CONTINUOUS
10
5.83128
20
-3.06253
11
5.83478
21
-3.05647
0
LINE
8
BLACK
6
CONTINUOUS
10
5.83478
20
-3.05647
11
5.83946
21
-3.05127
0
LINE
8
BLACK
6
CONTINUOUS
10
5.83946
20
-3.05127
11
5.84512
21
-3.04716
0
LINE
8
BLACK
6
CONTINUOUS
10
5.84512
20
-3.04716
11
5.85151
21
-3.04432
0
LINE
8
BLACK
6
CONTINUOUS
10
5.85151
20
-3.04432
11
5.85835
21
-3.04286
0
LINE
8
BLACK
6
CONTINUOUS
10
5.85835
20
-3.04286
11
5.86535
21
-3.04286
0
LINE
8
BLACK
6
CONTINUOUS
10
5.86535
20
-3.04286
11
5.87219
21
-3.04432
0
LINE
8
BLACK
6
CONTINUOUS
10
6.19325
20
-3.08937
11
6.16175
21
-3.08937
0
LINE
8
BLACK
6
CONTINUOUS
10
6.16175
20
-3.08937
11
6.16175
21
-3.01063
0
LINE
8
BLACK
6
CONTINUOUS
10
6.16175
20
-3.01063
11
6.19325
21
-3.01063
0
LINE
8
BLACK
6
CONTINUOUS
10
6.19325
20
-3.01063
11
6.19325
21
-3.08937
0
LINE
8
BLACK
6
CONTINUOUS
10
6.35825
20
-3.08937
11
6.32675
21
-3.08937
0
LINE
8
BLACK
6
CONTINUOUS
10
6.32675
20
-3.08937
11
6.32675
21
-3.01063
0
LINE
8
BLACK
6
CONTINUOUS
10
6.32675
20
-3.01063
11
6.35825
21
-3.01063
0
LINE
8
BLACK
6
CONTINUOUS
10
6.35825
20
-3.01063
11
6.35825
21
-3.08937
0
LINE
8
BLACK
6
CONTINUOUS
10
5.06953
20
-3.08472
11
5.0026
21
-3.08472
0
LINE
8
BLACK
6
CONTINUOUS
10
5.0026
20
-3.08472
11
5.0026
21
-3.05323
0
LINE
8
BLACK
6
CONTINUOUS
10
5.0026
20
-3.05323
11
5.06953
21
-3.05323
0
LINE
8
BLACK
6
CONTINUOUS
10
5.06953
20
-3.05323
11
5.06953
21
-3.08472
0
LINE
8
BLACK
6
CONTINUOUS
10
5.7152
20
-3.08472
11
5.64827
21
-3.08472
0
LINE
8
BLACK
6
CONTINUOUS
10
5.64827
20
-3.08472
11
5.64827
21
-3.05323
0
LINE
8
BLACK
6
CONTINUOUS
10
5.64827
20
-3.05323
11
5.7152
21
-3.05323
0
LINE
8
BLACK
6
CONTINUOUS
10
5.7152
20
-3.05323
11
5.7152
21
-3.08472
0
LINE
8
BLACK
6
CONTINUOUS
10
6.01073
20
-3.01237
11
6.01328
21
-3.01408
0
LINE
8
BLACK
6
CONTINUOUS
10
6.01328
20
-3.01408
11
6.01499
21
-3.01663
0
LINE
8
BLACK
6
CONTINUOUS
10
6.01499
20
-3.01663
11
6.01559
21
-3.01965
0
LINE
8
BLACK
6
CONTINUOUS
10
6.01559
20
-3.01965
11
6.01559
21
-3.0413
0
LINE
8
BLACK
6
CONTINUOUS
10
6.01559
20
-3.0413
11
6.01499
21
-3.04431
0
LINE
8
BLACK
6
CONTINUOUS
10
6.01499
20
-3.04431
11
6.01328
21
-3.04687
0
LINE
8
BLACK
6
CONTINUOUS
10
6.01328
20
-3.04687
11
6.01073
21
-3.04857
0
LINE
8
BLACK
6
CONTINUOUS
10
6.01073
20
-3.04857
11
6.00772
21
-3.04917
0
LINE
8
BLACK
6
CONTINUOUS
10
6.00772
20
-3.04917
11
5.99197
21
-3.04917
0
LINE
8
BLACK
6
CONTINUOUS
10
5.99197
20
-3.04917
11
5.98896
21
-3.04857
0
LINE
8
BLACK
6
CONTINUOUS
10
5.98896
20
-3.04857
11
5.9864
21
-3.04687
0
LINE
8
BLACK
6
CONTINUOUS
10
5.9864
20
-3.04687
11
5.98469
21
-3.04431
0
LINE
8
BLACK
6
CONTINUOUS
10
5.98469
20
-3.04431
11
5.98409
21
-3.0413
0
LINE
8
BLACK
6
CONTINUOUS
10
5.98409
20
-3.0413
11
5.98409
21
-3.01965
0
LINE
8
BLACK
6
CONTINUOUS
10
5.98409
20
-3.01965
11
5.98469
21
-3.01663
0
LINE
8
BLACK
6
CONTINUOUS
10
5.98469
20
-3.01663
11
5.9864
21
-3.01408
0
LINE
8
BLACK
6
CONTINUOUS
10
5.9864
20
-3.01408
11
5.98896
21
-3.01237
0
LINE
8
BLACK
6
CONTINUOUS
10
5.98896
20
-3.01237
11
5.99197
21
-3.01177
0
LINE
8
BLACK
6
CONTINUOUS
10
5.99197
20
-3.01177
11
6.00772
21
-3.01177
0
LINE
8
BLACK
6
CONTINUOUS
10
6.00772
20
-3.01177
11
6.01073
21
-3.01237
0
LINE
8
BLACK
6
CONTINUOUS
10
6.07569
20
-3.01237
11
6.07824
21
-3.01408
0
LINE
8
BLACK
6
CONTINUOUS
10
6.07824
20
-3.01408
11
6.07995
21
-3.01663
0
LINE
8
BLACK
6
CONTINUOUS
10
6.07995
20
-3.01663
11
6.08055
21
-3.01965
0
LINE
8
BLACK
6
CONTINUOUS
10
6.08055
20
-3.01965
11
6.08055
21
-3.0413
0
LINE
8
BLACK
6
CONTINUOUS
10
6.08055
20
-3.0413
11
6.07995
21
-3.04431
0
LINE
8
BLACK
6
CONTINUOUS
10
6.07995
20
-3.04431
11
6.07824
21
-3.04687
0
LINE
8
BLACK
6
CONTINUOUS
10
6.07824
20
-3.04687
11
6.07569
21
-3.04857
0
LINE
8
BLACK
6
CONTINUOUS
10
6.07569
20
-3.04857
11
6.07268
21
-3.04917
0
LINE
8
BLACK
6
CONTINUOUS
10
6.07268
20
-3.04917
11
6.05693
21
-3.04917
0
LINE
8
BLACK
6
CONTINUOUS
10
6.05693
20
-3.04917
11
6.05392
21
-3.04857
0
LINE
8
BLACK
6
CONTINUOUS
10
6.05392
20
-3.04857
11
6.05136
21
-3.04687
0
LINE
8
BLACK
6
CONTINUOUS
10
6.05136
20
-3.04687
11
6.04965
21
-3.04431
0
LINE
8
BLACK
6
CONTINUOUS
10
6.04965
20
-3.04431
11
6.04906
21
-3.0413
0
LINE
8
BLACK
6
CONTINUOUS
10
6.04906
20
-3.0413
11
6.04906
21
-3.01965
0
LINE
8
BLACK
6
CONTINUOUS
10
6.04906
20
-3.01965
11
6.04965
21
-3.01663
0
LINE
8
BLACK
6
CONTINUOUS
10
6.04965
20
-3.01663
11
6.05136
21
-3.01408
0
LINE
8
BLACK
6
CONTINUOUS
10
6.05136
20
-3.01408
11
6.05392
21
-3.01237
0
LINE
8
BLACK
6
CONTINUOUS
10
6.05392
20
-3.01237
11
6.05693
21
-3.01177
0
LINE
8
BLACK
6
CONTINUOUS
10
6.05693
20
-3.01177
11
6.07268
21
-3.01177
0
LINE
8
BLACK
6
CONTINUOUS
10
6.07268
20
-3.01177
11
6.07569
21
-3.01237
0
LINE
8
BLACK
6
CONTINUOUS
10
5.06953
20
-3.04142
11
5.0026
21
-3.04142
0
LINE
8
BLACK
6
CONTINUOUS
10
5.0026
20
-3.04142
11
5.0026
21
-3.00992
0
LINE
8
BLACK
6
CONTINUOUS
10
5.0026
20
-3.00992
11
5.06953
21
-3.00992
0
LINE
8
BLACK
6
CONTINUOUS
10
5.06953
20
-3.00992
11
5.06953
21
-3.04142
0
LINE
8
BLACK
6
CONTINUOUS
10
5.7152
20
-3.04142
11
5.64827
21
-3.04142
0
LINE
8
BLACK
6
CONTINUOUS
10
5.64827
20
-3.04142
11
5.64827
21
-3.00992
0
LINE
8
BLACK
6
CONTINUOUS
10
5.64827
20
-3.00992
11
5.7152
21
-3.00992
0
LINE
8
BLACK
6
CONTINUOUS
10
5.7152
20
-3.00992
11
5.7152
21
-3.04142
0
LINE
8
BLACK
6
CONTINUOUS
10
5.87219
20
-2.94432
11
5.87858
21
-2.94716
0
LINE
8
BLACK
6
CONTINUOUS
10
5.87858
20
-2.94716
11
5.88424
21
-2.95127
0
LINE
8
BLACK
6
CONTINUOUS
10
5.88424
20
-2.95127
11
5.88892
21
-2.95647
0
LINE
8
BLACK
6
CONTINUOUS
10
5.88892
20
-2.95647
11
5.89242
21
-2.96253
0
LINE
8
BLACK
6
CONTINUOUS
10
5.89242
20
-2.96253
11
5.89458
21
-2.96918
0
LINE
8
BLACK
6
CONTINUOUS
10
5.89458
20
-2.96918
11
5.89531
21
-2.97614
0
LINE
8
BLACK
6
CONTINUOUS
10
5.89531
20
-2.97614
11
5.89458
21
-2.9831
0
LINE
8
BLACK
6
CONTINUOUS
10
5.89458
20
-2.9831
11
5.89242
21
-2.98975
0
LINE
8
BLACK
6
CONTINUOUS
10
5.89242
20
-2.98975
11
5.88892
21
-2.99581
0
LINE
8
BLACK
6
CONTINUOUS
10
5.88892
20
-2.99581
11
5.88424
21
-3.00101
0
LINE
8
BLACK
6
CONTINUOUS
10
5.88424
20
-3.00101
11
5.87858
21
-3.00512
0
LINE
8
BLACK
6
CONTINUOUS
10
5.87858
20
-3.00512
11
5.87219
21
-3.00797
0
LINE
8
BLACK
6
CONTINUOUS
10
5.87219
20
-3.00797
11
5.86535
21
-3.00942
0
LINE
8
BLACK
6
CONTINUOUS
10
5.86535
20
-3.00942
11
5.85835
21
-3.00942
0
LINE
8
BLACK
6
CONTINUOUS
10
5.85835
20
-3.00942
11
5.85151
21
-3.00797
0
LINE
8
BLACK
6
CONTINUOUS
10
5.85151
20
-3.00797
11
5.84512
21
-3.00512
0
LINE
8
BLACK
6
CONTINUOUS
10
5.84512
20
-3.00512
11
5.83946
21
-3.00101
0
LINE
8
BLACK
6
CONTINUOUS
10
5.83946
20
-3.00101
11
5.83478
21
-2.99581
0
LINE
8
BLACK
6
CONTINUOUS
10
5.83478
20
-2.99581
11
5.83128
21
-2.98975
0
LINE
8
BLACK
6
CONTINUOUS
10
5.83128
20
-2.98975
11
5.82912
21
-2.9831
0
LINE
8
BLACK
6
CONTINUOUS
10
5.82912
20
-2.9831
11
5.82839
21
-2.97614
0
LINE
8
BLACK
6
CONTINUOUS
10
5.82839
20
-2.97614
11
5.82912
21
-2.96918
0
LINE
8
BLACK
6
CONTINUOUS
10
5.82912
20
-2.96918
11
5.83128
21
-2.96253
0
LINE
8
BLACK
6
CONTINUOUS
10
5.83128
20
-2.96253
11
5.83478
21
-2.95647
0
LINE
8
BLACK
6
CONTINUOUS
10
5.83478
20
-2.95647
11
5.83946
21
-2.95127
0
LINE
8
BLACK
6
CONTINUOUS
10
5.83946
20
-2.95127
11
5.84512
21
-2.94716
0
LINE
8
BLACK
6
CONTINUOUS
10
5.84512
20
-2.94716
11
5.85151
21
-2.94432
0
LINE
8
BLACK
6
CONTINUOUS
10
5.85151
20
-2.94432
11
5.85835
21
-2.94286
0
LINE
8
BLACK
6
CONTINUOUS
10
5.85835
20
-2.94286
11
5.86535
21
-2.94286
0
LINE
8
BLACK
6
CONTINUOUS
10
5.86535
20
-2.94286
11
5.87219
21
-2.94432
0
LINE
8
BLACK
6
CONTINUOUS
10
5.06953
20
-2.99811
11
5.0026
21
-2.99811
0
LINE
8
BLACK
6
CONTINUOUS
10
5.0026
20
-2.99811
11
5.0026
21
-2.96661
0
LINE
8
BLACK
6
CONTINUOUS
10
5.0026
20
-2.96661
11
5.06953
21
-2.96661
0
LINE
8
BLACK
6
CONTINUOUS
10
5.06953
20
-2.96661
11
5.06953
21
-2.99811
0
LINE
8
BLACK
6
CONTINUOUS
10
5.7152
20
-2.99811
11
5.64827
21
-2.99811
0
LINE
8
BLACK
6
CONTINUOUS
10
5.64827
20
-2.99811
11
5.64827
21
-2.96661
0
LINE
8
BLACK
6
CONTINUOUS
10
5.64827
20
-2.96661
11
5.7152
21
-2.96661
0
LINE
8
BLACK
6
CONTINUOUS
10
5.7152
20
-2.96661
11
5.7152
21
-2.99811
0
LINE
8
BLACK
6
CONTINUOUS
10
5.06953
20
-2.9548
11
5.0026
21
-2.9548
0
LINE
8
BLACK
6
CONTINUOUS
10
5.0026
20
-2.9548
11
5.0026
21
-2.92331
0
LINE
8
BLACK
6
CONTINUOUS
10
5.0026
20
-2.92331
11
5.06953
21
-2.92331
0
LINE
8
BLACK
6
CONTINUOUS
10
5.06953
20
-2.92331
11
5.06953
21
-2.9548
0
LINE
8
BLACK
6
CONTINUOUS
10
5.7152
20
-2.9548
11
5.64827
21
-2.9548
0
LINE
8
BLACK
6
CONTINUOUS
10
5.64827
20
-2.9548
11
5.64827
21
-2.92331
0
LINE
8
BLACK
6
CONTINUOUS
10
5.64827
20
-2.92331
11
5.7152
21
-2.92331
0
LINE
8
BLACK
6
CONTINUOUS
10
5.7152
20
-2.92331
11
5.7152
21
-2.9548
0
LINE
8
BLACK
6
CONTINUOUS
10
6.01073
20
-2.91355
11
6.01328
21
-2.91526
0
LINE
8
BLACK
6
CONTINUOUS
10
6.01328
20
-2.91526
11
6.01499
21
-2.91781
0
LINE
8
BLACK
6
CONTINUOUS
10
6.01499
20
-2.91781
11
6.01559
21
-2.92083
0
LINE
8
BLACK
6
CONTINUOUS
10
6.01559
20
-2.92083
11
6.01559
21
-2.94248
0
LINE
8
BLACK
6
CONTINUOUS
10
6.01559
20
-2.94248
11
6.01499
21
-2.94549
0
LINE
8
BLACK
6
CONTINUOUS
10
6.01499
20
-2.94549
11
6.01328
21
-2.94805
0
LINE
8
BLACK
6
CONTINUOUS
10
6.01328
20
-2.94805
11
6.01073
21
-2.94975
0
LINE
8
BLACK
6
CONTINUOUS
10
6.01073
20
-2.94975
11
6.00772
21
-2.95035
0
LINE
8
BLACK
6
CONTINUOUS
10
6.00772
20
-2.95035
11
5.99197
21
-2.95035
0
LINE
8
BLACK
6
CONTINUOUS
10
5.99197
20
-2.95035
11
5.98896
21
-2.94975
0
LINE
8
BLACK
6
CONTINUOUS
10
5.98896
20
-2.94975
11
5.9864
21
-2.94805
0
LINE
8
BLACK
6
CONTINUOUS
10
5.9864
20
-2.94805
11
5.98469
21
-2.94549
0
LINE
8
BLACK
6
CONTINUOUS
10
5.98469
20
-2.94549
11
5.98409
21
-2.94248
0
LINE
8
BLACK
6
CONTINUOUS
10
5.98409
20
-2.94248
11
5.98409
21
-2.92083
0
LINE
8
BLACK
6
CONTINUOUS
10
5.98409
20
-2.92083
11
5.98469
21
-2.91781
0
LINE
8
BLACK
6
CONTINUOUS
10
5.98469
20
-2.91781
11
5.9864
21
-2.91526
0
LINE
8
BLACK
6
CONTINUOUS
10
5.9864
20
-2.91526
11
5.98896
21
-2.91355
0
LINE
8
BLACK
6
CONTINUOUS
10
5.98896
20
-2.91355
11
5.99197
21
-2.91295
0
LINE
8
BLACK
6
CONTINUOUS
10
5.99197
20
-2.91295
11
6.00772
21
-2.91295
0
LINE
8
BLACK
6
CONTINUOUS
10
6.00772
20
-2.91295
11
6.01073
21
-2.91355
0
LINE
8
BLACK
6
CONTINUOUS
10
6.07569
20
-2.91355
11
6.07824
21
-2.91526
0
LINE
8
BLACK
6
CONTINUOUS
10
6.07824
20
-2.91526
11
6.07995
21
-2.91781
0
LINE
8
BLACK
6
CONTINUOUS
10
6.07995
20
-2.91781
11
6.08055
21
-2.92083
0
LINE
8
BLACK
6
CONTINUOUS
10
6.08055
20
-2.92083
11
6.08055
21
-2.94248
0
LINE
8
BLACK
6
CONTINUOUS
10
6.08055
20
-2.94248
11
6.07995
21
-2.94549
0
LINE
8
BLACK
6
CONTINUOUS
10
6.07995
20
-2.94549
11
6.07824
21
-2.94805
0
LINE
8
BLACK
6
CONTINUOUS
10
6.07824
20
-2.94805
11
6.07569
21
-2.94975
0
LINE
8
BLACK
6
CONTINUOUS
10
6.07569
20
-2.94975
11
6.07268
21
-2.95035
0
LINE
8
BLACK
6
CONTINUOUS
10
6.07268
20
-2.95035
11
6.05693
21
-2.95035
0
LINE
8
BLACK
6
CONTINUOUS
10
6.05693
20
-2.95035
11
6.05392
21
-2.94975
0
LINE
8
BLACK
6
CONTINUOUS
10
6.05392
20
-2.94975
11
6.05136
21
-2.94805
0
LINE
8
BLACK
6
CONTINUOUS
10
6.05136
20
-2.94805
11
6.04965
21
-2.94549
0
LINE
8
BLACK
6
CONTINUOUS
10
6.04965
20
-2.94549
11
6.04906
21
-2.94248
0
LINE
8
BLACK
6
CONTINUOUS
10
6.04906
20
-2.94248
11
6.04906
21
-2.92083
0
LINE
8
BLACK
6
CONTINUOUS
10
6.04906
20
-2.92083
11
6.04965
21
-2.91781
0
LINE
8
BLACK
6
CONTINUOUS
10
6.04965
20
-2.91781
11
6.05136
21
-2.91526
0
LINE
8
BLACK
6
CONTINUOUS
10
6.05136
20
-2.91526
11
6.05392
21
-2.91355
0
LINE
8
BLACK
6
CONTINUOUS
10
6.05392
20
-2.91355
11
6.05693
21
-2.91295
0
LINE
8
BLACK
6
CONTINUOUS
10
6.05693
20
-2.91295
11
6.07268
21
-2.91295
0
LINE
8
BLACK
6
CONTINUOUS
10
6.07268
20
-2.91295
11
6.07569
21
-2.91355
0
LINE
8
BLACK
6
CONTINUOUS
10
5.06953
20
-2.9115
11
5.0026
21
-2.9115
0
LINE
8
BLACK
6
CONTINUOUS
10
5.0026
20
-2.9115
11
5.0026
21
-2.88
0
LINE
8
BLACK
6
CONTINUOUS
10
5.0026
20
-2.88
11
5.06953
21
-2.88
0
LINE
8
BLACK
6
CONTINUOUS
10
5.06953
20
-2.88
11
5.06953
21
-2.9115
0
LINE
8
BLACK
6
CONTINUOUS
10
5.7152
20
-2.9115
11
5.64827
21
-2.9115
0
LINE
8
BLACK
6
CONTINUOUS
10
5.64827
20
-2.9115
11
5.64827
21
-2.88
0
LINE
8
BLACK
6
CONTINUOUS
10
5.64827
20
-2.88
11
5.7152
21
-2.88
0
LINE
8
BLACK
6
CONTINUOUS
10
5.7152
20
-2.88
11
5.7152
21
-2.9115
0
LINE
8
BLACK
6
CONTINUOUS
10
5.87219
20
-2.84432
11
5.87858
21
-2.84716
0
LINE
8
BLACK
6
CONTINUOUS
10
5.87858
20
-2.84716
11
5.88424
21
-2.85127
0
LINE
8
BLACK
6
CONTINUOUS
10
5.88424
20
-2.85127
11
5.88892
21
-2.85647
0
LINE
8
BLACK
6
CONTINUOUS
10
5.88892
20
-2.85647
11
5.89242
21
-2.86253
0
LINE
8
BLACK
6
CONTINUOUS
10
5.89242
20
-2.86253
11
5.89458
21
-2.86918
0
LINE
8
BLACK
6
CONTINUOUS
10
5.89458
20
-2.86918
11
5.89531
21
-2.87614
0
LINE
8
BLACK
6
CONTINUOUS
10
5.89531
20
-2.87614
11
5.89458
21
-2.8831
0
LINE
8
BLACK
6
CONTINUOUS
10
5.89458
20
-2.8831
11
5.89242
21
-2.88975
0
LINE
8
BLACK
6
CONTINUOUS
10
5.89242
20
-2.88975
11
5.88892
21
-2.89581
0
LINE
8
BLACK
6
CONTINUOUS
10
5.88892
20
-2.89581
11
5.88424
21
-2.90101
0
LINE
8
BLACK
6
CONTINUOUS
10
5.88424
20
-2.90101
11
5.87858
21
-2.90512
0
LINE
8
BLACK
6
CONTINUOUS
10
5.87858
20
-2.90512
11
5.87219
21
-2.90797
0
LINE
8
BLACK
6
CONTINUOUS
10
5.87219
20
-2.90797
11
5.86535
21
-2.90942
0
LINE
8
BLACK
6
CONTINUOUS
10
5.86535
20
-2.90942
11
5.85835
21
-2.90942
0
LINE
8
BLACK
6
CONTINUOUS
10
5.85835
20
-2.90942
11
5.85151
21
-2.90797
0
LINE
8
BLACK
6
CONTINUOUS
10
5.85151
20
-2.90797
11
5.84512
21
-2.90512
0
LINE
8
BLACK
6
CONTINUOUS
10
5.84512
20
-2.90512
11
5.83946
21
-2.90101
0
LINE
8
BLACK
6
CONTINUOUS
10
5.83946
20
-2.90101
11
5.83478
21
-2.89581
0
LINE
8
BLACK
6
CONTINUOUS
10
5.83478
20
-2.89581
11
5.83128
21
-2.88975
0
LINE
8
BLACK
6
CONTINUOUS
10
5.83128
20
-2.88975
11
5.82912
21
-2.8831
0
LINE
8
BLACK
6
CONTINUOUS
10
5.82912
20
-2.8831
11
5.82839
21
-2.87614
0
LINE
8
BLACK
6
CONTINUOUS
10
5.82839
20
-2.87614
11
5.82912
21
-2.86918
0
LINE
8
BLACK
6
CONTINUOUS
10
5.82912
20
-2.86918
11
5.83128
21
-2.86253
0
LINE
8
BLACK
6
CONTINUOUS
10
5.83128
20
-2.86253
11
5.83478
21
-2.85647
0
LINE
8
BLACK
6
CONTINUOUS
10
5.83478
20
-2.85647
11
5.83946
21
-2.85127
0
LINE
8
BLACK
6
CONTINUOUS
10
5.83946
20
-2.85127
11
5.84512
21
-2.84716
0
LINE
8
BLACK
6
CONTINUOUS
10
5.84512
20
-2.84716
11
5.85151
21
-2.84432
0
LINE
8
BLACK
6
CONTINUOUS
10
5.85151
20
-2.84432
11
5.85835
21
-2.84286
0
LINE
8
BLACK
6
CONTINUOUS
10
5.85835
20
-2.84286
11
5.86535
21
-2.84286
0
LINE
8
BLACK
6
CONTINUOUS
10
5.86535
20
-2.84286
11
5.87219
21
-2.84432
0
LINE
8
BLACK
6
CONTINUOUS
10
6.20866
20
-2.90043
11
6.18898
21
-2.90043
0
LINE
8
BLACK
6
CONTINUOUS
10
6.18898
20
-2.90043
11
6.18898
21
-2.88469
0
LINE
8
BLACK
6
CONTINUOUS
10
6.18898
20
-2.88469
11
6.20866
21
-2.88469
0
LINE
8
BLACK
6
CONTINUOUS
10
6.20866
20
-2.88469
11
6.20866
21
-2.90043
0
LINE
8
BLACK
6
CONTINUOUS
10
6.25984
20
-2.90043
11
6.24016
21
-2.90043
0
LINE
8
BLACK
6
CONTINUOUS
10
6.24016
20
-2.90043
11
6.24016
21
-2.88469
0
LINE
8
BLACK
6
CONTINUOUS
10
6.24016
20
-2.88469
11
6.25984
21
-2.88469
0
LINE
8
BLACK
6
CONTINUOUS
10
6.25984
20
-2.88469
11
6.25984
21
-2.90043
0
LINE
8
BLACK
6
CONTINUOUS
10
6.20866
20
-2.87287
11
6.18898
21
-2.87287
0
LINE
8
BLACK
6
CONTINUOUS
10
6.18898
20
-2.87287
11
6.18898
21
-2.85713
0
LINE
8
BLACK
6
CONTINUOUS
10
6.18898
20
-2.85713
11
6.20866
21
-2.85713
0
LINE
8
BLACK
6
CONTINUOUS
10
6.20866
20
-2.85713
11
6.20866
21
-2.87287
0
LINE
8
BLACK
6
CONTINUOUS
10
6.25984
20
-2.87287
11
6.24016
21
-2.87287
0
LINE
8
BLACK
6
CONTINUOUS
10
6.24016
20
-2.87287
11
6.24016
21
-2.85713
0
LINE
8
BLACK
6
CONTINUOUS
10
6.24016
20
-2.85713
11
6.25984
21
-2.85713
0
LINE
8
BLACK
6
CONTINUOUS
10
6.25984
20
-2.85713
11
6.25984
21
-2.87287
0
LINE
8
BLACK
6
CONTINUOUS
10
5.06953
20
-2.86819
11
5.0026
21
-2.86819
0
LINE
8
BLACK
6
CONTINUOUS
10
5.0026
20
-2.86819
11
5.0026
21
-2.83669
0
LINE
8
BLACK
6
CONTINUOUS
10
5.0026
20
-2.83669
11
5.06953
21
-2.83669
0
LINE
8
BLACK
6
CONTINUOUS
10
5.06953
20
-2.83669
11
5.06953
21
-2.86819
0
LINE
8
BLACK
6
CONTINUOUS
10
5.7152
20
-2.86819
11
5.64827
21
-2.86819
0
LINE
8
BLACK
6
CONTINUOUS
10
5.64827
20
-2.86819
11
5.64827
21
-2.83669
0
LINE
8
BLACK
6
CONTINUOUS
10
5.64827
20
-2.83669
11
5.7152
21
-2.83669
0
LINE
8
BLACK
6
CONTINUOUS
10
5.7152
20
-2.83669
11
5.7152
21
-2.86819
0
LINE
8
BLACK
6
CONTINUOUS
10
6.01073
20
-2.81473
11
6.01328
21
-2.81644
0
LINE
8
BLACK
6
CONTINUOUS
10
6.01328
20
-2.81644
11
6.01499
21
-2.81899
0
LINE
8
BLACK
6
CONTINUOUS
10
6.01499
20
-2.81899
11
6.01559
21
-2.82201
0
LINE
8
BLACK
6
CONTINUOUS
10
6.01559
20
-2.82201
11
6.01559
21
-2.84366
0
LINE
8
BLACK
6
CONTINUOUS
10
6.01559
20
-2.84366
11
6.01499
21
-2.84667
0
LINE
8
BLACK
6
CONTINUOUS
10
6.01499
20
-2.84667
11
6.01328
21
-2.84923
0
LINE
8
BLACK
6
CONTINUOUS
10
6.01328
20
-2.84923
11
6.01073
21
-2.85094
0
LINE
8
BLACK
6
CONTINUOUS
10
6.01073
20
-2.85094
11
6.00772
21
-2.85154
0
LINE
8
BLACK
6
CONTINUOUS
10
6.00772
20
-2.85154
11
5.99197
21
-2.85154
0
LINE
8
BLACK
6
CONTINUOUS
10
5.99197
20
-2.85154
11
5.98896
21
-2.85094
0
LINE
8
BLACK
6
CONTINUOUS
10
5.98896
20
-2.85094
11
5.9864
21
-2.84923
0
LINE
8
BLACK
6
CONTINUOUS
10
5.9864
20
-2.84923
11
5.98469
21
-2.84667
0
LINE
8
BLACK
6
CONTINUOUS
10
5.98469
20
-2.84667
11
5.98409
21
-2.84366
0
LINE
8
BLACK
6
CONTINUOUS
10
5.98409
20
-2.84366
11
5.98409
21
-2.82201
0
LINE
8
BLACK
6
CONTINUOUS
10
5.98409
20
-2.82201
11
5.98469
21
-2.81899
0
LINE
8
BLACK
6
CONTINUOUS
10
5.98469
20
-2.81899
11
5.9864
21
-2.81644
0
LINE
8
BLACK
6
CONTINUOUS
10
5.9864
20
-2.81644
11
5.98896
21
-2.81473
0
LINE
8
BLACK
6
CONTINUOUS
10
5.98896
20
-2.81473
11
5.99197
21
-2.81413
0
LINE
8
BLACK
6
CONTINUOUS
10
5.99197
20
-2.81413
11
6.00772
21
-2.81413
0
LINE
8
BLACK
6
CONTINUOUS
10
6.00772
20
-2.81413
11
6.01073
21
-2.81473
0
LINE
8
BLACK
6
CONTINUOUS
10
6.07569
20
-2.81473
11
6.07824
21
-2.81644
0
LINE
8
BLACK
6
CONTINUOUS
10
6.07824
20
-2.81644
11
6.07995
21
-2.81899
0
LINE
8
BLACK
6
CONTINUOUS
10
6.07995
20
-2.81899
11
6.08055
21
-2.82201
0
LINE
8
BLACK
6
CONTINUOUS
10
6.08055
20
-2.82201
11
6.08055
21
-2.84366
0
LINE
8
BLACK
6
CONTINUOUS
10
6.08055
20
-2.84366
11
6.07995
21
-2.84667
0
LINE
8
BLACK
6
CONTINUOUS
10
6.07995
20
-2.84667
11
6.07824
21
-2.84923
0
LINE
8
BLACK
6
CONTINUOUS
10
6.07824
20
-2.84923
11
6.07569
21
-2.85094
0
LINE
8
BLACK
6
CONTINUOUS
10
6.07569
20
-2.85094
11
6.07268
21
-2.85154
0
LINE
8
BLACK
6
CONTINUOUS
10
6.07268
20
-2.85154
11
6.05693
21
-2.85154
0
LINE
8
BLACK
6
CONTINUOUS
10
6.05693
20
-2.85154
11
6.05392
21
-2.85094
0
LINE
8
BLACK
6
CONTINUOUS
10
6.05392
20
-2.85094
11
6.05136
21
-2.84923
0
LINE
8
BLACK
6
CONTINUOUS
10
6.05136
20
-2.84923
11
6.04965
21
-2.84667
0
LINE
8
BLACK
6
CONTINUOUS
10
6.04965
20
-2.84667
11
6.04906
21
-2.84366
0
LINE
8
BLACK
6
CONTINUOUS
10
6.04906
20
-2.84366
11
6.04906
21
-2.82201
0
LINE
8
BLACK
6
CONTINUOUS
10
6.04906
20
-2.82201
11
6.04965
21
-2.81899
0
LINE
8
BLACK
6
CONTINUOUS
10
6.04965
20
-2.81899
11
6.05136
21
-2.81644
0
LINE
8
BLACK
6
CONTINUOUS
10
6.05136
20
-2.81644
11
6.05392
21
-2.81473
0
LINE
8
BLACK
6
CONTINUOUS
10
6.05392
20
-2.81473
11
6.05693
21
-2.81413
0
LINE
8
BLACK
6
CONTINUOUS
10
6.05693
20
-2.81413
11
6.07268
21
-2.81413
0
LINE
8
BLACK
6
CONTINUOUS
10
6.07268
20
-2.81413
11
6.07569
21
-2.81473
0
LINE
8
BLACK
6
CONTINUOUS
10
5.06953
20
-2.82488
11
5.0026
21
-2.82488
0
LINE
8
BLACK
6
CONTINUOUS
10
5.0026
20
-2.82488
11
5.0026
21
-2.79339
0
LINE
8
BLACK
6
CONTINUOUS
10
5.0026
20
-2.79339
11
5.06953
21
-2.79339
0
LINE
8
BLACK
6
CONTINUOUS
10
5.06953
20
-2.79339
11
5.06953
21
-2.82488
0
LINE
8
BLACK
6
CONTINUOUS
10
5.7152
20
-2.82488
11
5.64827
21
-2.82488
0
LINE
8
BLACK
6
CONTINUOUS
10
5.64827
20
-2.82488
11
5.64827
21
-2.79339
0
LINE
8
BLACK
6
CONTINUOUS
10
5.64827
20
-2.79339
11
5.7152
21
-2.79339
0
LINE
8
BLACK
6
CONTINUOUS
10
5.7152
20
-2.79339
11
5.7152
21
-2.82488
0
LINE
8
BLACK
6
CONTINUOUS
10
5.89531
20
-2.80961
11
5.82839
21
-2.80961
0
LINE
8
BLACK
6
CONTINUOUS
10
5.82839
20
-2.80961
11
5.82839
21
-2.74268
0
LINE
8
BLACK
6
CONTINUOUS
10
5.82839
20
-2.74268
11
5.89531
21
-2.74268
0
LINE
8
BLACK
6
CONTINUOUS
10
5.89531
20
-2.74268
11
5.89531
21
-2.80961
0
LINE
8
BLACK
6
CONTINUOUS
10
5.06953
20
-2.78157
11
5.0026
21
-2.78157
0
LINE
8
BLACK
6
CONTINUOUS
10
5.0026
20
-2.78157
11
5.0026
21
-2.75008
0
LINE
8
BLACK
6
CONTINUOUS
10
5.0026
20
-2.75008
11
5.06953
21
-2.75008
0
LINE
8
BLACK
6
CONTINUOUS
10
5.06953
20
-2.75008
11
5.06953
21
-2.78157
0
LINE
8
BLACK
6
CONTINUOUS
10
5.7152
20
-2.78157
11
5.64827
21
-2.78157
0
LINE
8
BLACK
6
CONTINUOUS
10
5.64827
20
-2.78157
11
5.64827
21
-2.75008
0
LINE
8
BLACK
6
CONTINUOUS
10
5.64827
20
-2.75008
11
5.7152
21
-2.75008
0
LINE
8
BLACK
6
CONTINUOUS
10
5.7152
20
-2.75008
11
5.7152
21
-2.78157
0
LINE
8
BLACK
6
CONTINUOUS
10
6.01406
20
-2.71599
11
6.01693
21
-2.71791
0
LINE
8
BLACK
6
CONTINUOUS
10
6.01693
20
-2.71791
11
6.01885
21
-2.72078
0
LINE
8
BLACK
6
CONTINUOUS
10
6.01885
20
-2.72078
11
6.01953
21
-2.72417
0
LINE
8
BLACK
6
CONTINUOUS
10
6.01953
20
-2.72417
11
6.01953
21
-2.74386
0
LINE
8
BLACK
6
CONTINUOUS
10
6.01953
20
-2.74386
11
6.01885
21
-2.74725
0
LINE
8
BLACK
6
CONTINUOUS
10
6.01885
20
-2.74725
11
6.01693
21
-2.75012
0
LINE
8
BLACK
6
CONTINUOUS
10
6.01693
20
-2.75012
11
6.01406
21
-2.75204
0
LINE
8
BLACK
6
CONTINUOUS
10
6.01406
20
-2.75204
11
6.01067
21
-2.75272
0
LINE
8
BLACK
6
CONTINUOUS
10
6.01067
20
-2.75272
11
5.99295
21
-2.75272
0
LINE
8
BLACK
6
CONTINUOUS
10
5.99295
20
-2.75272
11
5.98956
21
-2.75204
0
LINE
8
BLACK
6
CONTINUOUS
10
5.98956
20
-2.75204
11
5.98669
21
-2.75012
0
LINE
8
BLACK
6
CONTINUOUS
10
5.98669
20
-2.75012
11
5.98477
21
-2.74725
0
LINE
8
BLACK
6
CONTINUOUS
10
5.98477
20
-2.74725
11
5.98409
21
-2.74386
0
LINE
8
BLACK
6
CONTINUOUS
10
5.98409
20
-2.74386
11
5.98409
21
-2.72417
0
LINE
8
BLACK
6
CONTINUOUS
10
5.98409
20
-2.72417
11
5.98477
21
-2.72078
0
LINE
8
BLACK
6
CONTINUOUS
10
5.98477
20
-2.72078
11
5.98669
21
-2.71791
0
LINE
8
BLACK
6
CONTINUOUS
10
5.98669
20
-2.71791
11
5.98956
21
-2.71599
0
LINE
8
BLACK
6
CONTINUOUS
10
5.98956
20
-2.71599
11
5.99295
21
-2.71531
0
LINE
8
BLACK
6
CONTINUOUS
10
5.99295
20
-2.71531
11
6.01067
21
-2.71531
0
LINE
8
BLACK
6
CONTINUOUS
10
6.01067
20
-2.71531
11
6.01406
21
-2.71599
0
LINE
8
BLACK
6
CONTINUOUS
10
6.07508
20
-2.71599
11
6.07796
21
-2.71791
0
LINE
8
BLACK
6
CONTINUOUS
10
6.07796
20
-2.71791
11
6.07988
21
-2.72078
0
LINE
8
BLACK
6
CONTINUOUS
10
6.07988
20
-2.72078
11
6.08055
21
-2.72417
0
LINE
8
BLACK
6
CONTINUOUS
10
6.08055
20
-2.72417
11
6.08055
21
-2.74386
0
LINE
8
BLACK
6
CONTINUOUS
10
6.08055
20
-2.74386
11
6.07988
21
-2.74725
0
LINE
8
BLACK
6
CONTINUOUS
10
6.07988
20
-2.74725
11
6.07796
21
-2.75012
0
LINE
8
BLACK
6
CONTINUOUS
10
6.07796
20
-2.75012
11
6.07508
21
-2.75204
0
LINE
8
BLACK
6
CONTINUOUS
10
6.07508
20
-2.75204
11
6.07169
21
-2.75272
0
LINE
8
BLACK
6
CONTINUOUS
10
6.07169
20
-2.75272
11
6.05398
21
-2.75272
0
LINE
8
BLACK
6
CONTINUOUS
10
6.05398
20
-2.75272
11
6.05059
21
-2.75204
0
LINE
8
BLACK
6
CONTINUOUS
10
6.05059
20
-2.75204
11
6.04771
21
-2.75012
0
LINE
8
BLACK
6
CONTINUOUS
10
6.04771
20
-2.75012
11
6.04579
21
-2.74725
0
LINE
8
BLACK
6
CONTINUOUS
10
6.04579
20
-2.74725
11
6.04512
21
-2.74386
0
LINE
8
BLACK
6
CONTINUOUS
10
6.04512
20
-2.74386
11
6.04512
21
-2.72417
0
LINE
8
BLACK
6
CONTINUOUS
10
6.04512
20
-2.72417
11
6.04579
21
-2.72078
0
LINE
8
BLACK
6
CONTINUOUS
10
6.04579
20
-2.72078
11
6.04771
21
-2.71791
0
LINE
8
BLACK
6
CONTINUOUS
10
6.04771
20
-2.71791
11
6.05059
21
-2.71599
0
LINE
8
BLACK
6
CONTINUOUS
10
6.05059
20
-2.71599
11
6.05398
21
-2.71531
0
LINE
8
BLACK
6
CONTINUOUS
10
6.05398
20
-2.71531
11
6.07169
21
-2.71531
0
LINE
8
BLACK
6
CONTINUOUS
10
6.07169
20
-2.71531
11
6.07508
21
-2.71599
0
LINE
8
BLACK
6
CONTINUOUS
10
5.06953
20
-2.73827
11
5.0026
21
-2.73827
0
LINE
8
BLACK
6
CONTINUOUS
10
5.0026
20
-2.73827
11
5.0026
21
-2.70677
0
LINE
8
BLACK
6
CONTINUOUS
10
5.0026
20
-2.70677
11
5.06953
21
-2.70677
0
LINE
8
BLACK
6
CONTINUOUS
10
5.06953
20
-2.70677
11
5.06953
21
-2.73827
0
LINE
8
BLACK
6
CONTINUOUS
10
5.7152
20
-2.73827
11
5.64827
21
-2.73827
0
LINE
8
BLACK
6
CONTINUOUS
10
5.64827
20
-2.73827
11
5.64827
21
-2.70677
0
LINE
8
BLACK
6
CONTINUOUS
10
5.64827
20
-2.70677
11
5.7152
21
-2.70677
0
LINE
8
BLACK
6
CONTINUOUS
10
5.7152
20
-2.70677
11
5.7152
21
-2.73827
  0
ENDSEC
  0
EOF
