<svg xmlns="http://www.w3.org/2000/svg" width="266" height="267" viewBox="0 0 266 267" fill="none">
<path d="M208.63 7.75536C189.584 4.35733 163.65 1.20093 133.001 1.20093C105.907 1.20093 82.5004 3.66724 64.2803 6.58638C34.1726 11.4092 11.7198 34.8145 6.86328 64.5707C3.75586 83.6148 1 107.674 1 133.201C1 159.339 3.88864 183.942 7.08858 203.198C11.8874 232.085 33.4314 255.08 62.8632 259.836C80.9069 262.753 104.534 265.201 133.001 265.201C165.218 265.201 191.236 262.065 209.977 258.664C234.922 254.137 254.442 235.675 258.97 210.294C262.184 192.275 265 166.879 265 133.201C265 100.31 262.314 75.3178 259.194 57.3828C254.627 31.1291 234.245 12.3256 208.63 7.75536Z" stroke="black" stroke-width="2"/>
</svg>